<svg width="568" height="486" viewBox="0 0 568 486" fill="none" xmlns="http://www.w3.org/2000/svg">
<g filter="url(#filter0_d_140_138)">
<path fill-rule="evenodd" clip-rule="evenodd" d="M255.979 9.3371C293.019 13.4471 328.479 19.8805 361.751 38.7337C400.97 60.9575 440.292 85.046 463.658 127.018C491.597 177.203 526.396 240.751 504.095 294.421C481.42 348.994 410.155 341.699 362.866 369.589C325.286 391.754 298.35 442.119 255.979 440.759C213.774 439.403 190.851 384.933 153.415 362.863C105.638 334.696 27.76 351.019 7.79488 294.445C-11.7756 238.99 49.5386 189.494 73.4441 136.253C92.6748 93.4238 97.769 38.6219 133.961 13.4577C169.489 -11.245 214.467 4.73084 255.979 9.3371Z" fill="#ECE9E6"/>
<path fill-rule="evenodd" clip-rule="evenodd" d="M273.748 69.4416C309.239 66.9736 342.339 75.1734 376.891 83.6487C419.466 94.092 470.284 91.0049 498.484 124.567C527.577 159.191 521.35 209.788 520.877 255.009C520.363 304.296 534.053 366.15 495.639 397.035C456.216 428.732 397.593 386.439 347.623 394.308C303.276 401.291 266.718 454.592 224.347 439.755C182.331 425.041 183.064 364.393 157.708 327.802C129.463 287.042 68.3723 263.453 67.8157 213.867C67.2626 164.585 114.79 127.368 155.14 99.0693C189.341 75.0836 232.076 72.3395 273.748 69.4416Z" fill="#2B6FC7"/>
</g>
<path d="M197.52 233.64C196.933 233.32 196.507 233.027 196.24 232.76C196.027 232.493 195.92 232.147 195.92 231.72C195.92 231.187 196.133 230.44 196.56 229.48C197.04 228.467 197.84 226.893 198.96 224.76C199.28 224.067 199.893 222.84 200.8 221.08C203.893 215.16 205.44 211.933 205.44 211.4C205.387 211.293 205.36 211.133 205.36 210.92C205.36 210.387 205.787 209.907 206.64 209.48C207.867 208.253 208.88 206.947 209.68 205.56C210.213 204.387 210.933 203 211.84 201.4C212.747 199.747 213.867 197.8 215.2 195.56C215.84 194.44 216.8 192.813 218.08 190.68C220.053 187.16 222.587 183.32 225.68 179.16C226.907 177.507 227.92 176.707 228.72 176.76C229.733 176.76 230.853 177.24 232.08 178.2C233.36 179.107 234.24 180.147 234.72 181.32C234.933 181.693 235.04 182.493 235.04 183.72C235.04 185.373 234.853 188.173 234.48 192.12C234.373 192.813 234.267 193.907 234.16 195.4C234 197.8 233.76 200.36 233.44 203.08C232.853 209.053 232.427 213.72 232.16 217.08C231.893 220.44 231.76 223.587 231.76 226.52C231.76 228.013 231.787 229.107 231.84 229.8V230.36L231.76 232.2C231.44 232.52 230.96 232.68 230.32 232.68C229.573 232.68 228.853 232.493 228.16 232.12C227.467 231.8 227.067 231.4 226.96 230.92C226.907 230.867 226.827 230.813 226.72 230.76C226.613 230.707 226.56 230.467 226.56 230.04L226.64 228.28L226.88 223.8L227.28 210.84L226.24 210.92C225.173 210.92 222.8 211.133 219.12 211.56C215.44 211.987 213.147 212.333 212.24 212.6C211.76 212.6 211.173 212.92 210.48 213.56C209.787 214.2 209.173 215.027 208.64 216.04C208.48 216.573 208.107 217.347 207.52 218.36C206.933 219.32 206.64 219.88 206.64 220.04C206.32 220.253 206.027 220.547 205.76 220.92C205.547 221.24 205.413 221.453 205.36 221.56C205.36 222.147 204.8 223.64 203.68 226.04C202.613 228.44 201.547 230.44 200.48 232.04L198.8 234.6L197.52 233.64ZM214.08 207.88C214.4 207.827 215.093 207.72 216.16 207.56C217.227 207.347 218.187 207.213 219.04 207.16C222.88 206.253 225.227 205.8 226.08 205.8C226.453 205.8 226.8 205.88 227.12 206.04C227.28 206.253 227.44 206.413 227.6 206.52C227.813 206.573 227.947 206.6 228 206.6C228.107 206.28 228.427 203.4 228.96 197.96C229.547 192.467 229.867 188.813 229.92 187L230.16 183C229.84 183 229.147 183.613 228.08 184.84C227.013 186.067 225.813 187.667 224.48 189.64C223.2 191.56 222.053 193.533 221.04 195.56C220.507 196.52 219.973 197.427 219.44 198.28C218.96 199.08 218.613 199.48 218.4 199.48C218.027 199.853 217.147 201.293 215.76 203.8C214.373 206.307 213.813 207.667 214.08 207.88ZM251.356 235.56C249.65 234.493 248.37 233.56 247.516 232.76C246.716 231.96 246.316 231.213 246.316 230.52C246.316 229.827 246.77 229.213 247.676 228.68C247.943 228.52 248.396 228.68 249.036 229.16C249.73 229.587 250.396 230.12 251.036 230.76C252.423 232.04 254.236 232.68 256.476 232.68C257.436 232.68 258.716 232.493 260.316 232.12C262.503 231.48 264.423 230.547 266.076 229.32C267.783 228.093 269.41 226.52 270.956 224.6C271.916 223.32 272.636 221.907 273.116 220.36C273.596 218.813 273.836 217.347 273.836 215.96C273.836 214.253 273.516 213 272.876 212.2C270.743 209.32 267.703 207.88 263.756 207.88C262.05 207.88 260.45 208.093 258.956 208.52L254.316 209.48C254.21 209.533 253.97 209.613 253.596 209.72C253.223 209.773 252.636 210.92 251.836 213.16C251.036 215.4 249.996 218.333 248.716 221.96C247.596 225.213 246.716 227.507 246.076 228.84C245.436 230.12 244.85 230.76 244.316 230.76C243.783 230.76 243.143 230.173 242.396 229C241.81 228.04 241.516 227.213 241.516 226.52C241.516 225.827 241.756 225.08 242.236 224.28C242.503 223.8 242.716 223.32 242.876 222.84C243.09 222.36 243.303 221.693 243.516 220.84C244.21 218.76 246.21 213.587 249.516 205.32C252.876 197.053 255.49 190.813 257.356 186.6C258.69 183.56 259.09 181.96 258.556 181.8C258.556 181.64 258.476 181.4 258.316 181.08C258.156 180.76 258.103 180.52 258.156 180.36C258.156 180.04 258.903 179.56 260.396 178.92C261.89 178.28 262.983 178.013 263.676 178.12H264.156C264.85 178.12 265.196 177.987 265.196 177.72C265.303 177.72 265.783 177.667 266.636 177.56C267.543 177.453 268.503 177.453 269.516 177.56C273.09 177.88 275.863 178.92 277.836 180.68C279.81 182.44 280.77 184.787 280.716 187.72C280.663 189.053 279.73 191.027 277.916 193.64C276.103 196.2 274.29 198.307 272.476 199.96C271.623 200.707 270.636 201.507 269.516 202.36C268.45 203.16 267.756 203.667 267.436 203.88L269.436 204.6C272.05 205.56 274.103 206.76 275.596 208.2C277.143 209.587 278.21 211.453 278.796 213.8C278.903 214.333 278.956 214.813 278.956 215.24C278.956 216.413 278.743 217.747 278.316 219.24C277.943 220.733 277.516 222.04 277.036 223.16C276.716 223.48 276.45 223.827 276.236 224.2C276.023 224.573 275.89 224.813 275.836 224.92C275.783 225.133 275.303 225.96 274.396 227.4C273.49 228.787 272.69 229.907 271.996 230.76C269.33 233.053 266.956 234.573 264.876 235.32C262.636 236.333 260.103 236.84 257.276 236.84C254.663 236.84 252.69 236.413 251.356 235.56ZM255.276 204.76C255.863 204.653 257.036 204.44 258.796 204.12C260.61 203.747 261.863 203.427 262.556 203.16C262.663 203.107 262.983 202.947 263.516 202.68C264.103 202.36 264.69 201.907 265.276 201.32C266.556 200.147 268.13 198.413 269.996 196.12C271.863 193.773 273.223 191.8 274.076 190.2C275.41 188.013 276.076 186.413 276.076 185.4C276.076 184.707 275.783 184.067 275.196 183.48C274.503 182.627 272.85 182.2 270.236 182.2C268.53 182.2 267.063 182.36 265.836 182.68C265.09 182.893 264.53 183.16 264.156 183.48C263.836 183.747 263.676 184.173 263.676 184.76C263.676 185.56 263.25 186.387 262.396 187.24C262.343 187.56 262.21 187.88 261.996 188.2C261.836 188.467 261.73 188.627 261.676 188.68C261.676 188.84 261.356 189.64 260.716 191.08C259.863 192.733 259.063 194.6 258.316 196.68C256.29 201.48 255.276 204.173 255.276 204.76ZM296.839 230.52C292.199 228.867 289.879 225.16 289.879 219.4C289.879 218.227 290.012 216.787 290.279 215.08C290.385 213.693 290.705 212.067 291.239 210.2C291.559 209.24 291.799 208.253 291.959 207.24C291.959 207.133 292.012 206.947 292.119 206.68C292.225 206.413 292.252 206.2 292.199 206.04C292.519 205.24 292.972 204.12 293.559 202.68C294.199 201.24 294.599 200.44 294.759 200.28C294.972 200.173 295.079 200.04 295.079 199.88C295.132 199.72 295.159 199.613 295.159 199.56C295.159 198.867 295.879 197.373 297.319 195.08C298.812 192.787 300.412 190.547 302.119 188.36C303.825 186.173 304.839 185.08 305.159 185.08C305.265 185.08 305.399 184.973 305.559 184.76C305.719 184.493 305.825 184.36 305.879 184.36C306.252 183.88 307.452 183.16 309.479 182.2C311.559 181.24 313.345 180.6 314.839 180.28C316.119 179.853 317.212 179.64 318.119 179.64C320.519 179.64 322.332 180.813 323.559 183.16C324.785 185.507 325.452 188.947 325.559 193.48C325.399 194.28 325.265 195.453 325.159 197C325.052 198.227 324.972 198.92 324.919 199.08C324.865 200.68 324.519 202.68 323.879 205.08C323.292 207.427 322.892 208.627 322.679 208.68C322.679 208.84 322.625 209.027 322.519 209.24C322.412 209.453 322.359 209.64 322.359 209.8C322.412 210.28 321.719 211.96 320.279 214.84C318.839 217.667 318.012 219.107 317.799 219.16C317.745 219.16 317.665 219.187 317.559 219.24C317.505 219.293 317.505 219.4 317.559 219.56C317.612 219.72 317.185 220.2 316.279 221C315.425 221.8 314.812 222.2 314.439 222.2C314.385 222.2 314.332 222.227 314.279 222.28C314.279 222.333 314.332 222.44 314.439 222.6C314.545 222.76 313.879 223.4 312.439 224.52C311.052 225.587 309.505 226.653 307.799 227.72C306.145 228.787 304.839 229.427 303.879 229.64C303.665 229.853 303.425 229.987 303.159 230.04C302.945 230.093 302.812 230.12 302.759 230.12C302.119 230.76 301.052 231.08 299.559 231.08C298.439 231.08 297.532 230.893 296.839 230.52ZM303.639 224.6C305.239 224.067 307.025 223 308.999 221.4C311.025 219.747 312.199 218.413 312.519 217.4C312.785 216.44 313.159 215.773 313.639 215.4C314.492 214.547 315.665 212.467 317.159 209.16C318.705 205.8 319.532 203.507 319.639 202.28C319.639 201.96 319.719 201.453 319.879 200.76C320.039 200.013 320.225 199.48 320.439 199.16C320.599 198.84 320.705 198.12 320.759 197C320.812 195.827 320.892 193.853 320.999 191.08C320.892 189 320.759 187.533 320.599 186.68C320.492 185.773 320.252 185.213 319.879 185C319.665 184.893 319.292 184.84 318.759 184.84C318.119 184.84 317.479 184.893 316.839 185C316.199 185.053 315.639 185.16 315.159 185.32C314.999 185.32 314.732 185.427 314.359 185.64C313.985 185.853 313.692 185.96 313.479 185.96C313.052 186.173 312.732 186.44 312.519 186.76C312.305 187.027 312.199 187.267 312.199 187.48C312.199 187.96 311.985 188.36 311.559 188.68C311.185 189 310.785 189.027 310.359 188.76C309.292 188.813 308.545 189.027 308.119 189.4C307.692 189.773 307.239 190.387 306.759 191.24C306.279 192.093 305.932 192.707 305.719 193.08C304.385 194.093 303.372 195.16 302.679 196.28C301.985 197.4 301.559 198.333 301.399 199.08C299.639 202.227 298.519 204.36 298.039 205.48C297.559 206.547 297.212 207.987 296.999 209.8C296.572 210.6 296.225 211.533 295.959 212.6C295.745 213.667 295.559 214.36 295.399 214.68C295.185 215.32 295.079 216.84 295.079 219.24C295.079 221.747 295.239 223.32 295.559 223.96C295.879 225.347 296.892 226.04 298.599 226.04C299.985 226.04 301.665 225.56 303.639 224.6ZM340.846 233.8C339.353 233.747 337.78 233.213 336.126 232.2C335.22 231.293 334.5 230.387 333.966 229.48C333.433 228.573 333.033 227.453 332.766 226.12C332.606 225.16 332.526 223.453 332.526 221C332.633 216.893 333.086 213.373 333.886 210.44C335.38 203.667 336.793 198.253 338.126 194.2C338.126 193.453 338.313 192.76 338.686 192.12C338.9 191.693 339.006 191.373 339.006 191.16C339.06 190.68 339.166 190.173 339.326 189.64C339.486 189.053 339.753 188.253 340.126 187.24L340.846 185.24L342.126 182.6C343.193 180.253 344.126 178.36 344.926 176.92C345.726 175.427 346.58 174.387 347.486 173.8H347.566C348.313 173.853 348.926 174.173 349.406 174.76C349.886 175.347 350.126 175.987 350.126 176.68C350.126 177.267 349.993 177.72 349.726 178.04C349.086 179.747 348.58 180.92 348.206 181.56C347.993 181.933 347.806 182.307 347.646 182.68C347.54 183.053 347.38 183.427 347.166 183.8C346.793 184.813 346.446 185.613 346.126 186.2C345.7 187.267 345.486 187.8 345.486 187.8C345.006 188.6 344.793 189.16 344.846 189.48C344.42 190.067 344.046 190.707 343.726 191.4C343.62 191.667 343.273 192.333 342.686 193.4C342.58 195 342.286 196.413 341.806 197.64C341.54 198.387 341.3 199.32 341.086 200.44C340.393 201.773 339.7 203.96 339.006 207C338.366 210.04 337.966 212.653 337.806 214.84C337.54 216.44 337.353 218.173 337.246 220.04C337.193 222.387 337.353 224.36 337.726 225.96C338.153 227.56 338.633 228.413 339.166 228.52C339.753 228.68 340.313 228.76 340.846 228.76C343.14 228.76 345.193 227.747 347.006 225.72C349.086 223.533 350.793 221.48 352.126 219.56C353.353 218.387 354.446 217.107 355.406 215.72C356.42 214.333 357.086 213.16 357.406 212.2C357.566 211.613 357.966 210.92 358.606 210.12V210.2L359.326 208.84C360.286 207.347 361.593 204.013 363.246 198.84C364.953 193.667 365.94 189.907 366.206 187.56C366.42 186.493 366.766 185.667 367.246 185.08C367.726 184.493 368.18 184.253 368.606 184.36C368.82 184.573 369.246 184.813 369.886 185.08C370.046 185.133 370.233 185.213 370.446 185.32C370.713 185.427 370.953 185.587 371.166 185.8C371.38 186.333 371.006 188.68 370.046 192.84C369.14 196.947 368.366 199.613 367.726 200.84C367.673 201.267 367.54 201.747 367.326 202.28C367.113 202.76 366.98 203.08 366.926 203.24L366.606 204.28C366.233 204.813 365.913 205.693 365.646 206.92C365.273 208.2 364.473 209.96 363.246 212.2C362.02 214.387 360.846 216.333 359.726 218.04C359.246 218.36 358.82 218.76 358.446 219.24C358.073 219.72 357.646 220.36 357.166 221.16L356.846 221.72C356.42 222.2 355.646 223.027 354.526 224.2C353.406 225.373 352.366 226.493 351.406 227.56L348.766 229.96L346.846 231.8C344.713 233.133 342.713 233.8 340.846 233.8ZM388.723 233.16C388.51 233.373 388.296 233.48 388.083 233.48C387.816 233.48 387.363 233.32 386.723 233C386.03 232.84 385.523 232.627 385.203 232.36C384.883 232.147 384.723 231.8 384.723 231.32C384.723 230.787 384.91 230.12 385.283 229.32C385.763 228.413 386.99 223.96 388.963 215.96C389.87 212.44 390.323 210.68 390.323 210.68C390.323 210.627 390.43 209.8 390.643 208.2C390.803 207.4 391.043 205.933 391.363 203.8C392.003 202.573 392.43 201.24 392.643 199.8C392.91 198.307 393.07 197.453 393.123 197.24C393.496 195.8 393.763 194.867 393.923 194.44L394.643 191.64L395.123 189.8C395.496 188.467 395.683 187.613 395.683 187.24V185.96H392.723L391.203 186.04L388.163 185.96C387.416 185.907 386.376 185.88 385.043 185.88C382.536 185.773 380.856 185.533 380.003 185.16C379.15 184.733 378.696 183.933 378.643 182.76C378.483 182.013 378.696 181.533 379.283 181.32C379.87 181.053 381.23 180.92 383.363 180.92C385.23 180.92 386.803 180.947 388.083 181C388.83 180.947 389.896 180.92 391.283 180.92C392.776 180.92 394.003 180.947 394.963 181C395.976 181.053 396.563 181.08 396.723 181.08C396.883 180.92 397.016 180.707 397.123 180.44C397.23 180.173 397.31 179.96 397.363 179.8C397.363 178.893 397.656 178.333 398.243 178.12C398.563 177.427 398.963 177.08 399.443 177.08C400.083 177.08 400.75 177.587 401.443 178.6C401.55 178.867 401.71 179.347 401.923 180.04C402.19 180.68 402.51 181.187 402.883 181.56C403.096 181.347 403.79 181.213 404.963 181.16C406.136 181.107 406.963 181.053 407.443 181C408.456 181 409.496 180.973 410.563 180.92C411.63 180.813 412.35 180.76 412.723 180.76C413.203 180.493 413.95 180.36 414.963 180.36C415.443 180.36 416.11 180.413 416.963 180.52C418.19 180.52 419.043 180.573 419.523 180.68C420.056 180.787 420.403 180.973 420.563 181.24C420.563 181.827 420.696 182.253 420.963 182.52C421.176 182.68 421.283 182.84 421.283 183C421.283 183.107 421.176 183.347 420.963 183.72C420.59 184.2 419.63 184.44 418.083 184.44L416.403 184.52C415.23 184.627 414.376 184.68 413.843 184.68C411.71 185.107 408.643 185.4 404.643 185.56C402.456 185.56 401.363 185.773 401.363 186.2C401.043 186.2 400.43 187.933 399.523 191.4C399.203 192.68 398.856 193.853 398.483 194.92C398.163 195.933 397.896 196.627 397.683 197C397.843 197.213 397.923 197.453 397.923 197.72C397.923 197.987 397.763 198.573 397.443 199.48C397.283 200.067 397.096 200.653 396.883 201.24C396.67 201.773 396.563 202.2 396.563 202.52C396.51 202.733 396.35 203.267 396.083 204.12C395.87 204.92 395.683 205.827 395.523 206.84C395.256 209.4 394.91 210.893 394.483 211.32C394.43 211.427 394.296 211.64 394.083 211.96C393.923 212.28 393.843 212.627 393.843 213C393.843 213.747 393.656 215.08 393.283 217C392.91 218.867 392.616 219.88 392.403 220.04C392.563 220.04 392.643 220.2 392.643 220.52C392.643 220.893 392.483 221.453 392.163 222.2C392.163 222.627 392.083 223.133 391.923 223.72C391.763 224.307 391.683 224.707 391.683 224.92L390.883 227.32C389.656 231 388.936 232.947 388.723 233.16Z" fill="white"/>
<path d="M342.88 324.84C342.88 325.053 342.693 325.16 342.32 325.16C342.053 325.16 341.733 325.053 341.36 324.84C340.987 324.627 340.693 324.333 340.48 323.96C340.053 323.053 339.84 321.933 339.84 320.6L339.92 317.32C341.573 307.613 343.52 297.853 345.76 288.04C346.507 285.427 347.12 282.947 347.6 280.6C348.133 278.253 348.453 276.76 348.56 276.12C348.56 275.96 348.4 276.04 348.08 276.36C347.813 276.627 347.547 276.973 347.28 277.4C347.013 277.773 346.907 278.04 346.96 278.2L344.96 281.16C344.64 281.48 343.893 282.707 342.72 284.84C341.92 286.547 341.2 287.88 340.56 288.84L338.32 293.08C336.667 296.12 335.653 297.96 335.28 298.6C334.747 299.4 333.973 300.787 332.96 302.76C332.427 304.04 331.467 305.56 330.08 307.32C329.653 307.907 329.227 308.547 328.8 309.24C328.427 309.933 328.187 310.387 328.08 310.6C328.08 310.867 327.52 311.773 326.4 313.32C325.333 314.867 324.347 316.147 323.44 317.16C322.213 318.44 321.2 319.373 320.4 319.96C319.6 320.493 318.853 320.76 318.16 320.76C317.253 320.76 316.267 320.253 315.2 319.24C314.507 318.493 314 317.613 313.68 316.6C313.413 315.587 313.28 314.333 313.28 312.84C313.28 311.507 313.467 309.267 313.84 306.12C313.893 305.853 314.4 303 315.36 297.56C316.373 292.067 316.987 289.053 317.2 288.52C317.253 288.2 317.28 287.827 317.28 287.4C317.28 286.92 317.2 286.68 317.04 286.68C316.88 286.68 316.587 287.027 316.16 287.72C316 287.933 315.04 289.427 313.28 292.2C311.573 294.973 309.733 298.52 307.76 302.84C304.667 308.547 302.373 312.84 300.88 315.72C299.387 318.547 298.293 320.573 297.6 321.8C296.693 323.56 296.16 324.52 296 324.68C295.2 324.68 294.187 324.013 292.96 322.68C292.8 322.36 292.72 322.067 292.72 321.8C292.72 321.427 292.88 320.813 293.2 319.96C293.573 319.107 294.08 317.987 294.72 316.6C296.373 313.347 297.467 311.507 298 311.08C298.64 310.227 299.013 309.293 299.12 308.28C299.813 307.32 300.8 305.587 302.08 303.08C302.88 301.8 303.813 300.2 304.88 298.28C306 296.36 306.987 294.52 307.84 292.76L310.08 288.84C312.16 285.213 313.813 282.413 315.04 280.44C316.32 278.467 317.28 277.16 317.92 276.52C318.773 275.507 319.2 274.707 319.2 274.12C319.2 273 319.413 271.987 319.84 271.08C320.32 270.12 320.8 269.693 321.28 269.8C321.92 269.8 322.427 269.88 322.8 270.04C323.227 270.147 323.653 270.467 324.08 271C324.187 271.16 324.347 271.427 324.56 271.8C324.827 272.12 325.013 272.493 325.12 272.92C325.28 273.293 325.36 273.773 325.36 274.36C325.36 275 325.28 275.8 325.12 276.76C325.067 277.453 324.853 279.027 324.48 281.48C324.267 282.653 324.16 283.373 324.16 283.64C322.773 287.853 321.52 293.133 320.4 299.48C319.333 305.773 318.8 310.2 318.8 312.76C318.8 313.347 318.853 313.747 318.96 313.96C319.333 314.227 319.653 314.253 319.92 314.04C320.24 313.827 320.693 313.133 321.28 311.96C321.973 310.68 323.147 309.027 324.8 307C324.907 306.84 325.947 305.08 327.92 301.72C332.827 293.667 337.6 285.587 342.24 277.48L344.32 274.2C345.12 272.92 345.893 271.747 346.64 270.68C347.387 269.56 347.973 268.84 348.4 268.52C348.933 268.093 349.44 267.88 349.92 267.88C350.933 267.88 351.84 268.493 352.64 269.72C353.44 270.947 353.84 272.493 353.84 274.36C353.84 275.8 353.547 278.013 352.96 281C352.373 283.933 351.6 286.893 350.64 289.88C350.32 291.373 349.867 293.24 349.28 295.48C348.693 297.72 348.08 299.747 347.44 301.56C347.333 302.467 347.12 303.613 346.8 305C346.747 305.267 346.587 306.093 346.32 307.48C346.107 308.813 346.053 309.72 346.16 310.2C345.36 311.64 344.96 314.52 344.96 318.84L344.72 320.68C344.613 322.173 344.507 323.187 344.4 323.72C344.293 324.253 344.133 324.493 343.92 324.44C343.813 324.387 343.653 324.36 343.44 324.36C343.067 324.36 342.88 324.52 342.88 324.84ZM368.858 322.92C367.685 322.867 366.591 322.573 365.578 322.04C364.565 321.507 363.418 320.733 362.138 319.72L360.538 318.6C359.578 317.64 358.831 316.653 358.298 315.64C357.818 314.573 357.418 313.213 357.098 311.56C356.991 310.92 356.938 310.36 356.938 309.88C356.938 308.333 357.205 306.52 357.738 304.44C358.271 302.307 358.858 300.573 359.498 299.24C360.671 296.413 363.258 291.88 367.258 285.64C367.471 285.427 367.605 285.293 367.658 285.24C367.765 285.133 367.791 285.08 367.738 285.08C367.738 285.027 367.738 285 367.738 285C367.738 284.627 368.511 282.973 370.058 280.04C370.965 279.08 371.418 278.253 371.418 277.56C371.418 277.187 371.338 276.893 371.178 276.68C370.965 276.413 371.445 275.773 372.618 274.76C373.845 273.693 375.365 272.653 377.178 271.64C378.618 270.52 380.031 269.96 381.418 269.96C381.845 269.96 382.191 270.04 382.458 270.2C382.778 270.307 382.965 270.493 383.018 270.76C383.018 271.08 384.085 270.973 386.218 270.44C387.178 270.227 387.871 270.093 388.298 270.04C388.511 269.773 389.045 269.56 389.898 269.4C390.805 269.187 392.058 268.973 393.658 268.76C394.511 268.813 395.391 268.813 396.298 268.76C397.205 268.707 397.791 268.653 398.058 268.6C398.485 268.44 398.938 268.52 399.418 268.84C399.951 269.107 400.405 269.667 400.778 270.52C400.938 270.893 401.018 271.24 401.018 271.56C401.018 272.147 400.645 272.627 399.898 273C399.205 273.32 397.978 273.587 396.218 273.8C394.458 274.013 393.365 274.147 392.938 274.2C390.005 274.52 386.911 275.027 383.658 275.72C381.578 276.147 380.058 276.68 379.098 277.32C378.191 277.96 377.151 279.187 375.978 281C375.605 281.267 375.125 281.96 374.538 283.08C373.951 284.147 373.365 285.267 372.778 286.44C372.618 286.653 372.431 286.92 372.218 287.24C372.005 287.56 371.738 287.907 371.418 288.28C369.871 290.36 368.805 291.88 368.218 292.84C367.631 293.747 367.418 294.307 367.578 294.52C367.738 294.573 368.031 294.653 368.458 294.76C368.938 294.867 369.338 294.947 369.658 295C370.138 294.733 370.805 294.547 371.658 294.44C372.511 294.333 373.125 294.227 373.498 294.12C381.978 291.933 386.778 290.76 387.898 290.6C388.378 290.28 388.831 290.12 389.258 290.12C390.218 290.12 391.071 290.76 391.818 292.04C391.978 292.36 392.058 292.653 392.058 292.92C392.058 293.4 391.685 293.853 390.938 294.28C390.191 294.707 388.778 295.24 386.698 295.88C384.618 296.467 382.111 297.16 379.178 297.96L376.618 298.68C373.151 299.693 370.458 300.2 368.538 300.2C366.885 300.2 366.085 299.747 366.138 298.84C365.605 298.573 364.991 299.16 364.298 300.6C363.658 302.04 363.098 303.827 362.618 305.96C362.138 308.04 361.898 309.8 361.898 311.24C361.898 311.987 361.978 312.573 362.138 313C362.618 314.333 363.205 315.347 363.898 316.04C364.645 316.733 365.871 317.32 367.578 317.8C367.951 317.853 368.405 317.907 368.938 317.96C369.525 318.013 370.191 318.04 370.938 318.04C372.005 318.04 373.071 317.827 374.138 317.4C376.858 316.92 379.178 316.387 381.098 315.8C383.071 315.213 384.271 314.787 384.698 314.52C385.018 314.36 385.285 314.253 385.498 314.2C385.711 314.147 385.925 314.12 386.138 314.12L386.058 314.28C386.058 314.28 386.058 314.307 386.058 314.36C386.058 314.36 386.085 314.36 386.138 314.36C386.298 314.36 386.778 313.907 387.578 313C388.485 312.253 389.711 311.533 391.258 310.84C392.858 310.147 393.685 309.987 393.738 310.36C393.845 310.68 393.898 310.947 393.898 311.16C393.898 312.173 393.258 313.4 391.978 314.84C390.751 316.227 389.071 317.533 386.938 318.76C384.325 320.147 381.391 321.16 378.138 321.8C374.938 322.493 371.845 322.867 368.858 322.92Z" fill="white"/>
<defs>
<filter id="filter0_d_140_138" x="0" y="0" width="526.838" height="450.351" filterUnits="userSpaceOnUse" color-interpolation-filters="sRGB">
<feFlood flood-opacity="0" result="BackgroundImageFix"/>
<feColorMatrix in="SourceAlpha" type="matrix" values="0 0 0 0 0 0 0 0 0 0 0 0 0 0 0 0 0 0 127 0" result="hardAlpha"/>
<feOffset dy="4"/>
<feGaussianBlur stdDeviation="2"/>
<feComposite in2="hardAlpha" operator="out"/>
<feColorMatrix type="matrix" values="0 0 0 0 0 0 0 0 0 0 0 0 0 0 0 0 0 0 0.25 0"/>
<feBlend mode="normal" in2="BackgroundImageFix" result="effect1_dropShadow_140_138"/>
<feBlend mode="normal" in="SourceGraphic" in2="effect1_dropShadow_140_138" result="shape"/>
</filter>
</defs>
</svg>
