<svg width="559" height="382" viewBox="0 0 559 382" fill="none" xmlns="http://www.w3.org/2000/svg">
<g filter="url(#filter0_d_416_1720)">
<path fill-rule="evenodd" clip-rule="evenodd" d="M83.5811 112.802C110.36 98.3427 175.98 118.729 217.059 113.046C275.391 104.977 290.054 57.8858 361.635 74.3373C434.744 91.1403 473.948 139.518 484.485 174.51C493.68 205.049 455.922 224.493 410.435 236.408C374.271 245.88 321.302 233.756 271.954 230.178C190.751 224.291 99.1044 247.191 38.5277 209.445C-21.2363 172.206 39.8314 136.425 83.5811 112.802Z" fill="#ECE9E6"/>
<path fill-rule="evenodd" clip-rule="evenodd" d="M467.416 269.567C439.412 282.441 375.788 258.312 334.306 261.604C275.403 266.279 256.562 312.4 186.64 291.851C115.224 270.864 80.4528 220.344 73.0766 184.834C66.639 153.842 106.04 136.632 152.476 127.379C189.394 120.023 241.14 135.178 290.04 141.601C370.506 152.169 463.965 134.629 521.005 175.781C577.28 216.38 513.167 248.536 467.416 269.567Z" fill="#2B6FC7"/>
<path d="M221.553 225.221C221.109 224.974 220.862 224.703 220.813 224.407C220.788 224.111 220.961 223.593 221.331 222.853C221.701 222.113 222.281 220.966 223.07 219.412C223.662 218.302 224.106 217.439 224.402 216.822C224.723 216.181 224.932 215.724 225.031 215.453C225.154 215.182 225.216 215.009 225.216 214.935C225.167 214.713 225.191 214.54 225.29 214.417C225.389 214.269 225.549 214.146 225.771 214.047C225.894 213.924 226.092 213.702 226.363 213.381C226.659 213.06 226.93 212.678 227.177 212.234C227.399 211.716 227.658 211.186 227.954 210.643C228.25 210.1 228.645 209.422 229.138 208.608C229.631 207.769 230.273 206.684 231.062 205.352C231.555 204.489 232.098 203.613 232.69 202.725C233.282 201.812 233.911 200.912 234.577 200.024C234.848 199.679 235.095 199.407 235.317 199.21C235.539 198.988 235.761 198.889 235.983 198.914C236.279 198.914 236.612 199.013 236.982 199.21C237.377 199.407 237.734 199.666 238.055 199.987C238.376 200.308 238.61 200.653 238.758 201.023C238.881 201.22 238.931 201.64 238.906 202.281C238.881 202.922 238.832 203.699 238.758 204.612C238.684 205.525 238.598 206.499 238.499 207.535C238.425 208.546 238.314 209.743 238.166 211.124C238.018 212.505 237.87 213.948 237.722 215.453C237.599 216.958 237.5 218.413 237.426 219.819C237.352 221.2 237.352 222.409 237.426 223.445C237.451 223.667 237.451 223.877 237.426 224.074C237.401 224.271 237.389 224.432 237.389 224.555C237.241 224.703 236.994 224.765 236.649 224.74C236.328 224.74 236.008 224.666 235.687 224.518C235.391 224.37 235.218 224.185 235.169 223.963C235.095 223.889 235.046 223.79 235.021 223.667C235.021 223.519 235.033 223.223 235.058 222.779C235.083 222.335 235.107 221.632 235.132 220.67L235.317 214.676L234.836 214.713C234.614 214.713 234.195 214.738 233.578 214.787C232.961 214.836 232.295 214.91 231.58 215.009C230.865 215.083 230.199 215.169 229.582 215.268C228.99 215.342 228.583 215.416 228.361 215.49C228.139 215.49 227.868 215.638 227.547 215.934C227.251 216.23 226.967 216.612 226.696 217.081C226.597 217.426 226.412 217.796 226.141 218.191C225.894 218.561 225.771 218.808 225.771 218.931C225.598 219.054 225.45 219.202 225.327 219.375C225.228 219.548 225.179 219.634 225.179 219.634C225.179 219.782 225.056 220.152 224.809 220.744C224.587 221.311 224.303 221.953 223.958 222.668C223.613 223.359 223.267 223.963 222.922 224.481L222.145 225.665L221.553 225.221ZM229.212 213.307C229.212 213.307 229.335 213.282 229.582 213.233C229.853 213.184 230.162 213.134 230.507 213.085C230.877 213.011 231.21 212.974 231.506 212.974C232.542 212.727 233.294 212.567 233.763 212.493C234.232 212.394 234.552 212.345 234.725 212.345C234.922 212.345 235.095 212.382 235.243 212.456C235.342 212.579 235.428 212.653 235.502 212.678C235.601 212.703 235.65 212.715 235.65 212.715C235.675 212.666 235.712 212.382 235.761 211.864C235.81 211.346 235.872 210.705 235.946 209.94C236.045 209.175 236.131 208.386 236.205 207.572C236.304 206.733 236.378 205.969 236.427 205.278C236.476 204.563 236.513 204.02 236.538 203.65C236.563 203.181 236.587 202.762 236.612 202.392C236.637 201.997 236.649 201.8 236.649 201.8C236.501 201.8 236.18 202.071 235.687 202.614C235.218 203.157 234.688 203.872 234.096 204.76C233.504 205.648 232.949 206.598 232.431 207.609C232.184 208.078 231.95 208.497 231.728 208.867C231.506 209.237 231.333 209.422 231.21 209.422C231.161 209.471 231.013 209.693 230.766 210.088C230.544 210.458 230.297 210.89 230.026 211.383C229.755 211.852 229.533 212.283 229.36 212.678C229.187 213.048 229.138 213.258 229.212 213.307ZM246.452 226.109C245.392 225.418 244.676 224.814 244.306 224.296C243.936 223.803 244.084 223.346 244.75 222.927C244.898 222.828 245.133 222.915 245.453 223.186C245.799 223.433 246.082 223.667 246.304 223.889C246.798 224.333 247.402 224.604 248.117 224.703C248.857 224.826 249.684 224.765 250.596 224.518C251.632 224.197 252.533 223.753 253.297 223.186C254.087 222.594 254.827 221.879 255.517 221.04C256.035 220.374 256.393 219.659 256.59 218.894C256.788 218.105 256.862 217.377 256.812 216.711C256.788 216.045 256.652 215.576 256.405 215.305C255.789 214.442 254.925 213.85 253.815 213.529C252.73 213.184 251.447 213.208 249.967 213.603C249.795 213.628 249.536 213.677 249.19 213.751C248.845 213.825 248.537 213.899 248.265 213.973C247.994 214.022 247.846 214.047 247.821 214.047C247.649 214.096 247.513 214.158 247.414 214.232C247.316 214.281 247.192 214.466 247.044 214.787C246.921 215.083 246.724 215.626 246.452 216.415C246.181 217.18 245.774 218.314 245.231 219.819C244.713 221.324 244.294 222.397 243.973 223.038C243.677 223.655 243.406 223.938 243.159 223.889C242.937 223.815 242.654 223.544 242.308 223.075C242.111 222.73 241.988 222.397 241.938 222.076C241.889 221.731 241.988 221.336 242.234 220.892C242.358 220.67 242.456 220.473 242.53 220.3C242.604 220.103 242.703 219.77 242.826 219.301C242.95 218.931 243.184 218.29 243.529 217.377C243.899 216.44 244.331 215.354 244.824 214.121C245.318 212.863 245.836 211.568 246.378 210.236C246.921 208.904 247.439 207.646 247.932 206.462C248.45 205.278 248.882 204.279 249.227 203.465C249.573 202.7 249.782 202.145 249.856 201.8C249.93 201.455 249.906 201.27 249.782 201.245C249.782 201.122 249.745 201.011 249.671 200.912C249.597 200.789 249.573 200.678 249.597 200.579C249.597 200.48 249.758 200.345 250.078 200.172C250.424 199.999 250.794 199.839 251.188 199.691C251.608 199.543 251.928 199.494 252.15 199.543C252.274 199.543 252.422 199.543 252.594 199.543C252.767 199.518 252.853 199.457 252.853 199.358C252.927 199.358 253.162 199.333 253.556 199.284C253.951 199.235 254.383 199.235 254.851 199.284C256.504 199.432 257.787 199.913 258.699 200.727C259.612 201.516 260.056 202.602 260.031 203.983C260.007 204.402 259.785 204.97 259.365 205.685C258.971 206.4 258.477 207.116 257.885 207.831C257.318 208.546 256.763 209.151 256.22 209.644C255.9 209.915 255.554 210.199 255.184 210.495C254.839 210.766 254.531 211.001 254.259 211.198C254.013 211.371 253.889 211.457 253.889 211.457C253.889 211.457 253.988 211.494 254.185 211.568C254.383 211.642 254.592 211.716 254.814 211.79C255.949 212.209 256.886 212.74 257.626 213.381C258.366 214.022 258.872 214.91 259.143 216.045C259.242 216.415 259.242 216.871 259.143 217.414C259.069 217.957 258.958 218.499 258.81 219.042C258.662 219.56 258.502 220.004 258.329 220.374C258.157 220.547 258.021 220.732 257.922 220.929C257.824 221.102 257.774 221.188 257.774 221.188C257.774 221.237 257.676 221.435 257.478 221.78C257.281 222.101 257.047 222.458 256.775 222.853C256.504 223.248 256.245 223.593 255.998 223.889C255.752 224.086 255.456 224.321 255.11 224.592C254.79 224.863 254.42 225.122 254 225.369C253.606 225.616 253.174 225.825 252.705 225.998C252.015 226.294 251.262 226.491 250.448 226.59C249.659 226.713 248.907 226.726 248.191 226.627C247.476 226.553 246.896 226.38 246.452 226.109ZM248.265 211.864C248.265 211.864 248.487 211.827 248.931 211.753C249.4 211.654 249.906 211.556 250.448 211.457C250.991 211.334 251.386 211.223 251.632 211.124C251.756 211.05 251.928 210.951 252.15 210.828C252.397 210.705 252.644 210.52 252.89 210.273C253.236 209.952 253.667 209.496 254.185 208.904C254.728 208.287 255.258 207.646 255.776 206.98C256.294 206.289 256.689 205.673 256.96 205.13C257.528 204.242 257.836 203.588 257.885 203.169C257.935 202.725 257.799 202.343 257.478 202.022C257.256 201.751 256.874 201.578 256.331 201.504C255.813 201.405 255.258 201.381 254.666 201.43C254.074 201.455 253.569 201.529 253.149 201.652C252.829 201.751 252.582 201.874 252.409 202.022C252.237 202.145 252.15 202.343 252.15 202.614C252.15 202.836 252.076 203.058 251.928 203.28C251.805 203.477 251.682 203.638 251.558 203.761C251.534 203.934 251.472 204.094 251.373 204.242C251.275 204.365 251.225 204.427 251.225 204.427C251.225 204.526 251.053 204.933 250.707 205.648C250.362 206.363 250.017 207.19 249.671 208.127C249.227 209.188 248.882 210.051 248.635 210.717C248.389 211.358 248.265 211.741 248.265 211.864ZM267.488 223.778C266.205 223.309 265.293 222.471 264.75 221.262C264.232 220.053 264.133 218.512 264.454 216.637C264.503 215.922 264.614 215.28 264.787 214.713C264.984 214.146 265.132 213.578 265.231 213.011C265.231 212.962 265.256 212.888 265.305 212.789C265.354 212.666 265.367 212.555 265.342 212.456C265.391 212.308 265.502 212.037 265.675 211.642C265.848 211.223 266.02 210.828 266.193 210.458C266.366 210.063 266.477 209.841 266.526 209.792C266.649 209.743 266.711 209.681 266.711 209.607C266.711 209.508 266.711 209.459 266.711 209.459C266.711 209.262 266.847 208.904 267.118 208.386C267.389 207.868 267.735 207.301 268.154 206.684C268.598 206.043 269.042 205.426 269.486 204.834C269.93 204.242 270.325 203.749 270.67 203.354C271.015 202.959 271.237 202.762 271.336 202.762C271.41 202.762 271.472 202.713 271.521 202.614C271.57 202.515 271.62 202.454 271.669 202.429C271.743 202.33 271.928 202.195 272.224 202.022C272.545 201.849 272.915 201.664 273.334 201.467C273.753 201.27 274.173 201.085 274.592 200.912C275.036 200.739 275.443 200.616 275.813 200.542C276.898 200.147 277.799 200.135 278.514 200.505C279.229 200.85 279.772 201.541 280.142 202.577C280.537 203.613 280.746 204.97 280.771 206.647C280.672 207.19 280.611 207.708 280.586 208.201C280.586 208.67 280.549 209.015 280.475 209.237C280.45 209.78 280.364 210.396 280.216 211.087C280.068 211.778 279.92 212.382 279.772 212.9C279.624 213.393 279.513 213.652 279.439 213.677C279.439 213.776 279.414 213.874 279.365 213.973C279.316 214.047 279.291 214.121 279.291 214.195C279.316 214.318 279.229 214.602 279.032 215.046C278.835 215.49 278.6 215.983 278.329 216.526C278.058 217.069 277.811 217.537 277.589 217.932C277.367 218.327 277.231 218.524 277.182 218.524C277.182 218.524 277.157 218.536 277.108 218.561C277.059 218.561 277.046 218.61 277.071 218.709C277.096 218.758 277.009 218.882 276.812 219.079C276.615 219.276 276.393 219.474 276.146 219.671C275.924 219.844 275.751 219.93 275.628 219.93C275.628 219.93 275.603 219.942 275.554 219.967C275.529 219.992 275.554 220.041 275.628 220.115C275.653 220.164 275.48 220.349 275.11 220.67C274.765 220.966 274.321 221.311 273.778 221.706C273.235 222.076 272.68 222.434 272.113 222.779C271.57 223.1 271.114 223.297 270.744 223.371C270.67 223.47 270.596 223.531 270.522 223.556C270.448 223.556 270.349 223.568 270.226 223.593C270.053 223.766 269.794 223.889 269.449 223.963C269.128 224.037 268.783 224.049 268.413 224C268.068 223.975 267.759 223.901 267.488 223.778ZM270.633 221.04C271.126 220.867 271.669 220.584 272.261 220.189C272.853 219.77 273.383 219.338 273.852 218.894C274.345 218.425 274.641 218.031 274.74 217.71C274.814 217.439 274.888 217.241 274.962 217.118C275.061 216.97 275.159 216.859 275.258 216.785C275.455 216.588 275.702 216.218 275.998 215.675C276.319 215.132 276.627 214.528 276.923 213.862C277.219 213.196 277.466 212.579 277.663 212.012C277.885 211.42 278.008 210.988 278.033 210.717C278.033 210.668 278.07 210.458 278.144 210.088C278.218 209.718 278.304 209.447 278.403 209.274C278.452 209.175 278.489 209.052 278.514 208.904C278.539 208.731 278.563 208.398 278.588 207.905C278.613 207.412 278.637 206.622 278.662 205.537C278.637 204.649 278.588 203.983 278.514 203.539C278.465 203.095 278.341 202.824 278.144 202.725C278.095 202.676 277.922 202.651 277.626 202.651C277.33 202.651 277.022 202.676 276.701 202.725C276.38 202.75 276.134 202.799 275.961 202.873C275.838 202.898 275.714 202.959 275.591 203.058C275.468 203.132 275.332 203.169 275.184 203.169C274.987 203.268 274.839 203.391 274.74 203.539C274.641 203.687 274.592 203.798 274.592 203.872C274.592 204.069 274.506 204.254 274.333 204.427C274.16 204.575 273.963 204.587 273.741 204.464C273.346 204.489 273.05 204.563 272.853 204.686C272.656 204.785 272.471 204.97 272.298 205.241C272.15 205.512 271.916 205.919 271.595 206.462C270.904 207.005 270.411 207.535 270.115 208.053C269.819 208.571 269.646 208.966 269.597 209.237C269.079 210.174 268.684 210.902 268.413 211.42C268.142 211.913 267.944 212.357 267.821 212.752C267.722 213.147 267.636 213.628 267.562 214.195C267.34 214.614 267.18 215.058 267.081 215.527C266.982 215.996 266.896 216.304 266.822 216.452C266.773 216.575 266.736 216.834 266.711 217.229C266.686 217.624 266.674 218.068 266.674 218.561C266.674 219.054 266.686 219.511 266.711 219.93C266.76 220.325 266.822 220.596 266.896 220.744C267.044 221.311 267.439 221.62 268.08 221.669C268.746 221.718 269.597 221.509 270.633 221.04ZM287.841 225.295C287.447 225.27 287.077 225.196 286.731 225.073C286.386 224.95 286.028 224.777 285.658 224.555C285.264 224.16 284.931 223.753 284.659 223.334C284.413 222.915 284.228 222.384 284.104 221.743C284.055 221.398 284.018 221.028 283.993 220.633C283.993 220.238 283.993 219.819 283.993 219.375C284.018 218.61 284.08 217.796 284.178 216.933C284.277 216.045 284.425 215.231 284.622 214.491C285.066 212.444 285.461 210.791 285.806 209.533C286.176 208.275 286.435 207.424 286.583 206.98C286.583 206.635 286.67 206.314 286.842 206.018C286.941 205.821 286.99 205.673 286.99 205.574C287.015 205.352 287.052 205.13 287.101 204.908C287.175 204.686 287.311 204.304 287.508 203.761L287.841 202.836L288.433 201.615C288.68 201.097 288.927 200.567 289.173 200.024C289.445 199.481 289.728 198.988 290.024 198.544C290.32 198.075 290.616 197.742 290.912 197.545H290.949C291.27 197.545 291.529 197.668 291.726 197.915C291.948 198.137 292.084 198.408 292.133 198.729C292.183 199.025 292.121 199.284 291.948 199.506C291.899 199.654 291.8 199.913 291.652 200.283C291.504 200.628 291.369 200.912 291.245 201.134C291.147 201.307 291.06 201.479 290.986 201.652C290.937 201.825 290.863 201.997 290.764 202.17C290.69 202.367 290.616 202.565 290.542 202.762C290.468 202.935 290.382 203.107 290.283 203.28C290.259 203.379 290.209 203.514 290.135 203.687C290.061 203.835 290.012 203.946 289.987 204.02C289.889 204.168 289.802 204.316 289.728 204.464C289.679 204.587 289.667 204.698 289.691 204.797C289.494 205.068 289.321 205.364 289.173 205.685C289.124 205.833 289.05 205.981 288.951 206.129C288.877 206.277 288.791 206.437 288.692 206.61C288.668 206.98 288.618 207.35 288.544 207.72C288.47 208.065 288.384 208.349 288.285 208.571C288.236 208.719 288.174 208.929 288.1 209.2C288.051 209.447 288.002 209.669 287.952 209.866C287.73 210.31 287.508 210.951 287.286 211.79C287.064 212.604 286.879 213.455 286.731 214.343C286.583 215.206 286.485 215.934 286.435 216.526C286.361 216.945 286.3 217.365 286.25 217.784C286.226 218.203 286.201 218.586 286.176 218.931C286.176 219.671 286.213 220.337 286.287 220.929C286.361 221.521 286.472 221.99 286.62 222.335C286.768 222.656 286.916 222.828 287.064 222.853C287.434 222.927 287.817 222.952 288.211 222.927C288.606 222.878 289.013 222.754 289.432 222.557C289.876 222.335 290.296 222.002 290.69 221.558C291.036 221.188 291.43 220.744 291.874 220.226C292.343 219.683 292.738 219.178 293.058 218.709C293.626 218.166 294.131 217.574 294.575 216.933C295.044 216.292 295.352 215.749 295.5 215.305C295.574 215.034 295.759 214.713 296.055 214.343V214.38L296.388 213.751C296.61 213.406 296.882 212.814 297.202 211.975C297.548 211.112 297.881 210.162 298.201 209.126C298.547 208.09 298.843 207.103 299.089 206.166C299.336 205.204 299.496 204.452 299.57 203.909C299.669 203.366 299.829 202.972 300.051 202.725C300.298 202.478 300.508 202.38 300.68 202.429C300.779 202.528 300.976 202.639 301.272 202.762C301.396 202.811 301.494 202.848 301.568 202.873C301.667 202.898 301.766 202.972 301.864 203.095C301.914 203.218 301.889 203.588 301.79 204.205C301.692 204.822 301.544 205.537 301.346 206.351C301.174 207.14 300.989 207.88 300.791 208.571C300.594 209.262 300.421 209.755 300.273 210.051C300.249 210.224 300.187 210.421 300.088 210.643C300.014 210.84 299.953 211.013 299.903 211.161C299.879 211.26 299.842 211.371 299.792 211.494C299.768 211.593 299.755 211.642 299.755 211.642C299.731 211.691 299.669 211.827 299.57 212.049C299.472 212.246 299.385 212.518 299.311 212.863C299.188 213.282 298.954 213.825 298.608 214.491C298.288 215.132 297.93 215.774 297.535 216.415C297.165 217.056 296.845 217.587 296.573 218.006C296.327 218.179 296.105 218.401 295.907 218.672C295.735 218.919 295.562 219.178 295.389 219.449L295.241 219.708C295.241 219.708 295.143 219.819 294.945 220.041C294.748 220.238 294.501 220.485 294.205 220.781C293.934 221.077 293.65 221.373 293.354 221.669C293.083 221.965 292.873 222.212 292.725 222.409L291.504 223.519L290.616 224.37C289.63 224.987 288.705 225.295 287.841 225.295ZM309.984 224.999C309.886 225.098 309.775 225.135 309.651 225.11C309.528 225.11 309.331 225.048 309.059 224.925C308.591 224.802 308.295 224.617 308.171 224.37C308.073 224.148 308.147 223.766 308.393 223.223C308.492 223.05 308.615 222.68 308.763 222.113C308.936 221.521 309.121 220.843 309.318 220.078C309.516 219.313 309.713 218.549 309.91 217.784C310.108 217.019 310.28 216.353 310.428 215.786C310.576 215.194 310.675 214.799 310.724 214.602C310.724 214.405 310.774 214.01 310.872 213.418C310.996 212.826 311.107 212.16 311.205 211.42C311.477 210.902 311.662 210.335 311.76 209.718C311.884 209.101 311.97 208.657 312.019 208.386C312.118 207.991 312.229 207.572 312.352 207.128C312.5 206.684 312.624 206.24 312.722 205.796C312.821 205.401 312.92 204.994 313.018 204.575C313.142 204.156 313.203 203.884 313.203 203.761V203.169H311.834C311.464 203.194 310.922 203.194 310.206 203.169C309.491 203.144 308.85 203.132 308.282 203.132C307.123 203.083 306.346 202.972 305.951 202.799C305.581 202.602 305.372 202.232 305.322 201.689C305.273 201.393 305.335 201.183 305.507 201.06C305.68 200.937 306.087 200.863 306.728 200.838C307.37 200.813 308.356 200.826 309.688 200.875C310.724 200.826 311.625 200.826 312.389 200.875C313.154 200.9 313.586 200.912 313.684 200.912C313.783 200.813 313.845 200.715 313.869 200.616C313.894 200.517 313.931 200.419 313.98 200.32C313.98 200.197 313.993 200.061 314.017 199.913C314.067 199.74 314.19 199.617 314.387 199.543C314.585 199.173 314.807 199.025 315.053 199.099C315.325 199.148 315.596 199.37 315.867 199.765C315.966 199.987 316.052 200.221 316.126 200.468C316.225 200.715 316.361 200.937 316.533 201.134C316.632 201.035 316.891 200.974 317.31 200.949C317.73 200.924 318.174 200.9 318.642 200.875C319.21 200.875 319.715 200.863 320.159 200.838C320.603 200.789 320.912 200.764 321.084 200.764C321.306 200.641 321.59 200.579 321.935 200.579C322.305 200.579 322.675 200.604 323.045 200.653C323.613 200.653 324.007 200.678 324.229 200.727C324.476 200.776 324.636 200.863 324.71 200.986C324.71 201.085 324.71 201.183 324.71 201.282C324.735 201.381 324.797 201.479 324.895 201.578C324.994 201.677 325.043 201.751 325.043 201.8C325.043 201.825 324.994 201.936 324.895 202.133C324.797 202.232 324.624 202.318 324.377 202.392C324.131 202.441 323.859 202.466 323.563 202.466C323.391 202.466 323.095 202.491 322.675 202.54C322.256 202.565 321.898 202.577 321.602 202.577C321.035 202.676 320.394 202.762 319.678 202.836C318.988 202.885 318.211 202.935 317.347 202.984C316.977 202.984 316.632 203.009 316.311 203.058C315.991 203.083 315.83 203.157 315.83 203.28C315.732 203.28 315.596 203.539 315.423 204.057C315.275 204.575 315.127 205.118 314.979 205.685C314.831 206.326 314.671 206.881 314.498 207.35C314.35 207.819 314.227 208.127 314.128 208.275C314.227 208.374 314.264 208.497 314.239 208.645C314.239 208.793 314.165 209.052 314.017 209.422C313.919 209.767 313.82 210.039 313.721 210.236C313.647 210.433 313.61 210.631 313.61 210.828C313.61 210.828 313.549 211.025 313.425 211.42C313.327 211.79 313.228 212.259 313.129 212.826C313.08 213.369 313.006 213.825 312.907 214.195C312.833 214.565 312.747 214.799 312.648 214.898C312.648 214.898 312.599 214.984 312.5 215.157C312.402 215.305 312.352 215.478 312.352 215.675C312.352 215.897 312.303 216.267 312.204 216.785C312.13 217.278 312.044 217.747 311.945 218.191C311.847 218.635 311.76 218.882 311.686 218.931C311.933 218.98 311.896 219.313 311.575 219.93C311.575 220.177 311.538 220.423 311.464 220.67C311.39 220.917 311.353 221.089 311.353 221.188C311.205 221.657 311.033 222.175 310.835 222.742C310.638 223.309 310.465 223.803 310.317 224.222C310.169 224.666 310.058 224.925 309.984 224.999ZM352.172 225.924C351.925 225.875 351.728 225.776 351.58 225.628C351.456 225.505 351.37 225.233 351.321 224.814C351.222 224.419 351.173 223.753 351.173 222.816C351.173 221.879 351.21 220.855 351.284 219.745C351.382 218.635 351.469 217.611 351.543 216.674C351.666 216.353 351.715 216.02 351.691 215.675C351.666 215.33 351.629 215.108 351.58 215.009C351.58 214.886 351.58 214.738 351.58 214.565C351.604 214.368 351.666 214.22 351.765 214.121C351.765 213.899 351.765 213.652 351.765 213.381C351.765 213.11 351.789 212.863 351.839 212.641C351.962 212.419 352.048 212.148 352.098 211.827C352.172 211.506 352.196 211.235 352.172 211.013C352.27 210.668 352.357 210.372 352.431 210.125C352.505 209.854 352.542 209.669 352.542 209.57C352.517 209.447 352.505 209.274 352.505 209.052C352.505 208.83 352.48 208.645 352.431 208.497C352.554 208.152 352.665 207.695 352.764 207.128C352.862 206.536 352.936 206.006 352.986 205.537C353.06 205.044 353.097 204.797 353.097 204.797C353.097 204.797 352.961 204.957 352.69 205.278C352.443 205.574 352.11 205.993 351.691 206.536C351.271 207.079 350.815 207.708 350.322 208.423C349.631 209.533 349.014 210.47 348.472 211.235C347.929 212 347.436 212.727 346.992 213.418C346.548 214.084 346.141 214.824 345.771 215.638C345.746 215.86 345.598 216.168 345.327 216.563C345.055 216.933 344.772 217.34 344.476 217.784C344.229 218.327 343.982 218.697 343.736 218.894C343.514 219.067 343.242 219.19 342.922 219.264C342.182 219.363 341.627 219.054 341.257 218.339C340.887 217.624 340.628 216.341 340.48 214.491C340.332 213.899 340.221 213.282 340.147 212.641C340.097 212 340.048 211.58 339.999 211.383C340.048 211.038 340.073 210.655 340.073 210.236C340.097 209.792 340.097 209.41 340.073 209.089C340.073 208.744 340.073 208.571 340.073 208.571C340.073 208.571 339.974 208.682 339.777 208.904C339.604 209.101 339.419 209.336 339.222 209.607C339.197 209.903 339.135 210.199 339.037 210.495C338.938 210.791 338.852 210.988 338.778 211.087C338.654 211.309 338.469 211.765 338.223 212.456C338.001 213.122 337.729 213.825 337.409 214.565C337.113 215.552 336.866 216.304 336.669 216.822C336.496 217.34 336.348 217.759 336.225 218.08C336.101 218.376 335.966 218.684 335.818 219.005C335.67 219.326 335.485 219.77 335.263 220.337C335.041 220.83 334.831 221.361 334.634 221.928C334.461 222.495 334.313 222.853 334.19 223.001C334.14 223.1 334.017 223.346 333.82 223.741C333.622 224.111 333.462 224.469 333.339 224.814C332.993 225.505 332.697 225.912 332.451 226.035C332.204 226.158 331.834 226.023 331.341 225.628C330.872 225.406 330.65 225.098 330.675 224.703C330.699 224.333 330.921 223.815 331.341 223.149C331.538 222.631 331.846 222.014 332.266 221.299C332.685 220.584 333.018 219.979 333.265 219.486C333.24 219.387 333.376 218.956 333.672 218.191C333.968 217.426 334.301 216.538 334.671 215.527C335.065 214.565 335.423 213.652 335.744 212.789C336.089 211.901 336.373 211.161 336.595 210.569C336.817 209.952 336.94 209.607 336.965 209.533C336.965 209.434 336.989 209.336 337.039 209.237C337.088 209.138 337.162 208.978 337.261 208.756C337.31 208.583 337.396 208.361 337.52 208.09C337.643 207.794 337.729 207.584 337.779 207.461C337.902 207.288 338.001 207.116 338.075 206.943C338.173 206.746 338.198 206.598 338.149 206.499C338.124 206.425 338.149 206.376 338.223 206.351C338.321 206.326 338.371 206.314 338.371 206.314C338.469 206.314 338.519 206.265 338.519 206.166C338.519 206.067 338.556 205.969 338.63 205.87C338.679 205.549 338.765 205.216 338.889 204.871C339.012 204.501 339.123 204.304 339.222 204.279C339.32 204.254 339.37 204.205 339.37 204.131C339.37 204.032 339.419 203.897 339.518 203.724C339.493 203.551 339.493 203.391 339.518 203.243C339.567 203.095 339.592 202.996 339.592 202.947C339.715 202.774 339.826 202.639 339.925 202.54C340.023 202.441 340.11 202.343 340.184 202.244C340.184 202.244 340.233 202.096 340.332 201.8C340.43 201.504 340.554 201.245 340.702 201.023C340.751 200.875 340.813 200.715 340.887 200.542C340.985 200.369 341.084 200.197 341.183 200.024C341.281 199.851 341.355 199.716 341.405 199.617C341.577 199.296 341.836 199.148 342.182 199.173C342.527 199.198 342.934 199.444 343.403 199.913C343.625 200.086 343.773 200.271 343.847 200.468C343.945 200.641 343.945 200.789 343.847 200.912C343.847 200.912 343.81 200.924 343.736 200.949C343.686 200.949 343.662 201.011 343.662 201.134C343.662 201.134 343.674 201.27 343.699 201.541C343.723 201.788 343.686 202.071 343.588 202.392C343.415 203.009 343.255 203.625 343.107 204.242C342.983 204.859 342.872 205.389 342.774 205.833C342.7 206.252 342.663 206.511 342.663 206.61C342.663 206.709 342.65 206.807 342.626 206.906C342.601 207.005 342.527 207.054 342.404 207.054C342.404 207.054 342.379 207.103 342.33 207.202C342.28 207.276 342.256 207.35 342.256 207.424C342.379 207.621 342.416 207.93 342.367 208.349C342.317 208.744 342.256 209.151 342.182 209.57C342.132 210.335 342.12 211.173 342.145 212.086C342.169 212.999 342.219 213.788 342.293 214.454C342.391 215.12 342.502 215.49 342.626 215.564C342.724 215.564 342.909 215.416 343.181 215.12C343.452 214.799 343.76 214.306 344.106 213.64C344.55 212.949 344.883 212.407 345.105 212.012C345.351 211.617 345.573 211.284 345.771 211.013C345.968 210.717 346.19 210.396 346.437 210.051C346.708 209.681 347.078 209.188 347.547 208.571C347.941 207.905 348.336 207.325 348.731 206.832C349.15 206.339 349.421 206.043 349.545 205.944C349.742 205.895 349.878 205.784 349.952 205.611C350.05 205.414 350.1 205.315 350.1 205.315C350.026 205.167 350.087 204.92 350.285 204.575C350.482 204.23 350.766 203.798 351.136 203.28C351.53 202.737 351.95 202.133 352.394 201.467C352.813 200.924 353.171 200.542 353.467 200.32C353.787 200.098 354.096 200.024 354.392 200.098C354.688 200.147 355.008 200.32 355.354 200.616C355.625 200.813 355.835 201.048 355.983 201.319C356.131 201.566 356.205 201.788 356.205 201.985C356.229 202.182 356.168 202.306 356.02 202.355C355.921 202.38 355.872 202.404 355.872 202.429C355.896 202.429 355.958 202.478 356.057 202.577C356.057 202.577 356.032 202.676 355.983 202.873C355.958 203.07 355.921 203.354 355.872 203.724C355.773 203.921 355.687 204.316 355.613 204.908C355.539 205.475 355.44 206.006 355.317 206.499C355.218 206.894 355.132 207.325 355.058 207.794C354.984 208.238 354.922 208.571 354.873 208.793C354.823 208.941 354.762 209.212 354.688 209.607C354.614 209.977 354.552 210.335 354.503 210.68C354.429 211.198 354.342 211.839 354.244 212.604C354.17 213.369 354.083 214.146 353.985 214.935C353.886 215.724 353.8 216.427 353.726 217.044C353.652 217.636 353.59 218.018 353.541 218.191C353.516 218.462 353.479 218.869 353.43 219.412C353.405 219.955 353.38 220.534 353.356 221.151C353.356 221.768 353.368 222.36 353.393 222.927C353.442 223.494 353.504 223.938 353.578 224.259C353.602 224.777 353.627 225.11 353.652 225.258C353.676 225.406 353.664 225.542 353.615 225.665C353.393 225.912 353.183 226.06 352.986 226.109C352.813 226.158 352.542 226.097 352.172 225.924ZM364.631 224.888C363.866 224.839 363.188 224.604 362.596 224.185C362.028 223.766 361.424 223.334 360.783 222.89C360.363 222.471 360.03 222.027 359.784 221.558C359.537 221.065 359.34 220.423 359.192 219.634C359.093 219.165 359.093 218.573 359.192 217.858C359.29 217.143 359.451 216.427 359.673 215.712C359.895 214.972 360.104 214.38 360.302 213.936C360.598 213.245 360.968 212.505 361.412 211.716C361.88 210.902 362.337 210.137 362.781 209.422C363.249 208.682 363.619 208.09 363.891 207.646C364.063 207.473 364.137 207.387 364.113 207.387C364.113 207.362 364.113 207.35 364.113 207.35C364.113 207.227 364.236 206.918 364.483 206.425C364.754 205.907 364.988 205.451 365.186 205.056C365.556 204.661 365.765 204.341 365.815 204.094C365.864 203.847 365.827 203.65 365.704 203.502C365.654 203.403 365.741 203.231 365.963 202.984C366.185 202.737 366.518 202.454 366.962 202.133C367.406 201.812 367.911 201.492 368.479 201.171C369.071 200.702 369.638 200.456 370.181 200.431C370.748 200.382 371.081 200.493 371.18 200.764C371.18 200.838 371.315 200.863 371.587 200.838C371.883 200.789 372.216 200.727 372.586 200.653C372.98 200.554 373.326 200.48 373.622 200.431C373.745 200.283 374.029 200.172 374.473 200.098C374.941 199.999 375.484 199.913 376.101 199.839C376.421 199.864 376.73 199.876 377.026 199.876C377.346 199.851 377.605 199.827 377.803 199.802C378.025 199.777 378.136 199.765 378.136 199.765C378.308 199.716 378.506 199.74 378.728 199.839C378.974 199.938 379.196 200.209 379.394 200.653C379.566 201.097 379.505 201.43 379.209 201.652C378.937 201.874 378.296 202.047 377.285 202.17C376.545 202.269 375.903 202.355 375.361 202.429C374.818 202.478 374.251 202.552 373.659 202.651C373.067 202.725 372.339 202.861 371.476 203.058C370.859 203.181 370.353 203.329 369.959 203.502C369.564 203.65 369.219 203.884 368.923 204.205C368.627 204.501 368.294 204.933 367.924 205.5C367.751 205.623 367.529 205.944 367.258 206.462C366.986 206.98 366.715 207.498 366.444 208.016C365.753 208.978 365.149 209.817 364.631 210.532C364.137 211.223 363.94 211.63 364.039 211.753C364.039 211.753 364.174 211.79 364.446 211.864C364.717 211.938 364.902 211.975 365.001 211.975C365.247 211.852 365.543 211.765 365.889 211.716C366.259 211.667 366.555 211.617 366.777 211.568C368.306 211.173 369.502 210.865 370.366 210.643C371.254 210.421 371.92 210.261 372.364 210.162C372.832 210.039 373.19 209.965 373.437 209.94C373.782 209.669 374.115 209.619 374.436 209.792C374.781 209.965 375.052 210.236 375.25 210.606C375.373 210.877 375.373 211.112 375.25 211.309C375.151 211.506 374.843 211.704 374.325 211.901C373.831 212.098 373.091 212.333 372.105 212.604C371.118 212.875 369.823 213.233 368.22 213.677C366.863 214.072 365.704 214.306 364.742 214.38C363.78 214.454 363.323 214.244 363.373 213.751C363.2 213.652 363.003 213.776 362.781 214.121C362.583 214.442 362.386 214.886 362.189 215.453C361.991 216.02 361.819 216.625 361.671 217.266C361.547 217.907 361.461 218.512 361.412 219.079C361.387 219.622 361.424 220.029 361.523 220.3C361.72 220.867 361.979 221.324 362.3 221.669C362.62 221.99 363.2 222.273 364.039 222.52C364.532 222.545 365.013 222.582 365.482 222.631C365.95 222.68 366.481 222.582 367.073 222.335C368.528 222.088 369.675 221.829 370.514 221.558C371.352 221.287 371.833 221.102 371.957 221.003C372.154 220.904 372.277 220.855 372.327 220.855C372.401 220.83 372.499 220.818 372.623 220.818C372.549 220.941 372.573 220.954 372.697 220.855C372.845 220.732 373.042 220.547 373.289 220.3C373.56 220.053 373.918 219.819 374.362 219.597C374.806 219.375 375.2 219.202 375.546 219.079C375.916 218.956 376.113 218.956 376.138 219.079C376.286 219.326 376.261 219.671 376.064 220.115C375.866 220.534 375.509 221.003 374.991 221.521C374.473 222.014 373.807 222.495 372.993 222.964C371.685 223.655 370.267 224.136 368.738 224.407C367.208 224.703 365.839 224.863 364.631 224.888Z" fill="white"/>
</g>
<defs>
<filter id="filter0_d_416_1720" x="9.63281" y="70.876" width="537.375" height="234.222" filterUnits="userSpaceOnUse" color-interpolation-filters="sRGB">
<feFlood flood-opacity="0" result="BackgroundImageFix"/>
<feColorMatrix in="SourceAlpha" type="matrix" values="0 0 0 0 0 0 0 0 0 0 0 0 0 0 0 0 0 0 127 0" result="hardAlpha"/>
<feOffset dy="4"/>
<feGaussianBlur stdDeviation="2"/>
<feComposite in2="hardAlpha" operator="out"/>
<feColorMatrix type="matrix" values="0 0 0 0 0 0 0 0 0 0 0 0 0 0 0 0 0 0 0.25 0"/>
<feBlend mode="normal" in2="BackgroundImageFix" result="effect1_dropShadow_416_1720"/>
<feBlend mode="normal" in="SourceGraphic" in2="effect1_dropShadow_416_1720" result="shape"/>
</filter>
</defs>
</svg>
