<svg width="568" height="486" viewBox="0 0 568 486" fill="none" xmlns="http://www.w3.org/2000/svg">
<g filter="url(#filter0_d_134_136)">
<path fill-rule="evenodd" clip-rule="evenodd" d="M255.979 9.3371C293.019 13.4471 328.479 19.8805 361.751 38.7337C400.97 60.9575 440.292 85.046 463.658 127.018C491.597 177.203 526.396 240.751 504.095 294.421C481.42 348.994 410.155 341.699 362.866 369.589C325.286 391.754 298.35 442.119 255.979 440.759C213.774 439.403 190.851 384.932 153.415 362.863C105.638 334.696 27.76 351.019 7.79488 294.445C-11.7756 238.99 49.5386 189.494 73.4441 136.253C92.6748 93.4238 97.769 38.6219 133.961 13.4577C169.489 -11.245 214.467 4.73084 255.979 9.3371Z" fill="#ECE9E6"/>
<path fill-rule="evenodd" clip-rule="evenodd" d="M273.748 69.4416C309.239 66.9736 342.339 75.1734 376.891 83.6487C419.466 94.092 470.284 91.0049 498.484 124.567C527.577 159.191 521.35 209.788 520.877 255.009C520.363 304.296 534.053 366.15 495.639 397.035C456.216 428.732 397.593 386.439 347.623 394.308C303.276 401.291 266.718 454.592 224.347 439.755C182.331 425.041 183.064 364.393 157.708 327.802C129.463 287.042 68.3723 263.453 67.8157 213.867C67.2626 164.585 114.79 127.368 155.14 99.0693C189.341 75.0836 232.076 72.3395 273.748 69.4416Z" fill="#2B6FC7"/>
</g>
<path d="M156 232.6C154.027 231.107 152.773 229.96 152.24 229.16C151.707 228.307 151.387 227.293 151.28 226.12C151.173 225.16 151.173 223.853 151.28 222.2C151.44 220.547 151.627 218.92 151.84 217.32C152.053 215.72 152.24 214.52 152.4 213.72C152.667 213.453 152.773 213.107 152.72 212.68C152.72 212.2 152.72 211.96 152.72 211.96C152.667 211.693 152.853 211 153.28 209.88C153.707 208.707 154.107 207.213 154.48 205.4C155.547 202.2 156.56 199.533 157.52 197.4C158.533 195.213 159.52 193.347 160.48 191.8C161.44 190.253 162.4 188.84 163.36 187.56C165.547 185.32 167.307 183.64 168.64 182.52C169.973 181.347 171.467 180.387 173.12 179.64C174.187 179 175.173 178.493 176.08 178.12C176.987 177.747 177.733 177.693 178.32 177.96C181.307 178.6 183.547 179.827 185.04 181.64C186.533 183.4 187.627 186.147 188.32 189.88C188.693 192.227 188.907 194.36 188.96 196.28C189.067 198.147 188.933 200.013 188.56 201.88C188.187 203.693 187.493 205.693 186.48 207.88C185.52 210.067 184.16 212.627 182.4 215.56C180.533 219.24 178.427 222.44 176.08 225.16C173.787 227.88 171.413 230.013 168.96 231.56C166.56 233.16 164.213 234.067 161.92 234.28C159.68 234.493 157.707 233.933 156 232.6ZM161.12 230.28C162.347 230.12 163.52 229.747 164.64 229.16C165.76 228.573 166.933 227.72 168.16 226.6C169.387 225.427 170.773 223.96 172.32 222.2C173.707 220.6 174.827 219.267 175.68 218.2C176.587 217.08 177.333 215.96 177.92 214.84C178.56 213.72 179.147 212.36 179.68 210.76C180.267 209.16 180.933 207.08 181.68 204.52C182.107 202.92 182.427 201.587 182.64 200.52C182.853 199.453 182.987 198.467 183.04 197.56C183.093 196.6 183.093 195.507 183.04 194.28C183.04 193.053 183.04 191.48 183.04 189.56C182.987 188.653 182.8 187.72 182.48 186.76C182.16 185.747 181.787 185 181.36 184.52C180.827 183.933 180.08 183.533 179.12 183.32C178.16 183.053 177.093 183.187 175.92 183.72C175.28 183.987 174.453 184.6 173.44 185.56C172.427 186.467 171.36 187.533 170.24 188.76C169.12 189.987 168.053 191.24 167.04 192.52C166.08 193.8 165.28 194.947 164.64 195.96C164.053 196.92 163.76 197.587 163.76 197.96C163.76 197.96 163.733 198.093 163.68 198.36C163.68 198.627 163.573 198.893 163.36 199.16C162.667 199.907 161.893 201.24 161.04 203.16C160.24 205.08 159.467 207.267 158.72 209.72C157.973 212.12 157.333 214.52 156.8 216.92C156.32 219.267 156.027 221.32 155.92 223.08C155.813 224.52 155.76 225.507 155.76 226.04C155.76 226.573 155.867 227 156.08 227.32C156.293 227.587 156.64 228.12 157.12 228.92C157.44 229.453 157.973 229.853 158.72 230.12C159.52 230.387 160.32 230.44 161.12 230.28ZM200.906 234.52C200.48 234.52 200 234.173 199.466 233.48C198.933 232.787 198.693 232.12 198.746 231.48C198.8 230.627 199.04 229.4 199.466 227.8C199.893 226.2 200.373 224.573 200.906 222.92C201.44 221.267 201.92 219.96 202.346 219C202.56 218.147 202.746 217.4 202.906 216.76C203.12 216.067 203.253 215.613 203.306 215.4C203.466 215.187 203.706 214.627 204.026 213.72C204.4 212.813 204.693 211.933 204.906 211.08C205.013 210.653 205.226 209.853 205.546 208.68C205.92 207.453 206.346 206.04 206.826 204.44C207.36 202.84 207.866 201.267 208.346 199.72C208.88 198.173 209.333 196.813 209.706 195.64C210.08 194.467 210.32 193.693 210.426 193.32C210.853 192.68 211.173 192.067 211.386 191.48C211.6 190.893 211.733 190.493 211.786 190.28C212.106 190.067 212.293 189.8 212.346 189.48C212.4 189.107 212.426 188.813 212.426 188.6C212.426 188.333 212.506 188.12 212.666 187.96C212.88 187.8 212.986 187.613 212.986 187.4C213.2 187.24 213.333 187 213.386 186.68C213.44 186.307 213.6 185.987 213.866 185.72L214.266 184.36L218.986 184.28C218.88 184.92 218.72 185.72 218.506 186.68C218.293 187.587 217.786 188.813 216.986 190.36C216.72 191.427 216.4 192.387 216.026 193.24C215.706 194.093 215.573 194.653 215.626 194.92C215.52 195.027 215.28 195.56 214.906 196.52C214.586 197.48 214.186 198.653 213.706 200.04C213.28 201.427 212.826 202.813 212.346 204.2C211.92 205.587 211.52 206.813 211.146 207.88C210.826 208.893 210.613 209.533 210.506 209.8C210.08 210.653 209.6 211.907 209.066 213.56C208.533 215.213 207.733 217.453 206.666 220.28C206.24 221.133 205.706 222.413 205.066 224.12C204.48 225.827 204 227.373 203.626 228.76C203.04 230.84 202.613 232.28 202.346 233.08C202.133 233.933 201.946 234.387 201.786 234.44C201.626 234.547 201.333 234.573 200.906 234.52ZM201.546 186.84C200.053 186.893 198.933 186.813 198.186 186.6C197.493 186.387 197.253 185.853 197.466 185C197.626 184.36 197.973 183.88 198.506 183.56C199.04 183.24 199.813 183 200.826 182.84C201.413 182.733 202.16 182.6 203.066 182.44C204.026 182.28 204.933 182.12 205.786 181.96C207.546 181.747 208.986 181.56 210.106 181.4C211.28 181.24 212.48 181.107 213.706 181C214.933 180.893 216.48 180.787 218.346 180.68C219.893 180.573 221.2 180.493 222.266 180.44C223.386 180.333 223.946 180.28 223.946 180.28C224.106 180.28 224.666 180.333 225.626 180.44C226.586 180.547 227.626 180.68 228.746 180.84C229.866 181 230.693 181.187 231.226 181.4C232.453 181.667 233.333 182.04 233.866 182.52C234.453 183 234.853 183.693 235.066 184.6C235.226 185.24 235.226 185.64 235.066 185.8C234.906 185.907 234.613 186.067 234.186 186.28C232.96 186.653 232.053 186.84 231.466 186.84C230.88 186.84 230.213 186.707 229.466 186.44C229.2 186.173 228.88 185.933 228.506 185.72C228.186 185.507 227.6 185.347 226.746 185.24C225.946 185.08 224.666 184.947 222.906 184.84C221.413 185 220.106 185.08 218.986 185.08C217.866 185.08 217.306 185.213 217.306 185.48L212.586 185.72L208.666 186.12C208.133 186.173 207.386 186.253 206.426 186.36C205.466 186.413 204.533 186.493 203.626 186.6C202.72 186.653 202.026 186.733 201.546 186.84ZM234.187 238.36C234.187 238.36 234 238.28 233.627 238.12C233.307 238.013 232.934 237.987 232.507 238.04C231.654 237.88 231.014 237.427 230.587 236.68C230.214 235.987 230.107 235.213 230.267 234.36C230.48 234.147 230.614 233.693 230.667 233C230.774 232.307 230.827 231.747 230.827 231.32C230.987 230.893 231.094 230.573 231.147 230.36C231.2 230.147 231.334 229.613 231.547 228.76C231.654 227.853 231.867 226.6 232.187 225C232.56 223.347 232.96 221.587 233.387 219.72C233.814 217.8 234.24 215.987 234.667 214.28C235.147 212.52 235.547 211.053 235.867 209.88C236.24 208.707 236.507 208.04 236.667 207.88C236.667 207.88 236.667 207.8 236.667 207.64C236.667 207.427 236.64 207.213 236.587 207C236.587 207 236.614 206.76 236.667 206.28C236.774 205.747 237.014 205.133 237.387 204.44C237.6 203.853 237.76 203.213 237.867 202.52C238.027 201.827 238.107 201.373 238.107 201.16C238.32 200.893 238.587 200.253 238.907 199.24C239.28 198.173 239.654 197.107 240.027 196.04C240.294 195.187 240.587 194.28 240.907 193.32C241.28 192.36 241.6 191.533 241.867 190.84C242.187 190.093 242.347 189.72 242.347 189.72C242.347 189.507 242.347 189.4 242.347 189.4C242.347 189.347 242.347 189.32 242.347 189.32C242.507 189.107 242.96 188.013 243.707 186.04C244.507 184.067 245.574 181.507 246.907 178.36C247.12 177.933 247.36 177.453 247.627 176.92C247.947 176.387 248.107 176.013 248.107 175.8C248.374 175.373 248.747 175.16 249.227 175.16C249.707 175.16 250.187 175.32 250.667 175.64C251.2 175.907 251.6 176.333 251.867 176.92L252.747 178.2L250.027 184.04C249.28 185.533 248.64 186.92 248.107 188.2C247.574 189.427 247.307 190.147 247.307 190.36C247.307 190.36 247.147 190.787 246.827 191.64C246.56 192.493 246.214 193.533 245.787 194.76C245.414 195.933 245.094 197 244.827 197.96C244.294 199.667 243.787 201.053 243.307 202.12C242.88 203.187 242.667 203.827 242.667 204.04C242.667 203.933 243.254 203.853 244.427 203.8C245.6 203.693 247.094 203.613 248.907 203.56C250.72 203.453 252.56 203.373 254.427 203.32C256.347 203.213 258.027 203.107 259.467 203C260.96 202.893 261.974 202.787 262.507 202.68L266.587 202.2L269.067 193.88C269.44 192.333 269.92 190.493 270.507 188.36C271.147 186.227 271.707 184.387 272.187 182.84C272.934 180.333 273.547 178.787 274.027 178.2C274.507 177.613 275.067 177.32 275.707 177.32C275.92 177.267 276.267 177.347 276.747 177.56C277.28 177.773 277.654 178.093 277.867 178.52C278.56 179.053 278.88 179.693 278.827 180.44C278.827 181.187 278.427 182.2 277.627 183.48C276.88 184.92 276.24 186.493 275.707 188.2C275.227 189.907 274.774 191.293 274.347 192.36C274.4 193 274.347 193.533 274.187 193.96C274.027 194.333 273.84 194.653 273.627 194.92C273.52 195.027 273.307 195.427 272.987 196.12C272.72 196.813 272.454 197.507 272.187 198.2C271.974 198.893 271.867 199.32 271.867 199.48C271.92 199.853 271.867 200.333 271.707 200.92C271.547 201.453 271.36 201.827 271.147 202.04C271.094 202.36 270.907 203.187 270.587 204.52C270.267 205.8 269.867 207.32 269.387 209.08C268.96 210.787 268.507 212.467 268.027 214.12C267.6 215.773 267.174 217.133 266.747 218.2C266.8 218.573 266.694 219.053 266.427 219.64C266.16 220.173 266.054 220.653 266.107 221.08C265.894 221.72 265.627 222.547 265.307 223.56C265.04 224.52 264.934 225.133 264.987 225.4C264.774 226.627 264.534 227.88 264.267 229.16C264 230.44 263.787 231.533 263.627 232.44C263.467 233.4 263.387 233.96 263.387 234.12C263.227 234.333 262.907 234.36 262.427 234.2C262 234.093 261.494 233.933 260.907 233.72C259.894 233.133 259.28 232.52 259.067 231.88C258.854 231.24 259.014 230.307 259.547 229.08C259.814 228.653 260.107 227.587 260.427 225.88C260.8 224.173 261.174 222.493 261.547 220.84C261.814 220.04 262.107 218.947 262.427 217.56C262.747 216.173 263.067 214.787 263.387 213.4C263.707 212.013 263.974 210.813 264.187 209.8C264.454 208.787 264.64 208.227 264.747 208.12C264.747 207.907 264.747 207.72 264.747 207.56C264.747 207.4 264.747 207.32 264.747 207.32C264.64 207.213 263.974 207.16 262.747 207.16C261.52 207.107 260 207.107 258.187 207.16C256.374 207.213 254.48 207.32 252.507 207.48C250.587 207.64 248.854 207.853 247.307 208.12C246.72 208.173 246.054 208.2 245.307 208.2C244.56 208.2 243.974 208.227 243.547 208.28C242.96 208.28 242.454 208.307 242.027 208.36C241.654 208.36 241.467 208.36 241.467 208.36C241.414 208.52 241.227 209.08 240.907 210.04C240.64 211 240.32 212.173 239.947 213.56C239.574 214.893 239.174 216.28 238.747 217.72C238.374 219.16 238.054 220.467 237.787 221.64C237.52 222.76 237.36 223.587 237.307 224.12C237.147 225.08 236.907 226.307 236.587 227.8C236.267 229.24 235.92 230.707 235.547 232.2C235.227 233.693 234.934 235 234.667 236.12C234.454 237.293 234.294 238.04 234.187 238.36ZM295.983 234.04C293.85 234.04 291.93 233.907 290.223 233.64C288.57 233.427 287.05 232.787 285.663 231.72C284.01 230.493 283.05 228.893 282.783 226.92C282.57 224.893 282.97 221.987 283.983 218.2C284.25 216.867 284.543 215.693 284.863 214.68C285.236 213.667 285.556 213.16 285.823 213.16C285.876 212.893 285.956 212.52 286.063 212.04C286.17 211.507 286.276 210.893 286.383 210.2C286.65 209.24 286.836 208.547 286.943 208.12C287.05 207.64 287.263 207.24 287.583 206.92C287.743 206.813 287.93 206.467 288.143 205.88C288.356 205.24 288.49 204.867 288.543 204.76C288.543 204.76 288.57 204.573 288.623 204.2C288.676 203.773 288.81 203.293 289.023 202.76C289.823 201.427 290.223 200.547 290.223 200.12C290.33 199.907 290.543 199.587 290.863 199.16C291.236 198.733 291.53 198.173 291.743 197.48C293.343 194.653 294.65 192.227 295.663 190.2C296.676 188.12 297.29 186.573 297.503 185.56C297.77 184.973 298.01 184.467 298.223 184.04C298.49 183.56 298.81 183.107 299.183 182.68C299.076 182.413 299.29 182.12 299.823 181.8C300.356 181.48 301.103 181.133 302.063 180.76C303.023 180.387 304.063 180.067 305.183 179.8C306.356 179.533 307.503 179.373 308.623 179.32C308.943 179.107 309.636 178.947 310.703 178.84C311.823 178.733 313.103 178.68 314.543 178.68C315.983 178.68 317.316 178.733 318.543 178.84C319.716 178.84 320.65 179 321.343 179.32C322.036 179.64 322.73 179.96 323.423 180.28C323.69 180.547 323.876 180.867 323.983 181.24C324.143 181.613 324.25 181.96 324.303 182.28C324.356 182.547 324.383 182.68 324.383 182.68C324.383 182.947 323.636 183.107 322.143 183.16C320.65 183.213 319.023 183.24 317.263 183.24C315.29 183.24 313.396 183.4 311.583 183.72C309.77 184.04 308.57 184.2 307.983 184.2C307.236 184.413 306.57 184.547 305.983 184.6C305.45 184.653 305.183 184.68 305.183 184.68C305.076 184.68 304.73 185.107 304.143 185.96C303.61 186.76 302.996 187.72 302.303 188.84C301.663 189.907 301.076 190.92 300.543 191.88C300.063 192.787 299.823 193.32 299.823 193.48C299.823 194.013 299.61 194.6 299.183 195.24C298.756 195.88 298.25 196.627 297.663 197.48C297.13 198.173 296.783 198.813 296.623 199.4C296.463 199.933 296.623 200.307 297.103 200.52C297.956 200.36 299.103 200.2 300.543 200.04C302.036 199.88 303.503 199.747 304.943 199.64C306.436 199.48 307.583 199.4 308.383 199.4C309.29 199.133 310.036 199.08 310.623 199.24C311.21 199.4 311.636 199.56 311.903 199.72C312.543 199.827 312.996 200.04 313.263 200.36C313.53 200.627 313.636 200.893 313.583 201.16C313.583 201.427 313.396 201.64 313.023 201.8C312.703 202.12 311.903 202.493 310.623 202.92C309.343 203.347 307.85 203.773 306.143 204.2C304.436 204.627 302.703 205.027 300.943 205.4C299.236 205.72 297.77 205.987 296.543 206.2C295.316 206.413 294.596 206.493 294.383 206.44C294.063 205.693 293.823 205.72 293.663 206.52C293.556 207.267 292.97 208.813 291.903 211.16C291.316 212.493 290.783 213.773 290.303 215C289.876 216.173 289.503 217.427 289.183 218.76C288.916 220.04 288.623 221.507 288.303 223.16C287.93 224.6 287.823 225.773 287.983 226.68C288.196 227.533 289.156 228.36 290.863 229.16C291.93 229.373 293.343 229.453 295.103 229.4C296.916 229.347 298.97 229.027 301.263 228.44C302.223 227.853 303.103 227.4 303.903 227.08C304.703 226.707 305.29 226.413 305.663 226.2C305.93 226.2 306.33 226.147 306.863 226.04C307.45 225.88 307.85 225.8 308.063 225.8C308.49 225.213 309.023 224.92 309.663 224.92C309.77 224.92 310.01 225.133 310.383 225.56C310.81 225.933 311.21 226.36 311.583 226.84C311.956 227.32 312.116 227.64 312.063 227.8C312.063 228.333 311.476 228.867 310.303 229.4C309.13 229.933 307.21 230.733 304.543 231.8C303.21 232.387 302.116 232.84 301.263 233.16C300.463 233.48 299.69 233.693 298.943 233.8C298.196 233.96 297.21 234.04 295.983 234.04ZM326.451 233.64C326.238 233.64 326.051 233.533 325.891 233.32C325.785 233.16 325.731 232.973 325.731 232.76C325.731 232.493 325.678 232.36 325.571 232.36C325.145 232.36 324.905 231.96 324.851 231.16C324.798 230.36 324.985 229.773 325.411 229.4C325.518 229.4 325.571 229.053 325.571 228.36C325.571 228.04 325.598 227.773 325.651 227.56C325.758 227.347 325.785 227.133 325.731 226.92C325.731 226.76 325.785 226.52 325.891 226.2C326.051 225.88 326.131 225.613 326.131 225.4C326.131 225.187 326.238 224.867 326.451 224.44C326.718 224.013 326.931 223.613 327.091 223.24C327.251 222.973 327.438 222.52 327.651 221.88C327.865 221.24 328.078 220.653 328.291 220.12C328.291 220.013 328.505 219.56 328.931 218.76C329.411 217.96 329.785 217.08 330.051 216.12C330.265 215.32 330.451 214.493 330.611 213.64C330.771 212.733 330.851 212.227 330.851 212.12C330.851 211.8 330.851 211.533 330.851 211.32C330.851 211.107 330.851 211 330.851 211C331.278 211 331.491 210.92 331.491 210.76C331.705 210.547 331.811 210.44 331.811 210.44C331.865 210.387 331.891 210.36 331.891 210.36C331.891 210.36 331.918 210.227 331.971 209.96C332.025 209.64 332.238 209.373 332.611 209.16C333.091 208.573 333.358 208.173 333.411 207.96C333.518 207.747 333.571 207.56 333.571 207.4C333.571 207.4 333.918 206.467 334.611 204.6C335.305 202.68 336.425 199.933 337.971 196.36C338.878 194.92 339.625 193.427 340.211 191.88C340.851 190.28 341.305 189.293 341.571 188.92C341.998 187.907 342.211 187.08 342.211 186.44C342.211 186.44 342.185 186.44 342.131 186.44C342.131 186.44 342.078 186.44 341.971 186.44C341.491 186.707 341.118 186.733 340.851 186.52C340.638 186.253 340.211 185.853 339.571 185.32C339.198 184.893 338.905 184.44 338.691 183.96C338.478 183.427 338.371 183.133 338.371 183.08C338.371 182.92 338.691 182.627 339.331 182.2C339.971 181.72 340.718 181.267 341.571 180.84C342.478 180.36 343.251 180.04 343.891 179.88C344.531 179.56 345.331 179.4 346.291 179.4C347.305 179.4 348.318 179.48 349.331 179.64C350.345 179.8 351.198 179.96 351.891 180.12C353.651 180.493 355.358 181.4 357.011 182.84C358.718 184.28 359.998 185.907 360.851 187.72C361.278 188.467 361.545 189.4 361.651 190.52C361.811 191.587 361.838 192.733 361.731 193.96C361.678 195.133 361.491 196.253 361.171 197.32C360.798 198.333 360.185 199.507 359.331 200.84C358.531 202.12 357.625 203.373 356.611 204.6C355.598 205.773 354.665 206.76 353.811 207.56C353.011 208.36 352.425 208.76 352.051 208.76C351.678 208.76 351.465 208.76 351.411 208.76C351.358 208.76 351.331 208.76 351.331 208.76C351.331 208.813 351.065 209.027 350.531 209.4C350.051 209.72 349.438 210.12 348.691 210.6C347.945 211.027 347.225 211.4 346.531 211.72C345.838 212.04 345.331 212.227 345.011 212.28C344.638 212.28 344.345 212.307 344.131 212.36C343.918 212.413 343.731 212.6 343.571 212.92C343.251 213.453 343.065 213.907 343.011 214.28C343.011 214.6 343.065 215.213 343.171 216.12C343.438 216.76 343.918 217.667 344.611 218.84C345.305 219.96 345.971 220.973 346.611 221.88C347.251 222.787 347.625 223.24 347.731 223.24C347.945 223.24 348.238 223.347 348.611 223.56C348.985 223.773 349.358 224.12 349.731 224.6C350.798 225.293 351.785 225.8 352.691 226.12C353.598 226.387 354.025 226.333 353.971 225.96C353.971 225.8 354.158 225.693 354.531 225.64C354.905 225.587 355.278 225.533 355.651 225.48C356.025 225.48 356.345 225.533 356.611 225.64C356.878 225.747 357.038 225.8 357.091 225.8C357.091 225.8 357.091 225.96 357.091 226.28C357.145 226.6 357.198 226.973 357.251 227.4C357.251 228.04 357.145 228.707 356.931 229.4C356.718 230.04 356.398 230.573 355.971 231C355.545 231.48 354.985 231.747 354.291 231.8C352.478 232.013 350.585 231.533 348.611 230.36C346.638 229.187 344.771 227.507 343.011 225.32C341.251 223.08 339.785 220.547 338.611 217.72C338.238 216.493 337.945 215.8 337.731 215.64C337.571 215.427 337.091 215.373 336.291 215.48C335.651 215.48 335.225 215.56 335.011 215.72C334.851 215.88 334.558 216.493 334.131 217.56C334.078 217.987 334.025 218.387 333.971 218.76C333.971 219.08 333.838 219.24 333.571 219.24C333.571 219.24 333.438 219.56 333.171 220.2C332.905 220.787 332.585 221.453 332.211 222.2C332.105 222.893 331.918 223.533 331.651 224.12C331.438 224.653 331.331 225.027 331.331 225.24C331.331 225.827 331.305 226.227 331.251 226.44C331.198 226.653 331.038 226.76 330.771 226.76C330.825 226.973 330.798 227.187 330.691 227.4C330.585 227.613 330.531 227.88 330.531 228.2C330.531 228.253 330.505 228.493 330.451 228.92C330.451 229.293 330.398 229.747 330.291 230.28C330.078 230.813 329.838 231.187 329.571 231.4C329.358 231.667 329.278 231.933 329.331 232.2C329.331 232.467 329.171 232.733 328.851 233C328.585 233.267 328.211 233.453 327.731 233.56C327.305 233.72 326.878 233.747 326.451 233.64ZM339.011 207.88C339.385 209.107 340.451 209.053 342.211 207.72C344.025 207.08 345.278 206.547 345.971 206.12C346.718 205.64 347.358 205.213 347.891 204.84C348.371 204.573 348.771 204.28 349.091 203.96C349.411 203.587 349.571 203.4 349.571 203.4C349.945 203.347 350.558 202.947 351.411 202.2C352.318 201.453 353.225 200.573 354.131 199.56C355.038 198.493 355.705 197.48 356.131 196.52C356.611 195.667 356.931 195.027 357.091 194.6C357.305 194.173 357.411 193.747 357.411 193.32C357.465 192.893 357.491 192.307 357.491 191.56C357.225 190.6 356.878 189.8 356.451 189.16C356.078 188.52 355.571 187.96 354.931 187.48C354.291 187 353.385 186.547 352.211 186.12C351.411 185.693 350.398 185.453 349.171 185.4C347.945 185.293 346.905 185.32 346.051 185.48C345.198 185.64 344.905 185.933 345.171 186.36C345.385 187.267 345.571 188.253 345.731 189.32C345.945 190.333 345.811 191.213 345.331 191.96C345.331 192.44 344.958 193.507 344.211 195.16C343.465 196.813 342.745 198.573 342.051 200.44C341.145 202.52 340.398 204.253 339.811 205.64C339.278 206.973 339.011 207.72 339.011 207.88Z" fill="white"/>
<path d="M261.84 325.24C261.147 325.293 260.507 325.133 259.92 324.76C259.387 324.44 259.013 324.013 258.8 323.48C258.587 323.213 258.267 322.76 257.84 322.12C257.413 321.48 257.147 320.84 257.04 320.2C256.88 318.493 256.773 316.84 256.72 315.24C256.72 313.64 256.8 311.4 256.96 308.52C257.12 306.173 257.413 303.907 257.84 301.72C258.32 299.48 258.773 297.48 259.2 295.72C259.68 293.96 260.053 292.573 260.32 291.56C260.587 290.493 260.64 289.96 260.48 289.96C260.267 289.96 259.947 290.36 259.52 291.16C259.093 291.907 258.613 292.84 258.08 293.96C257.547 295.08 257.013 296.2 256.48 297.32C255.947 298.387 255.493 299.267 255.12 299.96C254.373 301.613 253.493 303.373 252.48 305.24C251.52 307.053 250.533 308.813 249.52 310.52C248.507 312.227 247.627 313.72 246.88 315C246.4 315.533 245.84 316.307 245.2 317.32C244.56 318.28 243.867 319.293 243.12 320.36C242.373 321.427 241.6 322.307 240.8 323C239.627 324.12 238.453 324.733 237.28 324.84C236.16 324.947 235.2 324.653 234.4 323.96C234.24 323.747 234.053 323.48 233.84 323.16C233.68 322.893 233.547 322.52 233.44 322.04C233.333 321.56 233.36 321 233.52 320.36C233.467 319.613 233.467 318.467 233.52 316.92C233.627 315.32 233.787 313.587 234 311.72C234.213 309.8 234.427 307.96 234.64 306.2C234.907 304.44 235.147 302.973 235.36 301.8C235.84 298.387 236.48 294.893 237.28 291.32C238.133 287.747 238.907 284.147 239.6 280.52C240.027 279.453 240.4 278.253 240.72 276.92C241.093 275.533 241.467 274.253 241.84 273.08C241.893 271.907 242.16 271.133 242.64 270.76C243.12 270.333 243.653 270.2 244.24 270.36C244.88 270.467 245.387 270.787 245.76 271.32C246.293 271.853 246.693 272.68 246.96 273.8C247.28 274.92 247.067 276.333 246.32 278.04C245.253 280.653 244.213 283.853 243.2 287.64C242.24 291.373 241.36 295.907 240.56 301.24C240.347 302.52 240.107 304.04 239.84 305.8C239.573 307.56 239.333 309.267 239.12 310.92C238.907 312.573 238.747 313.96 238.64 315.08C238.587 316.2 238.613 316.787 238.72 316.84C239.147 316.947 239.733 316.627 240.48 315.88C241.227 315.08 241.893 314.04 242.48 312.76C244.667 309.133 246.827 305.347 248.96 301.4C251.147 297.4 253.227 293.453 255.2 289.56C256.107 288.013 257.013 286.333 257.92 284.52C258.88 282.653 259.787 280.947 260.64 279.4C261.547 277.8 262.373 276.36 263.12 275.08C263.867 273.747 264.507 272.653 265.04 271.8C265.573 270.947 266 270.467 266.32 270.36C267.173 270.413 267.893 270.627 268.48 271C269.12 271.32 269.653 272.013 270.08 273.08C270.187 273.347 270.16 273.8 270 274.44C269.84 275.08 269.653 275.64 269.44 276.12C269.387 276.493 269.147 277.267 268.72 278.44C268.347 279.613 268 280.92 267.68 282.36C267.147 283.8 266.667 285.24 266.24 286.68C265.867 288.067 265.6 289.213 265.44 290.12C265.013 292.413 264.48 294.947 263.84 297.72C263.2 300.44 262.64 303.16 262.16 305.88C261.733 308.547 261.493 310.947 261.44 313.08C261.387 314.573 261.387 315.747 261.44 316.6C261.547 317.453 261.707 318.12 261.92 318.6C262.027 319.027 262.347 319.293 262.88 319.4C263.467 319.507 263.947 319.32 264.32 318.84C265.387 317.507 266.293 316.307 267.04 315.24C267.84 314.12 268.587 313 269.28 311.88C269.973 310.707 270.693 309.4 271.44 307.96C272.773 305.507 274.133 302.787 275.52 299.8C276.96 296.76 278.32 293.747 279.6 290.76C280.933 287.773 282.08 285.16 283.04 282.92C284.053 280.04 284.853 277.747 285.44 276.04C286.08 274.333 286.64 273.053 287.12 272.2C287.6 271.347 288.107 270.76 288.64 270.44C288.907 270.227 289.28 270.12 289.76 270.12C290.24 270.12 290.72 270.333 291.2 270.76C291.413 270.973 291.6 271.32 291.76 271.8C291.973 272.227 292.053 272.76 292 273.4C291.733 274.253 291.253 275.613 290.56 277.48C289.92 279.347 289.173 281.4 288.32 283.64C287.467 285.88 286.64 288.013 285.84 290.04C285.04 292.067 284.347 293.693 283.76 294.92C283.173 296.04 282.613 297 282.08 297.8C281.547 298.6 281.28 299.213 281.28 299.64C281.28 299.853 281.013 300.52 280.48 301.64C279.947 302.707 279.253 304.013 278.4 305.56C277.6 307.107 276.72 308.707 275.76 310.36C274.8 312.013 273.893 313.533 273.04 314.92C272.187 316.307 271.467 317.373 270.88 318.12C269.547 319.773 268.24 321.133 266.96 322.2C265.733 323.267 264.667 324.04 263.76 324.52C262.853 325 262.213 325.24 261.84 325.24ZM296.378 322.6C294.405 321.107 293.151 319.96 292.618 319.16C292.085 318.307 291.765 317.293 291.658 316.12C291.551 315.16 291.551 313.853 291.658 312.2C291.818 310.547 292.005 308.92 292.218 307.32C292.431 305.72 292.618 304.52 292.778 303.72C293.045 303.453 293.151 303.107 293.098 302.68C293.098 302.2 293.098 301.96 293.098 301.96C293.045 301.693 293.231 301 293.658 299.88C294.085 298.707 294.485 297.213 294.858 295.4C295.925 292.2 296.938 289.533 297.898 287.4C298.911 285.213 299.898 283.347 300.858 281.8C301.818 280.253 302.778 278.84 303.738 277.56C305.925 275.32 307.685 273.64 309.018 272.52C310.351 271.347 311.845 270.387 313.498 269.64C314.565 269 315.551 268.493 316.458 268.12C317.365 267.747 318.111 267.693 318.698 267.96C321.685 268.6 323.925 269.827 325.418 271.64C326.911 273.4 328.005 276.147 328.698 279.88C329.071 282.227 329.285 284.36 329.338 286.28C329.445 288.147 329.311 290.013 328.938 291.88C328.565 293.693 327.871 295.693 326.858 297.88C325.898 300.067 324.538 302.627 322.778 305.56C320.911 309.24 318.805 312.44 316.458 315.16C314.165 317.88 311.791 320.013 309.338 321.56C306.938 323.16 304.591 324.067 302.298 324.28C300.058 324.493 298.085 323.933 296.378 322.6ZM301.498 320.28C302.725 320.12 303.898 319.747 305.018 319.16C306.138 318.573 307.311 317.72 308.538 316.6C309.765 315.427 311.151 313.96 312.698 312.2C314.085 310.6 315.205 309.267 316.058 308.2C316.965 307.08 317.711 305.96 318.298 304.84C318.938 303.72 319.525 302.36 320.058 300.76C320.645 299.16 321.311 297.08 322.058 294.52C322.485 292.92 322.805 291.587 323.018 290.52C323.231 289.453 323.365 288.467 323.418 287.56C323.471 286.6 323.471 285.507 323.418 284.28C323.418 283.053 323.418 281.48 323.418 279.56C323.365 278.653 323.178 277.72 322.858 276.76C322.538 275.747 322.165 275 321.738 274.52C321.205 273.933 320.458 273.533 319.498 273.32C318.538 273.053 317.471 273.187 316.298 273.72C315.658 273.987 314.831 274.6 313.818 275.56C312.805 276.467 311.738 277.533 310.618 278.76C309.498 279.987 308.431 281.24 307.418 282.52C306.458 283.8 305.658 284.947 305.018 285.96C304.431 286.92 304.138 287.587 304.138 287.96C304.138 287.96 304.111 288.093 304.058 288.36C304.058 288.627 303.951 288.893 303.738 289.16C303.045 289.907 302.271 291.24 301.418 293.16C300.618 295.08 299.845 297.267 299.098 299.72C298.351 302.12 297.711 304.52 297.178 306.92C296.698 309.267 296.405 311.32 296.298 313.08C296.191 314.52 296.138 315.507 296.138 316.04C296.138 316.573 296.245 317 296.458 317.32C296.671 317.587 297.018 318.12 297.498 318.92C297.818 319.453 298.351 319.853 299.098 320.12C299.898 320.387 300.698 320.44 301.498 320.28ZM335.026 322.84C335.026 323.213 334.919 323.267 334.706 323C334.492 322.733 334.092 322.36 333.506 321.88C333.026 321.4 332.732 320.92 332.626 320.44C332.519 319.96 332.492 319.213 332.546 318.2C332.812 316.973 333.292 315.187 333.986 312.84C334.679 310.44 335.506 307.933 336.466 305.32C336.572 304.307 336.759 303.373 337.026 302.52C337.292 301.667 337.426 301.24 337.426 301.24C337.426 301.133 337.559 301 337.826 300.84C338.092 300.68 338.306 300.413 338.466 300.04C338.679 299.933 338.759 299.667 338.706 299.24C338.652 298.76 338.599 298.44 338.546 298.28C338.546 297.907 338.732 297.053 339.106 295.72C339.532 294.387 340.146 292.547 340.946 290.2C341.799 287.853 342.839 284.973 344.066 281.56C344.652 280.813 345.106 280.013 345.426 279.16C345.799 278.307 345.986 277.88 345.986 277.88C346.412 277.347 346.599 277 346.546 276.84C346.492 276.68 346.092 276.36 345.346 275.88C344.919 275.133 344.599 274.387 344.386 273.64C344.172 272.893 344.332 272.2 344.866 271.56C345.026 271.293 345.319 270.947 345.746 270.52C346.226 270.093 346.732 269.693 347.266 269.32C348.492 268.68 349.399 268.253 349.986 268.04C350.626 267.773 351.426 267.773 352.386 268.04C354.092 268.093 355.399 268.173 356.306 268.28C357.212 268.387 357.799 268.653 358.066 269.08C358.226 269.293 358.492 269.507 358.866 269.72C359.292 269.88 359.692 269.96 360.066 269.96C361.026 270.067 362.066 270.36 363.186 270.84C364.306 271.32 365.292 271.8 366.146 272.28C367.052 272.76 367.586 273.107 367.746 273.32C368.652 274.067 369.426 275.213 370.066 276.76C370.759 278.307 371.186 280.093 371.346 282.12C371.346 283.347 371.292 284.387 371.186 285.24C371.132 286.04 370.919 286.84 370.546 287.64C370.172 288.44 369.559 289.427 368.706 290.6C367.106 293.267 364.946 295.853 362.226 298.36C359.559 300.813 356.466 303.053 352.946 305.08C352.839 305.293 352.706 305.533 352.546 305.8C352.439 306.013 352.386 306.12 352.386 306.12C352.386 306.493 352.706 307.08 353.346 307.88C353.986 308.68 354.786 309.56 355.746 310.52C356.759 311.48 357.772 312.44 358.786 313.4C359.852 314.307 360.812 315.08 361.666 315.72C362.519 316.36 363.106 316.76 363.426 316.92C363.746 317.027 364.146 317 364.626 316.84C365.159 316.68 365.639 316.653 366.066 316.76C366.492 316.813 366.706 317.293 366.706 318.2C366.812 318.947 366.572 319.613 365.986 320.2C365.399 320.733 365.026 321.053 364.866 321.16C364.546 321.693 364.279 322.067 364.066 322.28C363.906 322.493 363.639 322.493 363.266 322.28C362.946 322.12 362.386 321.773 361.586 321.24C359.666 320.6 357.826 319.48 356.066 317.88C354.306 316.28 352.519 314.36 350.706 312.12C349.586 310.947 348.706 310.12 348.066 309.64C347.479 309.107 346.972 308.787 346.546 308.68C346.119 308.573 345.586 308.573 344.946 308.68C344.572 308.68 344.119 308.653 343.586 308.6C343.106 308.493 342.652 308.227 342.226 307.8C342.172 307.427 341.879 307.16 341.346 307C340.866 306.787 340.626 306.867 340.626 307.24C340.572 307.347 340.386 307.907 340.066 308.92C339.746 309.933 339.399 311 339.026 312.12C338.652 313.187 338.332 313.933 338.066 314.36C338.172 314.84 338.092 315.64 337.826 316.76C337.559 317.88 337.132 319.453 336.546 321.48C336.492 322.067 336.359 322.52 336.146 322.84C335.986 323.213 335.906 323.213 335.906 322.84C335.586 322.627 335.372 322.52 335.266 322.52C335.212 322.52 335.132 322.627 335.026 322.84ZM350.066 301.8C351.772 300.787 353.479 299.587 355.186 298.2C356.892 296.813 358.439 295.427 359.826 294.04C361.212 292.653 362.252 291.427 362.946 290.36C363.372 290.04 363.772 289.507 364.146 288.76C364.572 288.013 364.919 287.56 365.186 287.4C365.612 286.813 365.906 286.387 366.066 286.12C366.279 285.8 366.252 285.4 365.986 284.92C365.986 284.493 366.012 284.067 366.066 283.64C366.119 283.213 366.279 282.813 366.546 282.44C367.079 280.84 367.106 279.72 366.626 279.08C366.199 278.44 365.319 277.827 363.986 277.24C363.719 276.973 363.239 276.707 362.546 276.44C361.906 276.173 361.212 275.933 360.466 275.72C359.719 275.453 359.132 275.24 358.706 275.08C357.799 274.92 356.892 274.787 355.986 274.68C355.079 274.52 354.386 274.467 353.906 274.52C353.319 274.68 352.919 274.893 352.706 275.16C352.492 275.373 352.039 276.173 351.346 277.56C351.239 278.253 351.026 278.947 350.706 279.64C350.386 280.333 350.119 280.733 349.906 280.84C349.852 281.053 349.586 281.827 349.106 283.16C348.626 284.493 348.039 286.093 347.346 287.96C346.706 289.827 346.039 291.693 345.346 293.56C344.706 295.373 344.172 296.92 343.746 298.2C343.319 299.48 343.106 300.227 343.106 300.44C343.106 300.547 343.372 300.813 343.906 301.24C344.439 301.613 344.759 301.613 344.866 301.24C344.866 301.24 345.079 301.32 345.506 301.48C345.932 301.64 346.252 301.773 346.466 301.88L347.666 302.6L350.066 301.8ZM407.589 318.12C407.536 318.333 407.109 318.333 406.309 318.12C405.509 317.907 404.629 317.56 403.669 317.08C402.763 316.547 401.989 315.96 401.349 315.32C400.336 314.627 399.216 313.667 397.989 312.44C396.763 311.213 395.589 309.88 394.469 308.44C393.349 307 392.416 305.613 391.669 304.28C391.136 303.373 390.736 302.547 390.469 301.8C390.203 301 389.856 300.6 389.429 300.6C389.056 300.653 388.656 300.493 388.229 300.12C387.803 299.747 387.429 299.24 387.109 298.6C386.789 297.96 386.549 297.32 386.389 296.68C386.443 296.253 386.603 295.88 386.869 295.56C387.189 295.187 387.563 295.027 387.989 295.08C387.989 294.92 388.416 294.387 389.269 293.48C390.123 292.573 391.189 291.48 392.469 290.2C393.803 288.867 395.189 287.507 396.629 286.12C398.123 284.733 399.509 283.48 400.789 282.36C402.069 281.24 403.083 280.413 403.829 279.88C404.149 279.453 404.389 279.133 404.549 278.92C404.763 278.707 404.949 278.52 405.109 278.36C405.109 278.36 405.296 278.28 405.669 278.12C406.096 277.907 406.496 277.613 406.869 277.24C407.349 276.973 407.749 276.653 408.069 276.28C408.443 275.853 408.683 275.507 408.789 275.24C409.056 275.133 409.509 274.84 410.149 274.36C410.789 273.88 411.456 273.453 412.149 273.08C412.949 272.653 413.589 272.253 414.069 271.88C414.603 271.507 414.869 271.32 414.869 271.32C415.349 271.32 415.883 271.587 416.469 272.12C417.109 272.6 417.509 273 417.669 273.32C418.096 273.96 418.309 274.36 418.309 274.52C418.309 274.68 418.096 274.893 417.669 275.16C417.243 276.12 416.683 276.813 415.989 277.24C415.296 277.667 414.576 278.04 413.829 278.36C413.136 278.68 412.469 279.187 411.829 279.88C410.816 281.053 409.723 281.907 408.549 282.44C407.429 282.973 406.336 283.827 405.269 285C404.096 286.067 402.923 287.16 401.749 288.28C400.576 289.4 399.349 290.467 398.069 291.48C398.069 291.48 397.909 291.64 397.589 291.96C397.269 292.227 396.709 292.76 395.909 293.56C395.163 294.307 394.123 295.373 392.789 296.76L394.389 300.2C395.883 302.227 397.429 304.173 399.029 306.04C400.629 307.907 402.176 309.48 403.669 310.76C405.216 312.04 406.523 312.813 407.589 313.08C408.389 313.347 409.056 313.96 409.589 314.92C410.016 315.08 410.229 315.427 410.229 315.96C410.229 316.44 410.016 316.893 409.589 317.32C409.216 317.747 408.549 318.013 407.589 318.12ZM376.149 322.6C375.456 322.493 374.869 322.093 374.389 321.4C373.909 320.707 373.616 319.987 373.509 319.24C373.776 318.813 373.936 318.28 373.989 317.64C374.096 316.947 374.256 316.52 374.469 316.36C374.523 315.933 374.683 315.24 374.949 314.28C375.216 313.32 375.403 312.307 375.509 311.24C375.936 310.44 376.256 309.587 376.469 308.68C376.736 307.72 377.029 306.893 377.349 306.2C377.563 305.72 377.749 305.187 377.909 304.6C378.069 304.013 378.256 303.56 378.469 303.24C379.003 301.693 379.429 300.387 379.749 299.32C380.123 298.2 380.363 297.08 380.469 295.96C380.683 295.587 380.869 295.187 381.029 294.76C381.243 294.333 381.429 293.72 381.589 292.92C381.696 292.707 381.989 292.093 382.469 291.08C383.003 290.013 383.403 288.813 383.669 287.48C384.363 285.667 384.949 284.227 385.429 283.16C385.909 282.093 386.336 281.133 386.709 280.28C387.083 279.427 387.483 278.44 387.909 277.32C388.176 276.627 388.416 275.933 388.629 275.24C388.843 274.547 388.949 274.2 388.949 274.2C388.949 273.987 389.109 273.533 389.429 272.84C389.749 272.147 390.149 271.373 390.629 270.52C391.056 269.773 391.456 269.133 391.829 268.6C392.256 268.013 392.549 267.72 392.709 267.72C393.403 267.667 394.043 267.853 394.629 268.28C395.269 268.653 395.723 269.16 395.989 269.8C396.256 270.387 396.176 270.973 395.749 271.56C395.589 271.88 395.269 272.6 394.789 273.72C394.309 274.787 393.776 276.013 393.189 277.4C392.603 278.733 392.043 280.013 391.509 281.24C391.029 282.413 390.656 283.293 390.389 283.88C390.176 284.573 389.776 285.56 389.189 286.84C388.656 288.067 388.229 289.32 387.909 290.6C387.216 291.613 386.736 292.707 386.469 293.88C386.203 295.053 385.936 295.88 385.669 296.36C385.509 296.733 385.349 297.107 385.189 297.48C385.029 297.853 384.869 298.147 384.709 298.36C384.709 298.36 384.629 298.52 384.469 298.84C384.363 299.16 384.176 299.587 383.909 300.12C383.909 300.547 383.856 301.053 383.749 301.64C383.696 302.173 383.536 302.627 383.269 303C383.109 303.533 382.923 304.013 382.709 304.44C382.549 304.813 382.469 305 382.469 305C382.469 305.16 382.416 305.453 382.309 305.88C382.203 306.253 382.096 306.627 381.989 307C381.776 307.533 381.456 308.547 381.029 310.04C380.603 311.48 380.176 312.973 379.749 314.52C379.109 316.92 378.603 318.707 378.229 319.88C377.856 321 377.509 321.72 377.189 322.04C376.923 322.413 376.576 322.6 376.149 322.6ZM429.379 325C428.419 324.733 427.646 324.493 427.059 324.28C426.473 324.12 426.179 324.04 426.179 324.04C426.286 323.773 426.233 323.533 426.019 323.32C425.859 323.107 425.486 322.973 424.899 322.92C424.099 322.44 423.353 321.827 422.659 321.08C422.019 320.387 421.486 319.693 421.059 319C420.633 318.307 420.313 317.72 420.099 317.24C419.726 316.44 419.539 315.96 419.539 315.8C419.593 315.587 419.913 315.347 420.499 315.08C421.086 314.653 421.513 314.52 421.779 314.68C422.099 314.84 422.473 315.373 422.899 316.28C423.593 317.507 424.766 318.44 426.419 319.08C428.126 319.72 430.019 320.013 432.099 319.96C434.233 319.853 436.259 319.373 438.179 318.52C440.153 317.72 441.379 316.893 441.859 316.04C442.393 315.133 442.206 313.987 441.299 312.6C441.139 312.173 440.953 311.827 440.739 311.56C440.526 311.293 440.179 310.947 439.699 310.52C439.273 310.093 438.553 309.4 437.539 308.44C436.739 308.067 435.993 307.72 435.299 307.4C434.659 307.08 433.966 306.733 433.219 306.36C432.366 305.933 431.326 305.32 430.099 304.52C428.926 303.667 427.806 302.733 426.739 301.72C425.673 300.707 424.899 299.773 424.419 298.92C423.566 298.12 422.926 297.027 422.499 295.64C422.073 294.2 421.913 292.68 422.019 291.08C422.126 289.48 422.526 288.04 423.219 286.76C423.539 286.013 424.073 285.107 424.819 284.04C425.619 282.92 426.499 281.8 427.459 280.68C428.419 279.56 429.353 278.547 430.259 277.64C431.166 276.733 431.913 276.093 432.499 275.72C432.926 275.293 433.379 274.867 433.859 274.44C434.339 273.96 434.579 273.72 434.579 273.72C434.633 273.453 434.713 273.32 434.819 273.32C434.979 273.32 435.059 273.32 435.059 273.32C435.326 273.16 435.913 272.893 436.819 272.52C437.726 272.147 438.713 271.453 439.779 270.44C443.353 268.733 446.259 267.48 448.499 266.68C450.739 265.88 452.579 265.48 454.019 265.48C455.353 265.533 456.553 265.853 457.619 266.44C458.739 266.973 459.646 267.693 460.339 268.6C461.086 269.507 461.539 270.6 461.699 271.88C462.073 273.16 461.966 274.653 461.379 276.36C460.793 278.013 459.913 279.587 458.739 281.08C457.619 282.52 456.393 283.613 455.059 284.36C453.566 285 452.553 285.293 452.019 285.24C451.539 285.133 451.326 284.573 451.379 283.56C451.379 283.133 451.513 282.627 451.779 282.04C452.099 281.453 452.926 280.413 454.259 278.92C455.966 276.413 457.006 274.413 457.379 272.92C457.753 271.427 457.406 270.6 456.339 270.44C456.019 270.333 455.433 270.333 454.579 270.44C453.779 270.547 452.873 270.707 451.859 270.92C450.899 271.08 450.073 271.267 449.379 271.48C448.686 271.64 448.339 271.773 448.339 271.88C448.339 271.88 448.339 271.96 448.339 272.12C448.339 272.28 448.233 272.333 448.019 272.28C447.913 272.28 447.459 272.493 446.659 272.92C445.859 273.347 444.899 273.907 443.779 274.6C442.659 275.293 441.539 275.987 440.419 276.68C439.299 277.373 438.339 277.987 437.539 278.52C436.793 279 436.393 279.293 436.339 279.4C436.233 279.987 435.619 280.52 434.499 281C433.433 281.64 432.446 282.573 431.539 283.8C430.686 285.027 429.726 286.547 428.659 288.36C427.753 289.587 427.113 290.92 426.739 292.36C426.366 293.747 426.366 294.867 426.739 295.72C427.006 296.573 427.833 297.667 429.219 299C430.606 300.333 432.339 301.613 434.419 302.84C436.233 303.853 437.859 304.867 439.299 305.88C440.739 306.84 441.913 307.773 442.819 308.68C443.779 309.587 444.419 310.387 444.739 311.08C445.379 311.987 445.833 312.92 446.099 313.88C446.419 314.787 446.579 315.667 446.579 316.52C446.633 317.373 446.553 318.147 446.339 318.84C445.966 319.693 445.299 320.573 444.339 321.48C443.433 322.387 442.659 322.813 442.019 322.76C441.433 322.92 440.979 323.107 440.659 323.32C440.393 323.533 440.073 323.72 439.699 323.88C439.326 324.093 438.526 324.307 437.299 324.52C436.126 324.733 434.819 324.867 433.379 324.92C431.939 325.027 430.606 325.053 429.379 325Z" fill="white"/>
<defs>
<filter id="filter0_d_134_136" x="0" y="0" width="526.838" height="450.351" filterUnits="userSpaceOnUse" color-interpolation-filters="sRGB">
<feFlood flood-opacity="0" result="BackgroundImageFix"/>
<feColorMatrix in="SourceAlpha" type="matrix" values="0 0 0 0 0 0 0 0 0 0 0 0 0 0 0 0 0 0 127 0" result="hardAlpha"/>
<feOffset dy="4"/>
<feGaussianBlur stdDeviation="2"/>
<feComposite in2="hardAlpha" operator="out"/>
<feColorMatrix type="matrix" values="0 0 0 0 0 0 0 0 0 0 0 0 0 0 0 0 0 0 0.25 0"/>
<feBlend mode="normal" in2="BackgroundImageFix" result="effect1_dropShadow_134_136"/>
<feBlend mode="normal" in="SourceGraphic" in2="effect1_dropShadow_134_136" result="shape"/>
</filter>
</defs>
</svg>
