<svg width="568" height="486" viewBox="0 0 568 486" fill="none" xmlns="http://www.w3.org/2000/svg">
<g filter="url(#filter0_d_134_136)">
<path fill-rule="evenodd" clip-rule="evenodd" d="M255.979 9.3371C293.019 13.4471 328.479 19.8805 361.751 38.7337C400.97 60.9575 440.292 85.046 463.658 127.018C491.597 177.203 526.396 240.751 504.095 294.421C481.42 348.994 410.155 341.699 362.866 369.589C325.286 391.754 298.35 442.119 255.979 440.759C213.774 439.403 190.851 384.933 153.415 362.863C105.638 334.696 27.76 351.019 7.79488 294.445C-11.7756 238.99 49.5386 189.494 73.4441 136.253C92.6748 93.4238 97.769 38.6219 133.961 13.4577C169.489 -11.245 214.467 4.73084 255.979 9.3371Z" fill="#ECE9E6"/>
<path fill-rule="evenodd" clip-rule="evenodd" d="M273.748 69.4416C309.239 66.9736 342.339 75.1734 376.891 83.6487C419.466 94.092 470.284 91.0049 498.484 124.567C527.577 159.191 521.35 209.788 520.877 255.009C520.363 304.296 534.053 366.15 495.639 397.035C456.216 428.732 397.593 386.439 347.623 394.308C303.276 401.291 266.718 454.592 224.347 439.755C182.331 425.041 183.064 364.393 157.708 327.802C129.463 287.042 68.3723 263.453 67.8157 213.867C67.2626 164.585 114.79 127.368 155.14 99.0693C189.341 75.0836 232.076 72.3395 273.748 69.4416Z" fill="#2B6FC7"/>
</g>
<path d="M155.68 233.48C154.24 232.573 153.093 231.293 152.24 229.64C151.44 227.987 151.093 226.28 151.2 224.52C151.147 218.227 152.24 211.587 154.48 204.6C155.44 201.773 156.613 198.813 158 195.72C159.387 192.573 160.56 190.173 161.52 188.52C163.013 186.067 164.667 183.907 166.48 182.04C168.293 180.173 169.76 178.92 170.88 178.28C171.573 177.907 172.507 177.56 173.68 177.24C174.907 176.92 176.187 176.76 177.52 176.76C178.587 176.76 179.573 176.867 180.48 177.08C181.76 177.4 183.013 177.853 184.24 178.44C185.467 178.973 186.293 179.427 186.72 179.8C186.933 180.12 187.173 180.493 187.44 180.92C187.76 181.347 188 181.72 188.16 182.04C188.32 182.36 188.4 182.707 188.4 183.08C188.453 183.613 188.213 184.253 187.68 185C187.2 185.747 186.693 186.12 186.16 186.12C185.84 186.12 185.52 185.933 185.2 185.56C184.667 184.76 184.133 184.173 183.6 183.8C183.067 183.373 182.507 183.027 181.92 182.76C181.333 182.493 180.907 182.28 180.64 182.12C179.947 181.693 178.987 181.48 177.76 181.48C176.8 181.48 175.813 181.64 174.8 181.96C173.84 182.227 173.013 182.653 172.32 183.24C171.36 184.093 170.187 185.373 168.8 187.08C167.413 188.733 166.347 190.28 165.6 191.72C162.4 197.32 160.133 202.6 158.8 207.56C158.373 209.107 157.893 211.053 157.36 213.4C156.827 215.747 156.48 217.507 156.32 218.68C156 220.653 155.84 222.44 155.84 224.04C155.84 226.013 156.16 227.533 156.8 228.6C157.493 229.613 158.613 230.12 160.16 230.12C161.227 230.12 162.533 229.853 164.08 229.32C165.84 229.107 167.84 228.093 170.08 226.28C172.32 224.413 174.187 222.307 175.68 219.96C178.08 215.48 179.28 212.467 179.28 210.92C179.28 209.853 178.773 209.32 177.76 209.32C176.693 209.213 175.36 209.16 173.76 209.16C172.693 209.16 171.867 209.133 171.28 209.08C170.693 209.027 170.16 208.867 169.68 208.6C169.307 208.013 169.12 207.507 169.12 207.08C169.12 206.44 169.467 205.773 170.16 205.08C170.907 204.76 172.373 204.6 174.56 204.6C177.653 204.6 180.08 205.027 181.84 205.88C183.493 206.68 184.32 208.307 184.32 210.76C184.32 211.933 184.213 212.973 184 213.88C183.52 215.96 181.893 219.08 179.12 223.24C177.893 224.947 176.053 226.813 173.6 228.84C171.2 230.813 169.253 232.093 167.76 232.68C164.827 234.013 162.187 234.68 159.84 234.68C158.187 234.68 156.8 234.28 155.68 233.48ZM193.944 232.84C193.944 233.053 193.918 233.16 193.864 233.16C193.758 233.16 193.544 233 193.224 232.68C192.958 232.413 192.691 232.147 192.424 231.88C191.944 231.4 191.651 230.947 191.544 230.52C191.438 230.04 191.411 229.267 191.464 228.2C192.318 224.307 193.624 220.013 195.384 215.32C195.491 214.467 195.651 213.64 195.864 212.84C196.078 211.987 196.238 211.453 196.344 211.24C196.344 211.187 196.478 211.053 196.744 210.84C197.064 210.573 197.278 210.307 197.384 210.04C197.544 209.933 197.624 209.693 197.624 209.32C197.624 208.84 197.571 208.493 197.464 208.28C197.464 207.373 199.304 201.8 202.984 191.56C203.464 190.973 203.864 190.28 204.184 189.48C204.558 188.68 204.798 188.147 204.904 187.88C205.011 187.72 205.118 187.56 205.224 187.4C205.384 187.187 205.464 187.053 205.464 187C205.464 186.787 205.278 186.573 204.904 186.36C204.584 186.093 204.371 185.933 204.264 185.88C203.571 184.813 203.224 183.88 203.224 183.08C203.224 182.493 203.411 181.987 203.784 181.56C204.158 181.027 204.958 180.28 206.184 179.32C207.198 178.787 207.944 178.413 208.424 178.2C208.958 177.987 209.491 177.88 210.024 177.88C210.558 177.88 210.984 177.933 211.304 178.04C213.278 178.147 214.638 178.253 215.384 178.36C216.184 178.467 216.718 178.707 216.984 179.08C217.144 179.293 217.411 179.507 217.784 179.72C218.211 179.88 218.611 179.96 218.984 179.96C220.264 180.12 221.784 180.627 223.544 181.48C225.358 182.333 226.398 182.947 226.664 183.32C227.624 184.12 228.424 185.293 229.064 186.84C229.704 188.387 230.104 190.147 230.264 192.12C230.264 194.147 230.131 195.667 229.864 196.68C229.598 197.64 228.851 198.947 227.624 200.6C226.024 203.267 223.864 205.853 221.144 208.36C218.478 210.813 215.384 213.053 211.864 215.08L211.304 216.12C211.304 216.707 212.051 217.8 213.544 219.4C215.091 221 216.798 222.6 218.664 224.2C220.531 225.747 221.758 226.653 222.344 226.92C222.558 227.027 222.904 227.027 223.384 226.92C223.918 226.76 224.291 226.68 224.504 226.68C225.251 226.68 225.624 227.187 225.624 228.2C225.784 229.16 225.171 230.147 223.784 231.16C223.571 231.533 223.358 231.827 223.144 232.04C222.984 232.307 222.824 232.44 222.664 232.44C222.344 232.44 221.624 232.04 220.504 231.24C218.691 230.653 216.904 229.613 215.144 228.12C213.438 226.573 211.598 224.573 209.624 222.12C208.184 220.68 207.144 219.747 206.504 219.32C205.918 218.84 205.331 218.6 204.744 218.6C204.371 218.6 204.078 218.627 203.864 218.68C203.278 218.68 202.771 218.627 202.344 218.52C201.918 218.413 201.518 218.173 201.144 217.8C201.038 217.427 200.744 217.16 200.264 217C199.784 216.787 199.544 216.867 199.544 217.24L198.744 219.48C197.891 222.147 197.304 223.773 196.984 224.36C197.038 224.787 196.904 225.64 196.584 226.92C196.318 228.2 195.944 229.72 195.464 231.48C195.411 232.067 195.278 232.52 195.064 232.84C194.904 233.213 194.824 233.213 194.824 232.84C194.504 232.627 194.291 232.52 194.184 232.52C194.131 232.52 194.051 232.627 193.944 232.84ZM208.984 211.8C211.491 210.307 213.998 208.44 216.504 206.2C219.011 203.96 220.798 202.013 221.864 200.36C222.184 200.147 222.584 199.64 223.064 198.84C223.598 197.987 223.944 197.507 224.104 197.4C224.264 197.133 224.478 196.84 224.744 196.52C225.011 196.147 225.144 195.853 225.144 195.64C225.144 195.373 225.064 195.133 224.904 194.92C224.904 194.493 224.931 194.067 224.984 193.64C225.038 193.16 225.198 192.76 225.464 192.44C225.731 191.48 225.864 190.787 225.864 190.36C225.864 189.613 225.624 189.027 225.144 188.6C224.718 188.173 223.971 187.72 222.904 187.24C222.584 186.92 221.971 186.6 221.064 186.28C220.158 185.96 219.598 185.773 219.384 185.72L217.624 185.08C217.038 185.08 216.158 184.973 214.984 184.76C214.078 184.6 213.358 184.52 212.824 184.52C212.238 184.68 211.838 184.893 211.624 185.16C211.411 185.373 210.958 186.173 210.264 187.56C210.158 188.253 209.944 188.947 209.624 189.64C209.304 190.333 209.038 190.733 208.824 190.84C208.771 191.053 208.051 193.107 206.664 197C203.571 205.533 202.024 210.013 202.024 210.44C202.024 210.6 202.291 210.867 202.824 211.24C203.358 211.56 203.678 211.56 203.784 211.24C203.891 211.293 204.104 211.373 204.424 211.48C204.798 211.587 205.118 211.72 205.384 211.88L206.584 212.6L208.984 211.8ZM231.948 233.64C231.361 233.32 230.935 233.027 230.668 232.76C230.455 232.493 230.348 232.147 230.348 231.72C230.348 231.187 230.561 230.44 230.988 229.48C231.468 228.467 232.268 226.893 233.388 224.76C233.708 224.067 234.321 222.84 235.228 221.08C238.321 215.16 239.868 211.933 239.868 211.4C239.815 211.293 239.788 211.133 239.788 210.92C239.788 210.387 240.215 209.907 241.068 209.48C242.295 208.253 243.308 206.947 244.108 205.56C244.641 204.387 245.361 203 246.268 201.4C247.175 199.747 248.295 197.8 249.628 195.56C250.268 194.44 251.228 192.813 252.508 190.68C254.481 187.16 257.015 183.32 260.108 179.16C261.335 177.507 262.348 176.707 263.148 176.76C264.161 176.76 265.281 177.24 266.508 178.2C267.788 179.107 268.668 180.147 269.148 181.32C269.361 181.693 269.468 182.493 269.468 183.72C269.468 185.373 269.281 188.173 268.908 192.12C268.801 192.813 268.695 193.907 268.588 195.4C268.428 197.8 268.188 200.36 267.868 203.08C267.281 209.053 266.855 213.72 266.588 217.08C266.321 220.44 266.188 223.587 266.188 226.52C266.188 228.013 266.215 229.107 266.268 229.8V230.36L266.188 232.2C265.868 232.52 265.388 232.68 264.748 232.68C264.001 232.68 263.281 232.493 262.588 232.12C261.895 231.8 261.495 231.4 261.388 230.92C261.335 230.867 261.255 230.813 261.148 230.76C261.041 230.707 260.988 230.467 260.988 230.04L261.068 228.28L261.308 223.8L261.708 210.84L260.668 210.92C259.601 210.92 257.228 211.133 253.548 211.56C249.868 211.987 247.575 212.333 246.668 212.6C246.188 212.6 245.601 212.92 244.908 213.56C244.215 214.2 243.601 215.027 243.068 216.04C242.908 216.573 242.535 217.347 241.948 218.36C241.361 219.32 241.068 219.88 241.068 220.04C240.748 220.253 240.455 220.547 240.188 220.92C239.975 221.24 239.841 221.453 239.788 221.56C239.788 222.147 239.228 223.64 238.108 226.04C237.041 228.44 235.975 230.44 234.908 232.04L233.228 234.6L231.948 233.64ZM248.508 207.88C248.828 207.827 249.521 207.72 250.588 207.56C251.655 207.347 252.615 207.213 253.468 207.16C257.308 206.253 259.655 205.8 260.508 205.8C260.881 205.8 261.228 205.88 261.548 206.04C261.708 206.253 261.868 206.413 262.028 206.52C262.241 206.573 262.375 206.6 262.428 206.6C262.535 206.28 262.855 203.4 263.388 197.96C263.975 192.467 264.295 188.813 264.348 187L264.588 183C264.268 183 263.575 183.613 262.508 184.84C261.441 186.067 260.241 187.667 258.908 189.64C257.628 191.56 256.481 193.533 255.468 195.56C254.935 196.52 254.401 197.427 253.868 198.28C253.388 199.08 253.041 199.48 252.828 199.48C252.455 199.853 251.575 201.293 250.188 203.8C248.801 206.307 248.241 207.667 248.508 207.88ZM279.144 235.48C278.878 235.373 278.478 235.24 277.944 235.08C277.411 234.92 276.958 234.707 276.584 234.44C276.211 234.227 276.024 233.907 276.024 233.48C275.918 233.267 275.918 232.867 276.024 232.28C276.131 231.693 276.398 230.653 276.824 229.16L277.304 227.4C277.784 225.853 278.024 225.053 278.024 225C278.078 225.053 278.158 225.08 278.264 225.08C278.744 225.08 278.984 224.44 278.984 223.16C278.931 222.947 278.984 222.6 279.144 222.12C279.358 221.64 279.598 221.16 279.864 220.68C279.864 220.307 280.078 218.947 280.504 216.6C281.678 212.707 283.091 209.107 284.744 205.8C284.798 205.373 284.984 204.76 285.304 203.96C285.624 203.16 285.864 202.653 286.024 202.44C286.131 201.64 286.424 200.627 286.904 199.4C287.384 198.12 287.864 197.267 288.344 196.84C288.344 196.253 288.798 194.947 289.704 192.92C290.611 190.893 291.144 189.88 291.304 189.88C291.304 189.827 291.358 189.64 291.464 189.32C291.624 188.947 291.918 188.467 292.344 187.88C292.344 187.613 292.398 187.267 292.504 186.84C292.611 186.413 292.851 186.067 293.224 185.8C293.278 185.64 293.358 185.32 293.464 184.84C293.571 184.36 293.598 184.04 293.544 183.88C293.544 183.72 293.491 183.613 293.384 183.56C293.278 183.293 293.224 182.973 293.224 182.6C293.224 181.853 293.704 181.453 294.664 181.4C294.984 181.4 295.358 180.947 295.784 180.04C295.944 179.72 296.211 179.507 296.584 179.4C297.011 179.24 297.704 179.08 298.664 178.92L300.824 178.52L305.064 177.8C305.971 177.8 306.984 177.853 308.104 177.96C309.224 178.067 310.131 178.2 310.824 178.36C312.744 179.267 314.238 180.467 315.304 181.96C316.424 183.4 316.984 184.813 316.984 186.2C316.984 187.8 316.451 190.067 315.384 193C314.371 195.933 313.411 197.747 312.504 198.44C312.771 198.44 312.638 198.76 312.104 199.4C311.624 199.987 311.038 200.627 310.344 201.32C309.651 201.96 309.118 202.333 308.744 202.44C308.744 202.547 308.531 202.92 308.104 203.56C307.678 204.2 307.171 204.68 306.584 205C305.518 205.64 304.718 206.173 304.184 206.6C303.651 207.027 303.198 207.507 302.824 208.04C302.824 207.773 302.744 207.64 302.584 207.64C302.371 207.64 302.051 207.827 301.624 208.2C301.251 208.52 300.958 208.733 300.744 208.84C298.344 210.28 296.024 211.213 293.784 211.64C293.411 211.96 292.451 212.12 290.904 212.12L288.184 211.72L286.504 216.28L284.104 223.88C282.771 227.933 281.838 230.813 281.304 232.52C281.091 233.853 280.771 234.76 280.344 235.24C279.918 235.773 279.518 235.853 279.144 235.48ZM290.024 207.48C292.744 207.533 295.038 207.107 296.904 206.2C298.824 205.293 300.718 203.96 302.584 202.2C303.438 201.347 304.478 200.2 305.704 198.76C306.984 197.267 308.024 195.96 308.824 194.84C309.624 193.667 310.238 192.333 310.664 190.84C311.091 189.293 311.304 187.853 311.304 186.52C311.304 185.453 311.171 184.653 310.904 184.12C309.998 182.84 308.531 182.2 306.504 182.2C304.478 182.2 302.478 182.76 300.504 183.88C299.971 184.093 298.798 186.04 296.984 189.72C295.171 193.347 293.518 197.08 292.024 200.92C290.531 204.707 289.864 206.893 290.024 207.48ZM320.319 237.64C320.212 237.587 319.999 237.507 319.679 237.4C319.359 237.293 319.012 237.24 318.639 237.24C317.999 237.08 317.465 236.733 317.039 236.2C316.665 235.667 316.479 235.053 316.479 234.36C316.479 233.987 316.505 233.693 316.559 233.48C316.719 233.32 316.852 232.893 316.959 232.2C317.119 231.56 317.199 230.973 317.199 230.44C317.359 230.12 317.492 229.8 317.599 229.48C317.705 229.107 317.839 228.6 317.999 227.96C318.425 225.613 319.412 221.667 320.959 216.12C322.505 210.573 323.465 207.613 323.839 207.24V206.36C323.839 206.2 323.892 205.88 323.999 205.4C324.105 204.92 324.345 204.413 324.719 203.88C324.932 203.24 325.092 202.627 325.199 202.04C325.359 201.4 325.465 200.92 325.519 200.6C325.732 200.333 326.079 199.533 326.559 198.2C327.092 196.867 327.439 195.987 327.599 195.56C327.972 194.547 328.425 193.373 328.959 192.04C329.545 190.653 329.945 189.747 330.159 189.32V188.92C330.265 188.813 330.532 188.28 330.959 187.32C331.439 186.307 331.839 185.453 332.159 184.76C332.532 183.907 333.519 181.693 335.119 178.12C335.279 177.747 335.519 177.293 335.839 176.76C336.212 176.173 336.399 175.773 336.399 175.56C336.612 175.187 336.985 175 337.519 175C337.999 175 338.479 175.187 338.959 175.56C339.492 175.88 339.892 176.307 340.159 176.84L340.959 178.12L338.079 183.88C337.279 185.267 336.585 186.6 335.999 187.88C335.412 189.16 335.119 189.907 335.119 190.12C334.905 190.653 334.479 191.747 333.839 193.4C333.252 195.053 332.772 196.467 332.399 197.64C332.132 198.44 331.812 199.293 331.439 200.2C331.065 201.053 330.799 201.667 330.639 202.04C330.212 203 329.999 203.533 329.999 203.64C329.999 203.427 333.199 203.32 339.599 203.32C340.612 203.32 342.399 203.293 344.959 203.24C347.572 203.187 349.199 203.107 349.839 203L353.999 202.6L356.719 194.36C357.252 192.493 358.425 188.867 360.239 183.48C361.039 181.187 361.679 179.72 362.159 179.08C362.639 178.387 363.225 178.04 363.919 178.04C364.185 178.04 364.559 178.173 365.039 178.44C365.572 178.653 365.919 178.947 366.079 179.32C366.665 179.907 366.959 180.52 366.959 181.16C366.959 181.907 366.532 182.947 365.679 184.28C365.039 185.4 364.132 187.507 362.959 190.6C362.479 192.04 362.185 192.867 362.079 193.08C362.079 194.2 361.812 195.027 361.279 195.56C361.065 195.773 360.692 196.547 360.159 197.88C359.625 199.16 359.359 199.907 359.359 200.12C359.359 200.547 359.279 201.027 359.119 201.56C358.959 202.04 358.772 202.387 358.559 202.6L357.999 204.52C356.132 211.293 354.665 215.987 353.599 218.6C353.599 218.867 353.465 219.347 353.199 220.04C352.932 220.733 352.799 221.213 352.799 221.48C352.692 221.853 352.452 222.6 352.079 223.72C351.705 224.84 351.519 225.507 351.519 225.72C351.412 226.307 351.199 227.24 350.879 228.52C350.079 232.147 349.679 234.12 349.679 234.44C349.572 234.547 349.412 234.6 349.199 234.6C348.985 234.6 348.639 234.52 348.159 234.36C347.732 234.2 347.412 234.067 347.199 233.96C345.919 233.267 345.279 232.467 345.279 231.56C345.279 230.973 345.519 230.2 345.999 229.24C346.159 228.973 346.665 227.24 347.519 224.04L348.239 221.08C348.559 220.227 349.279 217.693 350.399 213.48C351.305 210.227 351.812 208.547 351.919 208.44V207.64C351.759 207.373 349.812 207.24 346.079 207.24C341.865 207.24 337.999 207.453 334.479 207.88H330.719H328.639C328.372 208.467 327.545 210.947 326.159 215.32C324.825 219.64 324.079 222.36 323.919 223.48C323.545 225.24 322.959 227.693 322.159 230.84C321.359 233.933 320.745 236.2 320.319 237.64ZM372.597 235.4C371.957 234.707 370.517 234.36 368.277 234.36C367.744 234.36 366.73 234.413 365.237 234.52C365.024 234.573 364.704 234.6 364.277 234.6C363.317 234.6 362.49 234.36 361.797 233.88C361.104 233.453 360.81 232.947 360.917 232.36C361.024 231.027 363.21 230.253 367.477 230.04L371.717 229.8L372.517 228.12L374.117 222.2C374.33 221.347 374.624 220.36 374.997 219.24C375.37 218.067 375.744 216.867 376.117 215.64C377.77 210.573 378.65 207.693 378.757 207C379.024 206.307 379.504 204.787 380.197 202.44C380.89 200.04 381.317 198.413 381.477 197.56C382.65 193.613 383.424 190.653 383.797 188.68C384.224 186.707 384.33 185.72 384.117 185.72C383.637 185.667 382.197 185.8 379.797 186.12C377.397 186.44 376.09 186.68 375.877 186.84C375.717 187.107 375.45 187.24 375.077 187.24C374.704 187.24 374.33 187.133 373.957 186.92C373.584 186.653 373.344 186.36 373.237 186.04C373.184 185.827 373.157 185.533 373.157 185.16C373.157 184.787 373.29 184.493 373.557 184.28C374.144 183.8 375.424 183.24 377.397 182.6C379.37 181.907 381.29 181.4 383.157 181.08C384.064 180.973 384.97 180.76 385.877 180.44C386.784 180.067 387.477 179.667 387.957 179.24C389.024 178.813 389.957 178.627 390.757 178.68C391.13 178.893 391.797 179 392.757 179C393.824 179 394.997 178.92 396.277 178.76C398.73 178.44 400.517 178.28 401.637 178.28C402.437 178.28 403.05 178.387 403.477 178.6C403.904 178.76 404.25 179.08 404.517 179.56C404.73 180.413 404.837 180.973 404.837 181.24C404.837 182.253 404.277 182.733 403.157 182.68C402.304 182.947 400.117 183.187 396.597 183.4C392.864 183.88 390.864 184.333 390.597 184.76C390.33 185.027 390.117 185.267 389.957 185.48C389.85 185.693 389.717 185.907 389.557 186.12C389.61 186.333 389.504 187.027 389.237 188.2C389.024 189.32 388.73 190.493 388.357 191.72L387.237 195.4C386.864 196.52 386.277 198.36 385.477 200.92C384.73 203.427 384.25 204.947 384.037 205.48C383.61 206.76 383.397 207.693 383.397 208.28C382.437 212.12 381.157 216.573 379.557 221.64C378.544 224.787 377.797 227.4 377.317 229.48C377.53 229.48 378.01 229.427 378.757 229.32C379.557 229.213 380.597 229.08 381.877 228.92C385.45 228.493 387.584 228.28 388.277 228.28C388.97 228.28 389.424 228.36 389.637 228.52C389.904 228.68 390.117 228.973 390.277 229.4C390.97 230.253 391.317 230.92 391.317 231.4C391.317 232.04 390.81 232.493 389.797 232.76C388.837 233.027 387.29 233.187 385.157 233.24C382.704 233.4 380.65 233.56 378.997 233.72C377.344 233.88 376.25 234.04 375.717 234.2C375.184 234.413 374.89 234.68 374.837 235C374.837 235.48 374.57 235.72 374.037 235.72C373.557 235.72 373.077 235.613 372.597 235.4ZM416.468 233.96C413.481 233.96 410.735 233.373 408.228 232.2C405.721 231.08 404.121 228.947 403.428 225.8C403.055 223.987 402.868 221.987 402.868 219.8C402.868 215.373 403.561 210.653 404.948 205.64C405.481 203.773 406.868 200.893 409.108 197C411.401 193.107 413.535 189.933 415.508 187.48C416.841 185.88 418.655 184.093 420.948 182.12C423.241 180.147 424.815 178.973 425.668 178.6C426.468 178.173 427.215 177.96 427.908 177.96C428.601 177.96 429.375 178.067 430.228 178.28C431.295 178.387 432.441 178.867 433.668 179.72C434.895 180.573 435.561 181.347 435.668 182.04C435.668 182.253 435.775 182.36 435.988 182.36C436.255 182.36 436.735 182.227 437.428 181.96C437.961 181.373 438.495 181.08 439.028 181.08C439.561 181.08 439.855 181.347 439.908 181.88C439.801 182.04 439.748 182.227 439.748 182.44C439.748 182.76 439.855 183 440.068 183.16C440.335 183.053 440.281 183.613 439.908 184.84C439.535 186.013 439.108 187.027 438.628 187.88L438.388 188.68V188.92C438.388 189.293 438.148 189.72 437.668 190.2C437.348 190.733 436.921 191.96 436.388 193.88C435.855 195.747 435.615 196.947 435.668 197.48C435.775 197.907 435.588 198.12 435.108 198.12C434.735 198.12 434.095 197.96 433.188 197.64C432.335 197.32 431.721 196.973 431.348 196.6C430.975 196.227 430.788 195.693 430.788 195C430.788 194.36 431.001 193.32 431.428 191.88C432.281 189 432.708 187.08 432.708 186.12C432.708 185.053 432.388 184.28 431.748 183.8C431.588 183.48 431.268 183.24 430.788 183.08C430.361 182.92 429.881 182.84 429.348 182.84C428.815 182.84 428.281 182.973 427.748 183.24C426.628 183.667 424.921 185.187 422.628 187.8C420.335 190.36 418.175 193.053 416.148 195.88C413.535 199.56 411.508 203.427 410.068 207.48C408.681 211.533 407.988 215.4 407.988 219.08C407.988 221.64 408.361 224.093 409.108 226.44C409.215 226.707 409.535 227.187 410.068 227.88C410.601 228.52 411.028 228.947 411.348 229.16C412.201 229.373 413.295 229.48 414.628 229.48C415.748 229.48 417.055 229.4 418.548 229.24C420.681 228.867 422.281 228.28 423.348 227.48C424.468 226.68 425.615 225.453 426.788 223.8C427.695 222.573 428.548 221.96 429.348 221.96C430.255 221.96 430.815 222.68 431.028 224.12C431.028 224.6 430.548 225.587 429.588 227.08C428.681 228.52 427.988 229.293 427.508 229.4C427.295 229.453 427.161 229.533 427.108 229.64C427.108 229.693 427.135 229.827 427.188 230.04C427.188 230.36 426.601 230.813 425.428 231.4C424.308 232.04 423.028 232.6 421.588 233.08C420.201 233.613 419.188 233.88 418.548 233.88L416.468 233.96Z" fill="white"/>
<path d="M229 328.6C227.613 328.813 226.707 328.92 226.28 328.92C225.213 328.92 223.933 328.707 222.44 328.28C221.747 328.067 221.24 327.827 220.92 327.56C220.6 327.293 220.227 326.893 219.8 326.36C219.427 325.88 219.133 325.507 218.92 325.24C217.96 323.907 217.48 322.733 217.48 321.72C217.48 320.92 217.853 320.627 218.6 320.84C219.133 321.107 219.72 321.64 220.36 322.44C221 323.08 221.693 323.533 222.44 323.8C223.187 324.12 224.093 324.28 225.16 324.28C225.533 324.28 226.253 324.227 227.32 324.12C228.6 323.907 230.093 323.507 231.8 322.92C233.507 322.333 234.76 321.72 235.56 321.08C238.12 319.32 240.2 317.907 241.8 316.84C243.453 315.773 244.493 315.107 244.92 314.84C245.027 314.573 245.587 314.253 246.6 313.88L248.76 311.8C250.147 310.307 251.053 309.4 251.48 309.08C251.533 308.707 251.613 308.333 251.72 307.96C251.88 307.533 251.96 307.213 251.96 307C252.6 306.307 253.56 304.653 254.84 302.04C256.12 299.373 257 297.08 257.48 295.16C257.96 292.653 258.2 290.44 258.2 288.52C258.2 285.267 257.613 282.547 256.44 280.36C255.32 278.12 253.667 276.067 251.48 274.2C250.36 273.293 248.493 272.307 245.88 271.24C243.32 270.12 241.827 269.64 241.4 269.8C241.133 269.853 240.413 271.4 239.24 274.44C238.067 277.427 236.467 281.747 234.44 287.4L231.88 294.52C231.667 295.373 231.427 296.173 231.16 296.92C230.893 297.667 230.68 298.333 230.52 298.92C229.827 300.893 229.48 302.013 229.48 302.28C228.893 303.187 228.413 304.387 228.04 305.88C227.72 307.32 227.347 309.8 226.92 313.32C226.44 315.08 226.227 315.88 226.28 315.72C226.067 316.627 225.88 317.373 225.72 317.96C225.56 318.547 225.4 318.813 225.24 318.76L224.92 319.08C224.92 319.4 224.68 319.56 224.2 319.56C223.773 319.56 223.293 319.453 222.76 319.24C222.227 318.973 221.8 318.68 221.48 318.36C221.267 317.613 221.16 317.08 221.16 316.76C221.16 316.067 221.373 315 221.8 313.56C222.227 311.747 222.92 309.213 223.88 305.96C224.893 302.653 225.747 299.96 226.44 297.88C226.813 296.973 227.347 295.267 228.04 292.76C228.627 290.787 229.267 288.76 229.96 286.68C230.707 284.6 231.24 283.293 231.56 282.76C231.667 282.387 232.013 281.32 232.6 279.56C233.24 277.8 233.987 275.853 234.84 273.72L235.4 271.08L234.52 270.68C234.04 270.84 233.613 270.92 233.24 270.92C232.973 270.92 232.68 270.84 232.36 270.68C231.827 270.84 231.08 270.627 230.12 270.04C229.213 269.4 228.707 268.813 228.6 268.28C228.493 268.12 228.413 267.88 228.36 267.56C228.36 267.24 228.36 267.027 228.36 266.92C228.467 266.387 229.533 265.907 231.56 265.48C233.587 265 235.8 264.76 238.2 264.76C239.213 264.76 239.987 264.787 240.52 264.84C241.48 264.893 242.387 265.053 243.24 265.32C244.147 265.587 245.24 265.987 246.52 266.52L248.44 267.24C250.147 267.88 251.96 269 253.88 270.6C255.853 272.2 257.587 274.093 259.08 276.28C260.627 278.413 261.667 280.6 262.2 282.84C262.36 283.533 262.52 284.493 262.68 285.72C262.84 286.947 262.92 288.04 262.92 289C262.92 290.12 262.813 290.813 262.6 291.08C262.44 291.293 262.36 291.56 262.36 291.88C262.36 292.2 262.467 292.387 262.68 292.44C262.573 292.76 262.387 293.347 262.12 294.2C261.853 295.053 261.56 295.96 261.24 296.92C260.92 300.28 259.427 304.227 256.76 308.76C256.493 308.76 256.28 308.813 256.12 308.92C255.96 308.973 255.987 309.027 256.2 309.08C256.2 309.347 255.907 309.853 255.32 310.6C255.16 310.707 254.813 311.107 254.28 311.8C253.8 312.44 253.453 312.84 253.24 313C253.187 313.373 253.027 313.693 252.76 313.96C252.493 314.173 252.253 314.28 252.04 314.28C252.04 314.28 251.987 314.307 251.88 314.36C251.827 314.36 251.8 314.44 251.8 314.6C250.84 315.987 249.08 317.693 246.52 319.72C244.013 321.747 241.773 323.187 239.8 324.04C239.267 324.413 238.627 324.76 237.88 325.08C237.187 325.4 236.707 325.613 236.44 325.72C236.013 326.093 234.92 326.6 233.16 327.24C231.453 327.933 230.067 328.387 229 328.6ZM278.53 322.92C277.357 322.867 276.263 322.573 275.25 322.04C274.237 321.507 273.09 320.733 271.81 319.72L270.21 318.6C269.25 317.64 268.503 316.653 267.97 315.64C267.49 314.573 267.09 313.213 266.77 311.56C266.663 310.92 266.61 310.36 266.61 309.88C266.61 308.333 266.877 306.52 267.41 304.44C267.943 302.307 268.53 300.573 269.17 299.24C270.343 296.413 272.93 291.88 276.93 285.64C277.143 285.427 277.277 285.293 277.33 285.24C277.437 285.133 277.463 285.08 277.41 285.08C277.41 285.027 277.41 285 277.41 285C277.41 284.627 278.183 282.973 279.73 280.04C280.637 279.08 281.09 278.253 281.09 277.56C281.09 277.187 281.01 276.893 280.85 276.68C280.637 276.413 281.117 275.773 282.29 274.76C283.517 273.693 285.037 272.653 286.85 271.64C288.29 270.52 289.703 269.96 291.09 269.96C291.517 269.96 291.863 270.04 292.13 270.2C292.45 270.307 292.637 270.493 292.69 270.76C292.69 271.08 293.757 270.973 295.89 270.44C296.85 270.227 297.543 270.093 297.97 270.04C298.183 269.773 298.717 269.56 299.57 269.4C300.477 269.187 301.73 268.973 303.33 268.76C304.183 268.813 305.063 268.813 305.97 268.76C306.877 268.707 307.463 268.653 307.73 268.6C308.157 268.44 308.61 268.52 309.09 268.84C309.623 269.107 310.077 269.667 310.45 270.52C310.61 270.893 310.69 271.24 310.69 271.56C310.69 272.147 310.317 272.627 309.57 273C308.877 273.32 307.65 273.587 305.89 273.8C304.13 274.013 303.037 274.147 302.61 274.2C299.677 274.52 296.583 275.027 293.33 275.72C291.25 276.147 289.73 276.68 288.77 277.32C287.863 277.96 286.823 279.187 285.65 281C285.277 281.267 284.797 281.96 284.21 283.08C283.623 284.147 283.037 285.267 282.45 286.44C282.29 286.653 282.103 286.92 281.89 287.24C281.677 287.56 281.41 287.907 281.09 288.28C279.543 290.36 278.477 291.88 277.89 292.84C277.303 293.747 277.09 294.307 277.25 294.52C277.41 294.573 277.703 294.653 278.13 294.76C278.61 294.867 279.01 294.947 279.33 295C279.81 294.733 280.477 294.547 281.33 294.44C282.183 294.333 282.797 294.227 283.17 294.12C291.65 291.933 296.45 290.76 297.57 290.6C298.05 290.28 298.503 290.12 298.93 290.12C299.89 290.12 300.743 290.76 301.49 292.04C301.65 292.36 301.73 292.653 301.73 292.92C301.73 293.4 301.357 293.853 300.61 294.28C299.863 294.707 298.45 295.24 296.37 295.88C294.29 296.467 291.783 297.16 288.85 297.96L286.29 298.68C282.823 299.693 280.13 300.2 278.21 300.2C276.557 300.2 275.757 299.747 275.81 298.84C275.277 298.573 274.663 299.16 273.97 300.6C273.33 302.04 272.77 303.827 272.29 305.96C271.81 308.04 271.57 309.8 271.57 311.24C271.57 311.987 271.65 312.573 271.81 313C272.29 314.333 272.877 315.347 273.57 316.04C274.317 316.733 275.543 317.32 277.25 317.8C277.623 317.853 278.077 317.907 278.61 317.96C279.197 318.013 279.863 318.04 280.61 318.04C281.677 318.04 282.743 317.827 283.81 317.4C286.53 316.92 288.85 316.387 290.77 315.8C292.743 315.213 293.943 314.787 294.37 314.52C294.69 314.36 294.957 314.253 295.17 314.2C295.383 314.147 295.597 314.12 295.81 314.12L295.73 314.28C295.73 314.28 295.73 314.307 295.73 314.36C295.73 314.36 295.757 314.36 295.81 314.36C295.97 314.36 296.45 313.907 297.25 313C298.157 312.253 299.383 311.533 300.93 310.84C302.53 310.147 303.357 309.987 303.41 310.36C303.517 310.68 303.57 310.947 303.57 311.16C303.57 312.173 302.93 313.4 301.65 314.84C300.423 316.227 298.743 317.533 296.61 318.76C293.997 320.147 291.063 321.16 287.81 321.8C284.61 322.493 281.517 322.867 278.53 322.92ZM314.911 325.08C314.431 324.867 313.871 324.44 313.231 323.8C312.058 323.053 311.178 322.2 310.591 321.24C310.005 320.28 309.685 318.973 309.631 317.32C309.631 316.893 309.978 316.307 310.671 315.56C311.418 314.76 312.218 314.36 313.071 314.36C313.551 314.36 314.031 314.52 314.511 314.84C314.031 316.387 313.791 317.427 313.791 317.96C313.791 318.653 314.031 319.213 314.511 319.64C315.045 320.013 315.951 320.333 317.231 320.6C317.978 320.76 318.671 320.84 319.311 320.84C320.165 320.84 321.338 320.707 322.831 320.44C324.325 320.333 325.471 320.227 326.271 320.12C327.071 319.96 327.658 319.72 328.031 319.4C329.578 318.76 330.965 318.013 332.191 317.16C333.418 316.253 334.245 315.347 334.671 314.44C335.205 313.747 335.525 313.187 335.631 312.76C335.738 312.333 335.791 311.827 335.791 311.24C335.791 310.653 335.791 310.227 335.791 309.96C335.738 308.253 335.605 307.08 335.391 306.44C335.178 305.747 334.485 304.173 333.311 301.72C333.311 301.4 332.805 300.68 331.791 299.56C330.778 298.387 330.111 297.613 329.791 297.24C329.098 295.8 328.511 294.68 328.031 293.88C327.605 293.08 327.071 292.467 326.431 292.04C326.271 291.827 326.058 291.373 325.791 290.68C325.525 289.987 325.338 289.613 325.231 289.56C325.178 289.507 325.098 289.373 324.991 289.16C324.885 288.893 324.751 288.573 324.591 288.2C324.165 287.24 323.951 286.227 323.951 285.16C323.951 283.667 324.271 282.12 324.911 280.52C325.605 278.867 326.591 277.32 327.871 275.88C328.458 274.867 329.525 273.64 331.071 272.2C332.671 270.707 333.631 269.96 333.951 269.96C334.058 269.907 334.271 269.827 334.591 269.72C334.965 269.56 335.365 269.32 335.791 269C336.271 268.893 336.938 268.68 337.791 268.36C338.645 267.987 339.365 267.8 339.951 267.8C340.751 267.533 341.391 267.347 341.871 267.24C342.405 267.08 342.938 267 343.471 267L345.791 267.16C348.458 267.853 350.111 269.24 350.751 271.32L351.311 274.76L347.951 277.24C347.311 277.453 346.511 277.56 345.551 277.56C344.911 277.56 344.351 277.533 343.871 277.48C343.391 277.427 343.071 277.373 342.911 277.32C342.645 277.32 342.511 277.187 342.511 276.92C342.511 276.76 342.565 276.627 342.671 276.52C342.831 276.413 342.991 276.36 343.151 276.36C343.311 276.2 343.578 275.933 343.951 275.56C344.325 275.133 344.698 274.733 345.071 274.36C345.445 273.773 345.631 273.293 345.631 272.92C345.631 272.653 345.525 272.493 345.311 272.44C345.151 272.333 344.831 272.28 344.351 272.28L342.271 272.44C340.351 272.547 338.538 273.053 336.831 273.96C335.125 274.813 333.711 276.067 332.591 277.72C331.311 278.84 330.351 280.013 329.711 281.24C329.071 282.467 328.751 283.56 328.751 284.52C329.018 285.8 329.471 287.027 330.111 288.2L334.671 294.52C335.898 296.067 336.511 296.947 336.511 297.16V297.56C336.618 297.56 337.045 298.28 337.791 299.72C338.538 301.16 338.911 302.013 338.911 302.28L339.631 303.96C339.898 304.227 340.165 305.347 340.431 307.32C340.698 309.293 340.831 310.813 340.831 311.88C340.778 312.787 340.431 313.8 339.791 314.92C339.205 316.04 338.458 317.08 337.551 318.04C336.431 319.213 334.805 320.52 332.671 321.96C330.538 323.4 328.698 324.307 327.151 324.68C326.245 325 325.045 325.267 323.551 325.48C322.111 325.693 320.671 325.8 319.231 325.8C316.831 325.8 315.391 325.56 314.911 325.08ZM359.356 325.4C358.716 324.707 357.276 324.36 355.036 324.36C354.503 324.36 353.49 324.413 351.996 324.52C351.783 324.573 351.463 324.6 351.036 324.6C350.076 324.6 349.25 324.36 348.556 323.88C347.863 323.453 347.57 322.947 347.676 322.36C347.783 321.027 349.97 320.253 354.236 320.04L358.476 319.8L359.276 318.12L360.876 312.2C361.09 311.347 361.383 310.36 361.756 309.24C362.13 308.067 362.503 306.867 362.876 305.64C364.53 300.573 365.41 297.693 365.516 297C365.783 296.307 366.263 294.787 366.956 292.44C367.65 290.04 368.076 288.413 368.236 287.56C369.41 283.613 370.183 280.653 370.556 278.68C370.983 276.707 371.09 275.72 370.876 275.72C370.396 275.667 368.956 275.8 366.556 276.12C364.156 276.44 362.85 276.68 362.636 276.84C362.476 277.107 362.21 277.24 361.836 277.24C361.463 277.24 361.09 277.133 360.716 276.92C360.343 276.653 360.103 276.36 359.996 276.04C359.943 275.827 359.916 275.533 359.916 275.16C359.916 274.787 360.05 274.493 360.316 274.28C360.903 273.8 362.183 273.24 364.156 272.6C366.13 271.907 368.05 271.4 369.916 271.08C370.823 270.973 371.73 270.76 372.636 270.44C373.543 270.067 374.236 269.667 374.716 269.24C375.783 268.813 376.716 268.627 377.516 268.68C377.89 268.893 378.556 269 379.516 269C380.583 269 381.756 268.92 383.036 268.76C385.49 268.44 387.276 268.28 388.396 268.28C389.196 268.28 389.81 268.387 390.236 268.6C390.663 268.76 391.01 269.08 391.276 269.56C391.49 270.413 391.596 270.973 391.596 271.24C391.596 272.253 391.036 272.733 389.916 272.68C389.063 272.947 386.876 273.187 383.356 273.4C379.623 273.88 377.623 274.333 377.356 274.76C377.09 275.027 376.876 275.267 376.716 275.48C376.61 275.693 376.476 275.907 376.316 276.12C376.37 276.333 376.263 277.027 375.996 278.2C375.783 279.32 375.49 280.493 375.116 281.72L373.996 285.4C373.623 286.52 373.036 288.36 372.236 290.92C371.49 293.427 371.01 294.947 370.796 295.48C370.37 296.76 370.156 297.693 370.156 298.28C369.196 302.12 367.916 306.573 366.316 311.64C365.303 314.787 364.556 317.4 364.076 319.48C364.29 319.48 364.77 319.427 365.516 319.32C366.316 319.213 367.356 319.08 368.636 318.92C372.21 318.493 374.343 318.28 375.036 318.28C375.73 318.28 376.183 318.36 376.396 318.52C376.663 318.68 376.876 318.973 377.036 319.4C377.73 320.253 378.076 320.92 378.076 321.4C378.076 322.04 377.57 322.493 376.556 322.76C375.596 323.027 374.05 323.187 371.916 323.24C369.463 323.4 367.41 323.56 365.756 323.72C364.103 323.88 363.01 324.04 362.476 324.2C361.943 324.413 361.65 324.68 361.596 325C361.596 325.48 361.33 325.72 360.796 325.72C360.316 325.72 359.836 325.613 359.356 325.4ZM413.867 323.96C413.761 324.12 413.494 324.12 413.067 323.96C412.694 323.8 412.321 323.507 411.947 323.08C411.627 322.653 411.441 322.227 411.387 321.8C411.174 321.8 411.041 321.64 410.987 321.32C410.987 321.053 410.987 320.733 410.987 320.36C410.987 319.933 410.987 319.587 410.987 319.32C411.254 318.893 411.467 318.6 411.627 318.44C411.841 318.28 412.081 318.2 412.347 318.2C412.347 318.04 412.401 317.693 412.507 317.16C412.614 316.627 412.801 316.093 413.067 315.56C413.281 314.973 413.441 314.493 413.547 314.12C413.654 313.693 413.734 313.427 413.787 313.32C413.467 313.267 412.907 313.453 412.107 313.88C411.361 314.253 410.667 314.76 410.027 315.4C409.334 315.827 408.534 316.44 407.627 317.24C406.721 317.933 406.134 318.36 405.867 318.52C405.387 318.627 404.934 318.813 404.507 319.08C404.081 319.347 403.601 319.667 403.067 320.04C401.307 321.107 399.467 321.96 397.547 322.6C395.681 323.293 394.107 323.613 392.827 323.56C392.134 323.507 391.547 323.347 391.067 323.08C390.587 322.813 389.841 322.333 388.827 321.64C388.667 321.373 388.374 321 387.947 320.52C387.574 320.04 387.387 319.587 387.387 319.16C386.801 318.733 386.507 317.213 386.507 314.6C386.507 312.2 386.774 309.453 387.307 306.36C387.947 303.373 388.854 300.707 390.027 298.36C391.201 295.96 393.627 291.88 397.307 286.12C397.734 284.947 398.587 283.587 399.867 282.04C401.201 280.493 402.241 279.427 402.987 278.84C403.201 278.84 403.707 278.467 404.507 277.72C405.307 276.92 405.841 276.387 406.107 276.12C407.547 274.627 408.987 273.453 410.427 272.6C411.867 271.693 413.681 270.733 415.867 269.72L418.907 268.28C420.241 268.28 421.761 268.36 423.467 268.52C425.174 268.68 426.294 268.867 426.828 269.08C427.734 269.827 428.374 270.787 428.748 271.96C428.961 272.6 429.068 273.107 429.068 273.48C429.068 273.853 428.961 274.147 428.748 274.36C428.374 274.627 428.054 274.76 427.787 274.76C427.681 274.76 427.254 274.653 426.508 274.44C425.441 273.907 424.187 273.64 422.748 273.64C419.707 273.64 416.427 274.84 412.907 277.24C411.467 278.413 409.387 280.387 406.667 283.16C404.001 285.933 401.947 288.2 400.507 289.96C396.827 295.56 394.187 300.947 392.587 306.12C392.001 307.347 391.707 309.347 391.707 312.12C391.707 313.24 391.734 314.307 391.787 315.32C391.894 316.28 392.001 316.813 392.107 316.92C392.747 317.88 393.654 318.36 394.827 318.36C396.267 318.36 397.921 317.853 399.787 316.84C401.654 315.827 403.494 314.6 405.307 313.16C405.627 312.947 406.881 312.04 409.067 310.44C411.307 308.787 412.774 307.48 413.467 306.52C414.961 305.133 415.974 304.093 416.507 303.4C417.094 302.707 417.521 302.067 417.787 301.48C418.054 300.84 418.294 300.36 418.507 300.04C418.667 299.24 418.774 298.627 418.827 298.2C418.881 297.72 418.907 297.427 418.907 297.32V297.24C418.907 296.973 418.747 296.787 418.427 296.68C418.161 296.573 417.814 296.467 417.387 296.36C416.427 296.36 414.987 296.227 413.067 295.96C411.147 295.64 410.187 295.347 410.187 295.08C410.187 294.653 410.401 293.933 410.827 292.92C410.827 292.333 411.601 291.853 413.147 291.48C414.694 291.053 416.667 290.893 419.067 291C421.201 291 422.641 291.24 423.387 291.72C424.187 292.147 424.587 293.08 424.587 294.52C424.907 295.213 425.068 295.827 425.068 296.36C425.068 296.893 424.881 297.693 424.507 298.76C424.134 299.827 423.441 301.587 422.428 304.04C419.867 311.24 417.974 316.333 416.747 319.32C415.521 322.253 414.561 323.8 413.867 323.96ZM429.791 325.96C428.991 325.16 428.591 324.44 428.591 323.8C428.591 323.427 428.671 322.893 428.831 322.2C429.045 321.56 429.205 321.053 429.311 320.68C429.791 318.813 430.431 317.027 431.231 315.32C431.658 314.307 432.085 313.187 432.511 311.96C432.938 310.733 433.285 309.4 433.551 307.96C434.618 305.507 435.551 303.133 436.351 300.84C437.205 298.493 437.738 297 437.951 296.36C438.005 296.093 438.591 294.787 439.711 292.44C440.618 290.68 441.445 289 442.191 287.4C442.458 286.653 443.125 284.68 444.191 281.48C444.938 279.08 445.605 277.16 446.191 275.72C446.778 274.28 447.525 272.84 448.431 271.4C449.391 269.8 450.538 269 451.871 269C452.511 269 453.071 269.213 453.551 269.64C454.085 270.013 454.485 270.6 454.751 271.4C455.178 272.413 455.498 273.667 455.711 275.16C455.978 276.6 456.165 279.053 456.271 282.52C456.325 283.587 456.351 285.16 456.351 287.24V294.84C456.351 297.56 456.405 299.8 456.511 301.56C456.618 303.32 456.858 304.84 457.231 306.12C457.658 308.573 458.245 311.24 458.991 314.12C459.738 316.947 460.325 318.36 460.751 318.36C461.391 318.36 462.458 316.467 463.951 312.68C465.445 308.84 467.338 302.28 469.631 293C469.951 291.933 470.325 290.387 470.751 288.36C471.178 286.333 471.498 284.36 471.711 282.44C472.298 280.253 472.858 277.987 473.391 275.64C473.978 273.24 474.271 271.933 474.271 271.72C474.271 271.453 474.271 271.187 474.271 270.92C474.325 270.653 474.325 270.333 474.271 269.96C474.485 269.96 474.698 269.613 474.911 268.92C475.178 268.227 475.311 267.587 475.311 267C475.311 265.453 475.685 264.307 476.431 263.56C476.591 263.187 476.991 263 477.631 263C478.271 263 478.885 263.187 479.471 263.56C480.111 263.88 480.538 264.28 480.751 264.76C480.911 265.88 480.165 269.96 478.511 277C478.511 277.64 478.138 279.56 477.391 282.76C476.911 284.573 476.538 286.307 476.271 287.96C476.058 289.507 475.791 290.84 475.471 291.96C475.205 293.08 474.965 293.613 474.751 293.56C472.565 302.947 469.765 311.533 466.351 319.32C464.805 323 463.098 324.84 461.231 324.84C459.951 324.84 458.645 323.987 457.311 322.28C455.871 320.413 454.858 318.52 454.271 316.6C453.738 314.68 453.018 311.32 452.111 306.52C451.205 304.013 450.751 301.107 450.751 297.8C450.751 295.88 450.885 293.64 451.151 291.08L451.471 285.56C451.418 283.427 451.338 281.96 451.231 281.16C451.178 280.307 451.045 279.88 450.831 279.88C450.618 279.88 450.298 280.36 449.871 281.32C449.445 282.28 448.831 283.907 448.031 286.2C447.178 288.333 446.005 291.16 444.511 294.68L442.431 299.8C441.471 301.72 440.751 303.667 440.271 305.64C438.031 311.453 436.165 316.787 434.671 321.64L433.951 323.88C433.151 326.013 432.378 327.08 431.631 327.08C431.098 327.08 430.485 326.707 429.791 325.96Z" fill="white"/>
<defs>
<filter id="filter0_d_134_136" x="0" y="0" width="526.838" height="450.351" filterUnits="userSpaceOnUse" color-interpolation-filters="sRGB">
<feFlood flood-opacity="0" result="BackgroundImageFix"/>
<feColorMatrix in="SourceAlpha" type="matrix" values="0 0 0 0 0 0 0 0 0 0 0 0 0 0 0 0 0 0 127 0" result="hardAlpha"/>
<feOffset dy="4"/>
<feGaussianBlur stdDeviation="2"/>
<feComposite in2="hardAlpha" operator="out"/>
<feColorMatrix type="matrix" values="0 0 0 0 0 0 0 0 0 0 0 0 0 0 0 0 0 0 0.25 0"/>
<feBlend mode="normal" in2="BackgroundImageFix" result="effect1_dropShadow_134_136"/>
<feBlend mode="normal" in="SourceGraphic" in2="effect1_dropShadow_134_136" result="shape"/>
</filter>
</defs>
</svg>
