<svg width="970" height="1112" viewBox="0 0 970 1112" fill="none" xmlns="http://www.w3.org/2000/svg">
<path fill-rule="evenodd" clip-rule="evenodd" d="M313.606 733.806C311.123 683.568 299.143 635.859 279.755 588.894C240.076 492.772 162.525 450.236 177.951 349.431C191.965 257.849 299.145 214.138 383.664 183.189C467.171 152.611 527.005 143.933 614.474 169.509C698.49 194.075 766.652 224.45 827.206 290.375C885.379 353.706 922.876 430.603 949.13 512.505C976.811 598.86 1037.36 707.834 982.697 775.445C921.304 851.384 832.155 798.825 755.946 859.059C680.329 918.826 731.873 914.229 651.122 966.697C571.065 1018.71 392.04 1036.15 330.478 956.92C257.555 863.071 319.417 851.329 313.606 733.806Z" fill="#ECE9E6"/>
<path fill-rule="evenodd" clip-rule="evenodd" d="M336.38 551.117C360.432 506.539 374.538 459.418 381.53 409.252C395.841 306.58 347.712 231.291 414.5 152C475.178 79.9626 595.367 95.5878 688.302 110.946C780.123 126.12 838.986 148.408 905 214C968.408 277.003 1014.38 337.127 1034.83 424.135C1054.48 507.721 1048.26 592.722 1029.2 676.446C1009.12 764.722 1007.02 888.866 921.993 919.996C826.495 954.96 773.085 865.253 672.36 879.296C572.417 893.229 621.617 914.914 520.835 919.996C420.919 925.034 249.268 850.986 234.866 752C217.807 634.745 280.116 655.399 336.38 551.117Z" fill="#2B6FC7"/>
<path d="M447.75 699.142C446.99 698.835 445.484 698.403 443.233 697.846C440.982 697.289 438.577 697.113 436.018 697.316C431.545 696.569 427.701 694.483 424.486 691.061C421.637 687.609 420.023 683.507 419.645 678.756C419.442 676.197 419.465 674.172 419.714 672.681C420.723 671.498 421.404 668.501 421.758 663.691C422.505 659.218 422.734 655.153 422.443 651.498C423.365 649.218 424.105 646.952 424.661 644.701C425.189 642.084 425.827 638.539 426.574 634.066C428.219 617.751 432.831 590.165 440.407 551.309C447.984 512.453 452.95 491.643 455.306 488.881L454.826 482.85C454.739 481.754 454.93 479.532 455.399 476.184C455.869 472.836 457.237 469.233 459.505 465.374C460.619 460.872 461.381 456.581 461.792 452.503C462.54 448.029 463.009 444.682 463.2 442.459C464.517 440.516 466.457 434.844 469.02 425.445C471.948 416.016 473.845 409.796 474.709 406.785C476.715 399.637 479.182 391.348 482.111 381.92C485.376 372.097 487.623 365.665 488.852 362.625L488.634 359.883C489.307 359.094 490.844 355.294 493.245 348.482C495.982 341.276 498.259 335.209 500.074 330.283C502.168 324.232 507.723 308.525 516.741 283.164C517.634 280.518 519.032 277.28 520.934 273.451C523.173 269.227 524.235 266.384 524.118 264.922C525.377 262.247 527.834 260.764 531.489 260.473C534.778 260.212 538.17 261.229 541.663 263.526C545.492 265.429 548.466 268.135 550.585 271.645L556.765 279.981L540.166 321.026C535.439 330.965 531.414 340.481 528.091 349.573C524.768 358.665 523.165 363.942 523.281 365.404C522.11 369.176 519.782 376.901 516.296 388.581C513.177 400.231 510.658 410.179 508.738 418.424C507.347 424.052 505.619 430.075 503.554 436.492C501.461 442.543 499.968 446.892 499.074 449.538C496.674 456.35 495.502 460.121 495.56 460.852C495.444 459.39 517.317 456.915 561.178 453.427C568.123 452.875 580.353 451.718 597.869 449.958C615.75 448.168 626.854 446.733 631.182 445.653L659.474 440.645L673.625 382.69C676.262 369.607 682.327 344.113 691.819 306.207C696.052 290.054 699.639 279.654 702.579 275.006C705.491 269.993 709.323 267.297 714.074 266.92C715.902 266.774 718.533 267.485 721.968 269.051C725.74 270.222 728.275 272.043 729.575 274.515C733.916 278.216 736.26 282.259 736.609 286.645C737.016 291.762 734.659 299.123 729.537 308.725C725.761 316.75 720.696 331.682 714.34 353.521C711.836 363.652 710.276 369.477 709.661 370.997C710.271 378.673 708.894 384.484 705.53 388.429C704.184 390.008 702.047 395.511 699.119 404.94C696.161 414.003 694.74 419.265 694.857 420.727C695.089 423.651 694.803 426.984 693.997 430.727C693.162 434.104 692.071 436.581 690.726 438.159L687.934 451.623C678.833 499.061 671.339 532.025 665.453 550.516C665.598 552.344 664.946 555.706 663.496 560.603C662.047 565.5 661.394 568.863 661.54 570.69C661.012 573.307 659.774 578.555 657.826 586.434C655.878 594.313 654.962 598.984 655.078 600.446C654.667 604.525 653.714 611.038 652.218 619.984C648.712 645.275 647.046 659.017 647.22 661.21C646.548 661.999 645.48 662.452 644.018 662.568C642.556 662.685 640.137 662.325 636.76 661.49C633.748 660.626 631.483 659.887 629.963 659.272C620.812 655.218 615.99 650.084 615.496 643.87C615.176 639.85 616.4 634.419 619.166 627.578C620.117 625.663 622.645 613.508 626.749 591.112L630.07 570.434C631.798 564.411 635.352 546.657 640.732 517.171C645.172 494.381 647.729 482.591 648.402 481.802L647.966 476.319C646.724 474.579 633.31 474.726 607.724 476.761C578.849 479.057 552.465 482.626 528.574 487.469L502.806 489.518L488.551 490.652C487.043 494.818 482.729 512.264 475.609 542.992C468.826 573.325 465.191 592.373 464.705 600.136C463.105 612.402 460.422 629.535 456.654 651.536C452.857 673.172 449.889 689.041 447.75 699.142Z" fill="white"/>
<path d="M752.627 803.677C740.976 800.558 731.293 796.73 723.575 792.194C716.224 787.629 709.707 779.688 704.025 768.369C696.869 752.386 692.404 733.246 690.631 710.95C688.916 689.385 688.742 671.008 690.109 655.818C691.447 640.263 694.598 624.38 699.562 608.169L703.58 596.263C708.237 580.812 711.656 570.608 713.836 565.653C718.916 550.904 728.414 531.574 742.329 507.662C754.532 485.358 764.277 469.134 771.563 458.992C778.819 448.483 785.87 440.014 792.715 433.585C799.926 427.126 813.03 416.153 832.029 400.665C839.942 393.782 849.381 389.905 860.346 389.033C869.484 388.307 878.08 390.014 886.133 394.155C894.523 397.902 901.063 403.819 905.752 411.906C910.325 418.531 913.077 427.692 914.007 439.388C915.315 455.836 913.026 473.306 907.14 491.797C901.254 510.289 893.052 525.102 882.535 536.238C879.142 539.818 875.8 541.739 872.511 542C868.49 542.32 862.957 539.817 855.913 534.492C852.129 528.54 850.011 525.031 849.558 523.963C849.106 522.896 849.779 522.106 851.577 521.596C854.547 517.313 858.688 509.26 864.001 497.435C869.65 485.215 873.31 475.728 874.979 468.975C875.536 466.724 875.976 463.01 876.301 457.835C878.207 444.81 878.986 436.104 878.637 431.718C878.289 427.331 876.733 423.961 873.971 421.606C872.787 420.596 871.282 420.164 869.454 420.31C866.53 420.542 861.558 422.777 854.539 427.013C846.057 431.366 835.563 440.476 823.056 454.345C810.55 468.213 799.409 483.077 789.636 498.935C774.566 522.202 763.029 541.327 755.025 556.309C747.386 571.261 741.773 586.237 738.184 601.235L733.286 615.97C733.768 617.403 733.51 621.102 732.513 627.066C731.516 633.031 730.249 637.913 728.713 641.713C725.281 663.32 724.394 684.541 726.051 705.375C727.301 721.092 729.684 734.88 733.202 746.738C737.086 758.567 741.76 766.472 747.226 770.451C750.354 772.777 754.842 773.708 760.69 773.242C768 772.661 776.81 770.121 787.119 765.623C797.794 761.096 810.713 754.735 825.878 746.541C834.023 742.583 841.577 738.12 848.538 733.152C855.865 728.156 861.211 723.685 864.575 719.739C873.526 712.038 880.926 707.956 886.774 707.49C890.679 705.709 893.362 704.76 894.824 704.643C895.555 704.585 895.964 705.104 896.051 706.201C896.475 706.903 896.745 707.985 896.861 709.447C897.268 714.564 894.977 720.448 889.989 727.097C884.971 733.382 878.111 739.628 869.41 745.838C862.681 753.729 854.359 760.092 844.444 764.927C833.416 774.264 820.305 782.847 805.112 790.676C790.283 798.476 776.473 802.885 763.68 803.902C760.756 804.134 757.071 804.06 752.627 803.677Z" fill="white"/>
</svg>
