<svg width="970" height="1112" viewBox="0 0 970 1112" fill="none" xmlns="http://www.w3.org/2000/svg">
<path fill-rule="evenodd" clip-rule="evenodd" d="M313.606 733.806C311.123 683.568 299.143 635.859 279.755 588.894C240.076 492.772 162.525 450.236 177.951 349.431C191.965 257.849 299.145 214.138 383.664 183.189C467.171 152.611 527.005 143.933 614.474 169.509C698.49 194.075 766.652 224.45 827.206 290.375C885.379 353.706 922.876 430.603 949.13 512.505C976.811 598.86 1037.36 707.834 982.697 775.445C921.304 851.384 832.155 798.825 755.946 859.059C680.329 918.826 731.873 914.229 651.122 966.697C571.065 1018.71 392.04 1036.15 330.478 956.92C257.555 863.071 319.417 851.329 313.606 733.806Z" fill="#ECE9E6"/>
<path fill-rule="evenodd" clip-rule="evenodd" d="M336.38 551.117C360.432 506.539 374.538 459.418 381.53 409.252C395.841 306.579 347.712 231.291 414.5 152C475.178 79.9621 595.367 95.5873 688.302 110.945C780.123 126.12 838.986 148.407 905 213.999C968.408 277.002 1014.38 337.126 1034.83 424.135C1054.48 507.721 1048.26 592.722 1029.2 676.445C1009.12 764.722 1007.02 888.866 921.993 919.996C826.495 954.96 773.085 865.253 672.36 879.295C572.417 893.229 621.617 914.913 520.835 919.995C420.919 925.034 249.268 850.986 234.866 751.999C217.807 634.745 280.116 655.399 336.38 551.117Z" fill="#2B6FC7"/>
<path d="M452.23 686.096C451.058 689.868 448.477 692.096 444.485 692.781C440.859 693.438 435.75 691.637 429.159 687.379C424.424 683.342 421.223 680.102 419.558 677.66C418.287 675.554 418.698 671.475 420.792 665.423C422.914 659.737 426.516 649.52 431.596 634.771C432.36 625.882 434.221 616.906 437.179 607.843C440.107 598.415 442.34 591.8 443.877 588C444.932 582.766 447.188 574.127 450.644 562.082C454.436 549.642 458.675 535.879 463.361 520.794C468.412 505.679 473.17 491.507 477.635 478.278C482.072 464.684 485.307 454.495 487.343 447.713C492.394 432.598 497.57 416.738 502.87 400.132C508.17 383.526 515.512 362.528 524.895 337.138C526.067 333.366 526.493 329.47 526.173 325.45C526.219 321.4 523.135 319.622 516.921 320.116C512.946 316.386 510.616 312.526 509.931 308.534C509.217 304.177 510.797 300.925 514.672 298.777L542.267 284.997C559.126 279.61 576.584 277.118 594.639 277.521C613.031 277.53 630.602 281.098 647.353 288.226C665.712 297.065 678.968 306.494 687.121 316.513C695.245 326.166 699.729 336.292 700.572 346.892C701.78 357.463 700.781 368.025 697.574 378.58C695.26 386.488 690.263 395.345 682.583 405.151C675.269 414.929 666.492 424.822 656.253 434.832C646.38 444.813 635.9 454.106 624.814 462.712C614.065 470.923 603.916 477.432 594.366 482.237C585.577 487.35 576.379 491.944 566.772 496.018C557.165 500.093 547.192 504.196 536.854 508.329C531.122 510.256 524.235 511.539 516.194 512.178C508.153 512.818 502.064 512.566 497.927 511.424L490.655 537.934C488.047 551.383 483.205 571.447 476.131 598.125C469.422 624.774 461.455 654.098 452.23 686.096ZM670.372 674.818C667.535 676.147 664.092 676.789 660.042 676.743C656.358 676.668 650.094 674.224 641.252 669.41C624.413 661.185 607.415 650.95 590.257 638.705C573.099 626.46 553.553 609.624 531.619 588.195C523.216 579.667 515.968 571.784 509.875 564.544C504.148 557.275 497.808 546.929 490.855 533.504L480.825 504.508L494.974 495.107L516.281 513.275C523.147 525.603 531.613 537.252 541.681 548.221C552.115 559.162 561.716 568.882 570.483 577.38C577.673 584.533 587.369 593.141 599.572 603.205C611.746 612.904 624.622 622.179 638.2 631.031C651.777 639.882 663.887 646.46 674.528 650.763C676.867 652.416 677.816 655.099 677.375 658.813C676.935 662.526 675.917 665.917 674.322 668.987C673.122 672.393 671.805 674.336 670.372 674.818ZM512.699 482.111C521.048 480.711 530.757 477.916 541.826 473.725C552.867 469.169 563.863 464.065 574.816 458.412C585.009 452.452 595.678 445.534 606.822 437.66C618.302 429.39 628.811 420.462 638.348 410.876C647.885 401.29 655.382 391.498 660.84 381.501C666.664 371.474 668.832 361.738 667.345 352.293C666.967 347.541 664.747 342.752 660.685 337.926C656.623 333.099 651.874 328.879 646.437 325.265C641 321.652 635.847 319.303 630.98 318.219C616.068 315.726 603.817 314.31 594.227 313.969C584.636 313.628 577.384 314.94 572.471 317.906C567.528 320.506 564.433 325.534 563.187 332.989C563.274 334.086 562.103 337.857 559.673 344.303C557.243 350.75 554.198 358.716 550.539 368.203C547.245 377.66 543.994 387.666 540.788 398.22C531.903 420.628 525.169 437.716 520.588 449.483C515.977 460.884 513.115 468.836 512.002 473.339C510.889 477.841 511.121 480.765 512.699 482.111Z" fill="white"/>
<path d="M752.627 803.677C746.97 801.92 741.116 799.995 735.064 797.901C729.378 795.778 723.773 792.362 718.249 787.652C713.119 783.278 708.378 776.85 704.025 768.369C699.527 758.059 696.14 747.846 693.864 737.728C691.954 727.58 690.644 715.73 689.934 702.177C688.422 683.171 688.393 666.621 689.848 652.528C691.638 638.04 694.876 623.254 699.562 608.168C700.205 607.014 701.238 603.805 702.658 598.542C704.415 592.885 706.326 586.848 708.391 580.431C710.821 573.985 712.636 569.059 713.836 565.653C716.266 559.207 719.998 550.634 725.033 539.934C730.404 528.84 736.169 518.083 742.329 507.662C751.679 491.102 759.463 477.977 765.681 468.287C771.899 458.596 777.868 450.398 783.587 443.69C789.307 436.982 795.787 430.581 803.026 424.488C810.603 418.001 820.27 410.059 832.029 400.664C839.605 394.177 848.131 390.372 857.605 389.251C867.445 388.1 876.757 389.567 885.542 393.65C894.297 397.368 901.034 403.453 905.752 411.905C910.383 419.261 913.135 428.422 914.007 439.387C914.85 449.987 914.106 461.449 911.776 473.773C909.416 485.731 905.734 497.242 900.728 508.307C895.723 519.372 889.659 528.682 882.535 536.237C878.132 541.001 873.877 542.995 869.769 542.218C866.027 541.412 861.408 538.837 855.913 534.492C852.129 528.54 850.011 525.03 849.558 523.963C849.471 522.866 850.144 522.077 851.577 521.595C853.567 518.862 856.142 514.243 859.303 507.739C862.464 501.235 865.596 494.365 868.699 487.129C871.773 479.528 873.866 473.477 874.979 468.974C876.683 453.39 877.836 442.448 878.438 436.147C879.011 429.48 877.522 424.633 873.971 421.605C872.393 420.259 870.156 419.886 867.261 420.484C864.732 421.053 860.491 423.229 854.539 427.013C846.423 431.336 836.111 440.432 823.605 454.301C811.069 467.804 799.746 482.681 789.636 498.934C776.556 519.469 765.677 537.622 757 553.393C748.323 569.163 742.051 585.111 738.184 601.235C737.569 602.755 736.507 605.598 735 609.764C733.857 613.901 733.286 615.969 733.286 615.969C733.768 617.402 733.51 621.101 732.513 627.066C731.487 632.665 730.22 637.547 728.713 641.713C726.029 658.846 725.048 676.58 725.771 694.914C726.464 712.882 728.642 728.709 732.305 742.395C736.334 756.052 741.307 765.404 747.226 770.45C752.239 773.362 758.723 773.95 766.677 772.214C774.997 770.449 784.297 767.135 794.577 762.271C804.857 757.408 815.291 752.164 825.878 746.54C834.36 742.188 842.081 737.527 849.043 732.56C856.004 727.592 861.182 723.319 864.575 719.738C867.325 717.313 870.806 714.829 875.018 712.287C879.566 709.351 883.485 707.752 886.774 707.49C891.746 705.256 894.612 704.292 895.372 704.599C896.132 704.907 896.629 706.522 896.861 709.447C897.268 714.564 894.794 720.462 889.44 727.14C884.452 733.79 877.775 740.022 869.41 745.837C866.718 748.994 863.127 752.406 858.637 756.073C854.147 759.741 849.416 762.692 844.444 764.926C837.233 771.385 828.181 777.806 817.286 784.19C806.391 790.574 795.212 795.693 783.748 799.547C772.649 803.372 762.276 804.749 752.627 803.677Z" fill="white"/>
</svg>
