<svg width="22" height="22" viewBox="0 0 22 22" fill="none" xmlns="http://www.w3.org/2000/svg">
<path d="M12.2222 22H7.33332V7.33333H12.2222V9.77778C13.2643 8.45198 14.8446 7.66159 16.5305 7.623C19.5623 7.63983 22.0088 10.107 22 13.1389V22H17.1111V13.75C16.9156 12.3843 15.7443 11.371 14.3647 11.374C13.7613 11.3931 13.1917 11.6573 12.7874 12.1056C12.3831 12.554 12.179 13.1478 12.2222 13.75V22ZM4.88888 22H0V7.33333H4.88888V22ZM2.44444 4.88889C1.09441 4.88889 0 3.79447 0 2.44444C0 1.09441 1.09441 0 2.44444 0C3.79447 0 4.88888 1.09441 4.88888 2.44444C4.88888 3.09275 4.63134 3.71451 4.17292 4.17293C3.7145 4.63135 3.09274 4.88889 2.44444 4.88889Z" fill="#4B4B4B"/>
</svg>
