<svg width="68" height="76" viewBox="0 0 68 76" fill="none" xmlns="http://www.w3.org/2000/svg">
<path d="M47.1896 61.36C45.9496 60.92 44.9296 60.42 44.1296 59.86C43.3696 59.3 42.7296 58.38 42.2096 57.1C41.5696 55.3 41.2496 53.18 41.2496 50.74C41.2496 48.38 41.3896 46.38 41.6696 44.74C41.9496 43.06 42.4296 41.36 43.1096 39.64L43.6496 38.38C44.2896 36.74 44.7496 35.66 45.0296 35.14C45.7096 33.58 46.9096 31.56 48.6296 29.08C50.1496 26.76 51.3496 25.08 52.2296 24.04C53.1096 22.96 53.9496 22.1 54.7496 21.46C55.5896 20.82 57.1096 19.74 59.3096 18.22C60.2296 17.54 61.2896 17.2 62.4896 17.2C63.4896 17.2 64.4096 17.46 65.2496 17.98C66.1296 18.46 66.7896 19.16 67.2296 20.08C67.6696 20.84 67.8896 21.86 67.8896 23.14C67.8896 24.94 67.4896 26.82 66.6896 28.78C65.8896 30.74 64.8696 32.28 63.6296 33.4C63.2296 33.76 62.8496 33.94 62.4896 33.94C62.0496 33.94 61.4696 33.62 60.7496 32.98C60.3896 32.3 60.1896 31.9 60.1496 31.78C60.1096 31.66 60.1896 31.58 60.3896 31.54C60.7496 31.1 61.2696 30.26 61.9496 29.02C62.6696 27.74 63.1496 26.74 63.3896 26.02C63.4696 25.78 63.5496 25.38 63.6296 24.82C63.9496 23.42 64.1096 22.48 64.1096 22C64.1096 21.52 63.9696 21.14 63.6896 20.86C63.5696 20.74 63.4096 20.68 63.2096 20.68C62.8896 20.68 62.3296 20.88 61.5296 21.28C60.5696 21.68 59.3496 22.58 57.8696 23.98C56.3896 25.38 55.0496 26.9 53.8496 28.54C52.0096 30.94 50.5896 32.92 49.5896 34.48C48.6296 36.04 47.8896 37.62 47.3696 39.22L46.7096 40.78C46.7496 40.94 46.6896 41.34 46.5296 41.98C46.3696 42.62 46.1896 43.14 45.9896 43.54C45.4296 45.86 45.1496 48.16 45.1496 50.44C45.1496 52.16 45.2896 53.68 45.5696 55C45.8896 56.32 46.3296 57.22 46.8896 57.7C47.2096 57.98 47.6896 58.12 48.3296 58.12C49.1296 58.12 50.1096 57.92 51.2696 57.52C52.4696 57.12 53.9296 56.54 55.6496 55.78C56.5696 55.42 57.4296 55 58.2296 54.52C59.0696 54.04 59.6896 53.6 60.0896 53.2C61.1296 52.44 61.9696 52.06 62.6096 52.06C63.0496 51.9 63.3496 51.82 63.5096 51.82C63.5896 51.82 63.6296 51.88 63.6296 52C63.6696 52.08 63.6896 52.2 63.6896 52.36C63.6896 52.92 63.3896 53.54 62.7896 54.22C62.1896 54.86 61.3896 55.48 60.3896 56.08C59.5896 56.88 58.6296 57.5 57.5096 57.94C56.2296 58.86 54.7296 59.68 53.0096 60.4C51.3296 61.12 49.7896 61.48 48.3896 61.48C48.0696 61.48 47.6696 61.44 47.1896 61.36Z" fill="#2B6FC7"/>
<path d="M7.8957 62.98C7.8157 62.94 7.6557 62.88 7.4157 62.8C7.1757 62.72 6.9157 62.68 6.6357 62.68C6.1557 62.56 5.7557 62.3 5.4357 61.9C5.1557 61.5 5.0157 61.04 5.0157 60.52C5.0157 60.24 5.0357 60.02 5.0757 59.86C5.1957 59.74 5.2957 59.42 5.3757 58.9C5.4957 58.42 5.5557 57.98 5.5557 57.58C5.6757 57.34 5.7757 57.1 5.8557 56.86C5.9357 56.58 6.0357 56.2 6.1557 55.72C6.4757 53.96 7.2157 51 8.3757 46.84C9.5357 42.68 10.2557 40.46 10.5357 40.18V39.52C10.5357 39.4 10.5757 39.16 10.6557 38.8C10.7357 38.44 10.9157 38.06 11.1957 37.66C11.3557 37.18 11.4757 36.72 11.5557 36.28C11.6757 35.8 11.7557 35.44 11.7957 35.2C11.9557 35 12.2157 34.4 12.5757 33.4C12.9757 32.4 13.2357 31.74 13.3557 31.42C13.6357 30.66 13.9757 29.78 14.3757 28.78C14.8157 27.74 15.1157 27.06 15.2757 26.74V26.44C15.3557 26.36 15.5557 25.96 15.8757 25.24C16.2357 24.48 16.5357 23.84 16.7757 23.32C17.0557 22.68 17.7957 21.02 18.9957 18.34C19.1157 18.06 19.2957 17.72 19.5357 17.32C19.8157 16.88 19.9557 16.58 19.9557 16.42C20.1157 16.14 20.3957 16 20.7957 16C21.1557 16 21.5157 16.14 21.8757 16.42C22.2757 16.66 22.5757 16.98 22.7757 17.38L23.3757 18.34L21.2157 22.66C20.6157 23.7 20.0957 24.7 19.6557 25.66C19.2157 26.62 18.9957 27.18 18.9957 27.34C18.8357 27.74 18.5157 28.56 18.0357 29.8C17.5957 31.04 17.2357 32.1 16.9557 32.98C16.7557 33.58 16.5157 34.22 16.2357 34.9C15.9557 35.54 15.7557 36 15.6357 36.28C15.3157 37 15.1557 37.4 15.1557 37.48C15.1557 37.32 17.5557 37.24 22.3557 37.24C23.1157 37.24 24.4557 37.22 26.3757 37.18C28.3357 37.14 29.5557 37.08 30.0357 37L33.1557 36.7L35.1957 30.52C35.5957 29.12 36.4757 26.4 37.8357 22.36C38.4357 20.64 38.9157 19.54 39.2757 19.06C39.6357 18.54 40.0757 18.28 40.5957 18.28C40.7957 18.28 41.0757 18.38 41.4357 18.58C41.8357 18.74 42.0957 18.96 42.2157 19.24C42.6557 19.68 42.8757 20.14 42.8757 20.62C42.8757 21.18 42.5557 21.96 41.9157 22.96C41.4357 23.8 40.7557 25.38 39.8757 27.7C39.5157 28.78 39.2957 29.4 39.2157 29.56C39.2157 30.4 39.0157 31.02 38.6157 31.42C38.4557 31.58 38.1757 32.16 37.7757 33.16C37.3757 34.12 37.1757 34.68 37.1757 34.84C37.1757 35.16 37.1157 35.52 36.9957 35.92C36.8757 36.28 36.7357 36.54 36.5757 36.7L36.1557 38.14C34.7557 43.22 33.6557 46.74 32.8557 48.7C32.8557 48.9 32.7557 49.26 32.5557 49.78C32.3557 50.3 32.2557 50.66 32.2557 50.86C32.1757 51.14 31.9957 51.7 31.7157 52.54C31.4357 53.38 31.2957 53.88 31.2957 54.04C31.2157 54.48 31.0557 55.18 30.8157 56.14C30.2157 58.86 29.9157 60.34 29.9157 60.58C29.8357 60.66 29.7157 60.7 29.5557 60.7C29.3957 60.7 29.1357 60.64 28.7757 60.52C28.4557 60.4 28.2157 60.3 28.0557 60.22C27.0957 59.7 26.6157 59.1 26.6157 58.42C26.6157 57.98 26.7957 57.4 27.1557 56.68C27.2757 56.48 27.6557 55.18 28.2957 52.78L28.8357 50.56C29.0757 49.92 29.6157 48.02 30.4557 44.86C31.1357 42.42 31.5157 41.16 31.5957 41.08V40.48C31.4757 40.28 30.0157 40.18 27.2157 40.18C24.0557 40.18 21.1557 40.34 18.5157 40.66H15.6957H14.1357C13.9357 41.1 13.3157 42.96 12.2757 46.24C11.2757 49.48 10.7157 51.52 10.5957 52.36C10.3157 53.68 9.8757 55.52 9.2757 57.88C8.6757 60.2 8.2157 61.9 7.8957 62.98Z" fill="#2B6FC7"/>
</svg>
