<svg width="314" height="229" viewBox="0 0 314 229" fill="none" xmlns="http://www.w3.org/2000/svg">
<path fill-rule="evenodd" clip-rule="evenodd" d="M202.392 23.5525C203.107 24.1475 203.823 24.7425 204.541 25.339C204.655 25.4343 204.748 25.5538 204.811 25.6889C204.875 25.824 204.908 25.9714 204.908 26.1206C204.908 26.2699 204.875 26.4173 204.811 26.5524C204.748 26.6875 204.655 26.8069 204.541 26.9022C204.295 27.1196 203.975 27.2338 203.647 27.221L203.613 27.2227H198.739V51.6088C198.736 52.9267 198.211 54.1898 197.279 55.1217C196.347 56.0536 195.084 56.5783 193.766 56.581H191.595L186.214 64.9833C186.103 65.1582 185.95 65.302 185.768 65.4011C185.586 65.5002 185.382 65.5513 185.175 65.5496C184.969 65.5477 184.767 65.495 184.585 65.3962C184.404 65.2975 184.251 65.1556 184.137 64.9833L178.756 56.581H153.424C152.774 56.5826 152.131 56.4559 151.531 56.2082C150.931 55.9604 150.386 55.5966 149.926 55.1375C149.467 54.6784 149.104 54.1331 148.856 53.533C148.608 52.9329 148.481 52.2897 148.483 51.6404V27.2228H143.581C142.487 27.2228 141.879 26.0074 142.679 25.3391C142.698 25.3297 142.716 25.3165 142.73 25.3004C143.522 24.5979 144.349 23.9231 145.176 23.2488C145.571 22.9263 145.967 22.604 146.358 22.2787C148.853 20.1998 151.348 18.1191 153.843 16.0365C156.737 13.6188 159.634 11.203 162.532 8.789C164.923 6.79834 167.311 4.80591 169.697 2.81171C170.696 1.98135 171.694 1.14905 172.692 0.314835C172.949 0.110933 173.268 0 173.597 0C173.926 0 174.245 0.110933 174.502 0.314835C174.739 0.510618 174.973 0.706355 175.208 0.902091C175.444 1.09856 175.679 1.29504 175.916 1.49156C177.972 3.20577 180.03 4.92194 182.09 6.64005L183.786 8.05318V5.95504C183.815 5.64141 183.965 5.35136 184.203 5.14548C184.442 4.93959 184.751 4.83378 185.065 4.85015H191.463C191.778 4.83381 192.087 4.93964 192.325 5.14552C192.564 5.3514 192.713 5.64143 192.743 5.95504V15.5322L193.862 16.4618C196.046 18.2792 198.232 20.0966 200.42 21.914C201.078 22.461 201.735 23.0068 202.392 23.5525ZM168.913 47.4574C169.128 47.7038 169.347 47.9534 169.584 48.2131C175.367 38.822 183.068 30.7575 192.182 24.547C190.147 22.7009 188.002 20.9795 185.76 19.3922C179.099 20.798 170.06 36.2629 168.632 40.2463C166.45 37.5234 163.79 35.2208 160.782 33.4512L156.12 38.7169C165.638 43.7173 167.182 45.4807 168.913 47.4574ZM153.424 61.0435C150.931 61.0406 148.541 60.049 146.778 58.2861C145.015 56.5232 144.023 54.133 144.02 51.6399V31.6854H143.582C142.407 31.6899 141.259 31.334 140.294 30.6656C139.328 29.9972 138.59 29.0486 138.181 27.9477C137.824 26.9821 137.752 25.9345 137.972 24.929C138.193 23.9235 138.697 23.0024 139.425 22.2748L139.445 22.2487L139.508 22.1925C139.607 22.097 139.71 22.0045 139.817 21.9149L139.903 21.843C140.722 21.1231 141.553 20.445 142.358 19.7887L142.441 19.7207C142.797 19.4301 143.153 19.1397 143.505 18.8466L145.111 17.5073C144.079 16.647 143.048 15.7865 142.016 14.9256C141.042 14.1165 140.067 13.3039 139.093 12.4877C138.841 12.2885 138.53 12.1802 138.209 12.1802C137.888 12.1802 137.576 12.2885 137.325 12.4877C137.092 12.6802 136.861 12.8728 136.631 13.0653L136.629 13.0664L136.628 13.0677C136.4 13.2573 136.173 13.4469 135.944 13.6365C133.933 15.3085 131.923 16.9842 129.916 18.6635L128.26 20.0433V17.9946C128.231 17.6884 128.085 17.4052 127.853 17.2042C127.62 17.0032 127.318 16.8999 127.011 16.9159H120.764C120.457 16.8999 120.155 17.0032 119.922 17.2042C119.69 17.4053 119.544 17.6884 119.515 17.9946V27.3459L118.421 28.2535C116.285 30.028 114.15 31.8026 112.018 33.5771L107.995 36.9212C107.883 37.0143 107.793 37.1309 107.731 37.2628C107.669 37.3948 107.637 37.5387 107.637 37.6844C107.637 37.8302 107.669 37.9741 107.731 38.106C107.793 38.2379 107.883 38.3546 107.995 38.4476C108.235 38.6598 108.547 38.7713 108.867 38.7589L108.901 38.7605H113.66V62.5712C113.663 63.858 114.175 65.0913 115.085 66.0012C115.995 66.911 117.228 67.4234 118.515 67.426H120.635L125.889 75.63C125.997 75.8008 126.147 75.9412 126.325 76.0379C126.502 76.1347 126.701 76.1846 126.903 76.183C127.105 76.1811 127.302 76.1297 127.479 76.0332C127.656 75.9368 127.806 75.7983 127.917 75.63L133.171 67.426H157.906C158.54 67.4276 159.168 67.3039 159.754 67.062C160.34 66.8202 160.872 66.4649 161.321 66.0166C161.769 65.5684 162.124 65.0359 162.366 64.4499C162.608 63.8639 162.732 63.2359 162.73 62.602V61.0435H153.424ZM56.0066 83.5042V104.071H64.4936V85.5109C64.4928 83.9914 64.9106 83.2316 65.7471 83.2316C65.9257 83.2106 66.1065 83.2432 66.2665 83.3252C66.4266 83.4072 66.5586 83.535 66.6459 83.6922C66.8413 84.2774 66.9196 84.8954 66.8763 85.5109V104.071H75.362V85.3627C75.3625 83.942 75.7803 83.2316 76.6155 83.2316C76.7917 83.2097 76.9705 83.2407 77.1289 83.3209C77.2874 83.4011 77.4183 83.5266 77.505 83.6816C77.6924 84.2722 77.7665 84.8928 77.7234 85.5109V104.071H86.2105V84.2349C86.3778 81.7386 85.6515 79.2641 84.1615 77.2542C83.4271 76.4296 82.5149 75.7828 81.4938 75.3627C80.4727 74.9426 79.3694 74.7602 78.2674 74.8293C76.8515 74.782 75.4474 75.1021 74.192 75.7584C72.9312 76.536 71.8715 77.5999 71.0987 78.8636C70.4636 77.6267 69.4941 76.5929 68.3005 75.8796C67.1069 75.1664 65.7371 74.8025 64.3469 74.8292C63.2294 74.7876 62.1157 74.9821 61.0785 75.3999C60.0412 75.8177 59.1037 76.4495 58.3271 77.2541C57.547 78.0912 56.9404 79.0745 56.5421 80.1472C56.1439 81.2199 55.9619 82.3609 56.0066 83.5042ZM91.7493 106.411V113.204C93.1266 113.751 94.5943 114.034 96.0762 114.04C97.6752 114.055 99.2584 113.723 100.716 113.066C102.174 112.409 103.473 111.444 104.521 110.236C106.541 107.916 107.589 104.907 107.447 101.834V83.2316H99.6301V94.2466C99.6301 95.6126 99.1351 96.2956 98.145 96.2956C97.1143 96.2965 96.599 95.6761 96.599 94.4346V83.2314H88.7817V96.3381C88.7042 98.3432 89.3745 100.306 90.6626 101.844C91.2471 102.541 91.9808 103.097 92.8093 103.471C93.6378 103.845 94.5399 104.029 95.4488 104.007C96.8718 103.975 98.2592 103.556 99.462 102.795C99.3131 103.992 98.7272 105.091 97.8169 105.882C96.9066 106.673 95.7361 107.1 94.5302 107.081C93.5682 107.043 92.6231 106.815 91.7493 106.411ZM109.435 75.5388H117.922V92.4918C117.813 93.421 118.038 94.3588 118.559 95.1364C119.285 95.6653 120.185 95.8998 121.077 95.7929H121.517V104.071H119.259C117.931 104.149 116.602 103.948 115.357 103.482C114.111 103.016 112.977 102.295 112.026 101.366C110.204 99.301 109.272 96.5991 109.435 93.85L109.435 75.5388ZM135.375 104.344V96.2535C134.805 96.6111 134.146 96.7993 133.473 96.7962C133.089 96.8083 132.706 96.7402 132.35 96.5962C131.993 96.4522 131.671 96.2354 131.403 95.9597C131 95.5231 130.732 94.9792 130.631 94.3936C130.531 93.8081 130.602 93.2059 130.836 92.66C131.071 92.1141 131.458 91.6477 131.952 91.3171C132.446 90.9866 133.024 90.8062 133.619 90.7975C134.031 90.7821 134.441 90.8628 134.816 91.0332C135.192 91.2037 135.523 91.4593 135.783 91.7797C136.352 92.5361 136.636 93.4685 136.587 94.4137V104.071H144.403V93.8498C144.484 92.3765 144.267 90.9021 143.766 89.5142C143.266 88.1262 142.491 86.8531 141.489 85.7704C140.432 84.7585 139.18 83.974 137.808 83.4654C136.436 82.9568 134.975 82.7349 133.514 82.8134C131.356 82.8066 129.244 83.441 127.447 84.636C125.65 85.831 124.248 87.5328 123.42 89.5256C122.591 91.5184 122.373 93.7124 122.794 95.8292C123.214 97.9461 124.253 99.8904 125.78 101.416C126.81 102.435 128.035 103.234 129.382 103.766C130.73 104.298 132.171 104.551 133.619 104.51C134.208 104.505 134.795 104.449 135.375 104.344ZM164.975 104.071H157.159V92.3038C157.159 91.1046 156.664 90.5054 155.675 90.5063C154.7 90.5063 154.212 91.1054 154.211 92.3038V104.071H146.394V92.4494C146.363 91.1829 146.586 89.9229 147.049 88.7437C147.512 87.5644 148.206 86.4896 149.09 85.5824C150 84.6617 151.09 83.939 152.292 83.4596C153.494 82.9803 154.782 82.7546 156.076 82.7969C157.369 82.8391 158.64 83.1484 159.809 83.7052C160.977 84.2619 162.018 85.0543 162.865 86.0324C164.379 88.057 165.127 90.553 164.975 93.0767V104.071ZM188.471 75.5388H180.654L180.653 92.6161C180.653 95.3886 179.65 96.7749 177.644 96.7749C177.245 96.781 176.849 96.7076 176.479 96.559C176.109 96.4104 175.772 96.1895 175.489 95.9093C175.202 95.6443 174.974 95.3222 174.82 94.9639C174.665 94.6055 174.587 94.2188 174.591 93.8285C174.585 93.4317 174.658 93.0377 174.806 92.6698C174.955 92.3018 175.176 91.9676 175.457 91.687C175.723 91.4025 176.046 91.1765 176.404 91.0234C176.762 90.8702 177.148 90.7933 177.538 90.7975C178.246 90.8233 178.924 91.0884 179.462 91.5493V82.9378C178.529 82.8549 177.832 82.8134 177.371 82.8134C175.963 82.8028 174.568 83.0833 173.273 83.6372C171.979 84.1912 170.812 85.0066 169.848 86.0325C168.828 87.0225 168.021 88.2093 167.475 89.5208C166.928 90.8323 166.654 92.2412 166.668 93.6619C166.64 95.0957 166.909 96.5198 167.46 97.844C168.01 99.1682 168.83 100.364 169.866 101.355C171.483 102.918 173.535 103.956 175.753 104.332C177.97 104.709 180.25 104.406 182.292 103.465C183.708 102.834 184.963 101.891 185.961 100.706C187.704 98.4919 188.595 95.7255 188.471 92.9101V75.5388ZM198.697 75.5388V104.071H190.879V75.5388H198.697ZM215.573 83.5958C214.266 83.0474 212.861 82.7739 211.443 82.7921C209.978 82.7556 208.52 83.0134 207.156 83.5504C205.791 84.0874 204.549 84.8927 203.502 85.9184C202.457 86.9065 201.632 88.1021 201.077 89.4283C200.523 90.7546 200.252 92.1822 200.282 93.6193C200.262 95.0524 200.537 96.4744 201.091 97.7963C201.645 99.1182 202.465 100.312 203.501 101.302C205.564 103.342 208.348 104.487 211.249 104.489C214.15 104.491 216.936 103.35 219.001 101.312C220.014 100.31 220.819 99.1178 221.37 97.8035C221.921 96.4892 222.206 95.0791 222.21 93.6541C222.213 92.2291 221.935 90.8175 221.391 89.5004C220.848 88.1833 220.049 86.9867 219.041 85.9794C218.061 84.9555 216.881 84.1441 215.573 83.5958ZM210.072 90.7338C210.439 90.5774 210.835 90.4998 211.234 90.5062C211.637 90.4987 212.037 90.5756 212.408 90.732C212.779 90.8884 213.113 91.1209 213.389 91.4143C213.954 92.0166 214.267 92.8118 214.265 93.6375C214.263 94.4631 213.946 95.2568 213.378 95.8564C213.104 96.1465 212.774 96.3776 212.407 96.5356C212.04 96.6936 211.645 96.775 211.246 96.775C210.847 96.775 210.452 96.6936 210.085 96.5356C209.718 96.3776 209.388 96.1465 209.114 95.8564C208.544 95.2577 208.226 94.4636 208.224 93.6375C208.222 92.8113 208.537 92.0158 209.103 91.4143C209.375 91.1221 209.705 90.8903 210.072 90.7338ZM235.193 83.0225V91.3826C234.744 91.1066 234.233 90.949 233.708 90.9246C232.286 90.9246 231.576 92.0109 231.576 94.1834V104.071H223.759V92.6797C223.624 90.0519 224.507 87.473 226.224 85.4792C227.062 84.5825 228.085 83.878 229.221 83.4142C230.358 82.9504 231.581 82.7382 232.807 82.7922C233.607 82.8093 234.404 82.8863 235.193 83.0225ZM258.141 75.5388H250.324L250.324 92.6161C250.324 95.3886 249.321 96.7749 247.314 96.7749C246.915 96.781 246.52 96.7076 246.15 96.559C245.78 96.4104 245.443 96.1895 245.159 95.9093C244.873 95.6443 244.645 95.3222 244.49 94.9639C244.336 94.6055 244.258 94.2188 244.262 93.8285C244.255 93.4317 244.328 93.0377 244.477 92.6697C244.626 92.3018 244.847 91.9676 245.127 91.687C245.394 91.4025 245.716 91.1765 246.074 91.0234C246.432 90.8702 246.819 90.7933 247.208 90.7975C247.916 90.8233 248.595 91.0884 249.133 91.5493V82.9378C248.199 82.8549 247.502 82.8134 247.042 82.8134C245.633 82.8028 244.238 83.0833 242.944 83.6372C241.649 84.1912 240.483 85.0066 239.518 86.0325C238.499 87.0225 237.692 88.2093 237.145 89.5208C236.598 90.8323 236.324 92.2412 236.339 93.6619C236.31 95.0957 236.58 96.5198 237.13 97.844C237.681 99.1682 238.5 100.364 239.537 101.355C241.154 102.918 243.206 103.956 245.423 104.332C247.641 104.709 249.92 104.406 251.963 103.465C253.379 102.834 254.633 101.891 255.632 100.706C257.375 98.4919 258.265 95.7255 258.141 92.9101V75.5388Z" fill="url(#paint0_linear_230_685)"/>
<path d="M125.776 179.313C124.729 178.894 123.543 178.684 122.356 178.754C120.821 178.684 119.355 179.033 118.029 179.731C116.703 180.569 115.586 181.686 114.748 183.012C114.05 181.756 113.003 180.639 111.747 179.871C110.491 179.103 109.025 178.754 107.559 178.754C106.373 178.754 105.186 178.964 104.069 179.382C102.953 179.801 101.975 180.499 101.138 181.337C100.3 182.244 99.672 183.291 99.2533 184.408C98.8345 185.525 98.6251 186.781 98.6949 187.968V209.744H107.699V190.061C107.699 188.456 108.118 187.619 109.025 187.619C109.234 187.549 109.444 187.619 109.583 187.688C109.793 187.828 109.932 187.968 110.002 188.107C110.142 188.735 110.281 189.433 110.212 190.061V209.814H119.215V189.922C119.215 188.456 119.634 187.688 120.542 187.688C120.751 187.619 120.96 187.688 121.1 187.758C121.309 187.828 121.449 187.968 121.519 188.107C121.728 188.735 121.798 189.433 121.728 190.061V209.814H130.802V188.735C131.011 186.083 130.244 183.5 128.638 181.337C127.801 180.429 126.893 179.731 125.776 179.313Z" fill="url(#paint1_linear_230_685)"/>
<path d="M145.038 199.344C145.038 200.81 144.48 201.508 143.433 201.508C142.316 201.508 141.758 200.88 141.758 199.554V187.688H133.452V201.508C133.382 203.672 134.08 205.766 135.476 207.371C136.104 208.139 136.872 208.697 137.78 209.116C138.617 209.535 139.594 209.675 140.571 209.675C142.107 209.675 143.573 209.256 144.829 208.418C144.689 209.675 144.061 210.861 143.084 211.699C142.107 212.536 140.851 212.955 139.594 212.955C138.617 212.955 137.57 212.676 136.663 212.257V219.516C138.128 220.074 139.664 220.354 141.2 220.423C142.945 220.423 144.62 220.074 146.155 219.376C147.691 218.679 149.087 217.632 150.204 216.375C152.367 213.932 153.484 210.722 153.344 207.441V187.688H145.038V199.344Z" fill="url(#paint2_linear_230_685)"/>
<path d="M165.142 200.322C164.584 199.484 164.305 198.507 164.444 197.53V179.522H155.51V198.995C155.301 201.857 156.278 204.789 158.232 206.952C159.279 207.929 160.466 208.697 161.792 209.186C163.118 209.674 164.514 209.884 165.91 209.814H168.283V201.019H167.795C166.887 201.159 165.91 200.88 165.142 200.322Z" fill="url(#paint3_linear_230_685)"/>
<path d="M189.432 190.41C188.315 189.363 186.989 188.526 185.523 187.967C184.057 187.409 182.522 187.2 180.986 187.269C178.683 187.269 176.449 187.967 174.565 189.224C172.68 190.48 171.215 192.295 170.307 194.389C169.4 196.483 169.19 198.856 169.609 201.089C170.028 203.323 171.145 205.417 172.75 207.022C173.867 208.139 175.123 208.976 176.589 209.535C177.985 210.093 179.521 210.372 181.056 210.303C181.684 210.233 182.312 210.233 182.941 210.093V201.508C182.382 201.857 181.684 202.066 180.986 202.066C180.567 202.066 180.149 201.997 179.8 201.857C179.451 201.648 179.102 201.438 178.823 201.159C178.404 200.67 178.125 200.112 177.985 199.484C177.845 198.856 177.915 198.228 178.194 197.669C178.474 197.111 178.892 196.622 179.381 196.273C179.87 195.924 180.498 195.715 181.126 195.715C181.545 195.715 181.963 195.785 182.382 195.994C182.801 196.134 183.15 196.413 183.429 196.762C183.988 197.53 184.337 198.577 184.267 199.554V209.884H192.573V198.995C192.643 197.46 192.433 195.854 191.875 194.389C191.316 192.923 190.479 191.527 189.432 190.41Z" fill="url(#paint4_linear_230_685)"/>
<path d="M208.975 188.247C207.718 187.618 206.392 187.339 204.996 187.269C203.6 187.2 202.204 187.479 200.948 187.967C199.622 188.456 198.505 189.224 197.528 190.201C196.62 191.178 195.853 192.295 195.364 193.551C194.875 194.808 194.666 196.134 194.666 197.46V209.814H202.972V197.32C202.972 196.064 203.461 195.436 204.508 195.436C205.554 195.436 206.113 196.064 206.113 197.32V209.814H214.419V198.158C214.558 195.506 213.791 192.853 212.185 190.69C211.348 189.712 210.231 188.805 208.975 188.247Z" fill="url(#paint5_linear_230_685)"/>
<path d="M239.337 179.522H231.031V197.599C231.031 200.531 229.984 201.997 227.82 201.997C227.402 201.997 226.983 201.927 226.564 201.787C226.145 201.648 225.796 201.368 225.517 201.089C225.238 200.81 224.959 200.461 224.819 200.112C224.679 199.763 224.61 199.344 224.61 198.926C224.61 198.507 224.679 198.088 224.819 197.669C224.959 197.25 225.238 196.901 225.517 196.622C225.796 196.343 226.145 196.064 226.494 195.924C226.843 195.785 227.262 195.715 227.681 195.715C228.379 195.715 229.146 195.994 229.705 196.483V187.409C228.728 187.339 227.96 187.269 227.471 187.269C226.006 187.269 224.54 187.618 223.144 188.177C221.748 188.735 220.561 189.573 219.514 190.689C218.467 191.736 217.56 192.993 217.002 194.389C216.443 195.785 216.164 197.25 216.164 198.786C216.164 200.322 216.443 201.857 217.002 203.253C217.63 204.649 218.467 205.905 219.584 206.952C221.329 208.558 223.493 209.674 225.866 210.093C228.169 210.512 230.612 210.163 232.776 209.186C234.312 208.488 235.638 207.511 236.685 206.254C238.499 203.881 239.477 200.95 239.337 197.948V179.522Z" fill="url(#paint6_linear_230_685)"/>
<path d="M250.226 179.522H241.92V209.814H250.226V179.522Z" fill="url(#paint7_linear_230_685)"/>
<path d="M271.864 190.55C270.817 189.503 269.56 188.595 268.164 188.037C266.768 187.479 265.303 187.2 263.767 187.2C262.162 187.13 260.626 187.409 259.23 187.967C257.764 188.526 256.438 189.363 255.322 190.48C254.205 191.527 253.297 192.783 252.739 194.179C252.181 195.575 251.901 197.111 251.901 198.646C251.832 200.182 252.181 201.717 252.739 203.113C253.367 204.509 254.205 205.766 255.322 206.813C257.555 208.976 260.487 210.163 263.558 210.163C266.629 210.163 269.63 208.976 271.794 206.813C272.841 205.766 273.748 204.509 274.307 203.113C274.935 201.717 275.214 200.252 275.214 198.716C275.284 197.25 274.935 195.715 274.376 194.319C273.748 192.923 272.911 191.597 271.864 190.55ZM265.931 201.019C265.652 201.299 265.303 201.578 264.884 201.717C264.465 201.927 264.046 201.997 263.627 201.997C263.209 201.997 262.79 201.857 262.371 201.717C261.952 201.578 261.603 201.299 261.324 201.019C260.696 200.391 260.347 199.554 260.347 198.646C260.347 197.739 260.626 196.901 261.254 196.273C261.534 195.994 261.883 195.715 262.301 195.575C262.72 195.436 263.139 195.366 263.558 195.366C263.976 195.366 264.395 195.436 264.884 195.575C265.303 195.715 265.652 195.994 265.931 196.273C266.489 196.901 266.838 197.739 266.838 198.646C266.838 199.554 266.559 200.391 265.931 201.019Z" fill="url(#paint8_linear_230_685)"/>
<path d="M282.682 187.828C281.425 188.316 280.378 189.014 279.471 189.992C277.586 192.155 276.679 194.877 276.819 197.669V209.744H285.125V199.275C285.125 196.971 285.823 195.785 287.358 195.785C287.917 195.785 288.475 195.994 288.963 196.273V187.409C288.126 187.269 287.288 187.2 286.521 187.2C285.194 187.13 283.868 187.339 282.682 187.828Z" fill="url(#paint9_linear_230_685)"/>
<path d="M313.323 197.948V179.522H305.017V197.599C305.017 200.531 303.97 201.997 301.807 201.997C301.388 201.997 300.969 201.927 300.55 201.787C300.132 201.648 299.783 201.368 299.503 201.089C299.224 200.81 298.945 200.461 298.805 200.112C298.666 199.763 298.596 199.344 298.596 198.926C298.596 198.507 298.666 198.088 298.805 197.669C298.945 197.25 299.224 196.901 299.503 196.622C299.783 196.343 300.132 196.064 300.48 195.924C300.829 195.785 301.248 195.715 301.667 195.715C302.365 195.715 303.133 195.994 303.691 196.483V187.409C302.714 187.339 301.946 187.269 301.458 187.269C299.992 187.269 298.526 187.618 297.13 188.177C295.734 188.735 294.548 189.573 293.501 190.689C292.454 191.736 291.546 192.993 290.988 194.389C290.43 195.785 290.15 197.25 290.15 198.786C290.15 200.322 290.43 201.857 290.988 203.253C291.616 204.649 292.454 205.905 293.571 206.952C295.315 208.558 297.479 209.674 299.852 210.093C302.156 210.512 304.599 210.163 306.762 209.186C308.298 208.488 309.624 207.511 310.671 206.254C312.486 203.881 313.463 200.95 313.323 197.948Z" fill="url(#paint10_linear_230_685)"/>
<path d="M43.6237 214.002C41.2506 214.002 39.017 213.025 37.3419 211.35C35.6667 209.675 34.7594 207.441 34.6896 205.068V186.083H34.2708C33.154 186.083 32.0372 185.734 31.1299 185.106C30.2225 184.478 29.5245 183.57 29.1057 182.523C28.7567 181.616 28.6869 180.639 28.8963 179.661C29.1057 178.684 29.5943 177.847 30.2923 177.149L30.3621 177.079C30.4319 177.009 30.5715 176.87 30.6413 176.8L30.7111 176.73C31.4789 176.032 32.2466 175.404 33.0144 174.776C33.3634 174.496 33.7124 174.147 34.1312 173.868L35.6667 172.612C34.6896 171.774 33.7124 171.007 32.7352 170.169C31.8279 169.401 30.8507 168.633 29.9433 167.866C29.7339 167.656 29.3849 167.586 29.1057 167.586C28.8265 167.586 28.4775 167.656 28.2682 167.866C27.8494 168.215 27.4306 168.564 26.942 168.982C25.0575 170.588 23.1031 172.193 21.2186 173.729L19.6132 175.055V173.1C19.6132 172.821 19.4736 172.542 19.1944 172.333C18.985 172.123 18.7058 172.053 18.4266 172.053H12.4938C12.2146 172.053 11.9354 172.123 11.726 172.333C11.5167 172.542 11.3771 172.821 11.3073 173.1V181.965L10.2603 182.802C8.23615 184.478 6.21201 186.153 4.18787 187.828C2.93151 188.875 1.67515 189.922 0.34899 190.969C0.209394 191.039 0.139596 191.178 0.0697979 191.318C-2.60018e-08 191.457 0 191.597 0 191.737C0 191.876 -2.60018e-08 192.016 0.0697979 192.155C0.139596 192.295 0.209394 192.365 0.34899 192.504C0.558383 192.714 0.907373 192.783 1.18656 192.783H5.86302V215.398C5.86302 216.654 6.35161 217.771 7.18918 218.679C8.02676 219.516 9.21332 220.005 10.4697 220.005H12.4938L17.4495 227.822C17.5193 227.962 17.7287 228.101 17.8683 228.241C18.0079 228.311 18.2173 228.38 18.4266 228.38C18.636 228.38 18.7756 228.311 18.985 228.241C19.1246 228.171 19.2642 228.031 19.4038 227.892L24.3595 220.074H47.8116C48.4398 220.074 48.9981 219.935 49.5565 219.725C50.1149 219.516 50.6035 219.167 51.0223 218.748C51.4411 218.33 51.7901 217.841 51.9994 217.283C52.2088 216.724 52.3484 216.096 52.3484 215.538V214.072H43.6237V214.002Z" fill="url(#paint11_linear_230_685)"/>
<path d="M92.1334 180.08C90.8072 178.964 89.5508 177.917 88.2247 176.8C86.1307 175.055 84.0368 173.38 82.0127 171.635L80.9657 170.727V161.654C80.9657 161.374 80.8261 161.095 80.5469 160.886C80.3375 160.676 80.0583 160.607 79.7093 160.607H73.6369C73.3577 160.607 73.0785 160.676 72.7993 160.886C72.5899 161.095 72.4503 161.374 72.3805 161.654V163.678C71.8222 163.259 71.3336 162.77 70.7752 162.352C68.8208 160.746 66.8665 159.071 64.9122 157.466C64.4934 157.117 64.0048 156.698 63.586 156.349C63.3766 156.14 63.0974 156 62.7484 156C62.4692 156 62.1202 156.14 61.9109 156.279C60.9337 157.047 60.0263 157.885 59.0491 158.652C56.8156 160.607 54.5123 162.491 52.2787 164.376C49.5566 166.679 46.7647 168.982 44.0426 171.286C41.6695 173.24 39.2963 175.264 36.9232 177.219C35.8064 178.196 34.6199 179.103 33.5031 180.08C33.5031 180.08 33.5031 180.08 33.4333 180.15C32.6655 180.778 33.2239 181.965 34.2709 181.965H38.9473V205.138C38.9473 205.766 39.0869 206.394 39.2963 206.952C39.5057 207.511 39.8547 208.069 40.3433 208.488C40.7621 208.907 41.3205 209.256 41.8788 209.535C42.4372 209.744 43.0654 209.884 43.6936 209.884H67.7739L72.8691 217.841C73.0087 217.981 73.1483 218.12 73.2879 218.26C73.4275 218.33 73.6369 218.399 73.8463 218.399C74.0557 218.399 74.2651 218.33 74.4047 218.26C74.5443 218.19 74.7537 218.05 74.8235 217.841L79.8489 209.744H81.9429C83.1992 209.744 84.3858 209.256 85.2932 208.348C86.2005 207.441 86.6891 206.254 86.6891 204.998V181.895H91.2958C91.575 181.895 91.924 181.825 92.1334 181.616C92.2729 181.546 92.3427 181.406 92.4125 181.267C92.4823 181.127 92.4823 180.988 92.4823 180.848C92.4823 180.708 92.4823 180.569 92.4125 180.429C92.3427 180.29 92.2729 180.15 92.1334 180.08ZM58.9793 201.787C56.9552 199.554 56.327 198.088 46.2063 192.784L50.6036 187.758C53.4653 189.433 55.978 191.597 58.072 194.179C59.3981 190.41 67.9833 175.683 74.3349 174.357C76.4986 175.892 78.5228 177.498 80.4073 179.243C71.7524 185.245 64.4236 192.923 58.9793 201.787Z" fill="url(#paint12_linear_230_685)"/>
<defs>
<linearGradient id="paint0_linear_230_685" x1="-37.3543" y1="114.041" x2="200.809" y2="114.041" gradientUnits="userSpaceOnUse">
<stop stop-color="#3CABDB"/>
<stop offset="1" stop-color="#5333ED"/>
</linearGradient>
<linearGradient id="paint1_linear_230_685" x1="-29.7599" y1="194.278" x2="143.358" y2="194.278" gradientUnits="userSpaceOnUse">
<stop stop-color="#3CABDB"/>
<stop offset="0.278" stop-color="#4481E1"/>
<stop offset="0.5985" stop-color="#4C57E8"/>
<stop offset="0.8501" stop-color="#513DEC"/>
<stop offset="1" stop-color="#5333ED"/>
</linearGradient>
<linearGradient id="paint2_linear_230_685" x1="-29.7622" y1="204.056" x2="143.356" y2="204.056" gradientUnits="userSpaceOnUse">
<stop stop-color="#3CABDB"/>
<stop offset="0.278" stop-color="#4481E1"/>
<stop offset="0.5985" stop-color="#4C57E8"/>
<stop offset="0.8501" stop-color="#513DEC"/>
<stop offset="1" stop-color="#5333ED"/>
</linearGradient>
<linearGradient id="paint3_linear_230_685" x1="-29.7601" y1="194.674" x2="143.358" y2="194.674" gradientUnits="userSpaceOnUse">
<stop stop-color="#3CABDB"/>
<stop offset="0.278" stop-color="#4481E1"/>
<stop offset="0.5985" stop-color="#4C57E8"/>
<stop offset="0.8501" stop-color="#513DEC"/>
<stop offset="1" stop-color="#5333ED"/>
</linearGradient>
<linearGradient id="paint4_linear_230_685" x1="-29.7602" y1="198.785" x2="143.358" y2="198.785" gradientUnits="userSpaceOnUse">
<stop stop-color="#3CABDB"/>
<stop offset="0.278" stop-color="#4481E1"/>
<stop offset="0.5985" stop-color="#4C57E8"/>
<stop offset="0.8501" stop-color="#513DEC"/>
<stop offset="1" stop-color="#5333ED"/>
</linearGradient>
<linearGradient id="paint5_linear_230_685" x1="-29.7608" y1="198.536" x2="143.357" y2="198.536" gradientUnits="userSpaceOnUse">
<stop stop-color="#3CABDB"/>
<stop offset="0.278" stop-color="#4481E1"/>
<stop offset="0.5985" stop-color="#4C57E8"/>
<stop offset="0.8501" stop-color="#513DEC"/>
<stop offset="1" stop-color="#5333ED"/>
</linearGradient>
<linearGradient id="paint6_linear_230_685" x1="-29.7608" y1="194.895" x2="143.357" y2="194.895" gradientUnits="userSpaceOnUse">
<stop stop-color="#3CABDB"/>
<stop offset="0.278" stop-color="#4481E1"/>
<stop offset="0.5985" stop-color="#4C57E8"/>
<stop offset="0.8501" stop-color="#513DEC"/>
<stop offset="1" stop-color="#5333ED"/>
</linearGradient>
<linearGradient id="paint7_linear_230_685" x1="-29.7601" y1="194.668" x2="143.358" y2="194.668" gradientUnits="userSpaceOnUse">
<stop stop-color="#3CABDB"/>
<stop offset="0.278" stop-color="#4481E1"/>
<stop offset="0.5985" stop-color="#4C57E8"/>
<stop offset="0.8501" stop-color="#513DEC"/>
<stop offset="1" stop-color="#5333ED"/>
</linearGradient>
<linearGradient id="paint8_linear_230_685" x1="-29.7598" y1="198.676" x2="143.358" y2="198.676" gradientUnits="userSpaceOnUse">
<stop stop-color="#3CABDB"/>
<stop offset="0.278" stop-color="#4481E1"/>
<stop offset="0.5985" stop-color="#4C57E8"/>
<stop offset="0.8501" stop-color="#513DEC"/>
<stop offset="1" stop-color="#5333ED"/>
</linearGradient>
<linearGradient id="paint9_linear_230_685" x1="-29.7603" y1="198.465" x2="143.357" y2="198.465" gradientUnits="userSpaceOnUse">
<stop stop-color="#3CABDB"/>
<stop offset="0.278" stop-color="#4481E1"/>
<stop offset="0.5985" stop-color="#4C57E8"/>
<stop offset="0.8501" stop-color="#513DEC"/>
<stop offset="1" stop-color="#5333ED"/>
</linearGradient>
<linearGradient id="paint10_linear_230_685" x1="-29.7603" y1="194.895" x2="143.358" y2="194.895" gradientUnits="userSpaceOnUse">
<stop stop-color="#3CABDB"/>
<stop offset="0.278" stop-color="#4481E1"/>
<stop offset="0.5985" stop-color="#4C57E8"/>
<stop offset="0.8501" stop-color="#513DEC"/>
<stop offset="1" stop-color="#5333ED"/>
</linearGradient>
<linearGradient id="paint11_linear_230_685" x1="-29.7606" y1="197.983" x2="143.357" y2="197.983" gradientUnits="userSpaceOnUse">
<stop stop-color="#3CABDB"/>
<stop offset="0.278" stop-color="#4481E1"/>
<stop offset="0.5985" stop-color="#4C57E8"/>
<stop offset="0.8501" stop-color="#513DEC"/>
<stop offset="1" stop-color="#5333ED"/>
</linearGradient>
<linearGradient id="paint12_linear_230_685" x1="-29.7605" y1="187.2" x2="143.357" y2="187.2" gradientUnits="userSpaceOnUse">
<stop stop-color="#3CABDB"/>
<stop offset="0.278" stop-color="#4481E1"/>
<stop offset="0.5985" stop-color="#4C57E8"/>
<stop offset="0.8501" stop-color="#513DEC"/>
<stop offset="1" stop-color="#5333ED"/>
</linearGradient>
</defs>
</svg>
