<svg width="559" height="382" viewBox="0 0 559 382" fill="none" xmlns="http://www.w3.org/2000/svg">
<g filter="url(#filter0_d_416_1712)">
<path fill-rule="evenodd" clip-rule="evenodd" d="M83.5811 112.802C110.36 98.3427 175.98 118.729 217.059 113.046C275.391 104.977 290.054 57.8858 361.635 74.3373C434.744 91.1403 473.948 139.518 484.485 174.51C493.68 205.049 455.922 224.493 410.435 236.408C374.271 245.88 321.302 233.756 271.954 230.178C190.751 224.291 99.1044 247.191 38.5277 209.445C-21.2363 172.206 39.8314 136.425 83.5811 112.802Z" fill="#ECE9E6"/>
<path fill-rule="evenodd" clip-rule="evenodd" d="M467.416 269.567C439.412 282.441 375.788 258.312 334.306 261.604C275.403 266.279 256.562 312.4 186.64 291.851C115.224 270.864 80.4528 220.344 73.0766 184.834C66.639 153.842 106.04 136.632 152.476 127.379C189.394 120.023 241.14 135.178 290.04 141.601C370.506 152.169 463.965 134.629 521.005 175.781C577.28 216.38 513.167 248.536 467.416 269.567Z" fill="#2B6FC7"/>
<path d="M196.475 224.74C195.562 224.049 194.983 223.519 194.736 223.149C194.489 222.754 194.341 222.286 194.292 221.743C194.243 221.299 194.243 220.695 194.292 219.93C194.366 219.165 194.452 218.413 194.551 217.673C194.65 216.933 194.736 216.378 194.81 216.008C194.933 215.885 194.983 215.724 194.958 215.527C194.958 215.305 194.958 215.194 194.958 215.194C194.933 215.071 195.02 214.75 195.217 214.232C195.414 213.689 195.599 212.999 195.772 212.16C196.265 210.68 196.734 209.447 197.178 208.46C197.647 207.449 198.103 206.585 198.547 205.87C198.991 205.155 199.435 204.501 199.879 203.909C200.89 202.873 201.704 202.096 202.321 201.578C202.938 201.035 203.628 200.591 204.393 200.246C204.886 199.95 205.343 199.716 205.762 199.543C206.181 199.37 206.527 199.346 206.798 199.469C208.179 199.765 209.215 200.332 209.906 201.171C210.597 201.985 211.102 203.255 211.423 204.982C211.596 206.067 211.694 207.054 211.719 207.942C211.768 208.805 211.707 209.669 211.534 210.532C211.361 211.371 211.041 212.296 210.572 213.307C210.128 214.318 209.499 215.502 208.685 216.859C207.822 218.561 206.847 220.041 205.762 221.299C204.701 222.557 203.604 223.544 202.469 224.259C201.359 224.999 200.274 225.418 199.213 225.517C198.177 225.616 197.264 225.357 196.475 224.74ZM198.843 223.667C199.41 223.593 199.953 223.42 200.471 223.149C200.989 222.878 201.532 222.483 202.099 221.965C202.666 221.422 203.308 220.744 204.023 219.93C204.664 219.19 205.182 218.573 205.577 218.08C205.996 217.562 206.342 217.044 206.613 216.526C206.909 216.008 207.18 215.379 207.427 214.639C207.698 213.899 208.007 212.937 208.352 211.753C208.549 211.013 208.697 210.396 208.796 209.903C208.895 209.41 208.956 208.953 208.981 208.534C209.006 208.09 209.006 207.584 208.981 207.017C208.981 206.45 208.981 205.722 208.981 204.834C208.956 204.415 208.87 203.983 208.722 203.539C208.574 203.07 208.401 202.725 208.204 202.503C207.957 202.232 207.612 202.047 207.168 201.948C206.724 201.825 206.231 201.886 205.688 202.133C205.392 202.256 205.01 202.54 204.541 202.984C204.072 203.403 203.579 203.897 203.061 204.464C202.543 205.031 202.05 205.611 201.581 206.203C201.137 206.795 200.767 207.325 200.471 207.794C200.2 208.238 200.064 208.546 200.064 208.719C200.064 208.719 200.052 208.781 200.027 208.904C200.027 209.027 199.978 209.151 199.879 209.274C199.558 209.619 199.201 210.236 198.806 211.124C198.436 212.012 198.078 213.023 197.733 214.158C197.388 215.268 197.092 216.378 196.845 217.488C196.623 218.573 196.487 219.523 196.438 220.337C196.389 221.003 196.364 221.459 196.364 221.706C196.364 221.953 196.413 222.15 196.512 222.298C196.611 222.421 196.771 222.668 196.993 223.038C197.141 223.285 197.388 223.47 197.733 223.593C198.103 223.716 198.473 223.741 198.843 223.667ZM217.244 225.628C217.047 225.628 216.825 225.468 216.578 225.147C216.331 224.826 216.22 224.518 216.245 224.222C216.27 223.827 216.381 223.26 216.578 222.52C216.775 221.78 216.997 221.028 217.244 220.263C217.491 219.498 217.713 218.894 217.91 218.45C218.009 218.055 218.095 217.71 218.169 217.414C218.268 217.093 218.329 216.884 218.354 216.785C218.428 216.686 218.539 216.427 218.687 216.008C218.86 215.589 218.995 215.182 219.094 214.787C219.143 214.59 219.242 214.22 219.39 213.677C219.563 213.11 219.76 212.456 219.982 211.716C220.229 210.976 220.463 210.248 220.685 209.533C220.932 208.818 221.141 208.189 221.314 207.646C221.487 207.103 221.598 206.746 221.647 206.573C221.844 206.277 221.992 205.993 222.091 205.722C222.19 205.451 222.251 205.266 222.276 205.167C222.424 205.068 222.51 204.945 222.535 204.797C222.56 204.624 222.572 204.489 222.572 204.39C222.572 204.267 222.609 204.168 222.683 204.094C222.782 204.02 222.831 203.934 222.831 203.835C222.93 203.761 222.991 203.65 223.016 203.502C223.041 203.329 223.115 203.181 223.238 203.058L223.423 202.429L225.606 202.392C225.557 202.688 225.483 203.058 225.384 203.502C225.285 203.921 225.051 204.489 224.681 205.204C224.558 205.697 224.41 206.141 224.237 206.536C224.089 206.931 224.027 207.19 224.052 207.313C224.003 207.362 223.892 207.609 223.719 208.053C223.571 208.497 223.386 209.04 223.164 209.681C222.967 210.322 222.757 210.964 222.535 211.605C222.338 212.246 222.153 212.814 221.98 213.307C221.832 213.776 221.733 214.072 221.684 214.195C221.487 214.59 221.265 215.169 221.018 215.934C220.771 216.699 220.401 217.735 219.908 219.042C219.711 219.437 219.464 220.029 219.168 220.818C218.897 221.607 218.675 222.323 218.502 222.964C218.231 223.926 218.033 224.592 217.91 224.962C217.811 225.357 217.725 225.566 217.651 225.591C217.577 225.64 217.441 225.653 217.244 225.628ZM217.54 203.576C216.849 203.601 216.331 203.564 215.986 203.465C215.665 203.366 215.554 203.12 215.653 202.725C215.727 202.429 215.887 202.207 216.134 202.059C216.381 201.911 216.738 201.8 217.207 201.726C217.478 201.677 217.824 201.615 218.243 201.541C218.687 201.467 219.106 201.393 219.501 201.319C220.315 201.22 220.981 201.134 221.499 201.06C222.042 200.986 222.597 200.924 223.164 200.875C223.731 200.826 224.447 200.776 225.31 200.727C226.025 200.678 226.63 200.641 227.123 200.616C227.641 200.567 227.9 200.542 227.9 200.542C227.974 200.542 228.233 200.567 228.677 200.616C229.121 200.665 229.602 200.727 230.12 200.801C230.638 200.875 231.02 200.961 231.267 201.06C231.834 201.183 232.241 201.356 232.488 201.578C232.759 201.8 232.944 202.121 233.043 202.54C233.117 202.836 233.117 203.021 233.043 203.095C232.969 203.144 232.833 203.218 232.636 203.317C232.069 203.49 231.649 203.576 231.378 203.576C231.107 203.576 230.798 203.514 230.453 203.391C230.33 203.268 230.182 203.157 230.009 203.058C229.861 202.959 229.59 202.885 229.195 202.836C228.825 202.762 228.233 202.7 227.419 202.651C226.728 202.725 226.124 202.762 225.606 202.762C225.088 202.762 224.829 202.824 224.829 202.947L222.646 203.058L220.833 203.243C220.586 203.268 220.241 203.305 219.797 203.354C219.353 203.379 218.921 203.416 218.502 203.465C218.083 203.49 217.762 203.527 217.54 203.576ZM232.636 227.404C232.636 227.404 232.55 227.367 232.377 227.293C232.229 227.244 232.057 227.231 231.859 227.256C231.465 227.182 231.169 226.972 230.971 226.627C230.799 226.306 230.749 225.949 230.823 225.554C230.922 225.455 230.984 225.246 231.008 224.925C231.058 224.604 231.082 224.345 231.082 224.148C231.156 223.951 231.206 223.803 231.23 223.704C231.255 223.605 231.317 223.359 231.415 222.964C231.465 222.545 231.563 221.965 231.711 221.225C231.884 220.46 232.069 219.646 232.266 218.783C232.464 217.895 232.661 217.056 232.858 216.267C233.08 215.453 233.265 214.775 233.413 214.232C233.586 213.689 233.709 213.381 233.783 213.307C233.783 213.307 233.783 213.27 233.783 213.196C233.783 213.097 233.771 212.999 233.746 212.9C233.746 212.9 233.759 212.789 233.783 212.567C233.833 212.32 233.944 212.037 234.116 211.716C234.215 211.445 234.289 211.149 234.338 210.828C234.412 210.507 234.449 210.298 234.449 210.199C234.548 210.076 234.671 209.78 234.819 209.311C234.992 208.818 235.165 208.324 235.337 207.831C235.461 207.436 235.596 207.017 235.744 206.573C235.917 206.129 236.065 205.747 236.188 205.426C236.336 205.081 236.41 204.908 236.41 204.908C236.41 204.809 236.41 204.76 236.41 204.76C236.41 204.735 236.41 204.723 236.41 204.723C236.484 204.624 236.694 204.119 237.039 203.206C237.409 202.293 237.903 201.109 238.519 199.654C238.618 199.457 238.729 199.235 238.852 198.988C239 198.741 239.074 198.569 239.074 198.47C239.198 198.273 239.37 198.174 239.592 198.174C239.814 198.174 240.036 198.248 240.258 198.396C240.505 198.519 240.69 198.717 240.813 198.988L241.22 199.58L239.962 202.281C239.617 202.972 239.321 203.613 239.074 204.205C238.828 204.772 238.704 205.105 238.704 205.204C238.704 205.204 238.63 205.401 238.482 205.796C238.359 206.191 238.199 206.672 238.001 207.239C237.829 207.782 237.681 208.275 237.557 208.719C237.311 209.508 237.076 210.15 236.854 210.643C236.657 211.136 236.558 211.432 236.558 211.531C236.558 211.482 236.83 211.445 237.372 211.42C237.915 211.371 238.606 211.334 239.444 211.309C240.283 211.26 241.134 211.223 241.997 211.198C242.885 211.149 243.662 211.099 244.328 211.05C245.019 211.001 245.488 210.951 245.734 210.902L247.621 210.68L248.768 206.832C248.941 206.117 249.163 205.266 249.434 204.279C249.73 203.292 249.989 202.441 250.211 201.726C250.557 200.567 250.84 199.851 251.062 199.58C251.284 199.309 251.543 199.173 251.839 199.173C251.938 199.148 252.098 199.185 252.32 199.284C252.567 199.383 252.74 199.531 252.838 199.728C253.159 199.975 253.307 200.271 253.282 200.616C253.282 200.961 253.097 201.43 252.727 202.022C252.382 202.688 252.086 203.416 251.839 204.205C251.617 204.994 251.408 205.636 251.21 206.129C251.235 206.425 251.21 206.672 251.136 206.869C251.062 207.042 250.976 207.19 250.877 207.313C250.828 207.362 250.729 207.547 250.581 207.868C250.458 208.189 250.335 208.509 250.211 208.83C250.113 209.151 250.063 209.348 250.063 209.422C250.088 209.595 250.063 209.817 249.989 210.088C249.915 210.335 249.829 210.507 249.73 210.606C249.706 210.754 249.619 211.136 249.471 211.753C249.323 212.345 249.138 213.048 248.916 213.862C248.719 214.651 248.509 215.428 248.287 216.193C248.09 216.958 247.893 217.587 247.695 218.08C247.72 218.253 247.671 218.475 247.547 218.746C247.424 218.993 247.375 219.215 247.399 219.412C247.301 219.708 247.177 220.09 247.029 220.559C246.906 221.003 246.857 221.287 246.881 221.41C246.783 221.977 246.672 222.557 246.548 223.149C246.425 223.741 246.326 224.247 246.252 224.666C246.178 225.11 246.141 225.369 246.141 225.443C246.067 225.542 245.919 225.554 245.697 225.48C245.5 225.431 245.266 225.357 244.994 225.258C244.526 224.987 244.242 224.703 244.143 224.407C244.045 224.111 244.119 223.679 244.365 223.112C244.489 222.915 244.624 222.421 244.772 221.632C244.945 220.843 245.118 220.066 245.29 219.301C245.414 218.931 245.549 218.425 245.697 217.784C245.845 217.143 245.993 216.501 246.141 215.86C246.289 215.219 246.413 214.664 246.511 214.195C246.635 213.726 246.721 213.467 246.77 213.418C246.77 213.319 246.77 213.233 246.77 213.159C246.77 213.085 246.77 213.048 246.77 213.048C246.721 212.999 246.413 212.974 245.845 212.974C245.278 212.949 244.575 212.949 243.736 212.974C242.898 212.999 242.022 213.048 241.109 213.122C240.221 213.196 239.42 213.295 238.704 213.418C238.433 213.443 238.125 213.455 237.779 213.455C237.434 213.455 237.163 213.467 236.965 213.492C236.694 213.492 236.46 213.504 236.262 213.529C236.09 213.529 236.003 213.529 236.003 213.529C235.979 213.603 235.892 213.862 235.744 214.306C235.621 214.75 235.473 215.293 235.3 215.934C235.128 216.551 234.943 217.192 234.745 217.858C234.573 218.524 234.425 219.128 234.301 219.671C234.178 220.189 234.104 220.571 234.079 220.818C234.005 221.262 233.894 221.829 233.746 222.52C233.598 223.186 233.438 223.864 233.265 224.555C233.117 225.246 232.982 225.85 232.858 226.368C232.76 226.911 232.686 227.256 232.636 227.404ZM261.217 225.406C260.231 225.406 259.343 225.344 258.553 225.221C257.789 225.122 257.086 224.826 256.444 224.333C255.68 223.766 255.236 223.026 255.112 222.113C255.014 221.176 255.199 219.831 255.667 218.08C255.791 217.463 255.926 216.921 256.074 216.452C256.247 215.983 256.395 215.749 256.518 215.749C256.543 215.626 256.58 215.453 256.629 215.231C256.679 214.984 256.728 214.701 256.777 214.38C256.901 213.936 256.987 213.615 257.036 213.418C257.086 213.196 257.184 213.011 257.332 212.863C257.406 212.814 257.493 212.653 257.591 212.382C257.69 212.086 257.752 211.913 257.776 211.864C257.776 211.864 257.789 211.778 257.813 211.605C257.838 211.408 257.9 211.186 257.998 210.939C258.368 210.322 258.553 209.915 258.553 209.718C258.603 209.619 258.701 209.471 258.849 209.274C259.022 209.077 259.158 208.818 259.256 208.497C259.996 207.19 260.601 206.067 261.069 205.13C261.538 204.168 261.822 203.453 261.92 202.984C262.044 202.713 262.155 202.478 262.253 202.281C262.377 202.059 262.525 201.849 262.697 201.652C262.648 201.529 262.747 201.393 262.993 201.245C263.24 201.097 263.585 200.937 264.029 200.764C264.473 200.591 264.954 200.443 265.472 200.32C266.015 200.197 266.545 200.123 267.063 200.098C267.211 199.999 267.532 199.925 268.025 199.876C268.543 199.827 269.135 199.802 269.801 199.802C270.467 199.802 271.084 199.827 271.651 199.876C272.194 199.876 272.626 199.95 272.946 200.098C273.267 200.246 273.588 200.394 273.908 200.542C274.032 200.665 274.118 200.813 274.167 200.986C274.241 201.159 274.291 201.319 274.315 201.467C274.34 201.59 274.352 201.652 274.352 201.652C274.352 201.775 274.007 201.849 273.316 201.874C272.626 201.899 271.873 201.911 271.059 201.911C270.147 201.911 269.271 201.985 268.432 202.133C267.594 202.281 267.039 202.355 266.767 202.355C266.422 202.454 266.114 202.515 265.842 202.54C265.596 202.565 265.472 202.577 265.472 202.577C265.423 202.577 265.263 202.774 264.991 203.169C264.745 203.539 264.461 203.983 264.14 204.501C263.844 204.994 263.573 205.463 263.326 205.907C263.104 206.326 262.993 206.573 262.993 206.647C262.993 206.894 262.895 207.165 262.697 207.461C262.5 207.757 262.266 208.102 261.994 208.497C261.748 208.818 261.587 209.114 261.513 209.385C261.439 209.632 261.513 209.804 261.735 209.903C262.13 209.829 262.66 209.755 263.326 209.681C264.017 209.607 264.695 209.545 265.361 209.496C266.052 209.422 266.582 209.385 266.952 209.385C267.372 209.262 267.717 209.237 267.988 209.311C268.26 209.385 268.457 209.459 268.58 209.533C268.876 209.582 269.086 209.681 269.209 209.829C269.333 209.952 269.382 210.076 269.357 210.199C269.357 210.322 269.271 210.421 269.098 210.495C268.95 210.643 268.58 210.816 267.988 211.013C267.396 211.21 266.706 211.408 265.916 211.605C265.127 211.802 264.325 211.987 263.511 212.16C262.722 212.308 262.044 212.431 261.476 212.53C260.909 212.629 260.576 212.666 260.477 212.641C260.329 212.296 260.218 212.308 260.144 212.678C260.095 213.023 259.824 213.739 259.33 214.824C259.059 215.441 258.812 216.033 258.59 216.6C258.393 217.143 258.22 217.722 258.072 218.339C257.949 218.931 257.813 219.609 257.665 220.374C257.493 221.04 257.443 221.583 257.517 222.002C257.616 222.397 258.06 222.779 258.849 223.149C259.343 223.248 259.996 223.285 260.81 223.26C261.649 223.235 262.599 223.087 263.659 222.816C264.103 222.545 264.51 222.335 264.88 222.187C265.25 222.014 265.522 221.879 265.694 221.78C265.818 221.78 266.003 221.755 266.249 221.706C266.521 221.632 266.706 221.595 266.804 221.595C267.002 221.324 267.248 221.188 267.544 221.188C267.594 221.188 267.705 221.287 267.877 221.484C268.075 221.657 268.26 221.854 268.432 222.076C268.605 222.298 268.679 222.446 268.654 222.52C268.654 222.767 268.383 223.013 267.84 223.26C267.298 223.507 266.41 223.877 265.176 224.37C264.56 224.641 264.054 224.851 263.659 224.999C263.289 225.147 262.932 225.246 262.586 225.295C262.241 225.369 261.785 225.406 261.217 225.406ZM275.309 225.221C275.21 225.221 275.124 225.172 275.05 225.073C275 224.999 274.976 224.913 274.976 224.814C274.976 224.691 274.951 224.629 274.902 224.629C274.704 224.629 274.593 224.444 274.569 224.074C274.544 223.704 274.63 223.433 274.828 223.26C274.877 223.26 274.902 223.1 274.902 222.779C274.902 222.631 274.914 222.508 274.939 222.409C274.988 222.31 275 222.212 274.976 222.113C274.976 222.039 275 221.928 275.05 221.78C275.124 221.632 275.161 221.509 275.161 221.41C275.161 221.311 275.21 221.163 275.309 220.966C275.432 220.769 275.531 220.584 275.605 220.411C275.679 220.288 275.765 220.078 275.864 219.782C275.962 219.486 276.061 219.215 276.16 218.968C276.16 218.919 276.258 218.709 276.456 218.339C276.678 217.969 276.85 217.562 276.974 217.118C277.072 216.748 277.159 216.366 277.233 215.971C277.307 215.552 277.344 215.317 277.344 215.268C277.344 215.12 277.344 214.997 277.344 214.898C277.344 214.799 277.344 214.75 277.344 214.75C277.541 214.75 277.64 214.713 277.64 214.639C277.738 214.54 277.788 214.491 277.788 214.491C277.812 214.466 277.825 214.454 277.825 214.454C277.825 214.454 277.837 214.392 277.862 214.269C277.886 214.121 277.985 213.998 278.158 213.899C278.38 213.628 278.503 213.443 278.528 213.344C278.577 213.245 278.602 213.159 278.602 213.085C278.602 213.085 278.762 212.653 279.083 211.79C279.403 210.902 279.921 209.632 280.637 207.979C281.056 207.313 281.401 206.622 281.673 205.907C281.969 205.167 282.178 204.711 282.302 204.538C282.499 204.069 282.598 203.687 282.598 203.391C282.598 203.391 282.585 203.391 282.561 203.391C282.561 203.391 282.536 203.391 282.487 203.391C282.265 203.514 282.092 203.527 281.969 203.428C281.87 203.305 281.673 203.12 281.377 202.873C281.204 202.676 281.068 202.466 280.97 202.244C280.871 201.997 280.822 201.862 280.822 201.837C280.822 201.763 280.97 201.627 281.266 201.43C281.562 201.208 281.907 200.998 282.302 200.801C282.721 200.579 283.079 200.431 283.375 200.357C283.671 200.209 284.041 200.135 284.485 200.135C284.953 200.135 285.422 200.172 285.891 200.246C286.359 200.32 286.754 200.394 287.075 200.468C287.889 200.641 288.678 201.06 289.443 201.726C290.232 202.392 290.824 203.144 291.219 203.983C291.416 204.328 291.539 204.76 291.589 205.278C291.663 205.771 291.675 206.302 291.626 206.869C291.601 207.412 291.515 207.93 291.367 208.423C291.194 208.892 290.91 209.434 290.516 210.051C290.146 210.643 289.726 211.223 289.258 211.79C288.789 212.333 288.357 212.789 287.963 213.159C287.593 213.529 287.321 213.714 287.149 213.714C286.976 213.714 286.877 213.714 286.853 213.714C286.828 213.714 286.816 213.714 286.816 213.714C286.816 213.739 286.692 213.837 286.446 214.01C286.224 214.158 285.94 214.343 285.595 214.565C285.249 214.762 284.916 214.935 284.596 215.083C284.275 215.231 284.041 215.317 283.893 215.342C283.72 215.342 283.584 215.354 283.486 215.379C283.387 215.404 283.301 215.49 283.227 215.638C283.079 215.885 282.992 216.094 282.968 216.267C282.968 216.415 282.992 216.699 283.042 217.118C283.165 217.414 283.387 217.833 283.708 218.376C284.028 218.894 284.337 219.363 284.633 219.782C284.929 220.201 285.101 220.411 285.151 220.411C285.249 220.411 285.385 220.46 285.558 220.559C285.73 220.658 285.903 220.818 286.076 221.04C286.569 221.361 287.025 221.595 287.445 221.743C287.864 221.866 288.061 221.842 288.037 221.669C288.037 221.595 288.123 221.546 288.296 221.521C288.468 221.496 288.641 221.472 288.814 221.447C288.986 221.447 289.134 221.472 289.258 221.521C289.381 221.57 289.455 221.595 289.48 221.595C289.48 221.595 289.48 221.669 289.48 221.817C289.504 221.965 289.529 222.138 289.554 222.335C289.554 222.631 289.504 222.939 289.406 223.26C289.307 223.556 289.159 223.803 288.962 224C288.764 224.222 288.505 224.345 288.185 224.37C287.346 224.469 286.47 224.247 285.558 223.704C284.645 223.161 283.782 222.384 282.968 221.373C282.154 220.337 281.475 219.165 280.933 217.858C280.76 217.291 280.624 216.97 280.526 216.896C280.452 216.797 280.23 216.773 279.86 216.822C279.564 216.822 279.366 216.859 279.268 216.933C279.194 217.007 279.058 217.291 278.861 217.784C278.836 217.981 278.811 218.166 278.787 218.339C278.787 218.487 278.725 218.561 278.602 218.561C278.602 218.561 278.54 218.709 278.417 219.005C278.293 219.276 278.145 219.585 277.973 219.93C277.923 220.251 277.837 220.547 277.714 220.818C277.615 221.065 277.566 221.237 277.566 221.336C277.566 221.607 277.553 221.792 277.529 221.891C277.504 221.99 277.43 222.039 277.307 222.039C277.331 222.138 277.319 222.236 277.27 222.335C277.22 222.434 277.196 222.557 277.196 222.705C277.196 222.73 277.183 222.841 277.159 223.038C277.159 223.211 277.134 223.42 277.085 223.667C276.986 223.914 276.875 224.086 276.752 224.185C276.653 224.308 276.616 224.432 276.641 224.555C276.641 224.678 276.567 224.802 276.419 224.925C276.295 225.048 276.123 225.135 275.901 225.184C275.703 225.258 275.506 225.27 275.309 225.221ZM281.118 213.307C281.29 213.874 281.784 213.85 282.598 213.233C283.436 212.937 284.016 212.69 284.337 212.493C284.682 212.271 284.978 212.074 285.225 211.901C285.447 211.778 285.632 211.642 285.78 211.494C285.928 211.321 286.002 211.235 286.002 211.235C286.174 211.21 286.458 211.025 286.853 210.68C287.272 210.335 287.691 209.928 288.111 209.459C288.53 208.966 288.838 208.497 289.036 208.053C289.258 207.658 289.406 207.362 289.48 207.165C289.578 206.968 289.628 206.77 289.628 206.573C289.652 206.376 289.665 206.104 289.665 205.759C289.541 205.315 289.381 204.945 289.184 204.649C289.011 204.353 288.777 204.094 288.481 203.872C288.185 203.65 287.765 203.44 287.223 203.243C286.853 203.046 286.384 202.935 285.817 202.91C285.249 202.861 284.768 202.873 284.374 202.947C283.979 203.021 283.843 203.157 283.967 203.354C284.065 203.773 284.152 204.23 284.226 204.723C284.324 205.192 284.263 205.599 284.041 205.944C284.041 206.166 283.868 206.659 283.523 207.424C283.177 208.189 282.844 209.003 282.524 209.866C282.104 210.828 281.759 211.63 281.488 212.271C281.241 212.888 281.118 213.233 281.118 213.307ZM319.68 225.961C319.36 225.986 319.064 225.912 318.792 225.739C318.546 225.591 318.373 225.394 318.274 225.147C318.176 225.024 318.028 224.814 317.83 224.518C317.633 224.222 317.51 223.926 317.46 223.63C317.386 222.841 317.337 222.076 317.312 221.336C317.312 220.596 317.349 219.56 317.423 218.228C317.497 217.143 317.633 216.094 317.83 215.083C318.052 214.047 318.262 213.122 318.459 212.308C318.681 211.494 318.854 210.853 318.977 210.384C319.101 209.891 319.125 209.644 319.051 209.644C318.953 209.644 318.805 209.829 318.607 210.199C318.41 210.544 318.188 210.976 317.941 211.494C317.695 212.012 317.448 212.53 317.201 213.048C316.955 213.541 316.745 213.948 316.572 214.269C316.227 215.034 315.82 215.848 315.351 216.711C314.907 217.55 314.451 218.364 313.982 219.153C313.514 219.942 313.107 220.633 312.761 221.225C312.539 221.472 312.28 221.829 311.984 222.298C311.688 222.742 311.368 223.211 311.022 223.704C310.677 224.197 310.319 224.604 309.949 224.925C309.407 225.443 308.864 225.727 308.321 225.776C307.803 225.825 307.359 225.69 306.989 225.369C306.915 225.27 306.829 225.147 306.73 224.999C306.656 224.876 306.595 224.703 306.545 224.481C306.496 224.259 306.508 224 306.582 223.704C306.558 223.359 306.558 222.828 306.582 222.113C306.632 221.373 306.706 220.571 306.804 219.708C306.903 218.82 307.002 217.969 307.1 217.155C307.224 216.341 307.335 215.663 307.433 215.12C307.655 213.541 307.951 211.926 308.321 210.273C308.716 208.62 309.074 206.955 309.394 205.278C309.592 204.785 309.764 204.23 309.912 203.613C310.085 202.972 310.258 202.38 310.43 201.837C310.455 201.294 310.578 200.937 310.8 200.764C311.022 200.567 311.269 200.505 311.54 200.579C311.836 200.628 312.071 200.776 312.243 201.023C312.49 201.27 312.675 201.652 312.798 202.17C312.946 202.688 312.848 203.342 312.502 204.131C312.009 205.34 311.528 206.82 311.059 208.571C310.615 210.298 310.208 212.394 309.838 214.861C309.74 215.453 309.629 216.156 309.505 216.97C309.382 217.784 309.271 218.573 309.172 219.338C309.074 220.103 309 220.744 308.95 221.262C308.926 221.78 308.938 222.051 308.987 222.076C309.185 222.125 309.456 221.977 309.801 221.632C310.147 221.262 310.455 220.781 310.726 220.189C311.738 218.512 312.737 216.76 313.723 214.935C314.735 213.085 315.697 211.26 316.609 209.459C317.029 208.744 317.448 207.967 317.867 207.128C318.311 206.265 318.731 205.475 319.125 204.76C319.545 204.02 319.927 203.354 320.272 202.762C320.618 202.145 320.914 201.64 321.16 201.245C321.407 200.85 321.604 200.628 321.752 200.579C322.147 200.604 322.48 200.702 322.751 200.875C323.047 201.023 323.294 201.344 323.491 201.837C323.541 201.96 323.528 202.17 323.454 202.466C323.38 202.762 323.294 203.021 323.195 203.243C323.171 203.416 323.06 203.773 322.862 204.316C322.69 204.859 322.529 205.463 322.381 206.129C322.135 206.795 321.913 207.461 321.715 208.127C321.543 208.768 321.419 209.299 321.345 209.718C321.148 210.779 320.901 211.95 320.605 213.233C320.309 214.491 320.05 215.749 319.828 217.007C319.631 218.24 319.52 219.35 319.495 220.337C319.471 221.028 319.471 221.57 319.495 221.965C319.545 222.36 319.619 222.668 319.717 222.89C319.767 223.087 319.915 223.211 320.161 223.26C320.433 223.309 320.655 223.223 320.827 223.001C321.321 222.384 321.74 221.829 322.085 221.336C322.455 220.818 322.801 220.3 323.121 219.782C323.442 219.239 323.775 218.635 324.12 217.969C324.737 216.834 325.366 215.576 326.007 214.195C326.673 212.789 327.302 211.395 327.894 210.014C328.511 208.633 329.041 207.424 329.485 206.388C329.954 205.056 330.324 203.995 330.595 203.206C330.891 202.417 331.15 201.825 331.372 201.43C331.594 201.035 331.829 200.764 332.075 200.616C332.199 200.517 332.371 200.468 332.593 200.468C332.815 200.468 333.037 200.567 333.259 200.764C333.358 200.863 333.444 201.023 333.518 201.245C333.617 201.442 333.654 201.689 333.629 201.985C333.506 202.38 333.284 203.009 332.963 203.872C332.667 204.735 332.322 205.685 331.927 206.721C331.533 207.757 331.15 208.744 330.78 209.681C330.41 210.618 330.09 211.371 329.818 211.938C329.547 212.456 329.288 212.9 329.041 213.27C328.795 213.64 328.671 213.924 328.671 214.121C328.671 214.22 328.548 214.528 328.301 215.046C328.055 215.539 327.734 216.144 327.339 216.859C326.969 217.574 326.562 218.314 326.118 219.079C325.674 219.844 325.255 220.547 324.86 221.188C324.466 221.829 324.133 222.323 323.861 222.668C323.245 223.433 322.64 224.062 322.048 224.555C321.481 225.048 320.988 225.406 320.568 225.628C320.149 225.85 319.853 225.961 319.68 225.961ZM337.097 224.518C336.653 224.444 336.185 224.271 335.691 224C335.198 223.753 334.754 223.47 334.359 223.149C333.989 222.804 333.73 222.471 333.582 222.15C333.138 221.385 332.879 220.571 332.805 219.708C332.731 218.82 332.892 217.994 333.286 217.229C333.336 216.958 333.373 216.662 333.397 216.341C333.447 216.02 333.471 215.749 333.471 215.527C333.471 215.527 333.508 215.478 333.582 215.379C333.681 215.256 333.73 215.194 333.73 215.194C333.804 215.194 333.854 215.157 333.878 215.083C333.903 215.009 333.94 214.91 333.989 214.787C334.088 214.614 334.162 214.491 334.211 214.417C334.285 214.343 334.322 214.306 334.322 214.306C334.47 214.306 334.557 214.257 334.581 214.158C334.606 214.035 334.606 213.763 334.581 213.344C334.557 213.245 334.557 213.159 334.581 213.085C334.606 213.011 334.618 212.937 334.618 212.863C334.742 212.74 334.84 212.641 334.914 212.567C334.988 212.493 335.025 212.407 335.025 212.308C335.124 212.234 335.21 212.172 335.284 212.123C335.383 212.074 335.432 212.049 335.432 212.049C335.58 212.098 335.654 212.111 335.654 212.086C335.679 212.037 335.741 211.975 335.839 211.901C335.839 211.778 335.913 211.519 336.061 211.124C336.234 210.729 336.419 210.298 336.616 209.829C336.814 209.36 336.962 208.978 337.06 208.682C337.973 207.029 338.836 205.636 339.65 204.501C340.464 203.342 341.241 202.417 341.981 201.726C342.746 201.011 343.474 200.505 344.164 200.209C344.288 200.16 344.473 200.135 344.719 200.135C344.991 200.11 345.25 200.086 345.496 200.061C345.842 200.061 346.224 200.123 346.643 200.246C347.063 200.345 347.433 200.456 347.753 200.579C348.074 200.678 348.247 200.764 348.271 200.838C348.271 200.937 348.308 200.998 348.382 201.023C348.456 201.048 348.493 201.06 348.493 201.06C348.641 201.035 348.826 201.171 349.048 201.467C349.27 201.763 349.505 202.133 349.751 202.577C350.023 203.021 350.245 203.465 350.417 203.909C350.689 204.304 350.837 204.883 350.861 205.648C350.886 206.413 350.874 207.165 350.824 207.905C350.75 208.448 350.639 209.052 350.491 209.718C350.343 210.384 350.183 211.001 350.01 211.568C349.862 212.111 349.739 212.505 349.64 212.752C349.616 212.826 349.554 212.986 349.455 213.233C349.381 213.48 349.295 213.726 349.196 213.973C349.122 214.22 349.061 214.405 349.011 214.528C348.789 215.169 348.481 215.885 348.086 216.674C347.716 217.439 347.309 218.179 346.865 218.894C346.421 219.609 345.99 220.201 345.57 220.67C345.151 221.139 344.793 221.385 344.497 221.41C344.497 221.41 344.473 221.422 344.423 221.447C344.399 221.472 344.386 221.533 344.386 221.632C344.386 221.681 344.189 221.879 343.794 222.224C343.424 222.569 343.005 222.927 342.536 223.297C342.092 223.642 341.759 223.901 341.537 224.074C341.019 224.247 340.477 224.382 339.909 224.481C339.367 224.604 338.849 224.666 338.355 224.666C337.862 224.666 337.443 224.617 337.097 224.518ZM337.282 222.52C338.096 222.52 338.849 222.434 339.539 222.261C340.255 222.064 340.945 221.743 341.611 221.299C342.302 220.83 342.98 220.201 343.646 219.412C343.77 219.141 343.905 218.894 344.053 218.672C344.201 218.45 344.275 218.339 344.275 218.339C344.423 218.314 344.497 218.24 344.497 218.117C344.497 218.117 344.522 218.031 344.571 217.858C344.621 217.661 344.695 217.513 344.793 217.414C345.04 217.217 345.25 217.056 345.422 216.933C345.62 216.785 345.718 216.711 345.718 216.711C345.718 216.637 345.755 216.452 345.829 216.156C345.928 215.86 346.039 215.564 346.162 215.268C346.286 214.972 346.384 214.799 346.458 214.75C346.508 214.701 346.619 214.429 346.791 213.936C346.989 213.418 347.174 212.838 347.346 212.197C347.544 211.531 347.642 210.988 347.642 210.569C347.766 210.446 347.864 210.322 347.938 210.199C348.037 210.051 348.086 209.977 348.086 209.977C348.185 209.903 348.222 209.829 348.197 209.755C348.197 209.656 348.197 209.496 348.197 209.274C348.197 208.929 348.222 208.682 348.271 208.534C348.321 208.386 348.345 208.312 348.345 208.312C348.469 208.189 348.53 208.115 348.53 208.09C348.555 208.041 348.543 208.004 348.493 207.979C348.173 207.782 348.173 207.646 348.493 207.572C348.543 207.449 348.555 207.202 348.53 206.832C348.506 206.437 348.456 206.006 348.382 205.537C348.333 205.044 348.259 204.587 348.16 204.168C348.086 203.724 348.012 203.416 347.938 203.243C347.741 202.972 347.482 202.787 347.161 202.688C346.865 202.565 346.384 202.602 345.718 202.799C344.978 202.972 344.386 203.243 343.942 203.613C343.498 203.983 342.919 204.538 342.203 205.278C342.105 205.648 341.969 205.956 341.796 206.203C341.624 206.45 341.5 206.573 341.426 206.573C341.328 206.573 341.229 206.647 341.13 206.795C341.032 206.943 340.97 207.128 340.945 207.35C340.526 207.597 340.218 207.819 340.02 208.016C339.823 208.189 339.7 208.337 339.65 208.46C339.404 208.855 339.095 209.434 338.725 210.199C338.38 210.939 338.01 211.765 337.615 212.678C337.245 213.566 336.888 214.454 336.542 215.342C336.222 216.23 335.95 217.044 335.728 217.784C335.506 218.499 335.371 219.042 335.321 219.412C335.124 219.93 335.05 220.436 335.099 220.929C335.149 221.398 335.284 221.657 335.506 221.706C335.704 221.928 335.987 222.113 336.357 222.261C336.727 222.409 337.036 222.495 337.282 222.52ZM353.529 224.851C353.529 225.024 353.479 225.048 353.381 224.925C353.282 224.802 353.097 224.629 352.826 224.407C352.604 224.185 352.468 223.963 352.419 223.741C352.369 223.519 352.357 223.174 352.382 222.705C352.505 222.138 352.727 221.311 353.048 220.226C353.368 219.116 353.751 217.957 354.195 216.748C354.244 216.279 354.33 215.848 354.454 215.453C354.577 215.058 354.639 214.861 354.639 214.861C354.639 214.812 354.7 214.75 354.824 214.676C354.947 214.602 355.046 214.479 355.12 214.306C355.218 214.257 355.255 214.133 355.231 213.936C355.206 213.714 355.181 213.566 355.157 213.492C355.157 213.319 355.243 212.925 355.416 212.308C355.613 211.691 355.897 210.84 356.267 209.755C356.661 208.67 357.142 207.338 357.71 205.759C357.981 205.414 358.191 205.044 358.339 204.649C358.511 204.254 358.598 204.057 358.598 204.057C358.795 203.81 358.881 203.65 358.857 203.576C358.832 203.502 358.647 203.354 358.302 203.132C358.104 202.787 357.956 202.441 357.858 202.096C357.759 201.751 357.833 201.43 358.08 201.134C358.154 201.011 358.289 200.85 358.487 200.653C358.709 200.456 358.943 200.271 359.19 200.098C359.757 199.802 360.176 199.605 360.448 199.506C360.744 199.383 361.114 199.383 361.558 199.506C362.347 199.531 362.951 199.568 363.371 199.617C363.79 199.666 364.061 199.79 364.185 199.987C364.259 200.086 364.382 200.184 364.555 200.283C364.752 200.357 364.937 200.394 365.11 200.394C365.554 200.443 366.035 200.579 366.553 200.801C367.071 201.023 367.527 201.245 367.922 201.467C368.341 201.689 368.588 201.849 368.662 201.948C369.081 202.293 369.439 202.824 369.735 203.539C370.055 204.254 370.253 205.081 370.327 206.018C370.327 206.585 370.302 207.066 370.253 207.461C370.228 207.831 370.129 208.201 369.957 208.571C369.784 208.941 369.5 209.397 369.106 209.94C368.366 211.173 367.367 212.37 366.109 213.529C364.875 214.664 363.445 215.7 361.817 216.637C361.767 216.736 361.706 216.847 361.632 216.97C361.582 217.069 361.558 217.118 361.558 217.118C361.558 217.291 361.706 217.562 362.002 217.932C362.298 218.302 362.668 218.709 363.112 219.153C363.58 219.597 364.049 220.041 364.518 220.485C365.011 220.904 365.455 221.262 365.85 221.558C366.244 221.854 366.516 222.039 366.664 222.113C366.812 222.162 366.997 222.15 367.219 222.076C367.465 222.002 367.687 221.99 367.885 222.039C368.082 222.064 368.181 222.286 368.181 222.705C368.23 223.05 368.119 223.359 367.848 223.63C367.576 223.877 367.404 224.025 367.33 224.074C367.182 224.321 367.058 224.493 366.96 224.592C366.886 224.691 366.762 224.691 366.59 224.592C366.442 224.518 366.183 224.358 365.813 224.111C364.925 223.815 364.074 223.297 363.26 222.557C362.446 221.817 361.619 220.929 360.781 219.893C360.263 219.35 359.856 218.968 359.56 218.746C359.288 218.499 359.054 218.351 358.857 218.302C358.659 218.253 358.413 218.253 358.117 218.302C357.944 218.302 357.734 218.29 357.488 218.265C357.266 218.216 357.056 218.092 356.859 217.895C356.834 217.722 356.698 217.599 356.452 217.525C356.23 217.426 356.119 217.463 356.119 217.636C356.094 217.685 356.008 217.944 355.86 218.413C355.712 218.882 355.551 219.375 355.379 219.893C355.206 220.386 355.058 220.732 354.935 220.929C354.984 221.151 354.947 221.521 354.824 222.039C354.7 222.557 354.503 223.285 354.232 224.222C354.207 224.493 354.145 224.703 354.047 224.851C353.973 225.024 353.936 225.024 353.936 224.851C353.788 224.752 353.689 224.703 353.64 224.703C353.615 224.703 353.578 224.752 353.529 224.851ZM360.485 215.12C361.274 214.651 362.063 214.096 362.853 213.455C363.642 212.814 364.357 212.172 364.999 211.531C365.64 210.89 366.121 210.322 366.442 209.829C366.639 209.681 366.824 209.434 366.997 209.089C367.194 208.744 367.354 208.534 367.478 208.46C367.675 208.189 367.811 207.991 367.885 207.868C367.983 207.72 367.971 207.535 367.848 207.313C367.848 207.116 367.86 206.918 367.885 206.721C367.909 206.524 367.983 206.339 368.107 206.166C368.353 205.426 368.366 204.908 368.144 204.612C367.946 204.316 367.539 204.032 366.923 203.761C366.799 203.638 366.577 203.514 366.257 203.391C365.961 203.268 365.64 203.157 365.295 203.058C364.949 202.935 364.678 202.836 364.481 202.762C364.061 202.688 363.642 202.626 363.223 202.577C362.803 202.503 362.483 202.478 362.261 202.503C361.989 202.577 361.804 202.676 361.706 202.799C361.607 202.898 361.397 203.268 361.077 203.909C361.027 204.23 360.929 204.55 360.781 204.871C360.633 205.192 360.509 205.377 360.411 205.426C360.386 205.525 360.263 205.882 360.041 206.499C359.819 207.116 359.547 207.856 359.227 208.719C358.931 209.582 358.622 210.446 358.302 211.309C358.006 212.148 357.759 212.863 357.562 213.455C357.364 214.047 357.266 214.392 357.266 214.491C357.266 214.54 357.389 214.664 357.636 214.861C357.882 215.034 358.03 215.034 358.08 214.861C358.08 214.861 358.178 214.898 358.376 214.972C358.573 215.046 358.721 215.108 358.82 215.157L359.375 215.49L360.485 215.12ZM387.089 222.668C387.065 222.767 386.867 222.767 386.497 222.668C386.127 222.569 385.72 222.409 385.276 222.187C384.857 221.94 384.499 221.669 384.203 221.373C383.735 221.052 383.217 220.608 382.649 220.041C382.082 219.474 381.539 218.857 381.021 218.191C380.503 217.525 380.072 216.884 379.726 216.267C379.48 215.848 379.295 215.465 379.171 215.12C379.048 214.75 378.888 214.565 378.69 214.565C378.518 214.59 378.333 214.516 378.135 214.343C377.938 214.17 377.765 213.936 377.617 213.64C377.469 213.344 377.358 213.048 377.284 212.752C377.309 212.555 377.383 212.382 377.506 212.234C377.654 212.061 377.827 211.987 378.024 212.012C378.024 211.938 378.222 211.691 378.616 211.272C379.011 210.853 379.504 210.347 380.096 209.755C380.713 209.138 381.354 208.509 382.02 207.868C382.711 207.227 383.352 206.647 383.944 206.129C384.536 205.611 385.005 205.229 385.35 204.982C385.498 204.785 385.609 204.637 385.683 204.538C385.782 204.439 385.868 204.353 385.942 204.279C385.942 204.279 386.029 204.242 386.201 204.168C386.399 204.069 386.584 203.934 386.756 203.761C386.978 203.638 387.163 203.49 387.311 203.317C387.484 203.12 387.595 202.959 387.644 202.836C387.768 202.787 387.977 202.651 388.273 202.429C388.569 202.207 388.878 202.01 389.198 201.837C389.568 201.64 389.864 201.455 390.086 201.282C390.333 201.109 390.456 201.023 390.456 201.023C390.678 201.023 390.925 201.146 391.196 201.393C391.492 201.615 391.677 201.8 391.751 201.948C391.949 202.244 392.047 202.429 392.047 202.503C392.047 202.577 391.949 202.676 391.751 202.799C391.554 203.243 391.295 203.564 390.974 203.761C390.654 203.958 390.321 204.131 389.975 204.279C389.655 204.427 389.346 204.661 389.05 204.982C388.582 205.525 388.076 205.919 387.533 206.166C387.015 206.413 386.51 206.807 386.016 207.35C385.474 207.843 384.931 208.349 384.388 208.867C383.846 209.385 383.278 209.878 382.686 210.347C382.686 210.347 382.612 210.421 382.464 210.569C382.316 210.692 382.057 210.939 381.687 211.309C381.342 211.654 380.861 212.148 380.244 212.789L380.984 214.38C381.675 215.317 382.39 216.218 383.13 217.081C383.87 217.944 384.586 218.672 385.276 219.264C385.992 219.856 386.596 220.214 387.089 220.337C387.459 220.46 387.768 220.744 388.014 221.188C388.212 221.262 388.31 221.422 388.31 221.669C388.31 221.891 388.212 222.101 388.014 222.298C387.842 222.495 387.533 222.619 387.089 222.668ZM372.548 224.74C372.228 224.691 371.956 224.506 371.734 224.185C371.512 223.864 371.377 223.531 371.327 223.186C371.451 222.989 371.525 222.742 371.549 222.446C371.599 222.125 371.673 221.928 371.771 221.854C371.796 221.657 371.87 221.336 371.993 220.892C372.117 220.448 372.203 219.979 372.252 219.486C372.45 219.116 372.598 218.721 372.696 218.302C372.82 217.858 372.955 217.476 373.103 217.155C373.202 216.933 373.288 216.686 373.362 216.415C373.436 216.144 373.523 215.934 373.621 215.786C373.868 215.071 374.065 214.466 374.213 213.973C374.386 213.455 374.497 212.937 374.546 212.419C374.645 212.246 374.731 212.061 374.805 211.864C374.904 211.667 374.99 211.383 375.064 211.013C375.114 210.914 375.249 210.631 375.471 210.162C375.718 209.669 375.903 209.114 376.026 208.497C376.347 207.658 376.618 206.992 376.84 206.499C377.062 206.006 377.26 205.562 377.432 205.167C377.605 204.772 377.79 204.316 377.987 203.798C378.111 203.477 378.222 203.157 378.32 202.836C378.419 202.515 378.468 202.355 378.468 202.355C378.468 202.256 378.542 202.047 378.69 201.726C378.838 201.405 379.023 201.048 379.245 200.653C379.443 200.308 379.628 200.012 379.8 199.765C379.998 199.494 380.133 199.358 380.207 199.358C380.528 199.333 380.824 199.42 381.095 199.617C381.391 199.79 381.601 200.024 381.724 200.32C381.848 200.591 381.811 200.863 381.613 201.134C381.539 201.282 381.391 201.615 381.169 202.133C380.947 202.626 380.701 203.194 380.429 203.835C380.158 204.452 379.899 205.044 379.652 205.611C379.43 206.154 379.258 206.561 379.134 206.832C379.036 207.153 378.851 207.609 378.579 208.201C378.333 208.768 378.135 209.348 377.987 209.94C377.667 210.409 377.445 210.914 377.321 211.457C377.198 212 377.075 212.382 376.951 212.604C376.877 212.777 376.803 212.949 376.729 213.122C376.655 213.295 376.581 213.43 376.507 213.529C376.507 213.529 376.47 213.603 376.396 213.751C376.347 213.899 376.261 214.096 376.137 214.343C376.137 214.54 376.113 214.775 376.063 215.046C376.039 215.293 375.965 215.502 375.841 215.675C375.767 215.922 375.681 216.144 375.582 216.341C375.508 216.514 375.471 216.6 375.471 216.6C375.471 216.674 375.447 216.81 375.397 217.007C375.348 217.18 375.299 217.352 375.249 217.525C375.151 217.772 375.003 218.24 374.805 218.931C374.608 219.597 374.411 220.288 374.213 221.003C373.917 222.113 373.683 222.939 373.51 223.482C373.338 224 373.177 224.333 373.029 224.481C372.906 224.654 372.746 224.74 372.548 224.74ZM397.167 225.85C396.723 225.727 396.366 225.616 396.094 225.517C395.823 225.443 395.687 225.406 395.687 225.406C395.737 225.283 395.712 225.172 395.613 225.073C395.539 224.974 395.367 224.913 395.095 224.888C394.725 224.666 394.38 224.382 394.059 224.037C393.763 223.716 393.517 223.396 393.319 223.075C393.122 222.754 392.974 222.483 392.875 222.261C392.703 221.891 392.616 221.669 392.616 221.595C392.641 221.496 392.789 221.385 393.06 221.262C393.332 221.065 393.529 221.003 393.652 221.077C393.8 221.151 393.973 221.398 394.17 221.817C394.491 222.384 395.034 222.816 395.798 223.112C396.588 223.408 397.463 223.544 398.425 223.519C399.412 223.47 400.349 223.248 401.237 222.853C402.15 222.483 402.717 222.101 402.939 221.706C403.186 221.287 403.1 220.756 402.68 220.115C402.606 219.918 402.52 219.757 402.421 219.634C402.323 219.511 402.162 219.35 401.94 219.153C401.743 218.956 401.41 218.635 400.941 218.191C400.571 218.018 400.226 217.858 399.905 217.71C399.609 217.562 399.289 217.402 398.943 217.229C398.549 217.032 398.068 216.748 397.5 216.378C396.958 215.983 396.44 215.552 395.946 215.083C395.453 214.614 395.095 214.183 394.873 213.788C394.479 213.418 394.183 212.912 393.985 212.271C393.788 211.605 393.714 210.902 393.763 210.162C393.813 209.422 393.998 208.756 394.318 208.164C394.466 207.819 394.713 207.399 395.058 206.906C395.428 206.388 395.835 205.87 396.279 205.352C396.723 204.834 397.155 204.365 397.574 203.946C397.994 203.527 398.339 203.231 398.61 203.058C398.808 202.861 399.017 202.663 399.239 202.466C399.461 202.244 399.572 202.133 399.572 202.133C399.597 202.01 399.634 201.948 399.683 201.948C399.757 201.948 399.794 201.948 399.794 201.948C399.918 201.874 400.189 201.751 400.608 201.578C401.028 201.405 401.484 201.085 401.977 200.616C403.63 199.827 404.974 199.247 406.01 198.877C407.046 198.507 407.897 198.322 408.563 198.322C409.18 198.347 409.735 198.495 410.228 198.766C410.746 199.013 411.166 199.346 411.486 199.765C411.832 200.184 412.041 200.69 412.115 201.282C412.288 201.874 412.239 202.565 411.967 203.354C411.696 204.119 411.289 204.846 410.746 205.537C410.228 206.203 409.661 206.709 409.044 207.054C408.354 207.35 407.885 207.486 407.638 207.461C407.416 207.412 407.318 207.153 407.342 206.684C407.342 206.487 407.404 206.252 407.527 205.981C407.675 205.71 408.058 205.229 408.674 204.538C409.464 203.379 409.945 202.454 410.117 201.763C410.29 201.072 410.13 200.69 409.636 200.616C409.488 200.567 409.217 200.567 408.822 200.616C408.452 200.665 408.033 200.739 407.564 200.838C407.12 200.912 406.738 200.998 406.417 201.097C406.097 201.171 405.936 201.233 405.936 201.282C405.936 201.282 405.936 201.319 405.936 201.393C405.936 201.467 405.887 201.492 405.788 201.467C405.739 201.467 405.529 201.566 405.159 201.763C404.789 201.96 404.345 202.219 403.827 202.54C403.309 202.861 402.791 203.181 402.273 203.502C401.755 203.823 401.311 204.106 400.941 204.353C400.596 204.575 400.411 204.711 400.386 204.76C400.337 205.031 400.053 205.278 399.535 205.5C399.042 205.796 398.586 206.228 398.166 206.795C397.772 207.362 397.328 208.065 396.834 208.904C396.415 209.471 396.119 210.088 395.946 210.754C395.774 211.395 395.774 211.913 395.946 212.308C396.07 212.703 396.452 213.208 397.093 213.825C397.735 214.442 398.536 215.034 399.498 215.601C400.337 216.07 401.089 216.538 401.755 217.007C402.421 217.451 402.964 217.883 403.383 218.302C403.827 218.721 404.123 219.091 404.271 219.412C404.567 219.831 404.777 220.263 404.9 220.707C405.048 221.126 405.122 221.533 405.122 221.928C405.147 222.323 405.11 222.68 405.011 223.001C404.839 223.396 404.53 223.803 404.086 224.222C403.667 224.641 403.309 224.839 403.013 224.814C402.742 224.888 402.532 224.974 402.384 225.073C402.261 225.172 402.113 225.258 401.94 225.332C401.768 225.431 401.398 225.529 400.83 225.628C400.288 225.727 399.683 225.788 399.017 225.813C398.351 225.862 397.735 225.875 397.167 225.85Z" fill="white"/>
</g>
<defs>
<filter id="filter0_d_416_1712" x="9.63281" y="70.876" width="537.375" height="234.222" filterUnits="userSpaceOnUse" color-interpolation-filters="sRGB">
<feFlood flood-opacity="0" result="BackgroundImageFix"/>
<feColorMatrix in="SourceAlpha" type="matrix" values="0 0 0 0 0 0 0 0 0 0 0 0 0 0 0 0 0 0 127 0" result="hardAlpha"/>
<feOffset dy="4"/>
<feGaussianBlur stdDeviation="2"/>
<feComposite in2="hardAlpha" operator="out"/>
<feColorMatrix type="matrix" values="0 0 0 0 0 0 0 0 0 0 0 0 0 0 0 0 0 0 0.25 0"/>
<feBlend mode="normal" in2="BackgroundImageFix" result="effect1_dropShadow_416_1712"/>
<feBlend mode="normal" in="SourceGraphic" in2="effect1_dropShadow_416_1712" result="shape"/>
</filter>
</defs>
</svg>
