<svg width="94" height="45" viewBox="0 0 94 45" fill="none" xmlns="http://www.w3.org/2000/svg">
<path d="M4.64414 43.6C4.48414 44 4.18414 44.22 3.74414 44.26C3.34414 44.3 2.80414 44.06 2.12414 43.54C1.64414 43.06 1.32414 42.68 1.16414 42.4C1.04414 42.16 1.12414 41.72 1.40414 41.08C1.68414 40.48 2.16414 39.4 2.84414 37.84C3.00414 36.88 3.28414 35.92 3.68414 34.96C4.08414 33.96 4.38414 33.26 4.58414 32.86C4.74414 32.3 5.06414 31.38 5.54414 30.1C6.06414 28.78 6.64414 27.32 7.28414 25.72C7.96414 24.12 8.60414 22.62 9.20414 21.22C9.80414 19.78 10.2441 18.7 10.5241 17.98C11.2041 16.38 11.9041 14.7 12.6241 12.94C13.3441 11.18 14.3241 8.96 15.5641 6.28C15.7241 5.88 15.8041 5.46 15.8041 5.02C15.8441 4.58 15.5241 4.36 14.8441 4.36C14.4441 3.92 14.2241 3.48 14.1841 3.04C14.1441 2.56 14.3441 2.22 14.7841 2.02L17.9041 0.759997C19.7841 0.319998 21.7041 0.199999 23.6641 0.399998C25.6641 0.559999 27.5441 1.1 29.3041 2.02C31.2241 3.14 32.5841 4.28 33.3841 5.44C34.1841 6.56 34.5841 7.7 34.5841 8.86C34.6241 10.02 34.4241 11.16 33.9841 12.28C33.6641 13.12 33.0441 14.04 32.1241 15.04C31.2441 16.04 30.2041 17.04 29.0041 18.04C27.8441 19.04 26.6241 19.96 25.3441 20.8C24.1041 21.6 22.9441 22.22 21.8641 22.66C20.8641 23.14 19.8241 23.56 18.7441 23.92C17.6641 24.28 16.5441 24.64 15.3841 25C14.7441 25.16 13.9841 25.24 13.1041 25.24C12.2241 25.24 11.5641 25.16 11.1241 25L10.1041 27.82C9.70414 29.26 9.00414 31.4 8.00414 34.24C7.04414 37.08 5.92414 40.2 4.64414 43.6ZM28.4641 44.26C28.1441 44.38 27.7641 44.42 27.3241 44.38C26.9241 44.34 26.2641 44.02 25.3441 43.42C23.5841 42.38 21.8241 41.12 20.0641 39.64C18.3041 38.16 16.3241 36.16 14.1241 33.64C13.2841 32.64 12.5641 31.72 11.9641 30.88C11.4041 30.04 10.8041 28.86 10.1641 27.34L9.32414 24.1L10.9441 23.2L13.1041 25.36C13.7441 26.76 14.5641 28.1 15.5641 29.38C16.6041 30.66 17.5641 31.8 18.4441 32.8C19.1641 33.64 20.1441 34.66 21.3841 35.86C22.6241 37.02 23.9441 38.14 25.3441 39.22C26.7441 40.3 28.0041 41.12 29.1241 41.68C29.3641 41.88 29.4441 42.18 29.3641 42.58C29.2841 42.98 29.1441 43.34 28.9441 43.66C28.7841 44.02 28.6241 44.22 28.4641 44.26ZM12.9841 21.94C13.9041 21.86 14.9841 21.64 16.2241 21.28C17.4641 20.88 18.7041 20.42 19.9441 19.9C21.1041 19.34 22.3241 18.68 23.6041 17.92C24.9241 17.12 26.1441 16.24 27.2641 15.28C28.3841 14.32 29.2841 13.32 29.9641 12.28C30.6841 11.24 31.0041 10.2 30.9241 9.16C30.9241 8.64 30.7241 8.1 30.3241 7.54C29.9241 6.98 29.4441 6.48 28.8841 6.04C28.3241 5.6 27.7841 5.3 27.2641 5.14C25.6641 4.74 24.3441 4.48 23.3041 4.36C22.2641 4.24 21.4641 4.32 20.9041 4.6C20.3441 4.84 19.9641 5.36 19.7641 6.16C19.7641 6.28 19.6041 6.68 19.2841 7.36C18.9641 8.04 18.5641 8.88 18.0841 9.88C17.6441 10.88 17.2041 11.94 16.7641 13.06C15.6041 15.42 14.7241 17.22 14.1241 18.46C13.5241 19.66 13.1441 20.5 12.9841 20.98C12.8241 21.46 12.8241 21.78 12.9841 21.94ZM35.1307 38.08C34.8107 37.76 34.5707 37.36 34.4107 36.88C34.2907 36.4 34.2507 35.92 34.2907 35.44C34.3307 34.96 34.4307 34.56 34.5907 34.24C34.5907 33.92 34.6307 33.68 34.7107 33.52C34.8307 33.32 34.8707 33.14 34.8307 32.98C34.7907 32.82 34.8307 32.54 34.9507 32.14C35.0707 31.74 35.1907 31.36 35.3107 31C35.5907 30.36 35.8907 29.6 36.2107 28.72C36.5307 27.8 36.8307 26.9 37.1107 26.02C37.3907 25.14 37.6307 24.38 37.8307 23.74C38.0307 23.1 38.1507 22.7 38.1907 22.54C38.1907 22.06 38.5107 21.8 39.1507 21.76C39.6307 21.6 39.9907 21.6 40.2307 21.76C40.4707 21.88 40.7907 22.26 41.1907 22.9C41.5107 23.22 41.6307 23.7 41.5507 24.34C41.4707 24.98 41.2107 25.78 40.7707 26.74C40.6107 27.06 40.4107 27.52 40.1707 28.12C39.9707 28.72 39.8307 29.26 39.7507 29.74C39.5907 30.06 39.3907 30.52 39.1507 31.12C38.9507 31.68 38.7707 32.22 38.6107 32.74C38.5307 32.94 38.4507 33.24 38.3707 33.64C38.2907 34 38.1907 34.4 38.0707 34.84C37.9507 35.24 37.7907 35.6 37.5907 35.92C37.2307 37.56 36.8907 38.52 36.5707 38.8C36.2907 39.08 35.8107 38.84 35.1307 38.08ZM40.9507 13.72C40.7507 13.52 40.5707 13.24 40.4107 12.88C40.2507 12.48 40.1507 12.12 40.1107 11.8C40.0707 11.44 40.1107 11.26 40.2307 11.26C40.5507 11.22 40.9307 10.88 41.3707 10.24C41.8107 9.6 41.9907 9.04 41.9107 8.56C41.9107 8.4 41.9707 8.26 42.0907 8.14C42.2107 7.98 42.3507 7.88 42.5107 7.84C42.9907 7.52 43.4507 7.48 43.8907 7.72C44.3707 7.92 44.8107 8.34 45.2107 8.98C45.5707 9.74 45.6707 10.38 45.5107 10.9C45.3507 11.38 44.9107 12.06 44.1907 12.94C43.5907 13.74 43.0307 14.18 42.5107 14.26C42.0307 14.34 41.5107 14.16 40.9507 13.72ZM66.9021 37.24C66.1021 37.24 65.4421 37.08 64.9221 36.76C64.4021 36.4 63.9621 35.82 63.6021 35.02C63.4421 34.46 63.3021 33.84 63.1821 33.16C63.1021 32.44 63.0621 31.78 63.0621 31.18C63.0621 30.54 63.1221 30.12 63.2421 29.92C63.4021 29.76 63.4621 29.48 63.4221 29.08C63.4221 28.64 63.4221 28.18 63.4221 27.7C63.3821 26.9 63.1821 26.46 62.8221 26.38C62.5021 26.26 62.0221 26.38 61.3821 26.74C60.6621 27.18 59.7221 27.78 58.5621 28.54C57.4021 29.26 56.1821 30.06 54.9021 30.94C53.6621 31.82 52.4821 32.74 51.3621 33.7C50.4821 34.66 49.9421 35.4 49.7421 35.92C49.5821 36.4 49.3421 36.64 49.0221 36.64C48.7021 36.8 48.4221 36.82 48.1821 36.7C47.9821 36.54 47.6821 36.3 47.2821 35.98C47.0021 35.66 46.7221 35.36 46.4421 35.08C46.1621 34.76 45.9821 34.52 45.9021 34.36C45.9021 34.16 45.9621 33.74 46.0821 33.1C46.2021 32.46 46.3421 31.82 46.5021 31.18C46.7021 30.54 46.8421 30.12 46.9221 29.92C47.1221 29.92 47.2821 29.72 47.4021 29.32C47.5621 28.92 47.8021 28.48 48.1221 28C48.2021 27.52 48.4021 26.88 48.7221 26.08C49.0821 25.24 49.4021 24.5 49.6821 23.86C50.2421 22.9 50.6221 22.1 50.8221 21.46C51.0621 20.82 51.2221 20.02 51.3021 19.06C51.2621 18.9 51.3021 18.76 51.4221 18.64C51.5421 18.48 51.6821 18.4 51.8421 18.4C52.1621 18.08 52.5421 18 52.9821 18.16C53.4221 18.28 53.8221 18.58 54.1821 19.06C54.9021 20.02 55.1821 21.02 55.0221 22.06C54.9021 23.06 54.2621 24.5 53.1021 26.38C52.8221 27.02 52.6021 27.52 52.4421 27.88C52.3221 28.2 52.2621 28.46 52.2621 28.66C52.2621 28.66 52.4621 28.52 52.8621 28.24C53.3021 27.96 53.7821 27.64 54.3021 27.28C54.8621 26.88 55.3021 26.58 55.6221 26.38C55.8221 26.18 56.2821 25.82 57.0021 25.3C57.7221 24.78 58.4821 24.28 59.2821 23.8C60.1221 23.28 60.7421 22.98 61.1421 22.9C61.4621 22.74 61.8021 22.6 62.1621 22.48C62.5221 22.32 62.7821 22.24 62.9421 22.24C63.2621 22.24 63.6621 22.42 64.1421 22.78C64.6621 23.1 65.1421 23.5 65.5821 23.98C66.0221 24.42 66.2821 24.8 66.3621 25.12C66.3621 25.28 66.3621 25.44 66.3621 25.6C66.4021 25.76 66.4421 25.92 66.4821 26.08C66.6421 26.6 66.7221 27.3 66.7221 28.18C66.7621 29.06 66.7421 29.86 66.6621 30.58C66.5821 31.3 66.4421 31.72 66.2421 31.84C66.2421 31.84 66.2421 31.9 66.2421 32.02C66.2821 32.1 66.3821 32.14 66.5421 32.14C66.5421 32.3 66.5421 32.4 66.5421 32.44C66.3421 32.44 66.2621 32.62 66.3021 32.98C66.3421 33.3 66.4621 33.66 66.6621 34.06C66.9021 34.46 67.1421 34.78 67.3821 35.02C67.8621 35.5 68.0621 35.96 67.9821 36.4C67.9021 36.8 67.5421 37.08 66.9021 37.24ZM77.7738 38.26C77.4538 38.34 77.0338 38.38 76.5138 38.38C75.9938 38.34 75.5338 38.28 75.1338 38.2C74.7738 38.08 74.5938 37.96 74.5938 37.84C74.5938 37.64 74.4938 37.54 74.2938 37.54C74.2938 37.54 74.1938 37.46 73.9938 37.3C73.8338 37.14 73.5738 36.98 73.2138 36.82C72.8538 36.26 72.6738 35.66 72.6738 35.02C72.6738 34.34 72.8538 33.28 73.2138 31.84C73.3338 30.84 73.7138 29.68 74.3538 28.36C75.0338 27 75.8538 25.62 76.8138 24.22C77.7738 22.82 78.7738 21.56 79.8138 20.44C80.8938 19.32 81.8738 18.5 82.7538 17.98C83.3138 17.42 83.9938 17.12 84.7938 17.08C85.5938 17.04 86.3538 17.22 87.0738 17.62C87.4738 17.82 87.8738 18.14 88.2738 18.58C88.6738 19.02 89.0538 19.5 89.4138 20.02C89.7738 20.54 90.0738 21.06 90.3138 21.58C90.4338 22.02 90.4938 22.42 90.4938 22.78C90.5338 23.1 90.5338 23.5 90.4938 23.98C90.4938 24.46 90.4338 25.18 90.3138 26.14C90.1138 26.86 89.9338 27.74 89.7738 28.78C89.6538 29.82 89.5938 30.72 89.5938 31.48C89.5138 32.24 89.5938 32.78 89.8338 33.1C90.1138 33.42 90.5138 33.44 91.0338 33.16C91.5138 32.92 91.9738 32.82 92.4138 32.86C92.8538 32.86 93.1938 32.98 93.4338 33.22C93.7138 33.46 93.8538 33.82 93.8538 34.3C93.8538 34.78 93.6138 35.28 93.1338 35.8C92.6938 36.28 92.1338 36.7 91.4538 37.06C90.8138 37.38 90.1938 37.54 89.5938 37.54C89.1538 37.54 88.7338 37.28 88.3338 36.76C87.9338 36.2 87.5738 35.54 87.2538 34.78C86.9738 33.98 86.7138 33.22 86.4738 32.5L86.1138 31.12L83.5338 33.58C83.0138 34.14 82.4938 34.66 81.9738 35.14C81.4938 35.58 81.1938 35.9 81.0738 36.1C80.8738 36.46 80.4938 36.82 79.9338 37.18C79.4138 37.54 78.6938 37.9 77.7738 38.26ZM77.9538 34.72C78.6338 34.32 79.4138 33.74 80.2938 32.98C81.1738 32.18 82.0338 31.32 82.8738 30.4C83.7138 29.44 84.4138 28.56 84.9738 27.76C85.6538 26.84 86.1738 25.98 86.5338 25.18C86.8938 24.38 87.1538 23.62 87.3138 22.9C87.1538 22.46 86.8938 22 86.5338 21.52C86.1738 21 85.8538 20.72 85.5738 20.68C84.6938 20.68 83.7538 21.24 82.7538 22.36C81.7938 23.44 80.8538 24.62 79.9338 25.9C79.7738 26.1 79.5538 26.42 79.2738 26.86C78.9938 27.3 78.7138 27.72 78.4338 28.12C78.1938 28.48 78.0338 28.72 77.9538 28.84C77.8338 29 77.5938 29.46 77.2338 30.22C76.9138 30.94 76.5938 31.68 76.2738 32.44C75.9538 33.16 75.7938 33.64 75.7938 33.88C75.7938 34.12 75.8138 34.38 75.8538 34.66C75.9338 34.94 76.1338 35.12 76.4538 35.2C76.7738 35.28 77.2738 35.12 77.9538 34.72Z" fill="#2B6FC7"/>
</svg>
