<svg width="529" height="450" viewBox="0 0 529 450" fill="none" xmlns="http://www.w3.org/2000/svg">
<path fill-rule="evenodd" clip-rule="evenodd" d="M79.0955 132.815C104.437 115.791 166.536 139.794 205.41 133.103C260.611 123.602 274.488 68.1562 342.227 87.5264C411.413 107.31 448.513 164.271 458.484 205.47C467.186 241.428 431.454 264.321 388.408 278.35C354.185 289.503 304.059 275.228 257.359 271.015C180.514 264.084 93.7857 291.046 36.46 246.604C-20.0966 202.758 37.6937 160.629 79.0955 132.815Z" fill="#ECE9E6"/>
<path fill-rule="evenodd" clip-rule="evenodd" d="M442.331 317.392C415.83 332.549 355.62 304.139 316.365 308.016C260.623 313.52 242.793 367.823 176.624 343.629C109.04 318.918 76.1351 259.435 69.1548 217.626C63.0626 181.135 100.349 160.872 144.293 149.978C179.229 141.316 228.199 159.161 274.475 166.723C350.622 179.166 439.065 158.514 493.044 206.966C546.299 254.768 485.627 292.629 442.331 317.392Z" fill="#2B6FC7"/>
<path d="M150.92 229.12C150.573 229.147 150.253 229.067 149.96 228.88C149.693 228.72 149.507 228.507 149.4 228.24C149.293 228.107 149.133 227.88 148.92 227.56C148.707 227.24 148.573 226.92 148.52 226.6C148.44 225.747 148.387 224.92 148.36 224.12C148.36 223.32 148.4 222.2 148.48 220.76C148.56 219.587 148.707 218.453 148.92 217.36C149.16 216.24 149.387 215.24 149.6 214.36C149.84 213.48 150.027 212.787 150.16 212.28C150.293 211.747 150.32 211.48 150.24 211.48C150.133 211.48 149.973 211.68 149.76 212.08C149.547 212.453 149.307 212.92 149.04 213.48C148.773 214.04 148.507 214.6 148.24 215.16C147.973 215.693 147.747 216.133 147.56 216.48C147.187 217.307 146.747 218.187 146.24 219.12C145.76 220.027 145.267 220.907 144.76 221.76C144.253 222.613 143.813 223.36 143.44 224C143.2 224.267 142.92 224.653 142.6 225.16C142.28 225.64 141.933 226.147 141.56 226.68C141.187 227.213 140.8 227.653 140.4 228C139.813 228.56 139.227 228.867 138.64 228.92C138.08 228.973 137.6 228.827 137.2 228.48C137.12 228.373 137.027 228.24 136.92 228.08C136.84 227.947 136.773 227.76 136.72 227.52C136.667 227.28 136.68 227 136.76 226.68C136.733 226.307 136.733 225.733 136.76 224.96C136.813 224.16 136.893 223.293 137 222.36C137.107 221.4 137.213 220.48 137.32 219.6C137.453 218.72 137.573 217.987 137.68 217.4C137.92 215.693 138.24 213.947 138.64 212.16C139.067 210.373 139.453 208.573 139.8 206.76C140.013 206.227 140.2 205.627 140.36 204.96C140.547 204.267 140.733 203.627 140.92 203.04C140.947 202.453 141.08 202.067 141.32 201.88C141.56 201.667 141.827 201.6 142.12 201.68C142.44 201.733 142.693 201.893 142.88 202.16C143.147 202.427 143.347 202.84 143.48 203.4C143.64 203.96 143.533 204.667 143.16 205.52C142.627 206.827 142.107 208.427 141.6 210.32C141.12 212.187 140.68 214.453 140.28 217.12C140.173 217.76 140.053 218.52 139.92 219.4C139.787 220.28 139.667 221.133 139.56 221.96C139.453 222.787 139.373 223.48 139.32 224.04C139.293 224.6 139.307 224.893 139.36 224.92C139.573 224.973 139.867 224.813 140.24 224.44C140.613 224.04 140.947 223.52 141.24 222.88C142.333 221.067 143.413 219.173 144.48 217.2C145.573 215.2 146.613 213.227 147.6 211.28C148.053 210.507 148.507 209.667 148.96 208.76C149.44 207.827 149.893 206.973 150.32 206.2C150.773 205.4 151.187 204.68 151.56 204.04C151.933 203.373 152.253 202.827 152.52 202.4C152.787 201.973 153 201.733 153.16 201.68C153.587 201.707 153.947 201.813 154.24 202C154.56 202.16 154.827 202.507 155.04 203.04C155.093 203.173 155.08 203.4 155 203.72C154.92 204.04 154.827 204.32 154.72 204.56C154.693 204.747 154.573 205.133 154.36 205.72C154.173 206.307 154 206.96 153.84 207.68C153.573 208.4 153.333 209.12 153.12 209.84C152.933 210.533 152.8 211.107 152.72 211.56C152.507 212.707 152.24 213.973 151.92 215.36C151.6 216.72 151.32 218.08 151.08 219.44C150.867 220.773 150.747 221.973 150.72 223.04C150.693 223.787 150.693 224.373 150.72 224.8C150.773 225.227 150.853 225.56 150.96 225.8C151.013 226.013 151.173 226.147 151.44 226.2C151.733 226.253 151.973 226.16 152.16 225.92C152.693 225.253 153.147 224.653 153.52 224.12C153.92 223.56 154.293 223 154.64 222.44C154.987 221.853 155.347 221.2 155.72 220.48C156.387 219.253 157.067 217.893 157.76 216.4C158.48 214.88 159.16 213.373 159.8 211.88C160.467 210.387 161.04 209.08 161.52 207.96C162.027 206.52 162.427 205.373 162.72 204.52C163.04 203.667 163.32 203.027 163.56 202.6C163.8 202.173 164.053 201.88 164.32 201.72C164.453 201.613 164.64 201.56 164.88 201.56C165.12 201.56 165.36 201.667 165.6 201.88C165.707 201.987 165.8 202.16 165.88 202.4C165.987 202.613 166.027 202.88 166 203.2C165.867 203.627 165.627 204.307 165.28 205.24C164.96 206.173 164.587 207.2 164.16 208.32C163.733 209.44 163.32 210.507 162.92 211.52C162.52 212.533 162.173 213.347 161.88 213.96C161.587 214.52 161.307 215 161.04 215.4C160.773 215.8 160.64 216.107 160.64 216.32C160.64 216.427 160.507 216.76 160.24 217.32C159.973 217.853 159.627 218.507 159.2 219.28C158.8 220.053 158.36 220.853 157.88 221.68C157.4 222.507 156.947 223.267 156.52 223.96C156.093 224.653 155.733 225.187 155.44 225.56C154.773 226.387 154.12 227.067 153.48 227.6C152.867 228.133 152.333 228.52 151.88 228.76C151.427 229 151.107 229.12 150.92 229.12ZM170.429 227.96C169.602 227.907 168.869 227.653 168.229 227.2C167.616 226.747 166.962 226.28 166.269 225.8C165.816 225.347 165.456 224.867 165.189 224.36C164.922 223.827 164.709 223.133 164.549 222.28C164.442 221.773 164.442 221.133 164.549 220.36C164.656 219.587 164.829 218.813 165.069 218.04C165.309 217.24 165.536 216.6 165.749 216.12C166.069 215.373 166.469 214.573 166.949 213.72C167.456 212.84 167.949 212.013 168.429 211.24C168.936 210.44 169.336 209.8 169.629 209.32C169.816 209.133 169.896 209.04 169.869 209.04C169.869 209.013 169.869 209 169.869 209C169.869 208.867 170.002 208.533 170.269 208C170.562 207.44 170.816 206.947 171.029 206.52C171.429 206.093 171.656 205.747 171.709 205.48C171.762 205.213 171.722 205 171.589 204.84C171.536 204.733 171.629 204.547 171.869 204.28C172.109 204.013 172.469 203.707 172.949 203.36C173.429 203.013 173.976 202.667 174.589 202.32C175.229 201.813 175.842 201.547 176.429 201.52C177.042 201.467 177.402 201.587 177.509 201.88C177.509 201.96 177.656 201.987 177.949 201.96C178.269 201.907 178.629 201.84 179.029 201.76C179.456 201.653 179.829 201.573 180.149 201.52C180.282 201.36 180.589 201.24 181.069 201.16C181.576 201.053 182.162 200.96 182.829 200.88C183.176 200.907 183.509 200.92 183.829 200.92C184.176 200.893 184.456 200.867 184.669 200.84C184.909 200.813 185.029 200.8 185.029 200.8C185.216 200.747 185.429 200.773 185.669 200.88C185.936 200.987 186.176 201.28 186.389 201.76C186.576 202.24 186.509 202.6 186.189 202.84C185.896 203.08 185.202 203.267 184.109 203.4C183.309 203.507 182.616 203.6 182.029 203.68C181.442 203.733 180.829 203.813 180.189 203.92C179.549 204 178.762 204.147 177.829 204.36C177.162 204.493 176.616 204.653 176.189 204.84C175.762 205 175.389 205.253 175.069 205.6C174.749 205.92 174.389 206.387 173.989 207C173.802 207.133 173.562 207.48 173.269 208.04C172.976 208.6 172.682 209.16 172.389 209.72C171.642 210.76 170.989 211.667 170.429 212.44C169.896 213.187 169.682 213.627 169.789 213.76C169.789 213.76 169.936 213.8 170.229 213.88C170.522 213.96 170.722 214 170.829 214C171.096 213.867 171.416 213.773 171.789 213.72C172.189 213.667 172.509 213.613 172.749 213.56C174.402 213.133 175.696 212.8 176.629 212.56C177.589 212.32 178.309 212.147 178.789 212.04C179.296 211.907 179.682 211.827 179.949 211.8C180.322 211.507 180.682 211.453 181.029 211.64C181.402 211.827 181.696 212.12 181.909 212.52C182.042 212.813 182.042 213.067 181.909 213.28C181.802 213.493 181.469 213.707 180.909 213.92C180.376 214.133 179.576 214.387 178.509 214.68C177.442 214.973 176.042 215.36 174.309 215.84C172.842 216.267 171.589 216.52 170.549 216.6C169.509 216.68 169.016 216.453 169.069 215.92C168.882 215.813 168.669 215.947 168.429 216.32C168.216 216.667 168.002 217.147 167.789 217.76C167.576 218.373 167.389 219.027 167.229 219.72C167.096 220.413 167.002 221.067 166.949 221.68C166.922 222.267 166.962 222.707 167.069 223C167.282 223.613 167.562 224.107 167.909 224.48C168.256 224.827 168.882 225.133 169.789 225.4C170.322 225.427 170.842 225.467 171.349 225.52C171.856 225.573 172.429 225.467 173.069 225.2C174.642 224.933 175.882 224.653 176.789 224.36C177.696 224.067 178.216 223.867 178.349 223.76C178.562 223.653 178.696 223.6 178.749 223.6C178.829 223.573 178.936 223.56 179.069 223.56C178.989 223.693 179.016 223.707 179.149 223.6C179.309 223.467 179.522 223.267 179.789 223C180.082 222.733 180.469 222.48 180.949 222.24C181.429 222 181.856 221.813 182.229 221.68C182.629 221.547 182.842 221.547 182.869 221.68C183.029 221.947 183.002 222.32 182.789 222.8C182.576 223.253 182.189 223.76 181.629 224.32C181.069 224.853 180.349 225.373 179.469 225.88C178.056 226.627 176.522 227.147 174.869 227.44C173.216 227.76 171.736 227.933 170.429 227.96ZM197.481 227.72C196.628 227.987 195.788 228.187 194.961 228.32C194.161 228.48 193.308 228.48 192.401 228.32C191.521 228.187 190.508 227.84 189.361 227.28C189.334 226.987 189.214 226.72 189.001 226.48C188.814 226.213 188.601 226.067 188.361 226.04C188.254 226.013 188.121 225.88 187.961 225.64C187.828 225.4 187.694 225.213 187.561 225.08C187.481 224.76 187.428 224.493 187.401 224.28C187.401 224.067 187.428 223.787 187.481 223.44C187.534 223.067 187.614 222.547 187.721 221.88C187.854 221.533 188.041 221.013 188.281 220.32C188.548 219.6 188.841 218.813 189.161 217.96C189.508 217.08 189.868 216.227 190.241 215.4C191.201 213 191.948 211.12 192.481 209.76C193.041 208.4 193.428 207.387 193.641 206.72C193.854 206.053 193.961 205.573 193.961 205.28C193.961 204.987 193.894 204.693 193.761 204.4C193.601 203.893 193.601 203.44 193.761 203.04C193.948 202.64 194.294 202.347 194.801 202.16C195.308 201.893 195.828 201.653 196.361 201.44C196.921 201.2 197.468 201 198.001 200.84C198.534 200.68 199.028 200.573 199.481 200.52C199.854 200.467 200.308 200.467 200.841 200.52C201.374 200.573 201.894 200.667 202.401 200.8C202.934 200.933 203.388 201.093 203.761 201.28C204.134 201.44 204.361 201.627 204.441 201.84C204.441 201.84 204.481 201.853 204.561 201.88C204.641 201.907 204.681 201.92 204.681 201.92C204.681 201.92 204.734 201.933 204.841 201.96C204.948 201.987 205.108 202.107 205.321 202.32C205.614 202.533 205.868 202.893 206.081 203.4C206.294 203.88 206.348 204.32 206.241 204.72C206.241 204.827 206.268 205 206.321 205.24C206.401 205.48 206.468 205.747 206.521 206.04C206.654 206.76 206.574 207.56 206.281 208.44C205.988 209.32 205.388 210.253 204.481 211.24C204.161 211.613 203.868 211.973 203.601 212.32C203.361 212.667 203.174 212.827 203.041 212.8C202.774 213.04 202.574 213.307 202.441 213.6C202.308 213.867 202.361 214.027 202.601 214.08C202.601 214.08 202.694 214.213 202.881 214.48C203.068 214.747 203.321 215.067 203.641 215.44C204.148 216.213 204.468 217.133 204.601 218.2C204.761 219.24 204.694 220.24 204.401 221.2C204.214 221.867 203.774 222.627 203.081 223.48C202.388 224.307 201.548 225.107 200.561 225.88C199.601 226.627 198.574 227.24 197.481 227.72ZM193.081 226.12C194.014 226.253 195.014 226.147 196.081 225.8C197.148 225.453 198.161 224.92 199.121 224.2C200.108 223.453 200.894 222.613 201.481 221.68C202.228 220.747 202.588 219.907 202.561 219.16C202.561 218.387 202.334 217.653 201.881 216.96C201.481 216.347 201.028 215.973 200.521 215.84C200.014 215.68 199.481 215.653 198.921 215.76C198.361 215.867 197.774 216.013 197.161 216.2C196.654 216.28 196.068 216.427 195.401 216.64C194.734 216.853 194.121 217.053 193.561 217.24C193.028 217.4 192.681 217.48 192.521 217.48C192.521 217.48 192.441 217.56 192.281 217.72C192.121 217.88 191.961 218.053 191.801 218.24C191.641 218.4 191.548 218.533 191.521 218.64C191.388 218.693 191.241 218.907 191.081 219.28C190.921 219.627 190.774 220.027 190.641 220.48C190.534 220.907 190.454 221.293 190.401 221.64C190.348 221.987 190.348 222.16 190.401 222.16C190.534 222.187 190.521 222.4 190.361 222.8C190.228 223.2 190.134 223.533 190.081 223.8C189.868 224.44 190.081 224.973 190.721 225.4C191.388 225.827 192.174 226.067 193.081 226.12ZM193.721 214.8C193.934 214.773 194.294 214.667 194.801 214.48C195.308 214.267 195.774 214.107 196.201 214C197.401 213.813 198.508 213.387 199.521 212.72C200.561 212.027 201.441 211.227 202.161 210.32C202.908 209.387 203.428 208.493 203.721 207.64C203.881 207.347 204.001 206.907 204.081 206.32C204.161 205.707 204.174 205.267 204.121 205V204.68C203.934 204.173 203.468 203.813 202.721 203.6C201.974 203.387 201.108 203.32 200.121 203.4C199.134 203.453 198.188 203.653 197.281 204C196.908 204.187 196.681 204.467 196.601 204.84C196.521 205.187 196.414 205.667 196.281 206.28C196.174 206.947 195.988 207.613 195.721 208.28C195.454 208.947 195.241 209.547 195.081 210.08C195.054 210.187 194.988 210.28 194.881 210.36C194.774 210.44 194.721 210.573 194.721 210.76C194.721 210.76 194.628 210.947 194.441 211.32C194.281 211.693 194.134 212.107 194.001 212.56C193.814 213.013 193.668 213.413 193.561 213.76C193.481 214.107 193.441 214.28 193.441 214.28C193.441 214.28 193.454 214.4 193.481 214.64C193.534 214.88 193.614 214.933 193.721 214.8ZM208.31 230.76C207.51 230.787 207.056 230.36 206.95 229.48C206.843 228.6 207.11 227.467 207.75 226.08C207.91 225.787 208.07 225.507 208.23 225.24C208.39 224.947 208.483 224.707 208.51 224.52C208.59 224.36 208.803 223.947 209.15 223.28C209.523 222.587 209.963 221.76 210.47 220.8C211.003 219.84 211.55 218.84 212.11 217.8C212.696 216.76 213.243 215.787 213.75 214.88C214.256 213.947 214.683 213.173 215.03 212.56C215.376 211.947 215.576 211.613 215.63 211.56C215.736 211.587 215.843 211.52 215.95 211.36C216.083 211.173 216.163 210.987 216.19 210.8C216.243 210.587 216.336 210.36 216.47 210.12C216.63 209.88 216.763 209.733 216.87 209.68C216.923 209.547 216.99 209.4 217.07 209.24C217.176 209.08 217.243 208.947 217.27 208.84C217.296 208.733 217.35 208.64 217.43 208.56C217.51 208.453 217.563 208.347 217.59 208.24C217.803 208 218.083 207.627 218.43 207.12C218.776 206.587 219.163 205.987 219.59 205.32C220.043 204.653 220.483 203.973 220.91 203.28C221.363 202.587 221.776 201.933 222.15 201.32C222.523 200.707 222.83 200.187 223.07 199.76C223.31 199.333 223.443 199.067 223.47 198.96C223.55 198.56 223.816 198.4 224.27 198.48C224.403 198.373 224.616 198.347 224.91 198.4C224.91 198.4 224.936 198.467 224.99 198.6C225.07 198.707 225.203 198.893 225.39 199.16C225.576 199.4 225.656 199.64 225.63 199.88C225.63 200.12 225.59 200.387 225.51 200.68C225.456 201.027 225.363 201.333 225.23 201.6C225.096 201.84 224.856 202.187 224.51 202.64C224.163 203.067 223.63 203.747 222.91 204.68C222.75 204.92 222.576 205.16 222.39 205.4C222.23 205.613 222.07 205.813 221.91 206C221.776 206.16 221.67 206.307 221.59 206.44C221.51 206.547 221.47 206.627 221.47 206.68C221.443 206.787 221.35 206.947 221.19 207.16C221.056 207.347 220.91 207.587 220.75 207.88C220.59 208.067 220.376 208.347 220.11 208.72C219.843 209.093 219.563 209.48 219.27 209.88C219.003 210.28 218.763 210.64 218.55 210.96C218.336 211.253 218.23 211.427 218.23 211.48C218.203 211.56 218.163 211.653 218.11 211.76C218.083 211.867 218.003 211.96 217.87 212.04C217.763 212.013 217.683 212.08 217.63 212.24C217.603 212.373 217.59 212.44 217.59 212.44C217.59 212.653 217.243 213.307 216.55 214.4C216.256 214.933 215.816 215.733 215.23 216.8C214.67 217.867 214.043 219.053 213.35 220.36C212.683 221.64 212.03 222.907 211.39 224.16C210.75 225.387 210.203 226.453 209.75 227.36C209.323 228.267 209.083 228.867 209.03 229.16C208.923 229.773 208.83 230.173 208.75 230.36C208.67 230.573 208.523 230.707 208.31 230.76ZM222.993 228.32C222.513 228.053 222.246 227.76 222.193 227.44C222.166 227.12 222.353 226.56 222.753 225.76C223.153 224.96 223.779 223.72 224.633 222.04C225.273 220.84 225.753 219.907 226.073 219.24C226.419 218.547 226.646 218.053 226.753 217.76C226.886 217.467 226.953 217.28 226.953 217.2C226.899 216.96 226.926 216.773 227.033 216.64C227.139 216.48 227.313 216.347 227.553 216.24C227.686 216.107 227.899 215.867 228.193 215.52C228.513 215.173 228.806 214.76 229.073 214.28C229.313 213.72 229.593 213.147 229.913 212.56C230.233 211.973 230.659 211.24 231.193 210.36C231.726 209.453 232.419 208.28 233.273 206.84C233.806 205.907 234.393 204.96 235.033 204C235.673 203.013 236.353 202.04 237.073 201.08C237.366 200.707 237.633 200.413 237.873 200.2C238.113 199.96 238.353 199.853 238.593 199.88C238.913 199.88 239.273 199.987 239.673 200.2C240.099 200.413 240.486 200.693 240.833 201.04C241.179 201.387 241.433 201.76 241.593 202.16C241.726 202.373 241.779 202.827 241.753 203.52C241.726 204.213 241.673 205.053 241.593 206.04C241.513 207.027 241.419 208.08 241.313 209.2C241.233 210.293 241.113 211.587 240.953 213.08C240.793 214.573 240.633 216.133 240.473 217.76C240.339 219.387 240.233 220.96 240.153 222.48C240.073 223.973 240.073 225.28 240.153 226.4C240.179 226.64 240.179 226.867 240.153 227.08C240.126 227.293 240.113 227.467 240.113 227.6C239.953 227.76 239.686 227.827 239.313 227.8C238.966 227.8 238.619 227.72 238.273 227.56C237.953 227.4 237.766 227.2 237.713 226.96C237.633 226.88 237.579 226.773 237.553 226.64C237.553 226.48 237.566 226.16 237.593 225.68C237.619 225.2 237.646 224.44 237.673 223.4L237.873 216.92L237.353 216.96C237.113 216.96 236.659 216.987 235.993 217.04C235.326 217.093 234.606 217.173 233.833 217.28C233.059 217.36 232.339 217.453 231.673 217.56C231.033 217.64 230.593 217.72 230.353 217.8C230.113 217.8 229.819 217.96 229.473 218.28C229.153 218.6 228.846 219.013 228.553 219.52C228.446 219.893 228.246 220.293 227.953 220.72C227.686 221.12 227.553 221.387 227.553 221.52C227.366 221.653 227.206 221.813 227.073 222C226.966 222.187 226.913 222.28 226.913 222.28C226.913 222.44 226.779 222.84 226.513 223.48C226.273 224.093 225.966 224.787 225.593 225.56C225.219 226.307 224.846 226.96 224.473 227.52L223.633 228.8L222.993 228.32ZM231.273 215.44C231.273 215.44 231.406 215.413 231.673 215.36C231.966 215.307 232.299 215.253 232.673 215.2C233.073 215.12 233.433 215.08 233.753 215.08C234.873 214.813 235.686 214.64 236.193 214.56C236.699 214.453 237.046 214.4 237.233 214.4C237.446 214.4 237.633 214.44 237.793 214.52C237.899 214.653 237.993 214.733 238.073 214.76C238.179 214.787 238.233 214.8 238.233 214.8C238.259 214.747 238.299 214.44 238.353 213.88C238.406 213.32 238.473 212.627 238.553 211.8C238.659 210.973 238.753 210.12 238.833 209.24C238.939 208.333 239.019 207.507 239.073 206.76C239.126 205.987 239.166 205.4 239.193 205C239.219 204.493 239.246 204.04 239.273 203.64C239.299 203.213 239.313 203 239.313 203C239.153 203 238.806 203.293 238.273 203.88C237.766 204.467 237.193 205.24 236.553 206.2C235.913 207.16 235.313 208.187 234.753 209.28C234.486 209.787 234.233 210.24 233.993 210.64C233.753 211.04 233.566 211.24 233.433 211.24C233.379 211.293 233.219 211.533 232.953 211.96C232.713 212.36 232.446 212.827 232.153 213.36C231.859 213.867 231.619 214.333 231.433 214.76C231.246 215.16 231.193 215.387 231.273 215.44ZM245.72 228.92C245.4 228.92 245.134 228.747 244.92 228.4C244.76 228.24 244.654 228.013 244.6 227.72C244.574 227.453 244.667 226.96 244.88 226.24C245.094 225.493 245.454 224.36 245.96 222.84C246.227 221.827 246.44 221.093 246.6 220.64C246.76 220.16 246.84 219.813 246.84 219.6C246.84 219.307 246.867 219.067 246.92 218.88C247 218.667 247.04 218.467 247.04 218.28C247.2 218.28 247.36 218.133 247.52 217.84C247.68 217.547 247.814 217.147 247.92 216.64C248.027 216.187 248.12 215.827 248.2 215.56C248.307 215.267 248.36 215.067 248.36 214.96C248.494 214.747 248.627 214.413 248.76 213.96C248.92 213.507 249.16 212.96 249.48 212.32C249.694 211.52 249.934 210.693 250.2 209.84C250.467 208.96 250.734 208.147 251 207.4C251.294 206.627 251.534 206.027 251.72 205.6C252.014 204.773 252.24 204.2 252.4 203.88C252.56 203.533 252.56 203.307 252.4 203.2C252.214 203.067 252.174 202.84 252.28 202.52C252.387 202.2 252.68 201.84 253.16 201.44C253.454 201.093 253.707 200.853 253.92 200.72C254.134 200.56 254.4 200.48 254.72 200.48C255.067 200.48 255.56 200.507 256.2 200.56C256.68 200.587 257.187 200.6 257.72 200.6C258.28 200.6 258.627 200.6 258.76 200.6C259 200.707 259.294 200.827 259.64 200.96C259.987 201.067 260.294 201.173 260.56 201.28C260.854 201.387 261 201.48 261 201.56C261 201.72 261.054 201.827 261.16 201.88C261.294 201.907 261.427 201.933 261.56 201.96C261.747 201.96 262 202.107 262.32 202.4C262.64 202.667 262.974 203.013 263.32 203.44C263.667 203.84 263.934 204.267 264.12 204.72C264.334 205.173 264.494 205.6 264.6 206C264.734 206.4 264.734 206.973 264.6 207.72C264.574 208.12 264.507 208.52 264.4 208.92C264.32 209.32 264.227 209.587 264.12 209.72C263.96 209.827 263.814 209.96 263.68 210.12C263.547 210.28 263.48 210.427 263.48 210.56C263.48 210.667 263.387 210.88 263.2 211.2C263.014 211.493 262.774 211.84 262.48 212.24C262.187 212.64 261.867 213.04 261.52 213.44C261.174 213.84 260.84 214.187 260.52 214.48C260.174 214.907 259.76 215.307 259.28 215.68C258.827 216.053 258.414 216.36 258.04 216.6C257.347 216.92 256.574 217.24 255.72 217.56C254.894 217.88 254.094 218.147 253.32 218.36C252.574 218.573 251.947 218.667 251.44 218.64C250.667 218.747 250.16 218.853 249.92 218.96C249.707 219.04 249.547 219.267 249.44 219.64C249.307 219.987 249.174 220.347 249.04 220.72C248.934 221.067 248.88 221.307 248.88 221.44C248.827 221.547 248.694 221.88 248.48 222.44C248.294 222.973 248.08 223.6 247.84 224.32C247.627 225.04 247.414 225.747 247.2 226.44C246.987 227.133 246.827 227.707 246.72 228.16C246.614 228.533 246.48 228.747 246.32 228.8C246.16 228.88 245.96 228.92 245.72 228.92ZM250.68 216.52C250.787 216.627 251.2 216.64 251.92 216.56C252.64 216.48 253.414 216.28 254.24 215.96C254.774 215.773 255.307 215.547 255.84 215.28C256.4 215.013 256.934 214.72 257.44 214.4C257.707 214.213 258.107 213.88 258.64 213.4C259.174 212.92 259.707 212.347 260.24 211.68C260.32 211.547 260.454 211.293 260.64 210.92C260.854 210.52 261.04 210.147 261.2 209.8C261.44 209.427 261.68 208.88 261.92 208.16C262.16 207.413 262.214 206.8 262.08 206.32C261.947 205.627 261.6 204.987 261.04 204.4C260.48 203.787 259.814 203.373 259.04 203.16C258.454 203.053 257.96 203 257.56 203C257.187 203 256.774 203.04 256.32 203.12C255.894 203.253 255.574 203.44 255.36 203.68C255.174 203.92 254.92 204.427 254.6 205.2C254.414 205.573 254.147 206.147 253.8 206.92C253.454 207.667 253.16 208.373 252.92 209.04C252.44 210.8 251.96 212.253 251.48 213.4C251.027 214.52 250.747 215.227 250.64 215.52C250.667 215.813 250.654 216.027 250.6 216.16C250.547 216.267 250.574 216.387 250.68 216.52ZM267.275 228C267.142 228 266.982 227.933 266.795 227.8C266.608 227.693 266.435 227.547 266.275 227.36C266.142 227.173 266.075 226.973 266.075 226.76C266.075 226.76 266.062 226.68 266.035 226.52C266.035 226.333 265.982 226.147 265.875 225.96C265.875 225.747 265.875 225.507 265.875 225.24C265.902 224.947 265.968 224.653 266.075 224.36C266.075 224.067 266.115 223.747 266.195 223.4C266.275 223.027 266.368 222.747 266.475 222.56C266.475 222.267 266.542 221.893 266.675 221.44C266.835 220.96 266.968 220.52 267.075 220.12C267.368 219.24 267.582 218.6 267.715 218.2C267.875 217.8 267.982 217.507 268.035 217.32C268.088 217.107 268.115 216.893 268.115 216.68C268.195 216.467 268.315 216.08 268.475 215.52C268.635 214.96 268.795 214.387 268.955 213.8C269.142 213.187 269.262 212.747 269.315 212.48C269.422 212.373 269.475 212.28 269.475 212.2C269.502 212.093 269.515 211.987 269.515 211.88C269.515 211.88 269.608 211.573 269.795 210.96C269.982 210.347 270.222 209.64 270.515 208.84C270.995 207.427 271.315 206.4 271.475 205.76C271.662 205.12 271.742 204.667 271.715 204.4C271.715 204.133 271.648 203.867 271.515 203.6C271.328 203.253 271.328 202.987 271.515 202.8C271.622 202.693 271.715 202.573 271.795 202.44C271.875 202.28 271.915 202.2 271.915 202.2C271.915 202.147 272.088 202.053 272.435 201.92C272.782 201.787 273.208 201.64 273.715 201.48C274.222 201.293 274.728 201.12 275.235 200.96C275.768 200.8 276.208 200.667 276.555 200.56C276.635 200.56 276.755 200.56 276.915 200.56C277.102 200.56 277.302 200.56 277.515 200.56C277.755 200.56 277.982 200.56 278.195 200.56C278.888 200.667 279.595 200.867 280.315 201.16C281.062 201.453 281.688 201.867 282.195 202.4C282.515 202.693 282.795 203.04 283.035 203.44C283.302 203.84 283.635 204.493 284.035 205.4C284.035 205.507 284.062 205.733 284.115 206.08C284.195 206.4 284.235 206.72 284.235 207.04C284.235 207.84 284.035 208.68 283.635 209.56C283.235 210.44 282.662 211.333 281.915 212.24C281.168 213.12 280.262 214 279.195 214.88C278.075 215.787 276.915 216.4 275.715 216.72C274.515 217.04 273.448 217.107 272.515 216.92C272.328 216.84 272.155 216.68 271.995 216.44C271.862 216.2 271.768 215.96 271.715 215.72C271.662 215.48 271.675 215.32 271.755 215.24C271.968 215.187 272.288 215.173 272.715 215.2C273.142 215.2 273.822 215.027 274.755 214.68C275.048 214.573 275.355 214.453 275.675 214.32C275.995 214.16 276.248 214.027 276.435 213.92C276.968 213.573 277.582 213.107 278.275 212.52C278.968 211.933 279.608 211.173 280.195 210.24C280.435 209.867 280.675 209.427 280.915 208.92C281.155 208.387 281.355 207.853 281.515 207.32C281.702 206.787 281.795 206.347 281.795 206C282.008 205.307 281.875 204.733 281.395 204.28C280.942 203.8 280.208 203.507 279.195 203.4C278.875 203.32 278.382 203.347 277.715 203.48C277.048 203.587 276.408 203.733 275.795 203.92C275.182 204.107 274.768 204.267 274.555 204.4C274.448 204.4 274.382 204.48 274.355 204.64C274.328 204.8 274.262 204.987 274.155 205.2C274.155 205.387 274.075 205.787 273.915 206.4C273.755 206.987 273.568 207.533 273.355 208.04C273.168 208.627 272.942 209.28 272.675 210C272.408 210.693 272.222 211.24 272.115 211.64C272.008 212.067 271.875 212.48 271.715 212.88C271.582 213.28 271.515 213.48 271.515 213.48C271.515 213.587 271.435 213.813 271.275 214.16C271.142 214.507 271.022 214.88 270.915 215.28C270.808 215.787 270.662 216.36 270.475 217C270.315 217.64 270.128 218.213 269.915 218.72C269.622 219.707 269.368 220.693 269.155 221.68C268.942 222.64 268.928 223.267 269.115 223.56C269.408 223.56 269.515 223.8 269.435 224.28C269.355 224.733 269.115 225.36 268.715 226.16C268.448 226.827 268.248 227.28 268.115 227.52C267.982 227.787 267.862 227.933 267.755 227.96C267.648 227.987 267.488 228 267.275 228ZM195.438 286.8C194.931 286.88 194.464 286.92 194.038 286.92C193.611 286.947 192.984 286.853 192.158 286.64C191.731 286.507 191.424 286.347 191.238 286.16C191.078 285.973 190.798 285.627 190.398 285.12C190.104 284.693 189.891 284.293 189.758 283.92C189.651 283.573 189.638 283.293 189.718 283.08C189.798 282.893 189.971 282.84 190.238 282.92C190.318 282.947 190.438 283.027 190.598 283.16C190.784 283.32 190.958 283.507 191.118 283.72C191.491 284.12 191.944 284.387 192.478 284.52C193.011 284.653 193.718 284.667 194.598 284.56C194.971 284.48 195.424 284.36 195.958 284.2C196.491 284.067 197.011 283.893 197.518 283.68C198.024 283.467 198.424 283.253 198.718 283.04C200.131 282.08 201.264 281.32 202.118 280.76C202.971 280.2 203.398 279.92 203.398 279.92C203.451 279.813 203.544 279.733 203.678 279.68C203.838 279.6 204.024 279.52 204.238 279.44C204.398 279.28 204.651 279.027 204.998 278.68C205.371 278.333 205.718 277.987 206.038 277.64C206.384 277.293 206.598 277.093 206.678 277.04C206.731 276.8 206.784 276.613 206.838 276.48C206.891 276.32 206.918 276.16 206.918 276C207.131 275.787 207.411 275.347 207.758 274.68C208.131 273.987 208.504 273.227 208.878 272.4C209.251 271.547 209.518 270.773 209.678 270.08C210.051 268.213 210.144 266.64 209.957 265.36C209.771 264.08 209.384 262.987 208.798 262.08C208.238 261.147 207.531 260.32 206.678 259.6C206.384 259.36 205.971 259.107 205.438 258.84C204.931 258.547 204.398 258.293 203.838 258.08C203.278 257.867 202.784 257.693 202.358 257.56C201.958 257.427 201.718 257.373 201.638 257.4C201.531 257.427 201.304 257.853 200.958 258.68C200.638 259.48 200.251 260.507 199.798 261.76C199.344 263.013 198.851 264.347 198.318 265.76C197.811 267.173 197.331 268.507 196.878 269.76C196.718 270.267 196.544 270.8 196.358 271.36C196.171 271.92 196.011 272.413 195.878 272.84C195.744 273.24 195.678 273.507 195.678 273.64C195.384 274.093 195.144 274.693 194.958 275.44C194.798 276.187 194.611 277.427 194.398 279.16C194.158 280.067 193.984 280.76 193.878 281.24C193.771 281.693 193.664 281.907 193.558 281.88C193.558 281.88 193.544 281.893 193.518 281.92C193.518 281.92 193.478 281.96 193.398 282.04C193.398 282.2 193.291 282.28 193.078 282.28C192.864 282.28 192.611 282.227 192.317 282.12C192.051 281.987 191.838 281.84 191.678 281.68C191.598 281.387 191.544 281.107 191.518 280.84C191.518 280.573 191.624 280.053 191.838 279.28C191.971 278.773 192.131 278.16 192.317 277.44C192.531 276.693 192.758 275.933 192.998 275.16C193.238 274.36 193.464 273.627 193.678 272.96C193.891 272.293 194.051 271.787 194.158 271.44C194.344 270.987 194.611 270.133 194.958 268.88C195.171 268.187 195.384 267.493 195.598 266.8C195.838 266.107 196.064 265.493 196.278 264.96C196.491 264.4 196.638 264.04 196.717 263.88C196.851 263.533 197.051 262.947 197.318 262.12C197.584 261.293 197.931 260.373 198.358 259.36L198.638 258.04L198.197 257.84C197.878 257.947 197.624 257.987 197.438 257.96C197.278 257.907 197.171 257.867 197.118 257.84C196.958 257.893 196.731 257.853 196.438 257.72C196.144 257.587 195.878 257.413 195.638 257.2C195.424 256.987 195.291 256.8 195.238 256.64C195.184 256.533 195.144 256.4 195.118 256.24C195.118 256.053 195.118 255.96 195.118 255.96C195.144 255.8 195.344 255.653 195.718 255.52C196.091 255.36 196.571 255.227 197.158 255.12C197.771 255.013 198.424 254.947 199.118 254.92C199.838 254.867 200.531 254.867 201.198 254.92C201.891 254.973 202.544 255.12 203.158 255.36C203.771 255.6 204.438 255.853 205.158 256.12C206.011 256.44 206.904 257 207.838 257.8C208.798 258.573 209.664 259.493 210.438 260.56C211.238 261.627 211.771 262.747 212.038 263.92C212.118 264.24 212.198 264.693 212.278 265.28C212.358 265.867 212.398 266.44 212.398 267C212.424 267.533 212.371 267.88 212.238 268.04C212.184 268.147 212.144 268.28 212.118 268.44C212.118 268.573 212.171 268.667 212.278 268.72C212.251 268.8 212.158 269.107 211.998 269.64C211.838 270.147 211.691 270.587 211.558 270.96C211.504 271.653 211.344 272.373 211.078 273.12C210.811 273.867 210.518 274.573 210.198 275.24C209.878 275.88 209.584 276.427 209.318 276.88C209.211 276.88 209.104 276.907 208.998 276.96C208.918 276.987 208.931 277.013 209.037 277.04C209.037 277.173 208.891 277.427 208.598 277.8C208.491 277.88 208.318 278.08 208.078 278.4C207.864 278.693 207.691 278.893 207.557 279C207.531 279.187 207.451 279.347 207.318 279.48C207.184 279.587 207.064 279.64 206.958 279.64C206.958 279.64 206.931 279.64 206.878 279.64C206.851 279.64 206.838 279.693 206.838 279.8C206.624 280.12 206.291 280.507 205.838 280.96C205.384 281.387 204.864 281.84 204.278 282.32C203.718 282.773 203.131 283.2 202.518 283.6C201.931 284 201.371 284.307 200.838 284.52C200.571 284.707 200.291 284.853 199.998 284.96C199.704 285.093 199.424 285.227 199.158 285.36C199.024 285.467 198.731 285.613 198.278 285.8C197.824 286.013 197.331 286.213 196.798 286.4C196.291 286.587 195.838 286.72 195.438 286.8ZM220.203 283.96C219.376 283.907 218.643 283.653 218.003 283.2C217.389 282.747 216.736 282.28 216.043 281.8C215.589 281.347 215.229 280.867 214.963 280.36C214.696 279.827 214.483 279.133 214.323 278.28C214.216 277.773 214.216 277.133 214.323 276.36C214.429 275.587 214.603 274.813 214.843 274.04C215.083 273.24 215.309 272.6 215.523 272.12C215.843 271.373 216.243 270.573 216.723 269.72C217.229 268.84 217.723 268.013 218.203 267.24C218.709 266.44 219.109 265.8 219.403 265.32C219.589 265.133 219.669 265.04 219.643 265.04C219.643 265.013 219.643 265 219.643 265C219.643 264.867 219.776 264.533 220.043 264C220.336 263.44 220.589 262.947 220.803 262.52C221.203 262.093 221.429 261.747 221.483 261.48C221.536 261.213 221.496 261 221.363 260.84C221.309 260.733 221.403 260.547 221.643 260.28C221.883 260.013 222.243 259.707 222.723 259.36C223.203 259.013 223.749 258.667 224.363 258.32C225.003 257.813 225.616 257.547 226.203 257.52C226.816 257.467 227.176 257.587 227.283 257.88C227.283 257.96 227.429 257.987 227.723 257.96C228.043 257.907 228.403 257.84 228.803 257.76C229.229 257.653 229.603 257.573 229.923 257.52C230.056 257.36 230.363 257.24 230.843 257.16C231.349 257.053 231.936 256.96 232.603 256.88C232.949 256.907 233.283 256.92 233.603 256.92C233.949 256.893 234.229 256.867 234.443 256.84C234.683 256.813 234.803 256.8 234.803 256.8C234.989 256.747 235.203 256.773 235.443 256.88C235.709 256.987 235.949 257.28 236.163 257.76C236.349 258.24 236.283 258.6 235.963 258.84C235.669 259.08 234.976 259.267 233.883 259.4C233.083 259.507 232.389 259.6 231.803 259.68C231.216 259.733 230.603 259.813 229.963 259.92C229.323 260 228.536 260.147 227.603 260.36C226.936 260.493 226.389 260.653 225.963 260.84C225.536 261 225.163 261.253 224.843 261.6C224.523 261.92 224.163 262.387 223.763 263C223.576 263.133 223.336 263.48 223.043 264.04C222.749 264.6 222.456 265.16 222.163 265.72C221.416 266.76 220.763 267.667 220.203 268.44C219.669 269.187 219.456 269.627 219.563 269.76C219.563 269.76 219.709 269.8 220.003 269.88C220.296 269.96 220.496 270 220.603 270C220.869 269.867 221.189 269.773 221.563 269.72C221.963 269.667 222.283 269.613 222.523 269.56C224.176 269.133 225.469 268.8 226.403 268.56C227.363 268.32 228.083 268.147 228.563 268.04C229.069 267.907 229.456 267.827 229.723 267.8C230.096 267.507 230.456 267.453 230.803 267.64C231.176 267.827 231.469 268.12 231.683 268.52C231.816 268.813 231.816 269.067 231.683 269.28C231.576 269.493 231.243 269.707 230.683 269.92C230.149 270.133 229.349 270.387 228.283 270.68C227.216 270.973 225.816 271.36 224.083 271.84C222.616 272.267 221.363 272.52 220.323 272.6C219.283 272.68 218.789 272.453 218.843 271.92C218.656 271.813 218.443 271.947 218.203 272.32C217.989 272.667 217.776 273.147 217.563 273.76C217.349 274.373 217.163 275.027 217.003 275.72C216.869 276.413 216.776 277.067 216.723 277.68C216.696 278.267 216.736 278.707 216.843 279C217.056 279.613 217.336 280.107 217.683 280.48C218.029 280.827 218.656 281.133 219.563 281.4C220.096 281.427 220.616 281.467 221.123 281.52C221.629 281.573 222.203 281.467 222.843 281.2C224.416 280.933 225.656 280.653 226.563 280.36C227.469 280.067 227.989 279.867 228.123 279.76C228.336 279.653 228.469 279.6 228.523 279.6C228.603 279.573 228.709 279.56 228.843 279.56C228.763 279.693 228.789 279.707 228.923 279.6C229.083 279.467 229.296 279.267 229.563 279C229.856 278.733 230.243 278.48 230.723 278.24C231.203 278 231.629 277.813 232.003 277.68C232.403 277.547 232.616 277.547 232.643 277.68C232.803 277.947 232.776 278.32 232.563 278.8C232.349 279.253 231.963 279.76 231.403 280.32C230.843 280.853 230.123 281.373 229.243 281.88C227.829 282.627 226.296 283.147 224.643 283.44C222.989 283.76 221.509 283.933 220.203 283.96ZM242.904 283.72C242.904 283.72 242.837 283.707 242.704 283.68C242.597 283.653 242.477 283.547 242.344 283.36C241.837 283.493 241.49 283.32 241.304 282.84C241.144 282.333 241.117 281.52 241.224 280.4C241.384 279.173 241.477 278.013 241.504 276.92C241.53 275.8 241.53 274.52 241.504 273.08C241.477 272.867 241.477 272.64 241.504 272.4C241.557 272.133 241.584 271.947 241.584 271.84C241.61 271.44 241.624 270.893 241.624 270.2C241.624 269.48 241.624 268.773 241.624 268.08C241.624 267.387 241.65 266.88 241.704 266.56C241.677 266.293 241.664 266.04 241.664 265.8C241.664 265.533 241.664 265.267 241.664 265C241.69 264.707 241.704 264.413 241.704 264.12C241.677 264.013 241.637 263.733 241.584 263.28C241.557 262.8 241.517 262.267 241.464 261.68C241.49 261.12 241.477 260.72 241.424 260.48C241.397 260.213 241.357 260.013 241.304 259.88C241.25 259.72 241.17 259.547 241.064 259.36C240.797 259.147 240.624 258.973 240.544 258.84C240.49 258.707 240.504 258.587 240.584 258.48C240.664 258.373 240.784 258.28 240.944 258.2C241.104 258.093 241.29 258.04 241.504 258.04C241.717 258.04 241.944 258.08 242.184 258.16C242.45 258.24 242.73 258.373 243.024 258.56C243.13 258.56 243.21 258.667 243.264 258.88C243.344 259.093 243.517 259.387 243.784 259.76C243.917 259.92 243.997 260.293 244.024 260.88C244.05 261.44 244.064 262.12 244.064 262.92C244.064 263.693 244.037 264.48 243.984 265.28C243.957 266.08 243.917 266.8 243.864 267.44C243.89 267.653 243.904 267.893 243.904 268.16C243.904 268.427 243.904 268.707 243.904 269C243.904 269.293 243.904 269.573 243.904 269.84C243.93 270.08 243.957 270.307 243.984 270.52C244.01 270.813 244.024 271.213 244.024 271.72C244.05 272.2 244.037 272.547 243.984 272.76C243.93 272.947 243.904 273.187 243.904 273.48C243.904 273.747 243.904 274.16 243.904 274.72C243.93 275.253 243.957 276.04 243.984 277.08C243.957 277.613 243.93 278.107 243.904 278.56C243.904 279.013 243.917 279.36 243.944 279.6C243.997 279.84 244.09 279.92 244.224 279.84C244.49 279.147 244.73 278.547 244.944 278.04C245.157 277.507 245.424 276.92 245.744 276.28C245.797 276.2 245.904 275.987 246.064 275.64C246.25 275.293 246.41 274.947 246.544 274.6C246.704 274.227 246.77 274.013 246.744 273.96C246.744 273.96 246.77 273.907 246.824 273.8C246.877 273.667 246.957 273.52 247.064 273.36C247.17 273.2 247.304 273.053 247.464 272.92C247.677 272.627 247.797 272.4 247.824 272.24C247.877 272.08 248.077 271.787 248.424 271.36C248.664 270.96 248.984 270.373 249.384 269.6C249.81 268.827 250.25 268 250.704 267.12C251.184 266.24 251.637 265.427 252.064 264.68C252.517 263.933 252.877 263.387 253.144 263.04C253.197 262.907 253.25 262.773 253.304 262.64C253.384 262.507 253.45 262.387 253.504 262.28C253.584 262.147 253.664 262.04 253.744 261.96C253.824 261.88 253.917 261.813 254.024 261.76C254.077 261.547 254.21 261.253 254.424 260.88C254.664 260.507 254.85 260.133 254.984 259.76C255.65 258.933 256.13 258.28 256.424 257.8C256.744 257.293 256.997 256.92 257.184 256.68C257.424 256.44 257.637 256.253 257.824 256.12C258.037 255.96 258.197 255.88 258.304 255.88C258.517 255.933 258.77 256.093 259.064 256.36C259.357 256.6 259.61 256.867 259.824 257.16C260.037 257.427 260.117 257.627 260.064 257.76C259.984 257.84 259.85 258.027 259.664 258.32C259.477 258.587 259.224 258.92 258.904 259.32C258.61 259.693 258.264 260.08 257.864 260.48C257.624 260.747 257.384 261.133 257.144 261.64C256.904 262.12 256.637 262.547 256.344 262.92C256.157 263.293 255.89 263.733 255.544 264.24C255.197 264.72 254.917 265.12 254.704 265.44C254.57 265.76 254.41 266.04 254.224 266.28C254.037 266.493 253.837 266.733 253.624 267C253.677 267.187 253.65 267.32 253.544 267.4C253.437 267.48 253.357 267.573 253.304 267.68C252.984 268.4 252.744 268.907 252.584 269.2C252.424 269.493 252.197 269.827 251.904 270.2C251.797 270.387 251.65 270.613 251.464 270.88C251.277 271.12 251.13 271.4 251.024 271.72C250.837 271.907 250.704 272.067 250.624 272.2C250.544 272.307 250.517 272.427 250.544 272.56C250.544 272.56 250.464 272.707 250.304 273C250.144 273.293 249.997 273.667 249.864 274.12C249.677 274.413 249.477 274.72 249.264 275.04C249.05 275.36 248.89 275.667 248.784 275.96C248.704 276.093 248.597 276.227 248.464 276.36C248.33 276.467 248.264 276.573 248.264 276.68C248.157 276.787 248.024 277 247.864 277.32C247.704 277.613 247.53 277.973 247.344 278.4C247.104 278.72 246.837 279.2 246.544 279.84C246.25 280.453 245.997 280.92 245.784 281.24C245.65 281.587 245.464 281.973 245.224 282.4C244.984 282.827 244.797 283.147 244.664 283.36C244.477 283.813 244.224 284.093 243.904 284.2C243.61 284.307 243.277 284.147 242.904 283.72ZM264.992 284.52C263.925 284.52 262.965 284.453 262.112 284.32C261.285 284.213 260.525 283.893 259.832 283.36C259.005 282.747 258.525 281.947 258.392 280.96C258.285 279.947 258.485 278.493 258.992 276.6C259.125 275.933 259.272 275.347 259.432 274.84C259.618 274.333 259.778 274.08 259.912 274.08C259.938 273.947 259.978 273.76 260.032 273.52C260.085 273.253 260.138 272.947 260.192 272.6C260.325 272.12 260.418 271.773 260.472 271.56C260.525 271.32 260.632 271.12 260.792 270.96C260.872 270.907 260.965 270.733 261.072 270.44C261.178 270.12 261.245 269.933 261.272 269.88C261.272 269.88 261.285 269.787 261.312 269.6C261.338 269.387 261.405 269.147 261.512 268.88C261.912 268.213 262.112 267.773 262.112 267.56C262.165 267.453 262.272 267.293 262.432 267.08C262.618 266.867 262.765 266.587 262.872 266.24C263.672 264.827 264.325 263.613 264.832 262.6C265.338 261.56 265.645 260.787 265.752 260.28C265.885 259.987 266.005 259.733 266.112 259.52C266.245 259.28 266.405 259.053 266.592 258.84C266.538 258.707 266.645 258.56 266.912 258.4C267.178 258.24 267.552 258.067 268.032 257.88C268.512 257.693 269.032 257.533 269.592 257.4C270.178 257.267 270.752 257.187 271.312 257.16C271.472 257.053 271.818 256.973 272.352 256.92C272.912 256.867 273.552 256.84 274.272 256.84C274.992 256.84 275.658 256.867 276.272 256.92C276.858 256.92 277.325 257 277.672 257.16C278.018 257.32 278.365 257.48 278.712 257.64C278.845 257.773 278.938 257.933 278.992 258.12C279.072 258.307 279.125 258.48 279.152 258.64C279.178 258.773 279.192 258.84 279.192 258.84C279.192 258.973 278.818 259.053 278.072 259.08C277.325 259.107 276.512 259.12 275.632 259.12C274.645 259.12 273.698 259.2 272.792 259.36C271.885 259.52 271.285 259.6 270.992 259.6C270.618 259.707 270.285 259.773 269.992 259.8C269.725 259.827 269.592 259.84 269.592 259.84C269.538 259.84 269.365 260.053 269.072 260.48C268.805 260.88 268.498 261.36 268.152 261.92C267.832 262.453 267.538 262.96 267.272 263.44C267.032 263.893 266.912 264.16 266.912 264.24C266.912 264.507 266.805 264.8 266.592 265.12C266.378 265.44 266.125 265.813 265.832 266.24C265.565 266.587 265.392 266.907 265.312 267.2C265.232 267.467 265.312 267.653 265.552 267.76C265.978 267.68 266.552 267.6 267.272 267.52C268.018 267.44 268.752 267.373 269.472 267.32C270.218 267.24 270.792 267.2 271.192 267.2C271.645 267.067 272.018 267.04 272.312 267.12C272.605 267.2 272.818 267.28 272.952 267.36C273.272 267.413 273.498 267.52 273.632 267.68C273.765 267.813 273.818 267.947 273.792 268.08C273.792 268.213 273.698 268.32 273.512 268.4C273.352 268.56 272.952 268.747 272.312 268.96C271.672 269.173 270.925 269.387 270.072 269.6C269.218 269.813 268.352 270.013 267.472 270.2C266.618 270.36 265.885 270.493 265.272 270.6C264.658 270.707 264.298 270.747 264.192 270.72C264.032 270.347 263.912 270.36 263.832 270.76C263.778 271.133 263.485 271.907 262.952 273.08C262.658 273.747 262.392 274.387 262.152 275C261.938 275.587 261.752 276.213 261.592 276.88C261.458 277.52 261.312 278.253 261.152 279.08C260.965 279.8 260.912 280.387 260.992 280.84C261.098 281.267 261.578 281.68 262.432 282.08C262.965 282.187 263.672 282.227 264.552 282.2C265.458 282.173 266.485 282.013 267.632 281.72C268.112 281.427 268.552 281.2 268.952 281.04C269.352 280.853 269.645 280.707 269.832 280.6C269.965 280.6 270.165 280.573 270.432 280.52C270.725 280.44 270.925 280.4 271.032 280.4C271.245 280.107 271.512 279.96 271.832 279.96C271.885 279.96 272.005 280.067 272.192 280.28C272.405 280.467 272.605 280.68 272.792 280.92C272.978 281.16 273.058 281.32 273.032 281.4C273.032 281.667 272.738 281.933 272.152 282.2C271.565 282.467 270.605 282.867 269.272 283.4C268.605 283.693 268.058 283.92 267.632 284.08C267.232 284.24 266.845 284.347 266.472 284.4C266.098 284.48 265.605 284.52 264.992 284.52ZM283.524 284.24C282.698 284.107 282.018 283.8 281.484 283.32C280.978 282.867 280.591 282.28 280.324 281.56C280.138 281.08 280.004 280.653 279.924 280.28C279.844 279.88 279.938 279.24 280.204 278.36C280.284 277.453 280.418 276.533 280.604 275.6C280.818 274.64 281.098 273.667 281.444 272.68C281.444 272.68 281.511 272.453 281.644 272C281.778 271.547 281.938 271.093 282.124 270.64C282.444 269.627 282.911 268.467 283.524 267.16C284.138 265.853 284.804 264.56 285.524 263.28C286.244 261.973 286.938 260.84 287.604 259.88C288.298 258.893 288.871 258.227 289.324 257.88C289.564 257.667 289.818 257.52 290.084 257.44C290.378 257.333 290.631 257.307 290.844 257.36C291.058 257.387 291.164 257.507 291.164 257.72C291.111 257.88 291.084 257.973 291.084 258C291.084 258.027 291.138 258.053 291.244 258.08C291.484 258.107 291.551 258.293 291.444 258.64C291.338 258.987 291.138 259.36 290.844 259.76C290.551 260.16 290.218 260.467 289.844 260.68C289.844 260.68 289.818 260.773 289.764 260.96C289.711 261.12 289.538 261.307 289.244 261.52C289.138 261.84 289.031 262.107 288.924 262.32C288.818 262.533 288.764 262.64 288.764 262.64C288.764 262.64 288.698 262.747 288.564 262.96C288.431 263.147 288.298 263.4 288.164 263.72C287.924 264.013 287.724 264.28 287.564 264.52C287.431 264.733 287.364 264.907 287.364 265.04C287.364 265.04 287.284 265.187 287.124 265.48C286.991 265.747 286.844 266.04 286.684 266.36C286.551 266.653 286.484 266.84 286.484 266.92C286.484 266.92 286.431 266.96 286.324 267.04C286.244 267.093 286.204 267.12 286.204 267.12C286.204 267.253 286.124 267.56 285.964 268.04C285.804 268.493 285.578 268.933 285.284 269.36C284.938 270.107 284.658 270.84 284.444 271.56C284.258 272.28 284.098 272.747 283.964 272.96C283.911 273.067 283.871 273.213 283.844 273.4C283.738 273.507 283.618 273.773 283.484 274.2C283.351 274.627 283.258 275.187 283.204 275.88C283.018 276.44 282.844 276.92 282.684 277.32C282.551 277.72 282.484 277.92 282.484 277.92C282.324 277.893 282.231 278.08 282.204 278.48C282.178 278.88 282.191 279.347 282.244 279.88C282.298 280.387 282.338 280.813 282.364 281.16C282.578 281.48 282.858 281.667 283.204 281.72C283.578 281.747 284.218 281.733 285.124 281.68C285.444 281.733 285.818 281.733 286.244 281.68C286.671 281.6 287.058 281.587 287.404 281.64C287.644 281.64 288.018 281.627 288.524 281.6C289.031 281.547 289.524 281.48 290.004 281.4C290.831 281.32 291.324 281.293 291.484 281.32C291.671 281.32 291.858 281.427 292.044 281.64C292.364 282.067 292.458 282.373 292.324 282.56C292.218 282.747 291.911 282.907 291.404 283.04C290.391 283.307 289.364 283.533 288.324 283.72C287.284 283.933 286.338 284.08 285.484 284.16C284.631 284.24 283.978 284.267 283.524 284.24ZM300.474 283.56C299.994 283.48 299.487 283.293 298.954 283C298.421 282.733 297.941 282.427 297.514 282.08C297.114 281.707 296.834 281.347 296.674 281C296.194 280.173 295.914 279.293 295.834 278.36C295.754 277.4 295.927 276.507 296.354 275.68C296.407 275.387 296.447 275.067 296.474 274.72C296.527 274.373 296.554 274.08 296.554 273.84C296.554 273.84 296.594 273.787 296.674 273.68C296.781 273.547 296.834 273.48 296.834 273.48C296.914 273.48 296.967 273.44 296.994 273.36C297.021 273.28 297.061 273.173 297.114 273.04C297.221 272.853 297.301 272.72 297.354 272.64C297.434 272.56 297.474 272.52 297.474 272.52C297.634 272.52 297.727 272.467 297.754 272.36C297.781 272.227 297.781 271.933 297.754 271.48C297.727 271.373 297.727 271.28 297.754 271.2C297.781 271.12 297.794 271.04 297.794 270.96C297.927 270.827 298.034 270.72 298.114 270.64C298.194 270.56 298.234 270.467 298.234 270.36C298.341 270.28 298.434 270.213 298.514 270.16C298.621 270.107 298.674 270.08 298.674 270.08C298.834 270.133 298.914 270.147 298.914 270.12C298.941 270.067 299.007 270 299.114 269.92C299.114 269.787 299.194 269.507 299.354 269.08C299.541 268.653 299.741 268.187 299.954 267.68C300.167 267.173 300.327 266.76 300.434 266.44C301.421 264.653 302.354 263.147 303.234 261.92C304.114 260.667 304.954 259.667 305.754 258.92C306.581 258.147 307.367 257.6 308.114 257.28C308.247 257.227 308.447 257.2 308.714 257.2C309.007 257.173 309.287 257.147 309.554 257.12C309.927 257.12 310.341 257.187 310.794 257.32C311.247 257.427 311.647 257.547 311.994 257.68C312.341 257.787 312.527 257.88 312.554 257.96C312.554 258.067 312.594 258.133 312.674 258.16C312.754 258.187 312.794 258.2 312.794 258.2C312.954 258.173 313.154 258.32 313.394 258.64C313.634 258.96 313.887 259.36 314.154 259.84C314.447 260.32 314.687 260.8 314.874 261.28C315.167 261.707 315.327 262.333 315.354 263.16C315.381 263.987 315.367 264.8 315.314 265.6C315.234 266.187 315.114 266.84 314.954 267.56C314.794 268.28 314.621 268.947 314.434 269.56C314.274 270.147 314.141 270.573 314.034 270.84C314.007 270.92 313.941 271.093 313.834 271.36C313.754 271.627 313.661 271.893 313.554 272.16C313.474 272.427 313.407 272.627 313.354 272.76C313.114 273.453 312.781 274.227 312.354 275.08C311.954 275.907 311.514 276.707 311.034 277.48C310.554 278.253 310.087 278.893 309.634 279.4C309.181 279.907 308.794 280.173 308.474 280.2C308.474 280.2 308.447 280.213 308.394 280.24C308.367 280.267 308.354 280.333 308.354 280.44C308.354 280.493 308.141 280.707 307.714 281.08C307.314 281.453 306.861 281.84 306.354 282.24C305.874 282.613 305.514 282.893 305.274 283.08C304.714 283.267 304.127 283.413 303.514 283.52C302.927 283.653 302.367 283.72 301.834 283.72C301.301 283.72 300.847 283.667 300.474 283.56ZM300.674 281.4C301.554 281.4 302.367 281.307 303.114 281.12C303.887 280.907 304.634 280.56 305.354 280.08C306.101 279.573 306.834 278.893 307.554 278.04C307.687 277.747 307.834 277.48 307.994 277.24C308.154 277 308.234 276.88 308.234 276.88C308.394 276.853 308.474 276.773 308.474 276.64C308.474 276.64 308.501 276.547 308.554 276.36C308.607 276.147 308.687 275.987 308.794 275.88C309.061 275.667 309.287 275.493 309.474 275.36C309.687 275.2 309.794 275.12 309.794 275.12C309.794 275.04 309.834 274.84 309.914 274.52C310.021 274.2 310.141 273.88 310.274 273.56C310.407 273.24 310.514 273.053 310.594 273C310.647 272.947 310.767 272.653 310.954 272.12C311.167 271.56 311.367 270.933 311.554 270.24C311.767 269.52 311.874 268.933 311.874 268.48C312.007 268.347 312.114 268.213 312.194 268.08C312.301 267.92 312.354 267.84 312.354 267.84C312.461 267.76 312.501 267.68 312.474 267.6C312.474 267.493 312.474 267.32 312.474 267.08C312.474 266.707 312.501 266.44 312.554 266.28C312.607 266.12 312.634 266.04 312.634 266.04C312.767 265.907 312.834 265.827 312.834 265.8C312.861 265.747 312.847 265.707 312.794 265.68C312.447 265.467 312.447 265.32 312.794 265.24C312.847 265.107 312.861 264.84 312.834 264.44C312.807 264.013 312.754 263.547 312.674 263.04C312.621 262.507 312.541 262.013 312.434 261.56C312.354 261.08 312.274 260.747 312.194 260.56C311.981 260.267 311.701 260.067 311.354 259.96C311.034 259.827 310.514 259.867 309.794 260.08C308.994 260.267 308.354 260.56 307.874 260.96C307.394 261.36 306.767 261.96 305.994 262.76C305.887 263.16 305.741 263.493 305.554 263.76C305.367 264.027 305.234 264.16 305.154 264.16C305.047 264.16 304.941 264.24 304.834 264.4C304.727 264.56 304.661 264.76 304.634 265C304.181 265.267 303.847 265.507 303.634 265.72C303.421 265.907 303.287 266.067 303.234 266.2C302.967 266.627 302.634 267.253 302.234 268.08C301.861 268.88 301.461 269.773 301.034 270.76C300.634 271.72 300.247 272.68 299.874 273.64C299.527 274.6 299.234 275.48 298.994 276.28C298.754 277.053 298.607 277.64 298.554 278.04C298.341 278.6 298.261 279.147 298.314 279.68C298.367 280.187 298.514 280.467 298.754 280.52C298.967 280.76 299.274 280.96 299.674 281.12C300.074 281.28 300.407 281.373 300.674 281.4ZM317.558 284.92C317.238 284.92 316.971 284.747 316.758 284.4C316.598 284.24 316.491 284.013 316.438 283.72C316.411 283.453 316.504 282.96 316.718 282.24C316.931 281.493 317.291 280.36 317.798 278.84C318.064 277.827 318.278 277.093 318.438 276.64C318.598 276.16 318.678 275.813 318.678 275.6C318.678 275.307 318.704 275.067 318.758 274.88C318.838 274.667 318.878 274.467 318.878 274.28C319.038 274.28 319.198 274.133 319.358 273.84C319.518 273.547 319.651 273.147 319.758 272.64C319.864 272.187 319.958 271.827 320.038 271.56C320.144 271.267 320.198 271.067 320.198 270.96C320.331 270.747 320.464 270.413 320.598 269.96C320.758 269.507 320.998 268.96 321.318 268.32C321.531 267.52 321.771 266.693 322.038 265.84C322.304 264.96 322.571 264.147 322.838 263.4C323.131 262.627 323.371 262.027 323.558 261.6C323.851 260.773 324.078 260.2 324.238 259.88C324.398 259.533 324.398 259.307 324.238 259.2C324.051 259.067 324.011 258.84 324.118 258.52C324.224 258.2 324.518 257.84 324.998 257.44C325.291 257.093 325.544 256.853 325.758 256.72C325.971 256.56 326.238 256.48 326.558 256.48C326.904 256.48 327.398 256.507 328.038 256.56C328.518 256.587 329.024 256.6 329.558 256.6C330.118 256.6 330.464 256.6 330.598 256.6C330.838 256.707 331.131 256.827 331.478 256.96C331.824 257.067 332.131 257.173 332.398 257.28C332.691 257.387 332.838 257.48 332.838 257.56C332.838 257.72 332.891 257.827 332.998 257.88C333.131 257.907 333.264 257.933 333.398 257.96C333.584 257.96 333.838 258.107 334.158 258.4C334.478 258.667 334.811 259.013 335.158 259.44C335.504 259.84 335.771 260.267 335.958 260.72C336.171 261.173 336.331 261.6 336.438 262C336.571 262.4 336.571 262.973 336.438 263.72C336.411 264.12 336.344 264.52 336.238 264.92C336.158 265.32 336.064 265.587 335.958 265.72C335.798 265.827 335.651 265.96 335.518 266.12C335.384 266.28 335.318 266.427 335.318 266.56C335.318 266.667 335.224 266.88 335.038 267.2C334.851 267.493 334.611 267.84 334.318 268.24C334.024 268.64 333.704 269.04 333.358 269.44C333.011 269.84 332.678 270.187 332.358 270.48C332.011 270.907 331.598 271.307 331.118 271.68C330.664 272.053 330.251 272.36 329.878 272.6C329.184 272.92 328.411 273.24 327.558 273.56C326.731 273.88 325.931 274.147 325.158 274.36C324.411 274.573 323.784 274.667 323.278 274.64C322.504 274.747 321.998 274.853 321.758 274.96C321.544 275.04 321.384 275.267 321.278 275.64C321.144 275.987 321.011 276.347 320.878 276.72C320.771 277.067 320.718 277.307 320.718 277.44C320.664 277.547 320.531 277.88 320.318 278.44C320.131 278.973 319.918 279.6 319.678 280.32C319.464 281.04 319.251 281.747 319.038 282.44C318.824 283.133 318.664 283.707 318.558 284.16C318.451 284.533 318.318 284.747 318.158 284.8C317.998 284.88 317.798 284.92 317.558 284.92ZM322.518 272.52C322.624 272.627 323.038 272.64 323.758 272.56C324.478 272.48 325.251 272.28 326.078 271.96C326.611 271.773 327.144 271.547 327.678 271.28C328.238 271.013 328.771 270.72 329.278 270.4C329.544 270.213 329.944 269.88 330.478 269.4C331.011 268.92 331.544 268.347 332.078 267.68C332.158 267.547 332.291 267.293 332.478 266.92C332.691 266.52 332.878 266.147 333.038 265.8C333.278 265.427 333.518 264.88 333.758 264.16C333.998 263.413 334.051 262.8 333.918 262.32C333.784 261.627 333.438 260.987 332.878 260.4C332.318 259.787 331.651 259.373 330.878 259.16C330.291 259.053 329.798 259 329.398 259C329.024 259 328.611 259.04 328.158 259.12C327.731 259.253 327.411 259.44 327.198 259.68C327.011 259.92 326.758 260.427 326.438 261.2C326.251 261.573 325.984 262.147 325.638 262.92C325.291 263.667 324.998 264.373 324.758 265.04C324.278 266.8 323.798 268.253 323.318 269.4C322.864 270.52 322.584 271.227 322.478 271.52C322.504 271.813 322.491 272.027 322.438 272.16C322.384 272.267 322.411 272.387 322.518 272.52ZM358.771 283.88C358.771 283.88 358.705 283.787 358.571 283.6C358.438 283.44 358.238 283.187 357.971 282.84C357.838 282.467 357.705 281.88 357.571 281.08C357.465 280.253 357.451 279.2 357.531 277.92C357.478 277.52 357.478 276.88 357.531 276C357.611 275.12 357.718 274.147 357.851 273.08C358.011 271.987 358.171 270.933 358.331 269.92C358.518 268.907 358.691 268.093 358.851 267.48C358.958 265.8 359.065 264.653 359.171 264.04C359.278 263.4 359.331 263.013 359.331 262.88C359.305 262.773 359.065 263.027 358.611 263.64C358.158 264.227 357.651 265.013 357.091 266C356.745 266.56 356.425 267.053 356.131 267.48C355.865 267.88 355.678 268.147 355.571 268.28C355.331 268.627 355.105 269.053 354.891 269.56C354.705 270.04 354.305 270.867 353.691 272.04C352.625 273.693 351.785 274.933 351.171 275.76C350.585 276.56 350.105 277.08 349.731 277.32C349.358 277.533 348.985 277.6 348.611 277.52C347.838 277.333 347.305 277.013 347.011 276.56C346.745 276.107 346.585 275.307 346.531 274.16C346.505 273.44 346.491 272.813 346.491 272.28C346.491 271.747 346.491 271.387 346.491 271.2C346.598 270.96 346.625 270.693 346.571 270.4C346.545 270.107 346.545 269.893 346.571 269.76C346.545 269.653 346.585 269.453 346.691 269.16C346.825 268.84 346.905 268.493 346.931 268.12C347.011 267.613 347.078 267 347.131 266.28C347.211 265.533 347.251 264.867 347.251 264.28C347.278 263.693 347.251 263.373 347.171 263.32C347.225 263.427 347.171 263.587 347.011 263.8C346.878 263.987 346.771 264.147 346.691 264.28C346.185 264.947 345.598 265.987 344.931 267.4C344.265 268.787 343.411 270.547 342.371 272.68C342.291 273.267 342.065 274.027 341.691 274.96C341.318 275.893 340.945 276.72 340.571 277.44C340.411 277.867 340.225 278.347 340.011 278.88C339.798 279.387 339.585 279.867 339.371 280.32C339.158 280.773 338.958 281.133 338.771 281.4C338.425 282.36 338.118 282.933 337.851 283.12C337.611 283.333 337.211 283.253 336.651 282.88C336.278 282.533 336.025 282.187 335.891 281.84C335.758 281.493 335.838 281.067 336.131 280.56C336.398 280.267 336.665 279.84 336.931 279.28C337.225 278.72 337.465 278.187 337.651 277.68C337.865 277.173 337.958 276.88 337.931 276.8C337.905 276.693 337.945 276.547 338.051 276.36C338.185 276.147 338.451 275.747 338.851 275.16C338.825 275.053 338.931 274.68 339.171 274.04C339.438 273.373 339.798 272.587 340.251 271.68C340.331 271.547 340.411 271.387 340.491 271.2C340.571 271.013 340.598 270.853 340.571 270.72C340.651 270.613 340.718 270.467 340.771 270.28C340.851 270.093 340.971 269.947 341.131 269.84C341.185 269.6 341.291 269.307 341.451 268.96C341.611 268.613 341.705 268.32 341.731 268.08C341.838 267.84 341.931 267.627 342.011 267.44C342.118 267.253 342.238 267.08 342.371 266.92C342.478 266.84 342.571 266.707 342.651 266.52C342.731 266.333 342.825 266.187 342.931 266.08C343.038 265.76 343.211 265.387 343.451 264.96C343.691 264.533 343.985 264.053 344.331 263.52C344.678 262.987 345.038 262.427 345.411 261.84C345.598 261.547 345.745 261.28 345.851 261.04C345.958 260.773 346.145 260.44 346.411 260.04C346.411 260.04 346.505 259.893 346.691 259.6C346.905 259.307 347.118 258.96 347.331 258.56C347.465 258.373 347.625 258.133 347.811 257.84C347.998 257.52 348.185 257.24 348.371 257C348.558 256.76 348.691 256.64 348.771 256.64C348.931 256.613 349.185 256.72 349.531 256.96C349.878 257.2 350.198 257.48 350.491 257.8C350.785 258.12 350.931 258.387 350.931 258.6C350.931 258.707 350.905 258.96 350.851 259.36C350.798 259.76 350.718 260.227 350.611 260.76C350.505 261.293 350.371 261.8 350.211 262.28C350.185 262.84 350.105 263.493 349.971 264.24C349.865 264.987 349.745 265.747 349.611 266.52C349.478 267.293 349.385 268.04 349.331 268.76C349.251 269.667 349.105 270.467 348.891 271.16C348.705 271.853 348.611 272.2 348.611 272.2C348.665 272.307 348.705 272.44 348.731 272.6C348.785 272.733 348.811 272.92 348.811 273.16V274.04L350.331 272.4C350.705 271.813 351.051 271.28 351.371 270.8C351.718 270.293 352.025 269.827 352.291 269.4C352.291 269.267 352.345 269.12 352.451 268.96C352.585 268.8 352.691 268.587 352.771 268.32C352.931 268.213 353.078 268.053 353.211 267.84C353.371 267.627 353.438 267.4 353.411 267.16C353.678 266.76 354.051 266.227 354.531 265.56C355.011 264.867 355.531 264.133 356.091 263.36C356.678 262.56 357.251 261.787 357.811 261.04C358.371 260.293 358.865 259.653 359.291 259.12C359.745 258.56 360.065 258.2 360.251 258.04C360.625 257.747 361.025 257.587 361.451 257.56C361.905 257.533 362.345 257.747 362.771 258.2C363.118 258.573 363.318 258.933 363.371 259.28C363.425 259.6 363.331 260.067 363.091 260.68C362.771 261.747 362.451 262.747 362.131 263.68C361.811 264.613 361.665 265.267 361.691 265.64C361.585 265.88 361.505 266.173 361.451 266.52C361.398 266.867 361.358 267.147 361.331 267.36C361.225 267.6 361.145 267.827 361.091 268.04C361.065 268.253 360.985 268.413 360.851 268.52C360.851 268.653 360.878 268.88 360.931 269.2C361.011 269.493 361.025 269.8 360.971 270.12C360.598 272.52 360.345 274.52 360.211 276.12C360.078 277.693 360.065 278.893 360.171 279.72C360.305 280.52 360.545 280.973 360.891 281.08C360.998 281.053 361.051 281.107 361.051 281.24C361.078 281.373 361.038 281.693 360.931 282.2C360.958 282.36 360.945 282.547 360.891 282.76C360.865 282.947 360.825 283.12 360.771 283.28C360.718 283.44 360.665 283.56 360.611 283.64C360.371 283.907 360.171 284.053 360.011 284.08C359.878 284.107 359.465 284.04 358.771 283.88ZM371.76 283.96C370.934 283.907 370.2 283.653 369.56 283.2C368.947 282.747 368.294 282.28 367.6 281.8C367.147 281.347 366.787 280.867 366.52 280.36C366.254 279.827 366.04 279.133 365.88 278.28C365.774 277.773 365.774 277.133 365.88 276.36C365.987 275.587 366.16 274.813 366.4 274.04C366.64 273.24 366.867 272.6 367.08 272.12C367.4 271.373 367.8 270.573 368.28 269.72C368.787 268.84 369.28 268.013 369.76 267.24C370.267 266.44 370.667 265.8 370.96 265.32C371.147 265.133 371.227 265.04 371.2 265.04C371.2 265.013 371.2 265 371.2 265C371.2 264.867 371.334 264.533 371.6 264C371.894 263.44 372.147 262.947 372.36 262.52C372.76 262.093 372.987 261.747 373.04 261.48C373.094 261.213 373.054 261 372.92 260.84C372.867 260.733 372.96 260.547 373.2 260.28C373.44 260.013 373.8 259.707 374.28 259.36C374.76 259.013 375.307 258.667 375.92 258.32C376.56 257.813 377.174 257.547 377.76 257.52C378.374 257.467 378.734 257.587 378.84 257.88C378.84 257.96 378.987 257.987 379.28 257.96C379.6 257.907 379.96 257.84 380.36 257.76C380.787 257.653 381.16 257.573 381.48 257.52C381.614 257.36 381.92 257.24 382.4 257.16C382.907 257.053 383.494 256.96 384.16 256.88C384.507 256.907 384.84 256.92 385.16 256.92C385.507 256.893 385.787 256.867 386 256.84C386.24 256.813 386.36 256.8 386.36 256.8C386.547 256.747 386.76 256.773 387 256.88C387.267 256.987 387.507 257.28 387.72 257.76C387.907 258.24 387.84 258.6 387.52 258.84C387.227 259.08 386.534 259.267 385.44 259.4C384.64 259.507 383.947 259.6 383.36 259.68C382.774 259.733 382.16 259.813 381.52 259.92C380.88 260 380.094 260.147 379.16 260.36C378.494 260.493 377.947 260.653 377.52 260.84C377.094 261 376.72 261.253 376.4 261.6C376.08 261.92 375.72 262.387 375.32 263C375.134 263.133 374.894 263.48 374.6 264.04C374.307 264.6 374.014 265.16 373.72 265.72C372.974 266.76 372.32 267.667 371.76 268.44C371.227 269.187 371.014 269.627 371.12 269.76C371.12 269.76 371.267 269.8 371.56 269.88C371.854 269.96 372.054 270 372.16 270C372.427 269.867 372.747 269.773 373.12 269.72C373.52 269.667 373.84 269.613 374.08 269.56C375.734 269.133 377.027 268.8 377.96 268.56C378.92 268.32 379.64 268.147 380.12 268.04C380.627 267.907 381.014 267.827 381.28 267.8C381.654 267.507 382.014 267.453 382.36 267.64C382.734 267.827 383.027 268.12 383.24 268.52C383.374 268.813 383.374 269.067 383.24 269.28C383.134 269.493 382.8 269.707 382.24 269.92C381.707 270.133 380.907 270.387 379.84 270.68C378.774 270.973 377.374 271.36 375.64 271.84C374.174 272.267 372.92 272.52 371.88 272.6C370.84 272.68 370.347 272.453 370.4 271.92C370.214 271.813 370 271.947 369.76 272.32C369.547 272.667 369.334 273.147 369.12 273.76C368.907 274.373 368.72 275.027 368.56 275.72C368.427 276.413 368.334 277.067 368.28 277.68C368.254 278.267 368.294 278.707 368.4 279C368.614 279.613 368.894 280.107 369.24 280.48C369.587 280.827 370.214 281.133 371.12 281.4C371.654 281.427 372.174 281.467 372.68 281.52C373.187 281.573 373.76 281.467 374.4 281.2C375.974 280.933 377.214 280.653 378.12 280.36C379.027 280.067 379.547 279.867 379.68 279.76C379.894 279.653 380.027 279.6 380.08 279.6C380.16 279.573 380.267 279.56 380.4 279.56C380.32 279.693 380.347 279.707 380.48 279.6C380.64 279.467 380.854 279.267 381.12 279C381.414 278.733 381.8 278.48 382.28 278.24C382.76 278 383.187 277.813 383.56 277.68C383.96 277.547 384.174 277.547 384.2 277.68C384.36 277.947 384.334 278.32 384.12 278.8C383.907 279.253 383.52 279.76 382.96 280.32C382.4 280.853 381.68 281.373 380.8 281.88C379.387 282.627 377.854 283.147 376.2 283.44C374.547 283.76 373.067 283.933 371.76 283.96ZM392.252 282.84C392.119 283.16 391.932 283.373 391.692 283.48C391.479 283.613 391.239 283.613 390.972 283.48C390.732 283.373 390.519 283.12 390.332 282.72C390.012 282.427 389.866 281.96 389.892 281.32C389.919 280.653 390.066 280.067 390.332 279.56C390.466 279.32 390.572 279.013 390.652 278.64C390.732 278.24 390.786 277.867 390.812 277.52C390.972 276.96 391.132 276.387 391.292 275.8C391.479 275.187 391.679 274.56 391.892 273.92C392.106 273.28 392.332 272.6 392.572 271.88C393.052 270.413 393.466 269.133 393.812 268.04C394.159 266.947 394.506 265.907 394.852 264.92C395.199 263.907 395.599 262.84 396.052 261.72C396.159 261.507 396.279 261.24 396.412 260.92C396.572 260.573 396.639 260.267 396.612 260C396.692 259.573 396.799 259.227 396.932 258.96C397.092 258.667 397.226 258.467 397.332 258.36C397.626 258.013 397.812 257.827 397.892 257.8C397.972 257.747 398.119 257.773 398.332 257.88C398.599 257.933 398.812 257.987 398.972 258.04C399.159 258.067 399.332 258.173 399.492 258.36C399.679 258.547 399.866 258.893 400.052 259.4C400.292 259.773 400.492 260.16 400.652 260.56C400.812 260.96 400.839 261.507 400.732 262.2C400.786 262.787 400.839 263.387 400.892 264C400.972 264.613 401.039 265.227 401.092 265.84C401.172 266.427 401.226 267 401.252 267.56C401.306 268.12 401.319 268.653 401.292 269.16C401.292 269.613 401.319 270.28 401.372 271.16C401.452 272.013 401.546 272.92 401.652 273.88C401.786 274.813 401.919 275.627 402.052 276.32C402.212 277.013 402.372 277.413 402.532 277.52C402.639 277.573 402.786 277.48 402.972 277.24C403.186 276.973 403.466 276.253 403.812 275.08C403.919 274.707 404.066 274.347 404.252 274C404.466 273.653 404.679 273.267 404.892 272.84C405.106 272.387 405.279 271.84 405.412 271.2C405.759 270.32 406.039 269.547 406.252 268.88C406.492 268.213 406.719 267.533 406.932 266.84C407.146 266.147 407.399 265.373 407.692 264.52C407.772 264.173 407.946 263.68 408.212 263.04C408.479 262.4 408.772 261.827 409.092 261.32C409.359 260.787 409.626 260.24 409.892 259.68C410.186 259.12 410.332 258.787 410.332 258.68C410.332 258.68 410.346 258.613 410.372 258.48C410.426 258.32 410.506 258.187 410.612 258.08C410.746 257.973 410.919 257.853 411.132 257.72C411.346 257.587 411.492 257.347 411.572 257C411.679 256.92 411.772 256.853 411.852 256.8C411.932 256.747 412.026 256.72 412.132 256.72C412.266 256.693 412.412 256.72 412.572 256.8C412.786 256.987 412.879 257.173 412.852 257.36C412.852 257.52 412.692 258.013 412.372 258.84C412.292 259.4 412.172 259.88 412.012 260.28C411.879 260.653 411.746 260.947 411.612 261.16C411.506 261.427 411.386 261.747 411.252 262.12C411.146 262.467 411.026 262.787 410.892 263.08C410.786 263.56 410.692 263.947 410.612 264.24C410.559 264.533 410.532 264.733 410.532 264.84C410.532 264.84 410.506 264.88 410.452 264.96C410.426 265.013 410.359 265.107 410.252 265.24C410.172 265.373 410.079 265.52 409.972 265.68C409.892 265.84 409.786 266.027 409.652 266.24C409.279 267.2 408.986 268.013 408.772 268.68C408.586 269.32 408.412 269.88 408.252 270.36C408.119 270.84 407.972 271.333 407.812 271.84C407.679 272.32 407.479 272.88 407.212 273.52C407.132 274.267 406.986 274.867 406.772 275.32C406.559 275.773 406.452 276 406.452 276C406.452 276.16 406.359 276.467 406.172 276.92C405.986 277.373 405.746 277.853 405.452 278.36C405.186 278.867 404.932 279.333 404.692 279.76C404.479 280.187 404.332 280.467 404.252 280.6C403.986 281.027 403.732 281.28 403.492 281.36C403.252 281.413 402.986 281.453 402.692 281.48C402.212 281.533 401.839 281.453 401.572 281.24C401.306 281 400.986 280.48 400.612 279.68C400.292 279.013 399.986 278.333 399.692 277.64C399.426 276.92 399.199 276.04 399.012 275C398.826 273.96 398.732 272.64 398.732 271.04C398.732 270.747 398.732 270.387 398.732 269.96C398.732 269.507 398.706 269.133 398.652 268.84C398.652 268.707 398.612 268.36 398.532 267.8C398.479 267.24 398.412 266.56 398.332 265.76C398.279 264.96 398.226 264.147 398.172 263.32C397.826 264.04 397.492 264.973 397.172 266.12C396.852 267.267 396.519 268.413 396.172 269.56C395.826 270.68 395.412 271.627 394.932 272.4C394.826 273.2 394.692 273.88 394.532 274.44C394.372 275 394.226 275.387 394.092 275.6C393.986 275.947 393.879 276.36 393.772 276.84C393.666 277.293 393.572 277.72 393.492 278.12C393.439 278.52 393.372 278.84 393.292 279.08C393.292 279.347 393.212 279.733 393.052 280.24C392.919 280.72 392.772 281.213 392.612 281.72C392.452 282.2 392.332 282.573 392.252 282.84ZM417.748 284.76C417.535 284.76 417.295 284.587 417.028 284.24C416.762 283.893 416.642 283.56 416.668 283.24C416.695 282.813 416.815 282.2 417.028 281.4C417.242 280.6 417.482 279.787 417.748 278.96C418.015 278.133 418.255 277.48 418.468 277C418.575 276.573 418.668 276.2 418.748 275.88C418.855 275.533 418.922 275.307 418.948 275.2C419.028 275.093 419.148 274.813 419.308 274.36C419.495 273.907 419.642 273.467 419.748 273.04C419.802 272.827 419.908 272.427 420.068 271.84C420.255 271.227 420.468 270.52 420.708 269.72C420.975 268.92 421.228 268.133 421.468 267.36C421.735 266.587 421.962 265.907 422.148 265.32C422.335 264.733 422.455 264.347 422.508 264.16C422.722 263.84 422.882 263.533 422.988 263.24C423.095 262.947 423.162 262.747 423.188 262.64C423.348 262.533 423.442 262.4 423.468 262.24C423.495 262.053 423.508 261.907 423.508 261.8C423.508 261.667 423.548 261.56 423.628 261.48C423.735 261.4 423.788 261.307 423.788 261.2C423.895 261.12 423.962 261 423.988 260.84C424.015 260.653 424.095 260.493 424.228 260.36L424.428 259.68L426.788 259.64C426.735 259.96 426.655 260.36 426.548 260.84C426.442 261.293 426.188 261.907 425.788 262.68C425.655 263.213 425.495 263.693 425.308 264.12C425.148 264.547 425.082 264.827 425.108 264.96C425.055 265.013 424.935 265.28 424.748 265.76C424.588 266.24 424.388 266.827 424.148 267.52C423.935 268.213 423.708 268.907 423.468 269.6C423.255 270.293 423.055 270.907 422.868 271.44C422.708 271.947 422.602 272.267 422.548 272.4C422.335 272.827 422.095 273.453 421.828 274.28C421.562 275.107 421.162 276.227 420.628 277.64C420.415 278.067 420.148 278.707 419.828 279.56C419.535 280.413 419.295 281.187 419.108 281.88C418.815 282.92 418.602 283.64 418.468 284.04C418.362 284.467 418.268 284.693 418.188 284.72C418.108 284.773 417.962 284.787 417.748 284.76ZM418.068 260.92C417.322 260.947 416.762 260.907 416.388 260.8C416.042 260.693 415.922 260.427 416.028 260C416.108 259.68 416.282 259.44 416.548 259.28C416.815 259.12 417.202 259 417.708 258.92C418.002 258.867 418.375 258.8 418.828 258.72C419.308 258.64 419.762 258.56 420.188 258.48C421.068 258.373 421.788 258.28 422.348 258.2C422.935 258.12 423.535 258.053 424.148 258C424.762 257.947 425.535 257.893 426.468 257.84C427.242 257.787 427.895 257.747 428.428 257.72C428.988 257.667 429.268 257.64 429.268 257.64C429.348 257.64 429.628 257.667 430.108 257.72C430.588 257.773 431.108 257.84 431.668 257.92C432.228 258 432.642 258.093 432.908 258.2C433.522 258.333 433.962 258.52 434.228 258.76C434.522 259 434.722 259.347 434.828 259.8C434.908 260.12 434.908 260.32 434.828 260.4C434.748 260.453 434.602 260.533 434.388 260.64C433.775 260.827 433.322 260.92 433.028 260.92C432.735 260.92 432.402 260.853 432.028 260.72C431.895 260.587 431.735 260.467 431.548 260.36C431.388 260.253 431.095 260.173 430.668 260.12C430.268 260.04 429.628 259.973 428.748 259.92C428.002 260 427.348 260.04 426.788 260.04C426.228 260.04 425.948 260.107 425.948 260.24L423.588 260.36L421.628 260.56C421.362 260.587 420.988 260.627 420.508 260.68C420.028 260.707 419.562 260.747 419.108 260.8C418.655 260.827 418.308 260.867 418.068 260.92Z" fill="white"/>
</svg>
