<svg width="559" height="382" viewBox="0 0 559 382" fill="none" xmlns="http://www.w3.org/2000/svg">
<g filter="url(#filter0_d_416_1716)">
<path fill-rule="evenodd" clip-rule="evenodd" d="M83.5811 112.803C110.36 98.3432 175.98 118.73 217.059 113.047C275.391 104.977 290.054 57.8863 361.635 74.3378C434.744 91.1408 473.948 139.519 484.485 174.51C493.68 205.049 455.922 224.493 410.435 236.408C374.271 245.88 321.302 233.757 271.954 230.179C190.751 224.292 99.1044 247.191 38.5277 209.445C-21.2363 172.206 39.8314 136.425 83.5811 112.803Z" fill="#ECE9E6"/>
<path fill-rule="evenodd" clip-rule="evenodd" d="M467.416 269.567C439.412 282.441 375.788 258.312 334.306 261.604C275.403 266.279 256.562 312.4 186.64 291.851C115.224 270.864 80.4528 220.344 73.0766 184.834C66.639 153.842 106.04 136.632 152.476 127.379C189.394 120.023 241.14 135.178 290.04 141.601C370.506 152.169 463.965 134.629 521.005 175.781C577.28 216.38 513.167 248.536 467.416 269.567Z" fill="#2B6FC7"/>
<path d="M166.426 194.961C166.105 194.986 165.809 194.912 165.538 194.739C165.291 194.591 165.119 194.394 165.02 194.147C164.921 194.024 164.773 193.814 164.576 193.518C164.379 193.222 164.255 192.926 164.206 192.63C164.132 191.841 164.083 191.076 164.058 190.336C164.058 189.596 164.095 188.56 164.169 187.228C164.243 186.143 164.379 185.094 164.576 184.083C164.798 183.047 165.008 182.122 165.205 181.308C165.427 180.494 165.6 179.853 165.723 179.384C165.846 178.891 165.871 178.644 165.797 178.644C165.698 178.644 165.55 178.829 165.353 179.199C165.156 179.544 164.934 179.976 164.687 180.494C164.44 181.012 164.194 181.53 163.947 182.048C163.7 182.541 163.491 182.948 163.318 183.269C162.973 184.034 162.566 184.848 162.097 185.711C161.653 186.55 161.197 187.364 160.728 188.153C160.259 188.942 159.852 189.633 159.507 190.225C159.285 190.472 159.026 190.829 158.73 191.298C158.434 191.742 158.113 192.211 157.768 192.704C157.423 193.197 157.065 193.604 156.695 193.925C156.152 194.443 155.61 194.727 155.067 194.776C154.549 194.825 154.105 194.69 153.735 194.369C153.661 194.27 153.575 194.147 153.476 193.999C153.402 193.876 153.34 193.703 153.291 193.481C153.242 193.259 153.254 193 153.328 192.704C153.303 192.359 153.303 191.828 153.328 191.113C153.377 190.373 153.451 189.571 153.55 188.708C153.649 187.82 153.747 186.969 153.846 186.155C153.969 185.341 154.08 184.663 154.179 184.12C154.401 182.541 154.697 180.926 155.067 179.273C155.462 177.62 155.819 175.955 156.14 174.278C156.337 173.785 156.51 173.23 156.658 172.613C156.831 171.972 157.003 171.38 157.176 170.837C157.201 170.294 157.324 169.937 157.546 169.764C157.768 169.567 158.015 169.505 158.286 169.579C158.582 169.628 158.816 169.776 158.989 170.023C159.236 170.27 159.421 170.652 159.544 171.17C159.692 171.688 159.593 172.342 159.248 173.131C158.755 174.34 158.274 175.82 157.805 177.571C157.361 179.298 156.954 181.394 156.584 183.861C156.485 184.453 156.374 185.156 156.251 185.97C156.128 186.784 156.017 187.573 155.918 188.338C155.819 189.103 155.745 189.744 155.696 190.262C155.671 190.78 155.684 191.051 155.733 191.076C155.93 191.125 156.202 190.977 156.547 190.632C156.892 190.262 157.201 189.781 157.472 189.189C158.483 187.512 159.482 185.76 160.469 183.935C161.48 182.085 162.442 180.26 163.355 178.459C163.774 177.744 164.194 176.967 164.613 176.128C165.057 175.265 165.476 174.475 165.871 173.76C166.29 173.02 166.673 172.354 167.018 171.762C167.363 171.145 167.659 170.64 167.906 170.245C168.153 169.85 168.35 169.628 168.498 169.579C168.893 169.604 169.226 169.702 169.497 169.875C169.793 170.023 170.04 170.344 170.237 170.837C170.286 170.96 170.274 171.17 170.2 171.466C170.126 171.762 170.04 172.021 169.941 172.243C169.916 172.416 169.805 172.773 169.608 173.316C169.435 173.859 169.275 174.463 169.127 175.129C168.88 175.795 168.658 176.461 168.461 177.127C168.288 177.768 168.165 178.299 168.091 178.718C167.894 179.779 167.647 180.95 167.351 182.233C167.055 183.491 166.796 184.749 166.574 186.007C166.377 187.24 166.266 188.35 166.241 189.337C166.216 190.028 166.216 190.57 166.241 190.965C166.29 191.36 166.364 191.668 166.463 191.89C166.512 192.087 166.66 192.211 166.907 192.26C167.178 192.309 167.4 192.223 167.573 192.001C168.066 191.384 168.486 190.829 168.831 190.336C169.201 189.818 169.546 189.3 169.867 188.782C170.188 188.239 170.521 187.635 170.866 186.969C171.483 185.834 172.112 184.576 172.753 183.195C173.419 181.789 174.048 180.395 174.64 179.014C175.257 177.633 175.787 176.424 176.231 175.388C176.7 174.056 177.07 172.995 177.341 172.206C177.637 171.417 177.896 170.825 178.118 170.43C178.34 170.035 178.574 169.764 178.821 169.616C178.944 169.517 179.117 169.468 179.339 169.468C179.561 169.468 179.783 169.567 180.005 169.764C180.104 169.863 180.19 170.023 180.264 170.245C180.363 170.442 180.4 170.689 180.375 170.985C180.252 171.38 180.03 172.009 179.709 172.872C179.413 173.735 179.068 174.685 178.673 175.721C178.278 176.757 177.896 177.744 177.526 178.681C177.156 179.618 176.835 180.371 176.564 180.938C176.293 181.456 176.034 181.9 175.787 182.27C175.54 182.64 175.417 182.924 175.417 183.121C175.417 183.22 175.294 183.528 175.047 184.046C174.8 184.539 174.48 185.144 174.085 185.859C173.715 186.574 173.308 187.314 172.864 188.079C172.42 188.844 172.001 189.547 171.606 190.188C171.211 190.829 170.878 191.323 170.607 191.668C169.99 192.433 169.386 193.062 168.794 193.555C168.227 194.048 167.733 194.406 167.314 194.628C166.895 194.85 166.599 194.961 166.426 194.961ZM184.472 193.888C183.707 193.839 183.029 193.604 182.437 193.185C181.87 192.766 181.265 192.334 180.624 191.89C180.205 191.471 179.872 191.027 179.625 190.558C179.378 190.065 179.181 189.423 179.033 188.634C178.934 188.165 178.934 187.573 179.033 186.858C179.132 186.143 179.292 185.427 179.514 184.712C179.736 183.972 179.946 183.38 180.143 182.936C180.439 182.245 180.809 181.505 181.253 180.716C181.722 179.902 182.178 179.137 182.622 178.422C183.091 177.682 183.461 177.09 183.732 176.646C183.905 176.473 183.979 176.387 183.954 176.387C183.954 176.362 183.954 176.35 183.954 176.35C183.954 176.227 184.077 175.918 184.324 175.425C184.595 174.907 184.83 174.451 185.027 174.056C185.397 173.661 185.607 173.341 185.656 173.094C185.705 172.847 185.668 172.65 185.545 172.502C185.496 172.403 185.582 172.231 185.804 171.984C186.026 171.737 186.359 171.454 186.803 171.133C187.247 170.812 187.753 170.492 188.32 170.171C188.912 169.702 189.479 169.456 190.022 169.431C190.589 169.382 190.922 169.493 191.021 169.764C191.021 169.838 191.157 169.863 191.428 169.838C191.724 169.789 192.057 169.727 192.427 169.653C192.822 169.554 193.167 169.48 193.463 169.431C193.586 169.283 193.87 169.172 194.314 169.098C194.783 168.999 195.325 168.913 195.942 168.839C196.263 168.864 196.571 168.876 196.867 168.876C197.188 168.851 197.447 168.827 197.644 168.802C197.866 168.777 197.977 168.765 197.977 168.765C198.15 168.716 198.347 168.74 198.569 168.839C198.816 168.938 199.038 169.209 199.235 169.653C199.408 170.097 199.346 170.43 199.05 170.652C198.779 170.874 198.137 171.047 197.126 171.17C196.386 171.269 195.745 171.355 195.202 171.429C194.659 171.478 194.092 171.552 193.5 171.651C192.908 171.725 192.18 171.861 191.317 172.058C190.7 172.181 190.195 172.329 189.8 172.502C189.405 172.65 189.06 172.884 188.764 173.205C188.468 173.501 188.135 173.933 187.765 174.5C187.592 174.623 187.37 174.944 187.099 175.462C186.828 175.98 186.556 176.498 186.285 177.016C185.594 177.978 184.99 178.817 184.472 179.532C183.979 180.223 183.781 180.63 183.88 180.753C183.88 180.753 184.016 180.79 184.287 180.864C184.558 180.938 184.743 180.975 184.842 180.975C185.089 180.852 185.385 180.765 185.73 180.716C186.1 180.667 186.396 180.617 186.618 180.568C188.147 180.173 189.344 179.865 190.207 179.643C191.095 179.421 191.761 179.261 192.205 179.162C192.674 179.039 193.031 178.965 193.278 178.94C193.623 178.669 193.956 178.619 194.277 178.792C194.622 178.965 194.894 179.236 195.091 179.606C195.214 179.877 195.214 180.112 195.091 180.309C194.992 180.506 194.684 180.704 194.166 180.901C193.673 181.098 192.933 181.333 191.946 181.604C190.959 181.875 189.664 182.233 188.061 182.677C186.704 183.072 185.545 183.306 184.583 183.38C183.621 183.454 183.165 183.244 183.214 182.751C183.041 182.652 182.844 182.776 182.622 183.121C182.425 183.442 182.227 183.886 182.03 184.453C181.833 185.02 181.66 185.625 181.512 186.266C181.389 186.907 181.302 187.512 181.253 188.079C181.228 188.622 181.265 189.029 181.364 189.3C181.561 189.867 181.82 190.324 182.141 190.669C182.462 190.99 183.041 191.273 183.88 191.52C184.373 191.545 184.854 191.582 185.323 191.631C185.792 191.68 186.322 191.582 186.914 191.335C188.369 191.088 189.516 190.829 190.355 190.558C191.194 190.287 191.675 190.102 191.798 190.003C191.995 189.904 192.119 189.855 192.168 189.855C192.242 189.83 192.341 189.818 192.464 189.818C192.39 189.941 192.415 189.954 192.538 189.855C192.686 189.732 192.883 189.547 193.13 189.3C193.401 189.053 193.759 188.819 194.203 188.597C194.647 188.375 195.042 188.202 195.387 188.079C195.757 187.956 195.954 187.956 195.979 188.079C196.127 188.326 196.102 188.671 195.905 189.115C195.708 189.534 195.35 190.003 194.832 190.521C194.314 191.014 193.648 191.495 192.834 191.964C191.527 192.655 190.108 193.136 188.579 193.407C187.05 193.703 185.681 193.863 184.472 193.888ZM209.495 193.666C208.706 193.913 207.929 194.098 207.164 194.221C206.424 194.369 205.635 194.369 204.796 194.221C203.982 194.098 203.045 193.777 201.984 193.259C201.959 192.988 201.848 192.741 201.651 192.519C201.478 192.272 201.281 192.137 201.059 192.112C200.96 192.087 200.837 191.964 200.689 191.742C200.566 191.52 200.442 191.347 200.319 191.224C200.245 190.928 200.196 190.681 200.171 190.484C200.171 190.287 200.196 190.028 200.245 189.707C200.294 189.362 200.368 188.881 200.467 188.264C200.59 187.943 200.763 187.462 200.985 186.821C201.232 186.155 201.503 185.427 201.799 184.638C202.12 183.824 202.453 183.035 202.798 182.27C203.686 180.05 204.377 178.311 204.87 177.053C205.388 175.795 205.746 174.858 205.943 174.241C206.14 173.624 206.239 173.18 206.239 172.909C206.239 172.638 206.177 172.366 206.054 172.095C205.906 171.626 205.906 171.207 206.054 170.837C206.227 170.467 206.547 170.196 207.016 170.023C207.485 169.776 207.966 169.554 208.459 169.357C208.977 169.135 209.483 168.95 209.976 168.802C210.469 168.654 210.926 168.555 211.345 168.506C211.69 168.457 212.11 168.457 212.603 168.506C213.096 168.555 213.577 168.642 214.046 168.765C214.539 168.888 214.959 169.036 215.304 169.209C215.649 169.357 215.859 169.53 215.933 169.727C215.933 169.727 215.97 169.739 216.044 169.764C216.118 169.789 216.155 169.801 216.155 169.801C216.155 169.801 216.204 169.813 216.303 169.838C216.402 169.863 216.55 169.974 216.747 170.171C217.018 170.368 217.253 170.701 217.45 171.17C217.647 171.614 217.697 172.021 217.598 172.391C217.598 172.49 217.623 172.65 217.672 172.872C217.746 173.094 217.808 173.341 217.857 173.612C217.98 174.278 217.906 175.018 217.635 175.832C217.364 176.646 216.809 177.509 215.97 178.422C215.674 178.767 215.403 179.1 215.156 179.421C214.934 179.742 214.761 179.89 214.638 179.865C214.391 180.087 214.206 180.334 214.083 180.605C213.96 180.852 214.009 181 214.231 181.049C214.231 181.049 214.317 181.172 214.49 181.419C214.663 181.666 214.897 181.962 215.193 182.307C215.662 183.022 215.958 183.873 216.081 184.86C216.229 185.822 216.167 186.747 215.896 187.635C215.723 188.252 215.316 188.955 214.675 189.744C214.034 190.509 213.257 191.249 212.344 191.964C211.456 192.655 210.506 193.222 209.495 193.666ZM205.425 192.186C206.288 192.309 207.213 192.211 208.2 191.89C209.187 191.569 210.124 191.076 211.012 190.41C211.925 189.719 212.652 188.942 213.195 188.079C213.886 187.216 214.219 186.439 214.194 185.748C214.194 185.033 213.984 184.354 213.565 183.713C213.195 183.146 212.776 182.8 212.307 182.677C211.838 182.529 211.345 182.504 210.827 182.603C210.309 182.702 209.766 182.837 209.199 183.01C208.73 183.084 208.188 183.22 207.571 183.417C206.954 183.614 206.387 183.799 205.869 183.972C205.376 184.12 205.055 184.194 204.907 184.194C204.907 184.194 204.833 184.268 204.685 184.416C204.537 184.564 204.389 184.724 204.241 184.897C204.093 185.045 204.007 185.168 203.982 185.267C203.859 185.316 203.723 185.514 203.575 185.859C203.427 186.18 203.291 186.55 203.168 186.969C203.069 187.364 202.995 187.721 202.946 188.042C202.897 188.363 202.897 188.523 202.946 188.523C203.069 188.548 203.057 188.745 202.909 189.115C202.786 189.485 202.699 189.793 202.65 190.04C202.453 190.632 202.65 191.125 203.242 191.52C203.859 191.915 204.586 192.137 205.425 192.186ZM206.017 181.715C206.214 181.69 206.547 181.592 207.016 181.419C207.485 181.222 207.916 181.074 208.311 180.975C209.421 180.802 210.445 180.408 211.382 179.791C212.344 179.15 213.158 178.41 213.824 177.571C214.515 176.708 214.996 175.881 215.267 175.092C215.415 174.821 215.526 174.414 215.6 173.871C215.674 173.304 215.686 172.897 215.637 172.65V172.354C215.464 171.885 215.033 171.552 214.342 171.355C213.651 171.158 212.85 171.096 211.937 171.17C211.024 171.219 210.149 171.404 209.31 171.725C208.965 171.898 208.755 172.157 208.681 172.502C208.607 172.823 208.508 173.267 208.385 173.834C208.286 174.451 208.114 175.067 207.867 175.684C207.62 176.301 207.423 176.856 207.275 177.349C207.25 177.448 207.189 177.534 207.09 177.608C206.991 177.682 206.942 177.805 206.942 177.978C206.942 177.978 206.856 178.151 206.683 178.496C206.535 178.841 206.399 179.224 206.276 179.643C206.103 180.062 205.968 180.432 205.869 180.753C205.795 181.074 205.758 181.234 205.758 181.234C205.758 181.234 205.77 181.345 205.795 181.567C205.844 181.789 205.918 181.838 206.017 181.715ZM219.511 196.478C218.771 196.503 218.352 196.108 218.253 195.294C218.155 194.48 218.401 193.432 218.993 192.149C219.141 191.878 219.289 191.619 219.437 191.372C219.585 191.101 219.672 190.879 219.696 190.706C219.77 190.558 219.968 190.176 220.288 189.559C220.634 188.918 221.041 188.153 221.509 187.265C222.003 186.377 222.508 185.452 223.026 184.49C223.569 183.528 224.075 182.628 224.543 181.789C225.012 180.926 225.407 180.21 225.727 179.643C226.048 179.076 226.233 178.767 226.282 178.718C226.381 178.743 226.48 178.681 226.578 178.533C226.702 178.36 226.776 178.188 226.8 178.015C226.85 177.818 226.936 177.608 227.059 177.386C227.207 177.164 227.331 177.028 227.429 176.979C227.479 176.856 227.54 176.72 227.614 176.572C227.713 176.424 227.775 176.301 227.799 176.202C227.824 176.103 227.873 176.017 227.947 175.943C228.021 175.844 228.071 175.746 228.095 175.647C228.293 175.425 228.552 175.08 228.872 174.611C229.193 174.118 229.551 173.563 229.945 172.946C230.365 172.329 230.772 171.7 231.166 171.059C231.586 170.418 231.968 169.813 232.313 169.246C232.659 168.679 232.942 168.198 233.164 167.803C233.386 167.408 233.51 167.162 233.534 167.063C233.608 166.693 233.855 166.545 234.274 166.619C234.398 166.52 234.595 166.496 234.866 166.545C234.866 166.545 234.891 166.607 234.94 166.73C235.014 166.829 235.138 167.001 235.31 167.248C235.483 167.47 235.557 167.692 235.532 167.914C235.532 168.136 235.495 168.383 235.421 168.654C235.372 168.975 235.286 169.258 235.162 169.505C235.039 169.727 234.817 170.048 234.496 170.467C234.176 170.862 233.682 171.491 233.016 172.354C232.868 172.576 232.708 172.798 232.535 173.02C232.387 173.217 232.239 173.402 232.091 173.575C231.968 173.723 231.869 173.859 231.795 173.982C231.721 174.081 231.684 174.155 231.684 174.204C231.66 174.303 231.573 174.451 231.425 174.648C231.302 174.821 231.166 175.043 231.018 175.314C230.87 175.487 230.673 175.746 230.426 176.091C230.18 176.436 229.921 176.794 229.649 177.164C229.403 177.534 229.181 177.867 228.983 178.163C228.786 178.434 228.687 178.595 228.687 178.644C228.663 178.718 228.626 178.804 228.576 178.903C228.552 179.002 228.478 179.088 228.354 179.162C228.256 179.137 228.182 179.199 228.132 179.347C228.108 179.47 228.095 179.532 228.095 179.532C228.095 179.729 227.775 180.334 227.133 181.345C226.862 181.838 226.455 182.578 225.912 183.565C225.394 184.552 224.815 185.649 224.173 186.858C223.557 188.042 222.952 189.214 222.36 190.373C221.768 191.508 221.263 192.494 220.843 193.333C220.449 194.172 220.227 194.727 220.177 194.998C220.079 195.565 219.992 195.935 219.918 196.108C219.844 196.305 219.709 196.429 219.511 196.478ZM233.093 194.221C232.649 193.974 232.403 193.703 232.353 193.407C232.329 193.111 232.501 192.593 232.871 191.853C233.241 191.113 233.821 189.966 234.61 188.412C235.202 187.302 235.646 186.439 235.942 185.822C236.263 185.181 236.473 184.724 236.571 184.453C236.695 184.182 236.756 184.009 236.756 183.935C236.707 183.713 236.732 183.54 236.83 183.417C236.929 183.269 237.089 183.146 237.311 183.047C237.435 182.924 237.632 182.702 237.903 182.381C238.199 182.06 238.471 181.678 238.717 181.234C238.939 180.716 239.198 180.186 239.494 179.643C239.79 179.1 240.185 178.422 240.678 177.608C241.172 176.769 241.813 175.684 242.602 174.352C243.096 173.489 243.638 172.613 244.23 171.725C244.822 170.812 245.451 169.912 246.117 169.024C246.389 168.679 246.635 168.407 246.857 168.21C247.079 167.988 247.301 167.889 247.523 167.914C247.819 167.914 248.152 168.013 248.522 168.21C248.917 168.407 249.275 168.666 249.595 168.987C249.916 169.308 250.15 169.653 250.298 170.023C250.422 170.22 250.471 170.64 250.446 171.281C250.422 171.922 250.372 172.699 250.298 173.612C250.224 174.525 250.138 175.499 250.039 176.535C249.965 177.546 249.854 178.743 249.706 180.124C249.558 181.505 249.41 182.948 249.262 184.453C249.139 185.958 249.04 187.413 248.966 188.819C248.892 190.2 248.892 191.409 248.966 192.445C248.991 192.667 248.991 192.877 248.966 193.074C248.942 193.271 248.929 193.432 248.929 193.555C248.781 193.703 248.535 193.765 248.189 193.74C247.869 193.74 247.548 193.666 247.227 193.518C246.931 193.37 246.759 193.185 246.709 192.963C246.635 192.889 246.586 192.79 246.561 192.667C246.561 192.519 246.574 192.223 246.598 191.779C246.623 191.335 246.648 190.632 246.672 189.67L246.857 183.676L246.376 183.713C246.154 183.713 245.735 183.738 245.118 183.787C244.502 183.836 243.836 183.91 243.12 184.009C242.405 184.083 241.739 184.169 241.122 184.268C240.53 184.342 240.123 184.416 239.901 184.49C239.679 184.49 239.408 184.638 239.087 184.934C238.791 185.23 238.508 185.612 238.236 186.081C238.138 186.426 237.953 186.796 237.681 187.191C237.435 187.561 237.311 187.808 237.311 187.931C237.139 188.054 236.991 188.202 236.867 188.375C236.769 188.548 236.719 188.634 236.719 188.634C236.719 188.782 236.596 189.152 236.349 189.744C236.127 190.311 235.844 190.953 235.498 191.668C235.153 192.359 234.808 192.963 234.462 193.481L233.685 194.665L233.093 194.221ZM240.752 182.307C240.752 182.307 240.876 182.282 241.122 182.233C241.394 182.184 241.702 182.134 242.047 182.085C242.417 182.011 242.75 181.974 243.046 181.974C244.082 181.727 244.835 181.567 245.303 181.493C245.772 181.394 246.093 181.345 246.265 181.345C246.463 181.345 246.635 181.382 246.783 181.456C246.882 181.579 246.968 181.653 247.042 181.678C247.141 181.703 247.19 181.715 247.19 181.715C247.215 181.666 247.252 181.382 247.301 180.864C247.351 180.346 247.412 179.705 247.486 178.94C247.585 178.175 247.671 177.386 247.745 176.572C247.844 175.733 247.918 174.969 247.967 174.278C248.017 173.563 248.054 173.02 248.078 172.65C248.103 172.181 248.128 171.762 248.152 171.392C248.177 170.997 248.189 170.8 248.189 170.8C248.041 170.8 247.721 171.071 247.227 171.614C246.759 172.157 246.228 172.872 245.636 173.76C245.044 174.648 244.489 175.598 243.971 176.609C243.725 177.078 243.49 177.497 243.268 177.867C243.046 178.237 242.874 178.422 242.75 178.422C242.701 178.471 242.553 178.693 242.306 179.088C242.084 179.458 241.838 179.89 241.566 180.383C241.295 180.852 241.073 181.283 240.9 181.678C240.728 182.048 240.678 182.258 240.752 182.307ZM254.116 194.776C253.82 194.776 253.574 194.616 253.376 194.295C253.228 194.147 253.13 193.937 253.08 193.666C253.056 193.419 253.142 192.963 253.339 192.297C253.537 191.606 253.87 190.558 254.338 189.152C254.585 188.215 254.782 187.536 254.93 187.117C255.078 186.673 255.152 186.352 255.152 186.155C255.152 185.884 255.177 185.662 255.226 185.489C255.3 185.292 255.337 185.107 255.337 184.934C255.485 184.934 255.633 184.798 255.781 184.527C255.929 184.256 256.053 183.886 256.151 183.417C256.25 182.998 256.336 182.665 256.41 182.418C256.509 182.147 256.558 181.962 256.558 181.863C256.682 181.666 256.805 181.357 256.928 180.938C257.076 180.519 257.298 180.013 257.594 179.421C257.792 178.681 258.014 177.916 258.26 177.127C258.507 176.313 258.754 175.561 259 174.87C259.272 174.155 259.494 173.6 259.666 173.205C259.938 172.44 260.147 171.91 260.295 171.614C260.443 171.293 260.443 171.084 260.295 170.985C260.123 170.862 260.086 170.652 260.184 170.356C260.283 170.06 260.554 169.727 260.998 169.357C261.27 169.036 261.504 168.814 261.701 168.691C261.899 168.543 262.145 168.469 262.441 168.469C262.762 168.469 263.218 168.494 263.81 168.543C264.254 168.568 264.723 168.58 265.216 168.58C265.734 168.58 266.055 168.58 266.178 168.58C266.4 168.679 266.672 168.79 266.992 168.913C267.313 169.012 267.597 169.11 267.843 169.209C268.115 169.308 268.25 169.394 268.25 169.468C268.25 169.616 268.3 169.715 268.398 169.764C268.522 169.789 268.645 169.813 268.768 169.838C268.941 169.838 269.175 169.974 269.471 170.245C269.767 170.492 270.076 170.812 270.396 171.207C270.717 171.577 270.964 171.972 271.136 172.391C271.334 172.81 271.482 173.205 271.58 173.575C271.704 173.945 271.704 174.475 271.58 175.166C271.556 175.536 271.494 175.906 271.395 176.276C271.321 176.646 271.235 176.893 271.136 177.016C270.988 177.115 270.853 177.238 270.729 177.386C270.606 177.534 270.544 177.67 270.544 177.793C270.544 177.892 270.458 178.089 270.285 178.385C270.113 178.656 269.891 178.977 269.619 179.347C269.348 179.717 269.052 180.087 268.731 180.457C268.411 180.827 268.102 181.148 267.806 181.419C267.486 181.814 267.103 182.184 266.659 182.529C266.24 182.874 265.858 183.158 265.512 183.38C264.871 183.676 264.156 183.972 263.366 184.268C262.602 184.564 261.862 184.811 261.146 185.008C260.456 185.205 259.876 185.292 259.407 185.267C258.692 185.366 258.223 185.464 258.001 185.563C257.804 185.637 257.656 185.847 257.557 186.192C257.434 186.513 257.311 186.846 257.187 187.191C257.089 187.512 257.039 187.734 257.039 187.857C256.99 187.956 256.867 188.264 256.669 188.782C256.497 189.275 256.299 189.855 256.077 190.521C255.88 191.187 255.683 191.841 255.485 192.482C255.288 193.123 255.14 193.654 255.041 194.073C254.943 194.418 254.819 194.616 254.671 194.665C254.523 194.739 254.338 194.776 254.116 194.776ZM258.704 183.306C258.803 183.405 259.185 183.417 259.851 183.343C260.517 183.269 261.233 183.084 261.997 182.788C262.491 182.615 262.984 182.406 263.477 182.159C263.995 181.912 264.489 181.641 264.957 181.345C265.204 181.172 265.574 180.864 266.067 180.42C266.561 179.976 267.054 179.446 267.547 178.829C267.621 178.706 267.745 178.471 267.917 178.126C268.115 177.756 268.287 177.411 268.435 177.09C268.657 176.745 268.879 176.239 269.101 175.573C269.323 174.882 269.373 174.315 269.249 173.871C269.126 173.23 268.805 172.638 268.287 172.095C267.769 171.528 267.153 171.145 266.437 170.948C265.895 170.849 265.438 170.8 265.068 170.8C264.723 170.8 264.341 170.837 263.921 170.911C263.527 171.034 263.231 171.207 263.033 171.429C262.861 171.651 262.626 172.12 262.33 172.835C262.158 173.18 261.911 173.711 261.59 174.426C261.27 175.117 260.998 175.77 260.776 176.387C260.332 178.015 259.888 179.359 259.444 180.42C259.025 181.456 258.766 182.11 258.667 182.381C258.692 182.652 258.68 182.85 258.63 182.973C258.581 183.072 258.606 183.183 258.704 183.306ZM274.054 193.925C273.931 193.925 273.783 193.863 273.61 193.74C273.438 193.641 273.277 193.506 273.129 193.333C273.006 193.16 272.944 192.975 272.944 192.778C272.944 192.778 272.932 192.704 272.907 192.556C272.907 192.383 272.858 192.211 272.759 192.038C272.759 191.841 272.759 191.619 272.759 191.372C272.784 191.101 272.846 190.829 272.944 190.558C272.944 190.287 272.981 189.991 273.055 189.67C273.129 189.325 273.216 189.066 273.314 188.893C273.314 188.622 273.376 188.276 273.499 187.857C273.647 187.413 273.771 187.006 273.869 186.636C274.141 185.822 274.338 185.23 274.461 184.86C274.609 184.49 274.708 184.219 274.757 184.046C274.807 183.849 274.831 183.651 274.831 183.454C274.905 183.257 275.016 182.899 275.164 182.381C275.312 181.863 275.46 181.333 275.608 180.79C275.781 180.223 275.892 179.816 275.941 179.569C276.04 179.47 276.089 179.384 276.089 179.31C276.114 179.211 276.126 179.113 276.126 179.014C276.126 179.014 276.213 178.73 276.385 178.163C276.558 177.596 276.78 176.942 277.051 176.202C277.495 174.895 277.791 173.945 277.939 173.353C278.112 172.761 278.186 172.342 278.161 172.095C278.161 171.848 278.1 171.602 277.976 171.355C277.804 171.034 277.804 170.788 277.976 170.615C278.075 170.516 278.161 170.405 278.235 170.282C278.309 170.134 278.346 170.06 278.346 170.06C278.346 170.011 278.507 169.924 278.827 169.801C279.148 169.678 279.543 169.542 280.011 169.394C280.48 169.221 280.949 169.061 281.417 168.913C281.911 168.765 282.318 168.642 282.638 168.543C282.712 168.543 282.823 168.543 282.971 168.543C283.144 168.543 283.329 168.543 283.526 168.543C283.748 168.543 283.958 168.543 284.155 168.543C284.797 168.642 285.45 168.827 286.116 169.098C286.807 169.369 287.387 169.752 287.855 170.245C288.151 170.516 288.41 170.837 288.632 171.207C288.879 171.577 289.187 172.181 289.557 173.02C289.557 173.119 289.582 173.328 289.631 173.649C289.705 173.945 289.742 174.241 289.742 174.537C289.742 175.277 289.557 176.054 289.187 176.868C288.817 177.682 288.287 178.508 287.596 179.347C286.906 180.161 286.067 180.975 285.08 181.789C284.044 182.628 282.971 183.195 281.861 183.491C280.751 183.787 279.765 183.849 278.901 183.676C278.729 183.602 278.568 183.454 278.42 183.232C278.297 183.01 278.211 182.788 278.161 182.566C278.112 182.344 278.124 182.196 278.198 182.122C278.396 182.073 278.692 182.06 279.086 182.085C279.481 182.085 280.11 181.925 280.973 181.604C281.245 181.505 281.528 181.394 281.824 181.271C282.12 181.123 282.355 181 282.527 180.901C283.021 180.58 283.588 180.149 284.229 179.606C284.871 179.063 285.463 178.36 286.005 177.497C286.227 177.152 286.449 176.745 286.671 176.276C286.893 175.783 287.078 175.289 287.226 174.796C287.399 174.303 287.485 173.896 287.485 173.575C287.683 172.934 287.559 172.403 287.115 171.984C286.696 171.54 286.018 171.269 285.08 171.17C284.784 171.096 284.328 171.121 283.711 171.244C283.095 171.343 282.503 171.478 281.935 171.651C281.368 171.824 280.986 171.972 280.788 172.095C280.69 172.095 280.628 172.169 280.603 172.317C280.579 172.465 280.517 172.638 280.418 172.835C280.418 173.008 280.344 173.378 280.196 173.945C280.048 174.488 279.876 174.993 279.678 175.462C279.506 176.005 279.296 176.609 279.049 177.275C278.803 177.916 278.63 178.422 278.531 178.792C278.433 179.187 278.309 179.569 278.161 179.939C278.038 180.309 277.976 180.494 277.976 180.494C277.976 180.593 277.902 180.802 277.754 181.123C277.631 181.444 277.52 181.789 277.421 182.159C277.323 182.628 277.187 183.158 277.014 183.75C276.866 184.342 276.694 184.872 276.496 185.341C276.225 186.254 275.991 187.166 275.793 188.079C275.596 188.967 275.584 189.547 275.756 189.818C276.028 189.818 276.126 190.04 276.052 190.484C275.978 190.903 275.756 191.483 275.386 192.223C275.14 192.84 274.955 193.259 274.831 193.481C274.708 193.728 274.597 193.863 274.498 193.888C274.4 193.913 274.252 193.925 274.054 193.925ZM217.861 248.515C217.392 248.589 216.96 248.626 216.566 248.626C216.171 248.651 215.591 248.564 214.827 248.367C214.432 248.244 214.148 248.096 213.976 247.923C213.828 247.75 213.569 247.43 213.199 246.961C212.927 246.566 212.73 246.196 212.607 245.851C212.508 245.53 212.496 245.271 212.57 245.074C212.644 244.901 212.804 244.852 213.051 244.926C213.125 244.951 213.236 245.025 213.384 245.148C213.556 245.296 213.717 245.469 213.865 245.666C214.21 246.036 214.629 246.283 215.123 246.406C215.616 246.529 216.27 246.542 217.084 246.443C217.429 246.369 217.848 246.258 218.342 246.11C218.835 245.987 219.316 245.826 219.785 245.629C220.253 245.432 220.623 245.234 220.895 245.037C222.202 244.149 223.25 243.446 224.04 242.928C224.829 242.41 225.224 242.151 225.224 242.151C225.273 242.052 225.359 241.978 225.483 241.929C225.631 241.855 225.803 241.781 226.001 241.707C226.149 241.559 226.383 241.325 226.704 241.004C227.049 240.683 227.37 240.363 227.666 240.042C227.986 239.721 228.184 239.536 228.258 239.487C228.307 239.265 228.356 239.092 228.406 238.969C228.455 238.821 228.48 238.673 228.48 238.525C228.677 238.328 228.936 237.921 229.257 237.304C229.602 236.663 229.947 235.96 230.293 235.195C230.638 234.406 230.885 233.69 231.033 233.049C231.378 231.322 231.464 229.867 231.292 228.683C231.119 227.499 230.761 226.488 230.219 225.649C229.701 224.786 229.047 224.021 228.258 223.355C227.986 223.133 227.604 222.899 227.111 222.652C226.642 222.381 226.149 222.146 225.631 221.949C225.113 221.752 224.656 221.591 224.262 221.468C223.892 221.345 223.67 221.295 223.596 221.32C223.497 221.345 223.287 221.739 222.967 222.504C222.671 223.244 222.313 224.194 221.894 225.353C221.474 226.512 221.018 227.746 220.525 229.053C220.056 230.36 219.612 231.594 219.193 232.753C219.045 233.222 218.884 233.715 218.712 234.233C218.539 234.751 218.391 235.207 218.268 235.602C218.144 235.972 218.083 236.219 218.083 236.342C217.811 236.761 217.589 237.316 217.417 238.007C217.269 238.698 217.096 239.845 216.899 241.448C216.677 242.287 216.516 242.928 216.418 243.372C216.319 243.791 216.22 243.989 216.122 243.964C216.122 243.964 216.109 243.976 216.085 244.001C216.085 244.001 216.048 244.038 215.974 244.112C215.974 244.26 215.875 244.334 215.678 244.334C215.48 244.334 215.246 244.285 214.975 244.186C214.728 244.063 214.531 243.927 214.383 243.779C214.309 243.508 214.259 243.249 214.235 243.002C214.235 242.755 214.333 242.274 214.531 241.559C214.654 241.09 214.802 240.523 214.975 239.857C215.172 239.166 215.382 238.463 215.604 237.748C215.826 237.008 216.035 236.33 216.233 235.713C216.43 235.096 216.578 234.628 216.677 234.307C216.849 233.888 217.096 233.098 217.417 231.939C217.614 231.298 217.811 230.656 218.009 230.015C218.231 229.374 218.44 228.806 218.638 228.313C218.835 227.795 218.971 227.462 219.045 227.314C219.168 226.993 219.353 226.451 219.6 225.686C219.846 224.921 220.167 224.07 220.562 223.133L220.821 221.912L220.414 221.727C220.118 221.826 219.883 221.863 219.711 221.838C219.563 221.789 219.464 221.752 219.415 221.727C219.267 221.776 219.057 221.739 218.786 221.616C218.514 221.493 218.268 221.332 218.046 221.135C217.848 220.938 217.725 220.765 217.676 220.617C217.626 220.518 217.589 220.395 217.565 220.247C217.565 220.074 217.565 219.988 217.565 219.988C217.589 219.84 217.774 219.704 218.12 219.581C218.465 219.433 218.909 219.31 219.452 219.211C220.019 219.112 220.623 219.051 221.265 219.026C221.931 218.977 222.572 218.977 223.189 219.026C223.83 219.075 224.434 219.211 225.002 219.433C225.569 219.655 226.186 219.889 226.852 220.136C227.641 220.432 228.467 220.95 229.331 221.69C230.219 222.405 231.02 223.256 231.736 224.243C232.476 225.23 232.969 226.266 233.216 227.351C233.29 227.647 233.364 228.066 233.438 228.609C233.512 229.152 233.549 229.682 233.549 230.2C233.573 230.693 233.524 231.014 233.401 231.162C233.351 231.261 233.314 231.384 233.29 231.532C233.29 231.655 233.339 231.742 233.438 231.791C233.413 231.865 233.327 232.149 233.179 232.642C233.031 233.111 232.895 233.518 232.772 233.863C232.722 234.504 232.574 235.17 232.328 235.861C232.081 236.552 231.81 237.205 231.514 237.822C231.218 238.414 230.946 238.92 230.7 239.339C230.601 239.339 230.502 239.364 230.404 239.413C230.33 239.438 230.342 239.462 230.441 239.487C230.441 239.61 230.305 239.845 230.034 240.19C229.935 240.264 229.775 240.449 229.553 240.745C229.355 241.016 229.195 241.201 229.072 241.3C229.047 241.473 228.973 241.621 228.85 241.744C228.726 241.843 228.615 241.892 228.517 241.892C228.517 241.892 228.492 241.892 228.443 241.892C228.418 241.892 228.406 241.941 228.406 242.04C228.208 242.336 227.9 242.694 227.481 243.113C227.061 243.508 226.58 243.927 226.038 244.371C225.52 244.79 224.977 245.185 224.41 245.555C223.867 245.925 223.349 246.209 222.856 246.406C222.609 246.579 222.35 246.714 222.079 246.813C221.807 246.936 221.548 247.06 221.302 247.183C221.178 247.282 220.907 247.417 220.488 247.59C220.068 247.787 219.612 247.972 219.119 248.145C218.65 248.318 218.231 248.441 217.861 248.515ZM240.768 245.888C240.004 245.839 239.325 245.604 238.733 245.185C238.166 244.766 237.562 244.334 236.92 243.89C236.501 243.471 236.168 243.027 235.921 242.558C235.675 242.065 235.477 241.423 235.329 240.634C235.231 240.165 235.231 239.573 235.329 238.858C235.428 238.143 235.588 237.427 235.81 236.712C236.032 235.972 236.242 235.38 236.439 234.936C236.735 234.245 237.105 233.505 237.549 232.716C238.018 231.902 238.474 231.137 238.918 230.422C239.387 229.682 239.757 229.09 240.028 228.646C240.201 228.473 240.275 228.387 240.25 228.387C240.25 228.362 240.25 228.35 240.25 228.35C240.25 228.227 240.374 227.918 240.62 227.425C240.892 226.907 241.126 226.451 241.323 226.056C241.693 225.661 241.903 225.341 241.952 225.094C242.002 224.847 241.965 224.65 241.841 224.502C241.792 224.403 241.878 224.231 242.1 223.984C242.322 223.737 242.655 223.454 243.099 223.133C243.543 222.812 244.049 222.492 244.616 222.171C245.208 221.702 245.776 221.456 246.318 221.431C246.886 221.382 247.219 221.493 247.317 221.764C247.317 221.838 247.453 221.863 247.724 221.838C248.02 221.789 248.353 221.727 248.723 221.653C249.118 221.554 249.463 221.48 249.759 221.431C249.883 221.283 250.166 221.172 250.61 221.098C251.079 220.999 251.622 220.913 252.238 220.839C252.559 220.864 252.867 220.876 253.163 220.876C253.484 220.851 253.743 220.827 253.94 220.802C254.162 220.777 254.273 220.765 254.273 220.765C254.446 220.716 254.643 220.74 254.865 220.839C255.112 220.938 255.334 221.209 255.531 221.653C255.704 222.097 255.642 222.43 255.346 222.652C255.075 222.874 254.434 223.047 253.422 223.17C252.682 223.269 252.041 223.355 251.498 223.429C250.956 223.478 250.388 223.552 249.796 223.651C249.204 223.725 248.477 223.861 247.613 224.058C246.997 224.181 246.491 224.329 246.096 224.502C245.702 224.65 245.356 224.884 245.06 225.205C244.764 225.501 244.431 225.933 244.061 226.5C243.889 226.623 243.667 226.944 243.395 227.462C243.124 227.98 242.853 228.498 242.581 229.016C241.891 229.978 241.286 230.817 240.768 231.532C240.275 232.223 240.078 232.63 240.176 232.753C240.176 232.753 240.312 232.79 240.583 232.864C240.855 232.938 241.04 232.975 241.138 232.975C241.385 232.852 241.681 232.765 242.026 232.716C242.396 232.667 242.692 232.617 242.914 232.568C244.444 232.173 245.64 231.865 246.503 231.643C247.391 231.421 248.057 231.261 248.501 231.162C248.97 231.039 249.328 230.965 249.574 230.94C249.92 230.669 250.253 230.619 250.573 230.792C250.919 230.965 251.19 231.236 251.387 231.606C251.511 231.877 251.511 232.112 251.387 232.309C251.289 232.506 250.98 232.704 250.462 232.901C249.969 233.098 249.229 233.333 248.242 233.604C247.256 233.875 245.961 234.233 244.357 234.677C243.001 235.072 241.841 235.306 240.879 235.38C239.917 235.454 239.461 235.244 239.51 234.751C239.338 234.652 239.14 234.776 238.918 235.121C238.721 235.442 238.524 235.886 238.326 236.453C238.129 237.02 237.956 237.625 237.808 238.266C237.685 238.907 237.599 239.512 237.549 240.079C237.525 240.622 237.562 241.029 237.66 241.3C237.858 241.867 238.117 242.324 238.437 242.669C238.758 242.99 239.338 243.273 240.176 243.52C240.67 243.545 241.151 243.582 241.619 243.631C242.088 243.68 242.618 243.582 243.21 243.335C244.666 243.088 245.813 242.829 246.651 242.558C247.49 242.287 247.971 242.102 248.094 242.003C248.292 241.904 248.415 241.855 248.464 241.855C248.538 241.83 248.637 241.818 248.76 241.818C248.686 241.941 248.711 241.954 248.834 241.855C248.982 241.732 249.18 241.547 249.426 241.3C249.698 241.053 250.055 240.819 250.499 240.597C250.943 240.375 251.338 240.202 251.683 240.079C252.053 239.956 252.251 239.956 252.275 240.079C252.423 240.326 252.399 240.671 252.201 241.115C252.004 241.534 251.646 242.003 251.128 242.521C250.61 243.014 249.944 243.495 249.13 243.964C247.823 244.655 246.405 245.136 244.875 245.407C243.346 245.703 241.977 245.863 240.768 245.888ZM261.767 245.666C261.767 245.666 261.705 245.654 261.582 245.629C261.483 245.604 261.372 245.506 261.249 245.333C260.78 245.456 260.46 245.296 260.287 244.852C260.139 244.383 260.114 243.631 260.213 242.595C260.361 241.46 260.447 240.387 260.472 239.376C260.497 238.34 260.497 237.156 260.472 235.824C260.447 235.627 260.447 235.417 260.472 235.195C260.521 234.948 260.546 234.776 260.546 234.677C260.571 234.307 260.583 233.801 260.583 233.16C260.583 232.494 260.583 231.84 260.583 231.199C260.583 230.558 260.608 230.089 260.657 229.793C260.632 229.546 260.62 229.312 260.62 229.09C260.62 228.843 260.62 228.597 260.62 228.35C260.645 228.079 260.657 227.807 260.657 227.536C260.632 227.437 260.595 227.178 260.546 226.759C260.521 226.315 260.484 225.822 260.435 225.279C260.46 224.761 260.447 224.391 260.398 224.169C260.373 223.922 260.336 223.737 260.287 223.614C260.238 223.466 260.164 223.306 260.065 223.133C259.818 222.936 259.658 222.775 259.584 222.652C259.535 222.529 259.547 222.418 259.621 222.319C259.695 222.22 259.806 222.134 259.954 222.06C260.102 221.961 260.275 221.912 260.472 221.912C260.669 221.912 260.879 221.949 261.101 222.023C261.348 222.097 261.607 222.22 261.878 222.393C261.977 222.393 262.051 222.492 262.1 222.689C262.174 222.886 262.334 223.158 262.581 223.503C262.704 223.651 262.778 223.996 262.803 224.539C262.828 225.057 262.84 225.686 262.84 226.426C262.84 227.141 262.815 227.869 262.766 228.609C262.741 229.349 262.704 230.015 262.655 230.607C262.68 230.804 262.692 231.026 262.692 231.273C262.692 231.52 262.692 231.779 262.692 232.05C262.692 232.321 262.692 232.58 262.692 232.827C262.717 233.049 262.741 233.259 262.766 233.456C262.791 233.727 262.803 234.097 262.803 234.566C262.828 235.01 262.815 235.331 262.766 235.528C262.717 235.701 262.692 235.923 262.692 236.194C262.692 236.441 262.692 236.823 262.692 237.341C262.717 237.834 262.741 238.562 262.766 239.524C262.741 240.017 262.717 240.474 262.692 240.893C262.692 241.312 262.704 241.633 262.729 241.855C262.778 242.077 262.865 242.151 262.988 242.077C263.235 241.436 263.457 240.881 263.654 240.412C263.851 239.919 264.098 239.376 264.394 238.784C264.443 238.71 264.542 238.513 264.69 238.192C264.863 237.871 265.011 237.551 265.134 237.23C265.282 236.885 265.344 236.687 265.319 236.638C265.319 236.638 265.344 236.589 265.393 236.49C265.442 236.367 265.516 236.231 265.615 236.083C265.714 235.935 265.837 235.799 265.985 235.676C266.182 235.405 266.293 235.195 266.318 235.047C266.367 234.899 266.552 234.628 266.873 234.233C267.095 233.863 267.391 233.32 267.761 232.605C268.156 231.89 268.563 231.125 268.982 230.311C269.426 229.497 269.845 228.745 270.24 228.054C270.659 227.363 270.992 226.858 271.239 226.537C271.288 226.414 271.338 226.29 271.387 226.167C271.461 226.044 271.523 225.933 271.572 225.834C271.646 225.711 271.72 225.612 271.794 225.538C271.868 225.464 271.954 225.402 272.053 225.353C272.102 225.156 272.226 224.884 272.423 224.539C272.645 224.194 272.818 223.848 272.941 223.503C273.558 222.738 274.002 222.134 274.273 221.69C274.569 221.221 274.803 220.876 274.976 220.654C275.198 220.432 275.395 220.259 275.568 220.136C275.765 219.988 275.913 219.914 276.012 219.914C276.209 219.963 276.444 220.111 276.715 220.358C276.986 220.58 277.221 220.827 277.418 221.098C277.615 221.345 277.689 221.53 277.64 221.653C277.566 221.727 277.443 221.9 277.27 222.171C277.097 222.418 276.863 222.726 276.567 223.096C276.296 223.441 275.975 223.799 275.605 224.169C275.383 224.416 275.161 224.773 274.939 225.242C274.717 225.686 274.47 226.081 274.199 226.426C274.026 226.771 273.78 227.178 273.459 227.647C273.138 228.091 272.879 228.461 272.682 228.757C272.559 229.053 272.411 229.312 272.238 229.534C272.065 229.731 271.88 229.953 271.683 230.2C271.732 230.373 271.708 230.496 271.609 230.57C271.51 230.644 271.436 230.73 271.387 230.829C271.091 231.495 270.869 231.964 270.721 232.235C270.573 232.506 270.363 232.815 270.092 233.16C269.993 233.333 269.858 233.542 269.685 233.789C269.512 234.011 269.377 234.27 269.278 234.566C269.105 234.739 268.982 234.887 268.908 235.01C268.834 235.109 268.809 235.22 268.834 235.343C268.834 235.343 268.76 235.479 268.612 235.75C268.464 236.021 268.328 236.367 268.205 236.786C268.032 237.057 267.847 237.341 267.65 237.637C267.453 237.933 267.305 238.217 267.206 238.488C267.132 238.611 267.033 238.735 266.91 238.858C266.787 238.957 266.725 239.055 266.725 239.154C266.626 239.253 266.503 239.45 266.355 239.746C266.207 240.017 266.047 240.35 265.874 240.745C265.652 241.041 265.405 241.485 265.134 242.077C264.863 242.644 264.628 243.076 264.431 243.372C264.308 243.693 264.135 244.05 263.913 244.445C263.691 244.84 263.518 245.136 263.395 245.333C263.222 245.752 262.988 246.011 262.692 246.11C262.421 246.209 262.112 246.061 261.767 245.666ZM282.198 246.406C281.211 246.406 280.323 246.344 279.534 246.221C278.769 246.122 278.066 245.826 277.425 245.333C276.66 244.766 276.216 244.026 276.093 243.113C275.994 242.176 276.179 240.831 276.648 239.08C276.771 238.463 276.907 237.921 277.055 237.452C277.228 236.983 277.376 236.749 277.499 236.749C277.524 236.626 277.561 236.453 277.61 236.231C277.659 235.984 277.709 235.701 277.758 235.38C277.881 234.936 277.968 234.615 278.017 234.418C278.066 234.196 278.165 234.011 278.313 233.863C278.387 233.814 278.473 233.653 278.572 233.382C278.671 233.086 278.732 232.913 278.757 232.864C278.757 232.864 278.769 232.778 278.794 232.605C278.819 232.408 278.88 232.186 278.979 231.939C279.349 231.322 279.534 230.915 279.534 230.718C279.583 230.619 279.682 230.471 279.83 230.274C280.003 230.077 280.138 229.818 280.237 229.497C280.977 228.19 281.581 227.067 282.05 226.13C282.519 225.168 282.802 224.453 282.901 223.984C283.024 223.713 283.135 223.478 283.234 223.281C283.357 223.059 283.505 222.849 283.678 222.652C283.629 222.529 283.727 222.393 283.974 222.245C284.221 222.097 284.566 221.937 285.01 221.764C285.454 221.591 285.935 221.443 286.453 221.32C286.996 221.197 287.526 221.123 288.044 221.098C288.192 220.999 288.513 220.925 289.006 220.876C289.524 220.827 290.116 220.802 290.782 220.802C291.448 220.802 292.065 220.827 292.632 220.876C293.175 220.876 293.606 220.95 293.927 221.098C294.248 221.246 294.568 221.394 294.889 221.542C295.012 221.665 295.099 221.813 295.148 221.986C295.222 222.159 295.271 222.319 295.296 222.467C295.321 222.59 295.333 222.652 295.333 222.652C295.333 222.775 294.988 222.849 294.297 222.874C293.606 222.899 292.854 222.911 292.04 222.911C291.127 222.911 290.252 222.985 289.413 223.133C288.574 223.281 288.019 223.355 287.748 223.355C287.403 223.454 287.094 223.515 286.823 223.54C286.576 223.565 286.453 223.577 286.453 223.577C286.404 223.577 286.243 223.774 285.972 224.169C285.725 224.539 285.442 224.983 285.121 225.501C284.825 225.994 284.554 226.463 284.307 226.907C284.085 227.326 283.974 227.573 283.974 227.647C283.974 227.894 283.875 228.165 283.678 228.461C283.481 228.757 283.246 229.102 282.975 229.497C282.728 229.818 282.568 230.114 282.494 230.385C282.42 230.632 282.494 230.804 282.716 230.903C283.111 230.829 283.641 230.755 284.307 230.681C284.998 230.607 285.676 230.545 286.342 230.496C287.033 230.422 287.563 230.385 287.933 230.385C288.352 230.262 288.698 230.237 288.969 230.311C289.24 230.385 289.438 230.459 289.561 230.533C289.857 230.582 290.067 230.681 290.19 230.829C290.313 230.952 290.363 231.076 290.338 231.199C290.338 231.322 290.252 231.421 290.079 231.495C289.931 231.643 289.561 231.816 288.969 232.013C288.377 232.21 287.686 232.408 286.897 232.605C286.108 232.802 285.306 232.987 284.492 233.16C283.703 233.308 283.024 233.431 282.457 233.53C281.89 233.629 281.557 233.666 281.458 233.641C281.31 233.296 281.199 233.308 281.125 233.678C281.076 234.023 280.804 234.739 280.311 235.824C280.04 236.441 279.793 237.033 279.571 237.6C279.374 238.143 279.201 238.722 279.053 239.339C278.93 239.931 278.794 240.609 278.646 241.374C278.473 242.04 278.424 242.583 278.498 243.002C278.597 243.397 279.041 243.779 279.83 244.149C280.323 244.248 280.977 244.285 281.791 244.26C282.63 244.235 283.579 244.087 284.64 243.816C285.084 243.545 285.491 243.335 285.861 243.187C286.231 243.014 286.502 242.879 286.675 242.78C286.798 242.78 286.983 242.755 287.23 242.706C287.501 242.632 287.686 242.595 287.785 242.595C287.982 242.324 288.229 242.188 288.525 242.188C288.574 242.188 288.685 242.287 288.858 242.484C289.055 242.657 289.24 242.854 289.413 243.076C289.586 243.298 289.66 243.446 289.635 243.52C289.635 243.767 289.364 244.013 288.821 244.26C288.278 244.507 287.39 244.877 286.157 245.37C285.54 245.641 285.035 245.851 284.64 245.999C284.27 246.147 283.912 246.246 283.567 246.295C283.222 246.369 282.765 246.406 282.198 246.406ZM299.341 246.147C298.576 246.024 297.947 245.74 297.454 245.296C296.985 244.877 296.628 244.334 296.381 243.668C296.208 243.224 296.085 242.829 296.011 242.484C295.937 242.114 296.023 241.522 296.27 240.708C296.344 239.869 296.467 239.018 296.64 238.155C296.837 237.267 297.096 236.367 297.417 235.454C297.417 235.454 297.479 235.244 297.602 234.825C297.725 234.406 297.873 233.986 298.046 233.567C298.342 232.63 298.774 231.557 299.341 230.348C299.908 229.139 300.525 227.943 301.191 226.759C301.857 225.55 302.498 224.502 303.115 223.614C303.756 222.701 304.287 222.085 304.706 221.764C304.928 221.567 305.162 221.431 305.409 221.357C305.68 221.258 305.915 221.234 306.112 221.283C306.309 221.308 306.408 221.419 306.408 221.616C306.359 221.764 306.334 221.85 306.334 221.875C306.334 221.9 306.383 221.924 306.482 221.949C306.704 221.974 306.766 222.146 306.667 222.467C306.568 222.788 306.383 223.133 306.112 223.503C305.841 223.873 305.532 224.157 305.187 224.354C305.187 224.354 305.162 224.44 305.113 224.613C305.064 224.761 304.903 224.934 304.632 225.131C304.533 225.427 304.435 225.674 304.336 225.871C304.237 226.068 304.188 226.167 304.188 226.167C304.188 226.167 304.126 226.266 304.003 226.463C303.88 226.636 303.756 226.87 303.633 227.166C303.411 227.437 303.226 227.684 303.078 227.906C302.955 228.103 302.893 228.264 302.893 228.387C302.893 228.387 302.819 228.523 302.671 228.794C302.548 229.041 302.412 229.312 302.264 229.608C302.141 229.879 302.079 230.052 302.079 230.126C302.079 230.126 302.03 230.163 301.931 230.237C301.857 230.286 301.82 230.311 301.82 230.311C301.82 230.434 301.746 230.718 301.598 231.162C301.45 231.581 301.24 231.988 300.969 232.383C300.648 233.074 300.389 233.752 300.192 234.418C300.019 235.084 299.871 235.516 299.748 235.713C299.699 235.812 299.662 235.947 299.637 236.12C299.538 236.219 299.427 236.465 299.304 236.86C299.181 237.255 299.094 237.773 299.045 238.414C298.872 238.932 298.712 239.376 298.564 239.746C298.441 240.116 298.379 240.301 298.379 240.301C298.231 240.276 298.145 240.449 298.12 240.819C298.095 241.189 298.108 241.621 298.157 242.114C298.206 242.583 298.243 242.977 298.268 243.298C298.465 243.594 298.724 243.767 299.045 243.816C299.39 243.841 299.982 243.828 300.821 243.779C301.117 243.828 301.462 243.828 301.857 243.779C302.252 243.705 302.609 243.693 302.93 243.742C303.152 243.742 303.497 243.73 303.966 243.705C304.435 243.656 304.891 243.594 305.335 243.52C306.1 243.446 306.556 243.421 306.704 243.446C306.877 243.446 307.049 243.545 307.222 243.742C307.518 244.137 307.604 244.42 307.481 244.593C307.382 244.766 307.099 244.914 306.63 245.037C305.693 245.284 304.743 245.493 303.781 245.666C302.819 245.863 301.943 245.999 301.154 246.073C300.365 246.147 299.76 246.172 299.341 246.147ZM315.019 245.518C314.575 245.444 314.107 245.271 313.613 245C313.12 244.753 312.676 244.47 312.281 244.149C311.911 243.804 311.652 243.471 311.504 243.15C311.06 242.385 310.801 241.571 310.727 240.708C310.653 239.82 310.814 238.994 311.208 238.229C311.258 237.958 311.295 237.662 311.319 237.341C311.369 237.02 311.393 236.749 311.393 236.527C311.393 236.527 311.43 236.478 311.504 236.379C311.603 236.256 311.652 236.194 311.652 236.194C311.726 236.194 311.776 236.157 311.8 236.083C311.825 236.009 311.862 235.91 311.911 235.787C312.01 235.614 312.084 235.491 312.133 235.417C312.207 235.343 312.244 235.306 312.244 235.306C312.392 235.306 312.479 235.257 312.503 235.158C312.528 235.035 312.528 234.763 312.503 234.344C312.479 234.245 312.479 234.159 312.503 234.085C312.528 234.011 312.54 233.937 312.54 233.863C312.664 233.74 312.762 233.641 312.836 233.567C312.91 233.493 312.947 233.407 312.947 233.308C313.046 233.234 313.132 233.172 313.206 233.123C313.305 233.074 313.354 233.049 313.354 233.049C313.502 233.098 313.576 233.111 313.576 233.086C313.601 233.037 313.663 232.975 313.761 232.901C313.761 232.778 313.835 232.519 313.983 232.124C314.156 231.729 314.341 231.298 314.538 230.829C314.736 230.36 314.884 229.978 314.982 229.682C315.895 228.029 316.758 226.636 317.572 225.501C318.386 224.342 319.163 223.417 319.903 222.726C320.668 222.011 321.396 221.505 322.086 221.209C322.21 221.16 322.395 221.135 322.641 221.135C322.913 221.11 323.172 221.086 323.418 221.061C323.764 221.061 324.146 221.123 324.565 221.246C324.985 221.345 325.355 221.456 325.675 221.579C325.996 221.678 326.169 221.764 326.193 221.838C326.193 221.937 326.23 221.998 326.304 222.023C326.378 222.048 326.415 222.06 326.415 222.06C326.563 222.035 326.748 222.171 326.97 222.467C327.192 222.763 327.427 223.133 327.673 223.577C327.945 224.021 328.167 224.465 328.339 224.909C328.611 225.304 328.759 225.883 328.783 226.648C328.808 227.413 328.796 228.165 328.746 228.905C328.672 229.448 328.561 230.052 328.413 230.718C328.265 231.384 328.105 232.001 327.932 232.568C327.784 233.111 327.661 233.505 327.562 233.752C327.538 233.826 327.476 233.986 327.377 234.233C327.303 234.48 327.217 234.726 327.118 234.973C327.044 235.22 326.983 235.405 326.933 235.528C326.711 236.169 326.403 236.885 326.008 237.674C325.638 238.439 325.231 239.179 324.787 239.894C324.343 240.609 323.912 241.201 323.492 241.67C323.073 242.139 322.715 242.385 322.419 242.41C322.419 242.41 322.395 242.422 322.345 242.447C322.321 242.472 322.308 242.533 322.308 242.632C322.308 242.681 322.111 242.879 321.716 243.224C321.346 243.569 320.927 243.927 320.458 244.297C320.014 244.642 319.681 244.901 319.459 245.074C318.941 245.247 318.399 245.382 317.831 245.481C317.289 245.604 316.771 245.666 316.277 245.666C315.784 245.666 315.365 245.617 315.019 245.518ZM315.204 243.52C316.018 243.52 316.771 243.434 317.461 243.261C318.177 243.064 318.867 242.743 319.533 242.299C320.224 241.83 320.902 241.201 321.568 240.412C321.692 240.141 321.827 239.894 321.975 239.672C322.123 239.45 322.197 239.339 322.197 239.339C322.345 239.314 322.419 239.24 322.419 239.117C322.419 239.117 322.444 239.031 322.493 238.858C322.543 238.661 322.617 238.513 322.715 238.414C322.962 238.217 323.172 238.056 323.344 237.933C323.542 237.785 323.64 237.711 323.64 237.711C323.64 237.637 323.677 237.452 323.751 237.156C323.85 236.86 323.961 236.564 324.084 236.268C324.208 235.972 324.306 235.799 324.38 235.75C324.43 235.701 324.541 235.429 324.713 234.936C324.911 234.418 325.096 233.838 325.268 233.197C325.466 232.531 325.564 231.988 325.564 231.569C325.688 231.446 325.786 231.322 325.86 231.199C325.959 231.051 326.008 230.977 326.008 230.977C326.107 230.903 326.144 230.829 326.119 230.755C326.119 230.656 326.119 230.496 326.119 230.274C326.119 229.929 326.144 229.682 326.193 229.534C326.243 229.386 326.267 229.312 326.267 229.312C326.391 229.189 326.452 229.115 326.452 229.09C326.477 229.041 326.465 229.004 326.415 228.979C326.095 228.782 326.095 228.646 326.415 228.572C326.465 228.449 326.477 228.202 326.452 227.832C326.428 227.437 326.378 227.006 326.304 226.537C326.255 226.044 326.181 225.587 326.082 225.168C326.008 224.724 325.934 224.416 325.86 224.243C325.663 223.972 325.404 223.787 325.083 223.688C324.787 223.565 324.306 223.602 323.64 223.799C322.9 223.972 322.308 224.243 321.864 224.613C321.42 224.983 320.841 225.538 320.125 226.278C320.027 226.648 319.891 226.956 319.718 227.203C319.546 227.45 319.422 227.573 319.348 227.573C319.25 227.573 319.151 227.647 319.052 227.795C318.954 227.943 318.892 228.128 318.867 228.35C318.448 228.597 318.14 228.819 317.942 229.016C317.745 229.189 317.622 229.337 317.572 229.46C317.326 229.855 317.017 230.434 316.647 231.199C316.302 231.939 315.932 232.765 315.537 233.678C315.167 234.566 314.81 235.454 314.464 236.342C314.144 237.23 313.872 238.044 313.65 238.784C313.428 239.499 313.293 240.042 313.243 240.412C313.046 240.93 312.972 241.436 313.021 241.929C313.071 242.398 313.206 242.657 313.428 242.706C313.626 242.928 313.909 243.113 314.279 243.261C314.649 243.409 314.958 243.495 315.204 243.52ZM330.822 246.776C330.526 246.776 330.279 246.616 330.082 246.295C329.934 246.147 329.835 245.937 329.786 245.666C329.761 245.419 329.848 244.963 330.045 244.297C330.242 243.606 330.575 242.558 331.044 241.152C331.291 240.215 331.488 239.536 331.636 239.117C331.784 238.673 331.858 238.352 331.858 238.155C331.858 237.884 331.883 237.662 331.932 237.489C332.006 237.292 332.043 237.107 332.043 236.934C332.191 236.934 332.339 236.798 332.487 236.527C332.635 236.256 332.758 235.886 332.857 235.417C332.956 234.998 333.042 234.665 333.116 234.418C333.215 234.147 333.264 233.962 333.264 233.863C333.387 233.666 333.511 233.357 333.634 232.938C333.782 232.519 334.004 232.013 334.3 231.421C334.497 230.681 334.719 229.916 334.966 229.127C335.213 228.313 335.459 227.561 335.706 226.87C335.977 226.155 336.199 225.6 336.372 225.205C336.643 224.44 336.853 223.91 337.001 223.614C337.149 223.293 337.149 223.084 337.001 222.985C336.828 222.862 336.791 222.652 336.89 222.356C336.989 222.06 337.26 221.727 337.704 221.357C337.975 221.036 338.21 220.814 338.407 220.691C338.604 220.543 338.851 220.469 339.147 220.469C339.468 220.469 339.924 220.494 340.516 220.543C340.96 220.568 341.429 220.58 341.922 220.58C342.44 220.58 342.761 220.58 342.884 220.58C343.106 220.679 343.377 220.79 343.698 220.913C344.019 221.012 344.302 221.11 344.549 221.209C344.82 221.308 344.956 221.394 344.956 221.468C344.956 221.616 345.005 221.715 345.104 221.764C345.227 221.789 345.351 221.813 345.474 221.838C345.647 221.838 345.881 221.974 346.177 222.245C346.473 222.492 346.781 222.812 347.102 223.207C347.423 223.577 347.669 223.972 347.842 224.391C348.039 224.81 348.187 225.205 348.286 225.575C348.409 225.945 348.409 226.475 348.286 227.166C348.261 227.536 348.2 227.906 348.101 228.276C348.027 228.646 347.941 228.893 347.842 229.016C347.694 229.115 347.558 229.238 347.435 229.386C347.312 229.534 347.25 229.67 347.25 229.793C347.25 229.892 347.164 230.089 346.991 230.385C346.818 230.656 346.596 230.977 346.325 231.347C346.054 231.717 345.758 232.087 345.437 232.457C345.116 232.827 344.808 233.148 344.512 233.419C344.191 233.814 343.809 234.184 343.365 234.529C342.946 234.874 342.563 235.158 342.218 235.38C341.577 235.676 340.861 235.972 340.072 236.268C339.307 236.564 338.567 236.811 337.852 237.008C337.161 237.205 336.582 237.292 336.113 237.267C335.398 237.366 334.929 237.464 334.707 237.563C334.51 237.637 334.362 237.847 334.263 238.192C334.14 238.513 334.016 238.846 333.893 239.191C333.794 239.512 333.745 239.734 333.745 239.857C333.696 239.956 333.572 240.264 333.375 240.782C333.202 241.275 333.005 241.855 332.783 242.521C332.586 243.187 332.388 243.841 332.191 244.482C331.994 245.123 331.846 245.654 331.747 246.073C331.648 246.418 331.525 246.616 331.377 246.665C331.229 246.739 331.044 246.776 330.822 246.776ZM335.41 235.306C335.509 235.405 335.891 235.417 336.557 235.343C337.223 235.269 337.938 235.084 338.703 234.788C339.196 234.615 339.69 234.406 340.183 234.159C340.701 233.912 341.194 233.641 341.663 233.345C341.91 233.172 342.28 232.864 342.773 232.42C343.266 231.976 343.76 231.446 344.253 230.829C344.327 230.706 344.45 230.471 344.623 230.126C344.82 229.756 344.993 229.411 345.141 229.09C345.363 228.745 345.585 228.239 345.807 227.573C346.029 226.882 346.078 226.315 345.955 225.871C345.832 225.23 345.511 224.638 344.993 224.095C344.475 223.528 343.858 223.145 343.143 222.948C342.6 222.849 342.144 222.8 341.774 222.8C341.429 222.8 341.046 222.837 340.627 222.911C340.232 223.034 339.936 223.207 339.739 223.429C339.566 223.651 339.332 224.12 339.036 224.835C338.863 225.18 338.617 225.711 338.296 226.426C337.975 227.117 337.704 227.77 337.482 228.387C337.038 230.015 336.594 231.359 336.15 232.42C335.731 233.456 335.472 234.11 335.373 234.381C335.398 234.652 335.385 234.85 335.336 234.973C335.287 235.072 335.311 235.183 335.41 235.306ZM368.944 245.814C368.944 245.814 368.883 245.728 368.759 245.555C368.636 245.407 368.451 245.173 368.204 244.852C368.081 244.507 367.958 243.964 367.834 243.224C367.736 242.459 367.723 241.485 367.797 240.301C367.748 239.931 367.748 239.339 367.797 238.525C367.871 237.711 367.97 236.811 368.093 235.824C368.241 234.813 368.389 233.838 368.537 232.901C368.71 231.964 368.87 231.211 369.018 230.644C369.117 229.09 369.216 228.029 369.314 227.462C369.413 226.87 369.462 226.512 369.462 226.389C369.438 226.29 369.216 226.525 368.796 227.092C368.377 227.635 367.908 228.362 367.39 229.275C367.07 229.793 366.774 230.249 366.502 230.644C366.256 231.014 366.083 231.261 365.984 231.384C365.762 231.705 365.553 232.099 365.355 232.568C365.183 233.012 364.813 233.777 364.245 234.862C363.259 236.391 362.482 237.538 361.914 238.303C361.372 239.043 360.928 239.524 360.582 239.746C360.237 239.943 359.892 240.005 359.546 239.931C358.831 239.758 358.338 239.462 358.066 239.043C357.82 238.624 357.672 237.884 357.622 236.823C357.598 236.157 357.585 235.577 357.585 235.084C357.585 234.591 357.585 234.258 357.585 234.085C357.684 233.863 357.709 233.616 357.659 233.345C357.635 233.074 357.635 232.876 357.659 232.753C357.635 232.654 357.672 232.469 357.77 232.198C357.894 231.902 357.968 231.581 357.992 231.236C358.066 230.767 358.128 230.2 358.177 229.534C358.251 228.843 358.288 228.227 358.288 227.684C358.313 227.141 358.288 226.845 358.214 226.796C358.264 226.895 358.214 227.043 358.066 227.24C357.943 227.413 357.844 227.561 357.77 227.684C357.302 228.301 356.759 229.263 356.142 230.57C355.526 231.853 354.736 233.481 353.774 235.454C353.7 235.997 353.491 236.7 353.145 237.563C352.8 238.426 352.455 239.191 352.109 239.857C351.961 240.252 351.789 240.696 351.591 241.189C351.394 241.658 351.197 242.102 350.999 242.521C350.802 242.94 350.617 243.273 350.444 243.52C350.124 244.408 349.84 244.938 349.593 245.111C349.371 245.308 349.001 245.234 348.483 244.889C348.138 244.568 347.904 244.248 347.78 243.927C347.657 243.606 347.731 243.212 348.002 242.743C348.249 242.472 348.496 242.077 348.742 241.559C349.014 241.041 349.236 240.548 349.408 240.079C349.606 239.61 349.692 239.339 349.667 239.265C349.643 239.166 349.68 239.031 349.778 238.858C349.902 238.661 350.148 238.291 350.518 237.748C350.494 237.649 350.592 237.304 350.814 236.712C351.061 236.095 351.394 235.368 351.813 234.529C351.887 234.406 351.961 234.258 352.035 234.085C352.109 233.912 352.134 233.764 352.109 233.641C352.183 233.542 352.245 233.407 352.294 233.234C352.368 233.061 352.479 232.926 352.627 232.827C352.677 232.605 352.775 232.334 352.923 232.013C353.071 231.692 353.158 231.421 353.182 231.199C353.281 230.977 353.367 230.78 353.441 230.607C353.54 230.434 353.651 230.274 353.774 230.126C353.873 230.052 353.959 229.929 354.033 229.756C354.107 229.583 354.194 229.448 354.292 229.349C354.391 229.053 354.551 228.708 354.773 228.313C354.995 227.918 355.267 227.474 355.587 226.981C355.908 226.488 356.241 225.97 356.586 225.427C356.759 225.156 356.895 224.909 356.993 224.687C357.092 224.44 357.265 224.132 357.511 223.762C357.511 223.762 357.598 223.626 357.77 223.355C357.968 223.084 358.165 222.763 358.362 222.393C358.486 222.22 358.634 221.998 358.806 221.727C358.979 221.431 359.152 221.172 359.324 220.95C359.497 220.728 359.62 220.617 359.694 220.617C359.842 220.592 360.077 220.691 360.397 220.913C360.718 221.135 361.014 221.394 361.285 221.69C361.557 221.986 361.692 222.233 361.692 222.43C361.692 222.529 361.668 222.763 361.618 223.133C361.569 223.503 361.495 223.935 361.396 224.428C361.298 224.921 361.174 225.39 361.026 225.834C361.002 226.352 360.928 226.956 360.804 227.647C360.706 228.338 360.595 229.041 360.471 229.756C360.348 230.471 360.262 231.162 360.212 231.828C360.138 232.667 360.003 233.407 359.805 234.048C359.633 234.689 359.546 235.01 359.546 235.01C359.596 235.109 359.633 235.232 359.657 235.38C359.707 235.503 359.731 235.676 359.731 235.898V236.712L361.137 235.195C361.483 234.652 361.803 234.159 362.099 233.715C362.42 233.246 362.704 232.815 362.95 232.42C362.95 232.297 363 232.161 363.098 232.013C363.222 231.865 363.32 231.668 363.394 231.421C363.542 231.322 363.678 231.174 363.801 230.977C363.949 230.78 364.011 230.57 363.986 230.348C364.233 229.978 364.578 229.485 365.022 228.868C365.466 228.227 365.947 227.548 366.465 226.833C367.008 226.093 367.538 225.378 368.056 224.687C368.574 223.996 369.031 223.404 369.425 222.911C369.845 222.393 370.141 222.06 370.313 221.912C370.659 221.641 371.029 221.493 371.423 221.468C371.843 221.443 372.25 221.641 372.644 222.06C372.965 222.405 373.15 222.738 373.199 223.059C373.249 223.355 373.162 223.787 372.94 224.354C372.644 225.341 372.348 226.266 372.052 227.129C371.756 227.992 371.621 228.597 371.645 228.942C371.547 229.164 371.473 229.435 371.423 229.756C371.374 230.077 371.337 230.336 371.312 230.533C371.214 230.755 371.14 230.965 371.09 231.162C371.066 231.359 370.992 231.507 370.868 231.606C370.868 231.729 370.893 231.939 370.942 232.235C371.016 232.506 371.029 232.79 370.979 233.086C370.634 235.306 370.4 237.156 370.276 238.636C370.153 240.091 370.141 241.201 370.239 241.966C370.363 242.706 370.585 243.125 370.905 243.224C371.004 243.199 371.053 243.249 371.053 243.372C371.078 243.495 371.041 243.791 370.942 244.26C370.967 244.408 370.955 244.581 370.905 244.778C370.881 244.951 370.844 245.111 370.794 245.259C370.745 245.407 370.696 245.518 370.646 245.592C370.424 245.839 370.239 245.974 370.091 245.999C369.968 246.024 369.586 245.962 368.944 245.814ZM380.959 245.888C380.195 245.839 379.516 245.604 378.924 245.185C378.357 244.766 377.753 244.334 377.111 243.89C376.692 243.471 376.359 243.027 376.112 242.558C375.866 242.065 375.668 241.423 375.52 240.634C375.422 240.165 375.422 239.573 375.52 238.858C375.619 238.143 375.779 237.427 376.001 236.712C376.223 235.972 376.433 235.38 376.63 234.936C376.926 234.245 377.296 233.505 377.74 232.716C378.209 231.902 378.665 231.137 379.109 230.422C379.578 229.682 379.948 229.09 380.219 228.646C380.392 228.473 380.466 228.387 380.441 228.387C380.441 228.362 380.441 228.35 380.441 228.35C380.441 228.227 380.565 227.918 380.811 227.425C381.083 226.907 381.317 226.451 381.514 226.056C381.884 225.661 382.094 225.341 382.143 225.094C382.193 224.847 382.156 224.65 382.032 224.502C381.983 224.403 382.069 224.231 382.291 223.984C382.513 223.737 382.846 223.454 383.29 223.133C383.734 222.812 384.24 222.492 384.807 222.171C385.399 221.702 385.967 221.456 386.509 221.431C387.077 221.382 387.41 221.493 387.508 221.764C387.508 221.838 387.644 221.863 387.915 221.838C388.211 221.789 388.544 221.727 388.914 221.653C389.309 221.554 389.654 221.48 389.95 221.431C390.074 221.283 390.357 221.172 390.801 221.098C391.27 220.999 391.813 220.913 392.429 220.839C392.75 220.864 393.058 220.876 393.354 220.876C393.675 220.851 393.934 220.827 394.131 220.802C394.353 220.777 394.464 220.765 394.464 220.765C394.637 220.716 394.834 220.74 395.056 220.839C395.303 220.938 395.525 221.209 395.722 221.653C395.895 222.097 395.833 222.43 395.537 222.652C395.266 222.874 394.625 223.047 393.613 223.17C392.873 223.269 392.232 223.355 391.689 223.429C391.147 223.478 390.579 223.552 389.987 223.651C389.395 223.725 388.668 223.861 387.804 224.058C387.188 224.181 386.682 224.329 386.287 224.502C385.893 224.65 385.547 224.884 385.251 225.205C384.955 225.501 384.622 225.933 384.252 226.5C384.08 226.623 383.858 226.944 383.586 227.462C383.315 227.98 383.044 228.498 382.772 229.016C382.082 229.978 381.477 230.817 380.959 231.532C380.466 232.223 380.269 232.63 380.367 232.753C380.367 232.753 380.503 232.79 380.774 232.864C381.046 232.938 381.231 232.975 381.329 232.975C381.576 232.852 381.872 232.765 382.217 232.716C382.587 232.667 382.883 232.617 383.105 232.568C384.635 232.173 385.831 231.865 386.694 231.643C387.582 231.421 388.248 231.261 388.692 231.162C389.161 231.039 389.519 230.965 389.765 230.94C390.111 230.669 390.444 230.619 390.764 230.792C391.11 230.965 391.381 231.236 391.578 231.606C391.702 231.877 391.702 232.112 391.578 232.309C391.48 232.506 391.171 232.704 390.653 232.901C390.16 233.098 389.42 233.333 388.433 233.604C387.447 233.875 386.152 234.233 384.548 234.677C383.192 235.072 382.032 235.306 381.07 235.38C380.108 235.454 379.652 235.244 379.701 234.751C379.529 234.652 379.331 234.776 379.109 235.121C378.912 235.442 378.715 235.886 378.517 236.453C378.32 237.02 378.147 237.625 377.999 238.266C377.876 238.907 377.79 239.512 377.74 240.079C377.716 240.622 377.753 241.029 377.851 241.3C378.049 241.867 378.308 242.324 378.628 242.669C378.949 242.99 379.529 243.273 380.367 243.52C380.861 243.545 381.342 243.582 381.81 243.631C382.279 243.68 382.809 243.582 383.401 243.335C384.857 243.088 386.004 242.829 386.842 242.558C387.681 242.287 388.162 242.102 388.285 242.003C388.483 241.904 388.606 241.855 388.655 241.855C388.729 241.83 388.828 241.818 388.951 241.818C388.877 241.941 388.902 241.954 389.025 241.855C389.173 241.732 389.371 241.547 389.617 241.3C389.889 241.053 390.246 240.819 390.69 240.597C391.134 240.375 391.529 240.202 391.874 240.079C392.244 239.956 392.442 239.956 392.466 240.079C392.614 240.326 392.59 240.671 392.392 241.115C392.195 241.534 391.837 242.003 391.319 242.521C390.801 243.014 390.135 243.495 389.321 243.964C388.014 244.655 386.596 245.136 385.066 245.407C383.537 245.703 382.168 245.863 380.959 245.888ZM399.914 244.852C399.791 245.148 399.618 245.345 399.396 245.444C399.199 245.567 398.977 245.567 398.73 245.444C398.508 245.345 398.311 245.111 398.138 244.741C397.842 244.47 397.707 244.038 397.731 243.446C397.756 242.829 397.892 242.287 398.138 241.818C398.262 241.596 398.36 241.312 398.434 240.967C398.508 240.597 398.558 240.252 398.582 239.931C398.73 239.413 398.878 238.883 399.026 238.34C399.199 237.773 399.384 237.193 399.581 236.601C399.779 236.009 399.988 235.38 400.21 234.714C400.654 233.357 401.037 232.173 401.357 231.162C401.678 230.151 401.999 229.189 402.319 228.276C402.64 227.339 403.01 226.352 403.429 225.316C403.528 225.119 403.639 224.872 403.762 224.576C403.91 224.255 403.972 223.972 403.947 223.725C404.021 223.33 404.12 223.01 404.243 222.763C404.391 222.492 404.515 222.307 404.613 222.208C404.885 221.887 405.057 221.715 405.131 221.69C405.205 221.641 405.341 221.665 405.538 221.764C405.785 221.813 405.982 221.863 406.13 221.912C406.303 221.937 406.463 222.035 406.611 222.208C406.784 222.381 406.957 222.701 407.129 223.17C407.351 223.515 407.536 223.873 407.684 224.243C407.832 224.613 407.857 225.119 407.758 225.76C407.808 226.303 407.857 226.858 407.906 227.425C407.98 227.992 408.042 228.56 408.091 229.127C408.165 229.67 408.215 230.2 408.239 230.718C408.289 231.236 408.301 231.729 408.276 232.198C408.276 232.617 408.301 233.234 408.35 234.048C408.424 234.837 408.511 235.676 408.609 236.564C408.733 237.427 408.856 238.18 408.979 238.821C409.127 239.462 409.275 239.832 409.423 239.931C409.522 239.98 409.658 239.894 409.83 239.672C410.028 239.425 410.287 238.759 410.607 237.674C410.706 237.329 410.842 236.996 411.014 236.675C411.212 236.354 411.409 235.997 411.606 235.602C411.804 235.183 411.964 234.677 412.087 234.085C412.408 233.271 412.667 232.556 412.864 231.939C413.086 231.322 413.296 230.693 413.493 230.052C413.691 229.411 413.925 228.695 414.196 227.906C414.27 227.585 414.431 227.129 414.677 226.537C414.924 225.945 415.195 225.415 415.491 224.946C415.738 224.453 415.985 223.947 416.231 223.429C416.503 222.911 416.638 222.603 416.638 222.504C416.638 222.504 416.651 222.442 416.675 222.319C416.725 222.171 416.799 222.048 416.897 221.949C417.021 221.85 417.181 221.739 417.378 221.616C417.576 221.493 417.711 221.271 417.785 220.95C417.884 220.876 417.97 220.814 418.044 220.765C418.118 220.716 418.205 220.691 418.303 220.691C418.427 220.666 418.562 220.691 418.71 220.765C418.908 220.938 418.994 221.11 418.969 221.283C418.969 221.431 418.821 221.887 418.525 222.652C418.451 223.17 418.34 223.614 418.192 223.984C418.069 224.329 417.946 224.601 417.822 224.798C417.724 225.045 417.613 225.341 417.489 225.686C417.391 226.007 417.28 226.303 417.156 226.574C417.058 227.018 416.971 227.376 416.897 227.647C416.848 227.918 416.823 228.103 416.823 228.202C416.823 228.202 416.799 228.239 416.749 228.313C416.725 228.362 416.663 228.449 416.564 228.572C416.49 228.695 416.404 228.831 416.305 228.979C416.231 229.127 416.133 229.3 416.009 229.497C415.664 230.385 415.393 231.137 415.195 231.754C415.023 232.346 414.862 232.864 414.714 233.308C414.591 233.752 414.455 234.208 414.307 234.677C414.184 235.121 413.999 235.639 413.752 236.231C413.678 236.922 413.543 237.477 413.345 237.896C413.148 238.315 413.049 238.525 413.049 238.525C413.049 238.673 412.963 238.957 412.79 239.376C412.618 239.795 412.396 240.239 412.124 240.708C411.878 241.177 411.643 241.608 411.421 242.003C411.224 242.398 411.088 242.657 411.014 242.78C410.768 243.175 410.533 243.409 410.311 243.483C410.089 243.532 409.843 243.569 409.571 243.594C409.127 243.643 408.782 243.569 408.535 243.372C408.289 243.15 407.993 242.669 407.647 241.929C407.351 241.312 407.068 240.683 406.796 240.042C406.55 239.376 406.34 238.562 406.167 237.6C405.995 236.638 405.908 235.417 405.908 233.937C405.908 233.666 405.908 233.333 405.908 232.938C405.908 232.519 405.884 232.173 405.834 231.902C405.834 231.779 405.797 231.458 405.723 230.94C405.674 230.422 405.612 229.793 405.538 229.053C405.489 228.313 405.44 227.561 405.39 226.796C405.07 227.462 404.761 228.325 404.465 229.386C404.169 230.447 403.861 231.507 403.54 232.568C403.22 233.604 402.837 234.48 402.393 235.195C402.295 235.935 402.171 236.564 402.023 237.082C401.875 237.6 401.74 237.958 401.616 238.155C401.518 238.476 401.419 238.858 401.32 239.302C401.222 239.721 401.135 240.116 401.061 240.486C401.012 240.856 400.95 241.152 400.876 241.374C400.876 241.621 400.802 241.978 400.654 242.447C400.531 242.891 400.395 243.347 400.247 243.816C400.099 244.26 399.988 244.605 399.914 244.852ZM423.498 246.628C423.301 246.628 423.079 246.468 422.832 246.147C422.586 245.826 422.475 245.518 422.499 245.222C422.524 244.827 422.635 244.26 422.832 243.52C423.03 242.78 423.252 242.028 423.498 241.263C423.745 240.498 423.967 239.894 424.164 239.45C424.263 239.055 424.349 238.71 424.423 238.414C424.522 238.093 424.584 237.884 424.608 237.785C424.682 237.686 424.793 237.427 424.941 237.008C425.114 236.589 425.25 236.182 425.348 235.787C425.398 235.59 425.496 235.22 425.644 234.677C425.817 234.11 426.014 233.456 426.236 232.716C426.483 231.976 426.717 231.248 426.939 230.533C427.186 229.818 427.396 229.189 427.568 228.646C427.741 228.103 427.852 227.746 427.901 227.573C428.099 227.277 428.247 226.993 428.345 226.722C428.444 226.451 428.506 226.266 428.53 226.167C428.678 226.068 428.765 225.945 428.789 225.797C428.814 225.624 428.826 225.489 428.826 225.39C428.826 225.267 428.863 225.168 428.937 225.094C429.036 225.02 429.085 224.934 429.085 224.835C429.184 224.761 429.246 224.65 429.27 224.502C429.295 224.329 429.369 224.181 429.492 224.058L429.677 223.429L431.86 223.392C431.811 223.688 431.737 224.058 431.638 224.502C431.54 224.921 431.305 225.489 430.935 226.204C430.812 226.697 430.664 227.141 430.491 227.536C430.343 227.931 430.282 228.19 430.306 228.313C430.257 228.362 430.146 228.609 429.973 229.053C429.825 229.497 429.64 230.04 429.418 230.681C429.221 231.322 429.011 231.964 428.789 232.605C428.592 233.246 428.407 233.814 428.234 234.307C428.086 234.776 427.988 235.072 427.938 235.195C427.741 235.59 427.519 236.169 427.272 236.934C427.026 237.699 426.656 238.735 426.162 240.042C425.965 240.437 425.718 241.029 425.422 241.818C425.151 242.607 424.929 243.323 424.756 243.964C424.485 244.926 424.288 245.592 424.164 245.962C424.066 246.357 423.979 246.566 423.905 246.591C423.831 246.64 423.696 246.653 423.498 246.628ZM423.794 224.576C423.104 224.601 422.586 224.564 422.24 224.465C421.92 224.366 421.809 224.12 421.907 223.725C421.981 223.429 422.142 223.207 422.388 223.059C422.635 222.911 422.993 222.8 423.461 222.726C423.733 222.677 424.078 222.615 424.497 222.541C424.941 222.467 425.361 222.393 425.755 222.319C426.569 222.22 427.235 222.134 427.753 222.06C428.296 221.986 428.851 221.924 429.418 221.875C429.986 221.826 430.701 221.776 431.564 221.727C432.28 221.678 432.884 221.641 433.377 221.616C433.895 221.567 434.154 221.542 434.154 221.542C434.228 221.542 434.487 221.567 434.931 221.616C435.375 221.665 435.856 221.727 436.374 221.801C436.892 221.875 437.275 221.961 437.521 222.06C438.089 222.183 438.496 222.356 438.742 222.578C439.014 222.8 439.199 223.121 439.297 223.54C439.371 223.836 439.371 224.021 439.297 224.095C439.223 224.144 439.088 224.218 438.89 224.317C438.323 224.49 437.904 224.576 437.632 224.576C437.361 224.576 437.053 224.514 436.707 224.391C436.584 224.268 436.436 224.157 436.263 224.058C436.115 223.959 435.844 223.885 435.449 223.836C435.079 223.762 434.487 223.7 433.673 223.651C432.983 223.725 432.378 223.762 431.86 223.762C431.342 223.762 431.083 223.824 431.083 223.947L428.9 224.058L427.087 224.243C426.841 224.268 426.495 224.305 426.051 224.354C425.607 224.379 425.176 224.416 424.756 224.465C424.337 224.49 424.016 224.527 423.794 224.576Z" fill="white"/>
</g>
<defs>
<filter id="filter0_d_416_1716" x="9.63281" y="70.876" width="537.375" height="234.222" filterUnits="userSpaceOnUse" color-interpolation-filters="sRGB">
<feFlood flood-opacity="0" result="BackgroundImageFix"/>
<feColorMatrix in="SourceAlpha" type="matrix" values="0 0 0 0 0 0 0 0 0 0 0 0 0 0 0 0 0 0 127 0" result="hardAlpha"/>
<feOffset dy="4"/>
<feGaussianBlur stdDeviation="2"/>
<feComposite in2="hardAlpha" operator="out"/>
<feColorMatrix type="matrix" values="0 0 0 0 0 0 0 0 0 0 0 0 0 0 0 0 0 0 0.25 0"/>
<feBlend mode="normal" in2="BackgroundImageFix" result="effect1_dropShadow_416_1716"/>
<feBlend mode="normal" in="SourceGraphic" in2="effect1_dropShadow_416_1716" result="shape"/>
</filter>
</defs>
</svg>
