<svg width="568" height="486" viewBox="0 0 568 486" fill="none" xmlns="http://www.w3.org/2000/svg">
<g filter="url(#filter0_d_140_137)">
<path fill-rule="evenodd" clip-rule="evenodd" d="M255.979 9.3371C293.019 13.4471 328.479 19.8805 361.751 38.7337C400.97 60.9575 440.292 85.046 463.658 127.018C491.597 177.203 526.396 240.751 504.095 294.421C481.42 348.994 410.155 341.699 362.866 369.589C325.286 391.754 298.35 442.119 255.979 440.759C213.774 439.403 190.851 384.933 153.415 362.863C105.638 334.696 27.76 351.019 7.79488 294.445C-11.7756 238.99 49.5386 189.494 73.4441 136.253C92.6748 93.4238 97.769 38.6219 133.961 13.4577C169.489 -11.245 214.467 4.73084 255.979 9.3371Z" fill="#ECE9E6"/>
<path fill-rule="evenodd" clip-rule="evenodd" d="M273.748 69.4416C309.239 66.9736 342.339 75.1734 376.891 83.6487C419.466 94.092 470.284 91.0049 498.484 124.567C527.577 159.191 521.35 209.788 520.877 255.009C520.363 304.296 534.053 366.15 495.639 397.035C456.216 428.732 397.593 386.439 347.623 394.308C303.276 401.291 266.718 454.592 224.347 439.755C182.331 425.041 183.064 364.393 157.708 327.802C129.463 287.042 68.3723 263.453 67.8157 213.867C67.2626 164.585 114.79 127.368 155.14 99.0693C189.341 75.0836 232.076 72.3395 273.748 69.4416Z" fill="#2B6FC7"/>
</g>
<path d="M181.84 235.24C181.147 235.293 180.507 235.133 179.92 234.76C179.387 234.44 179.013 234.013 178.8 233.48C178.48 233.16 178.133 232.68 177.76 232.04C177.387 231.4 177.147 230.787 177.04 230.2C176.827 227.64 176.72 225.773 176.72 224.6C176.72 223.107 176.8 221.08 176.96 218.52C177.12 216.067 177.413 213.773 177.84 211.64C178.32 209.453 178.96 206.787 179.76 203.64C180.08 202.627 180.32 201.773 180.48 201.08C180.64 200.333 180.64 199.96 180.48 199.96C180.213 200.013 179.733 200.707 179.04 202.04C178.347 203.32 177.653 204.707 176.96 206.2C176.64 206.787 176.32 207.427 176 208.12C175.733 208.76 175.44 209.373 175.12 209.96C173.627 213.267 170.88 218.28 166.88 225C166.4 225.587 165.733 226.52 164.88 227.8C163.227 230.307 161.867 232.04 160.8 233C159.467 234.28 158.133 234.92 156.8 234.92C155.84 234.92 155.04 234.6 154.4 233.96C153.707 233.107 153.36 232.28 153.36 231.48C153.36 231.267 153.413 230.893 153.52 230.36C153.36 229.027 153.493 226.307 153.92 222.2C154.4 218.04 154.88 214.573 155.36 211.8C155.733 209.24 156.56 205.027 157.84 199.16L159.6 190.52C159.92 189.72 160.427 188.12 161.12 185.72L161.84 183.08C161.893 182.12 162.107 181.427 162.48 181C162.853 180.52 163.307 180.28 163.84 180.28C164.587 180.28 165.227 180.627 165.76 181.32C166.613 182.28 167.04 183.427 167.04 184.76C167.04 185.827 166.8 186.92 166.32 188.04C163.92 193.907 162 201.64 160.56 211.24C160.027 214.387 159.52 217.773 159.04 221.4C158.613 224.973 158.507 226.787 158.72 226.84C159.147 226.947 159.733 226.627 160.48 225.88C161.227 225.08 161.893 224.04 162.48 222.76C166.107 216.733 170.347 209 175.2 199.56C175.307 199.4 176.48 197.213 178.72 193L180.64 189.4C180.8 189.08 180.987 188.733 181.2 188.36C181.467 187.933 181.733 187.507 182 187.08C183.173 184.893 184.08 183.267 184.72 182.2C185.413 181.133 185.947 180.52 186.32 180.36C187.227 180.413 187.973 180.653 188.56 181.08C189.147 181.453 189.653 182.12 190.08 183.08C190.133 183.347 190.08 183.8 189.92 184.44C189.813 185.027 189.653 185.587 189.44 186.12C189.333 186.44 189.067 187.24 188.64 188.52C188.267 189.8 187.947 191.08 187.68 192.36C186.667 195.027 185.92 197.613 185.44 200.12C185.067 202.04 184.667 203.907 184.24 205.72C183.333 209.827 182.64 213.213 182.16 215.88C181.733 218.547 181.493 220.947 181.44 223.08C181.387 225.8 181.547 227.64 181.92 228.6C182.08 229.133 182.48 229.4 183.12 229.4C183.6 229.4 184 229.213 184.32 228.84C185.867 226.813 187.147 225.027 188.16 223.48C189.173 221.933 190.267 220.093 191.44 217.96C194.693 211.88 198.56 203.533 203.04 192.92C204.747 188.013 205.893 184.813 206.48 183.32C207.12 181.827 207.84 180.867 208.64 180.44C208.96 180.227 209.28 180.12 209.6 180.12C210.187 180.12 210.72 180.333 211.2 180.76C211.413 180.973 211.6 181.32 211.76 181.8C211.973 182.28 212.053 182.813 212 183.4C211.467 185.267 210.213 188.76 208.24 193.88C206.32 198.947 204.827 202.627 203.76 204.92C203.547 205.293 203.12 206.013 202.48 207.08C202.373 207.24 202.133 207.64 201.76 208.28C201.44 208.867 201.28 209.32 201.28 209.64C201.28 210.173 199.867 212.973 197.04 218.04C194.267 223.053 192.213 226.413 190.88 228.12C189.12 230.36 187.333 232.093 185.52 233.32C183.76 234.6 182.533 235.24 181.84 235.24ZM220.858 232.92C219.685 232.867 218.591 232.573 217.578 232.04C216.565 231.507 215.418 230.733 214.138 229.72L212.538 228.6C211.578 227.64 210.831 226.653 210.298 225.64C209.818 224.573 209.418 223.213 209.098 221.56C208.991 220.92 208.938 220.36 208.938 219.88C208.938 218.333 209.205 216.52 209.738 214.44C210.271 212.307 210.858 210.573 211.498 209.24C212.671 206.413 215.258 201.88 219.258 195.64C219.471 195.427 219.605 195.293 219.658 195.24C219.765 195.133 219.791 195.08 219.738 195.08C219.738 195.027 219.738 195 219.738 195C219.738 194.627 220.511 192.973 222.058 190.04C222.965 189.08 223.418 188.253 223.418 187.56C223.418 187.187 223.338 186.893 223.178 186.68C222.965 186.413 223.445 185.773 224.618 184.76C225.845 183.693 227.365 182.653 229.178 181.64C230.618 180.52 232.031 179.96 233.418 179.96C233.845 179.96 234.191 180.04 234.458 180.2C234.778 180.307 234.965 180.493 235.018 180.76C235.018 181.08 236.085 180.973 238.218 180.44C239.178 180.227 239.871 180.093 240.298 180.04C240.511 179.773 241.045 179.56 241.898 179.4C242.805 179.187 244.058 178.973 245.658 178.76C246.511 178.813 247.391 178.813 248.298 178.76C249.205 178.707 249.791 178.653 250.058 178.6C250.485 178.44 250.938 178.52 251.418 178.84C251.951 179.107 252.405 179.667 252.778 180.52C252.938 180.893 253.018 181.24 253.018 181.56C253.018 182.147 252.645 182.627 251.898 183C251.205 183.32 249.978 183.587 248.218 183.8C246.458 184.013 245.365 184.147 244.938 184.2C242.005 184.52 238.911 185.027 235.658 185.72C233.578 186.147 232.058 186.68 231.098 187.32C230.191 187.96 229.151 189.187 227.978 191C227.605 191.267 227.125 191.96 226.538 193.08C225.951 194.147 225.365 195.267 224.778 196.44C224.618 196.653 224.431 196.92 224.218 197.24C224.005 197.56 223.738 197.907 223.418 198.28C221.871 200.36 220.805 201.88 220.218 202.84C219.631 203.747 219.418 204.307 219.578 204.52C219.738 204.573 220.031 204.653 220.458 204.76C220.938 204.867 221.338 204.947 221.658 205C222.138 204.733 222.805 204.547 223.658 204.44C224.511 204.333 225.125 204.227 225.498 204.12C233.978 201.933 238.778 200.76 239.898 200.6C240.378 200.28 240.831 200.12 241.258 200.12C242.218 200.12 243.071 200.76 243.818 202.04C243.978 202.36 244.058 202.653 244.058 202.92C244.058 203.4 243.685 203.853 242.938 204.28C242.191 204.707 240.778 205.24 238.698 205.88C236.618 206.467 234.111 207.16 231.178 207.96L228.618 208.68C225.151 209.693 222.458 210.2 220.538 210.2C218.885 210.2 218.085 209.747 218.138 208.84C217.605 208.573 216.991 209.16 216.298 210.6C215.658 212.04 215.098 213.827 214.618 215.96C214.138 218.04 213.898 219.8 213.898 221.24C213.898 221.987 213.978 222.573 214.138 223C214.618 224.333 215.205 225.347 215.898 226.04C216.645 226.733 217.871 227.32 219.578 227.8C219.951 227.853 220.405 227.907 220.938 227.96C221.525 228.013 222.191 228.04 222.938 228.04C224.005 228.04 225.071 227.827 226.138 227.4C228.858 226.92 231.178 226.387 233.098 225.8C235.071 225.213 236.271 224.787 236.698 224.52C237.018 224.36 237.285 224.253 237.498 224.2C237.711 224.147 237.925 224.12 238.138 224.12L238.058 224.28C238.058 224.28 238.058 224.307 238.058 224.36C238.058 224.36 238.085 224.36 238.138 224.36C238.298 224.36 238.778 223.907 239.578 223C240.485 222.253 241.711 221.533 243.258 220.84C244.858 220.147 245.685 219.987 245.738 220.36C245.845 220.68 245.898 220.947 245.898 221.16C245.898 222.173 245.258 223.4 243.978 224.84C242.751 226.227 241.071 227.533 238.938 228.76C236.325 230.147 233.391 231.16 230.138 231.8C226.938 232.493 223.845 232.867 220.858 232.92ZM274.962 232.44C272.029 233.453 269.522 233.96 267.442 233.96C264.775 233.96 261.869 233.16 258.722 231.56C258.615 230.973 258.375 230.44 258.002 229.96C257.629 229.427 257.202 229.133 256.722 229.08C256.562 229.027 256.295 228.76 255.922 228.28C255.549 227.747 255.282 227.373 255.122 227.16C254.909 226.093 254.802 225.453 254.802 225.24C254.802 224.76 254.882 224.013 255.042 223C255.202 221.987 255.335 221.24 255.442 220.76L256.242 218.6C257.522 214.867 258.935 211.267 260.482 207.8L262.082 203.72C264.482 197.8 266.055 193.827 266.802 191.8C267.549 189.773 267.922 188.333 267.922 187.48C267.922 187 267.789 186.44 267.522 185.8C267.362 185.32 267.282 184.867 267.282 184.44C267.282 182.947 268.055 181.907 269.602 181.32C271.415 180.36 273.282 179.56 275.202 178.92C277.175 178.28 278.829 177.96 280.162 177.96C281.922 177.96 283.762 178.253 285.682 178.84C287.602 179.373 288.669 179.987 288.882 180.68L289.362 180.84C289.415 180.84 289.549 180.893 289.762 181C289.975 181.107 290.269 181.32 290.642 181.64C291.175 182.013 291.629 182.6 292.002 183.4C292.375 184.2 292.562 184.973 292.562 185.72C292.562 186.04 292.535 186.28 292.482 186.44C292.482 186.6 292.535 187 292.642 187.64C292.802 188.227 292.935 188.707 293.042 189.08C293.095 189.4 293.122 189.88 293.122 190.52C293.122 193.507 291.735 196.493 288.962 199.48L287.922 200.84C287.815 201 287.522 201.347 287.042 201.88C286.615 202.413 286.295 202.653 286.082 202.6C285.175 203.4 284.722 204.067 284.722 204.6C284.722 204.867 284.882 205.053 285.202 205.16C285.309 205.32 285.522 205.64 285.842 206.12C286.215 206.6 286.695 207.187 287.282 207.88C288.669 210.013 289.362 212.52 289.362 215.4C289.362 216.893 289.175 218.227 288.802 219.4C288.215 221.48 286.562 223.827 283.842 226.44C281.122 229.053 278.162 231.053 274.962 232.44ZM267.442 206.6C268.029 206.493 268.775 206.253 269.682 205.88C271.069 205.4 271.975 205.107 272.402 205C274.695 204.627 276.855 203.773 278.882 202.44C280.962 201.107 282.749 199.533 284.242 197.72C285.735 195.907 286.802 194.093 287.442 192.28C287.655 191.853 287.842 191.187 288.002 190.28C288.215 189.373 288.322 188.573 288.322 187.88C288.322 187.453 288.295 187.16 288.242 187V186.36C287.869 185.507 287.069 184.867 285.842 184.44C284.669 183.96 283.255 183.72 281.602 183.72C279.095 183.72 276.749 184.147 274.562 185C273.975 185.267 273.575 185.667 273.362 186.2C273.149 186.68 272.962 187.267 272.802 187.96C272.695 188.653 272.615 189.187 272.562 189.56C272.402 190.413 271.895 192.12 271.042 194.68C270.509 196.12 270.215 196.947 270.162 197.16C270.162 197.267 270.029 197.453 269.762 197.72C269.549 197.987 269.442 198.253 269.442 198.52C269.335 198.733 269.122 199.213 268.802 199.96C268.482 200.653 268.215 201.373 268.002 202.12C267.682 202.867 267.415 203.587 267.202 204.28C267.042 204.92 266.935 205.347 266.882 205.56C266.882 205.72 266.935 205.987 267.042 206.36C267.149 206.733 267.282 206.813 267.442 206.6ZM266.162 229.24C266.482 229.293 267.015 229.32 267.762 229.32C270.429 229.32 273.229 228.467 276.162 226.76C279.095 225.053 281.362 222.92 282.962 220.36C284.402 218.547 285.122 216.787 285.122 215.08C285.122 213.693 284.669 212.307 283.762 210.92C282.642 209.213 281.149 208.36 279.282 208.36C278.429 208.36 277.442 208.52 276.322 208.84C275.255 209.16 274.589 209.347 274.322 209.4C273.469 209.56 271.495 210.093 268.402 211C266.589 211.64 265.469 211.96 265.042 211.96C264.829 212.12 264.455 212.493 263.922 213.08C263.389 213.667 263.095 214.067 263.042 214.28C262.722 214.387 262.349 215 261.922 216.12C261.549 217.24 261.229 218.387 260.962 219.56C260.695 220.68 260.642 221.267 260.802 221.32C261.015 221.373 260.989 221.827 260.722 222.68C260.455 223.533 260.269 224.173 260.162 224.6C260.055 225.027 260.002 225.32 260.002 225.48C260.002 226.493 260.589 227.347 261.762 228.04C262.989 228.733 264.455 229.133 266.162 229.24ZM296.619 238.52C295.713 238.573 295.019 238.307 294.539 237.72C294.059 237.133 293.819 236.307 293.819 235.24C293.819 233.587 294.379 231.56 295.499 229.16C295.659 228.84 295.926 228.36 296.299 227.72C296.673 227.027 296.913 226.467 297.019 226.04C297.446 225.08 299.846 220.627 304.219 212.68C308.593 204.733 310.939 200.547 311.259 200.12C311.473 200.173 311.686 200.04 311.899 199.72C312.113 199.4 312.273 199.027 312.379 198.6C312.486 198.12 312.673 197.667 312.939 197.24C313.259 196.76 313.526 196.467 313.739 196.36C313.846 196.147 313.979 195.853 314.139 195.48C314.353 195.107 314.486 194.84 314.539 194.68C314.539 194.573 314.619 194.387 314.779 194.12C314.993 193.853 315.126 193.64 315.179 193.48C316.353 192.04 318.566 188.76 321.819 183.64C325.073 178.467 326.779 175.56 326.939 174.92C327.099 174.12 327.633 173.8 328.539 173.96C328.806 173.747 329.233 173.693 329.819 173.8C329.873 173.853 329.953 174.013 330.059 174.28C330.219 174.547 330.459 174.893 330.779 175.32C331.099 175.693 331.259 176.2 331.259 176.84C331.259 177.267 331.179 177.773 331.019 178.36C330.859 179.16 330.619 179.827 330.299 180.36C329.979 180.84 329.206 181.88 327.979 183.48L325.819 186.36L324.059 188.76C323.313 189.667 322.939 190.2 322.939 190.36C322.833 190.573 322.646 190.893 322.379 191.32C322.113 191.693 321.819 192.173 321.499 192.76C320.913 193.507 319.926 194.84 318.539 196.76C317.206 198.68 316.513 199.747 316.459 199.96C316.406 200.067 316.326 200.253 316.219 200.52C316.166 200.733 316.006 200.92 315.739 201.08C315.579 201.027 315.446 201.133 315.339 201.4C315.233 201.613 315.179 201.773 315.179 201.88C315.179 202.307 314.486 203.613 313.099 205.8C310.699 210.173 307.659 215.88 303.979 222.92C300.299 229.96 298.326 234.093 298.059 235.32C297.793 236.6 297.579 237.427 297.419 237.8C297.259 238.173 296.993 238.413 296.619 238.52Z" fill="white"/>
<path d="M263.88 324.84C263.88 325.053 263.693 325.16 263.32 325.16C263.053 325.16 262.733 325.053 262.36 324.84C261.987 324.627 261.693 324.333 261.48 323.96C261.053 323.053 260.84 321.933 260.84 320.6L260.92 317.32C262.573 307.613 264.52 297.853 266.76 288.04C267.507 285.427 268.12 282.947 268.6 280.6C269.133 278.253 269.453 276.76 269.56 276.12C269.56 275.96 269.4 276.04 269.08 276.36C268.813 276.627 268.547 276.973 268.28 277.4C268.013 277.773 267.907 278.04 267.96 278.2L265.96 281.16C265.64 281.48 264.893 282.707 263.72 284.84C262.92 286.547 262.2 287.88 261.56 288.84L259.32 293.08C257.667 296.12 256.653 297.96 256.28 298.6C255.747 299.4 254.973 300.787 253.96 302.76C253.427 304.04 252.467 305.56 251.08 307.32C250.653 307.907 250.227 308.547 249.8 309.24C249.427 309.933 249.187 310.387 249.08 310.6C249.08 310.867 248.52 311.773 247.4 313.32C246.333 314.867 245.347 316.147 244.44 317.16C243.213 318.44 242.2 319.373 241.4 319.96C240.6 320.493 239.853 320.76 239.16 320.76C238.253 320.76 237.267 320.253 236.2 319.24C235.507 318.493 235 317.613 234.68 316.6C234.413 315.587 234.28 314.333 234.28 312.84C234.28 311.507 234.467 309.267 234.84 306.12C234.893 305.853 235.4 303 236.36 297.56C237.373 292.067 237.987 289.053 238.2 288.52C238.253 288.2 238.28 287.827 238.28 287.4C238.28 286.92 238.2 286.68 238.04 286.68C237.88 286.68 237.587 287.027 237.16 287.72C237 287.933 236.04 289.427 234.28 292.2C232.573 294.973 230.733 298.52 228.76 302.84C225.667 308.547 223.373 312.84 221.88 315.72C220.387 318.547 219.293 320.573 218.6 321.8C217.693 323.56 217.16 324.52 217 324.68C216.2 324.68 215.187 324.013 213.96 322.68C213.8 322.36 213.72 322.067 213.72 321.8C213.72 321.427 213.88 320.813 214.2 319.96C214.573 319.107 215.08 317.987 215.72 316.6C217.373 313.347 218.467 311.507 219 311.08C219.64 310.227 220.013 309.293 220.12 308.28C220.813 307.32 221.8 305.587 223.08 303.08C223.88 301.8 224.813 300.2 225.88 298.28C227 296.36 227.987 294.52 228.84 292.76L231.08 288.84C233.16 285.213 234.813 282.413 236.04 280.44C237.32 278.467 238.28 277.16 238.92 276.52C239.773 275.507 240.2 274.707 240.2 274.12C240.2 273 240.413 271.987 240.84 271.08C241.32 270.12 241.8 269.693 242.28 269.8C242.92 269.8 243.427 269.88 243.8 270.04C244.227 270.147 244.653 270.467 245.08 271C245.187 271.16 245.347 271.427 245.56 271.8C245.827 272.12 246.013 272.493 246.12 272.92C246.28 273.293 246.36 273.773 246.36 274.36C246.36 275 246.28 275.8 246.12 276.76C246.067 277.453 245.853 279.027 245.48 281.48C245.267 282.653 245.16 283.373 245.16 283.64C243.773 287.853 242.52 293.133 241.4 299.48C240.333 305.773 239.8 310.2 239.8 312.76C239.8 313.347 239.853 313.747 239.96 313.96C240.333 314.227 240.653 314.253 240.92 314.04C241.24 313.827 241.693 313.133 242.28 311.96C242.973 310.68 244.147 309.027 245.8 307C245.907 306.84 246.947 305.08 248.92 301.72C253.827 293.667 258.6 285.587 263.24 277.48L265.32 274.2C266.12 272.92 266.893 271.747 267.64 270.68C268.387 269.56 268.973 268.84 269.4 268.52C269.933 268.093 270.44 267.88 270.92 267.88C271.933 267.88 272.84 268.493 273.64 269.72C274.44 270.947 274.84 272.493 274.84 274.36C274.84 275.8 274.547 278.013 273.96 281C273.373 283.933 272.6 286.893 271.64 289.88C271.32 291.373 270.867 293.24 270.28 295.48C269.693 297.72 269.08 299.747 268.44 301.56C268.333 302.467 268.12 303.613 267.8 305C267.747 305.267 267.587 306.093 267.32 307.48C267.107 308.813 267.053 309.72 267.16 310.2C266.36 311.64 265.96 314.52 265.96 318.84L265.72 320.68C265.613 322.173 265.507 323.187 265.4 323.72C265.293 324.253 265.133 324.493 264.92 324.44C264.813 324.387 264.653 324.36 264.44 324.36C264.067 324.36 263.88 324.52 263.88 324.84ZM285.378 322.6C283.511 321.16 282.285 320.04 281.698 319.24C281.111 318.387 280.765 317.347 280.658 316.12C280.605 315.853 280.578 315.373 280.578 314.68C280.578 313.187 280.711 311.32 280.978 309.08C281.245 306.84 281.511 305.053 281.778 303.72C281.991 303.507 282.098 303.187 282.098 302.76C282.151 302.333 282.151 302.067 282.098 301.96C282.098 301.8 282.231 301.267 282.498 300.36C283.138 298.387 283.591 296.733 283.858 295.4C285.298 291.027 286.711 287.533 288.098 284.92C289.485 282.307 291.031 279.853 292.738 277.56C295.031 275.213 296.818 273.507 298.098 272.44C299.431 271.32 300.898 270.387 302.498 269.64C304.578 268.413 306.071 267.8 306.978 267.8C307.138 267.8 307.378 267.853 307.698 267.96C310.685 268.6 312.925 269.827 314.418 271.64C315.911 273.4 317.005 276.147 317.698 279.88C318.178 283.133 318.418 285.587 318.418 287.24C318.418 289.907 317.938 292.6 316.978 295.32C316.018 298.04 314.285 301.453 311.778 305.56C308.898 311.213 305.485 315.747 301.538 319.16C297.645 322.573 293.965 324.28 290.498 324.28C288.631 324.28 286.925 323.72 285.378 322.6ZM290.498 320.28C292.311 320.067 294.018 319.373 295.618 318.2C297.271 316.973 299.298 314.973 301.698 312.2C303.778 309.8 305.245 307.987 306.098 306.76C307.005 305.533 307.805 304.067 308.498 302.36C309.191 300.653 310.045 298.04 311.058 294.52C311.645 292.28 312.018 290.547 312.178 289.32C312.391 288.04 312.498 286.52 312.498 284.76L312.418 279.56C312.365 278.653 312.178 277.72 311.858 276.76C311.538 275.747 311.165 275 310.738 274.52C309.938 273.613 308.898 273.16 307.618 273.16C306.818 273.16 306.045 273.347 305.298 273.72C304.285 274.147 302.791 275.4 300.818 277.48C298.845 279.507 297.058 281.613 295.458 283.8C293.911 285.933 293.138 287.32 293.138 287.96C293.138 288.013 293.111 288.173 293.058 288.44C293.005 288.707 292.898 288.947 292.738 289.16C291.831 290.12 290.818 292.067 289.698 295C288.578 297.933 287.591 301.107 286.738 304.52C285.885 307.933 285.405 310.787 285.298 313.08L285.138 315.8C285.138 316.28 285.165 316.653 285.218 316.92C285.325 317.187 285.511 317.507 285.778 317.88C286.045 318.2 286.285 318.547 286.498 318.92C286.765 319.347 287.191 319.693 287.778 319.96C288.365 320.227 288.978 320.36 289.618 320.36C289.991 320.36 290.285 320.333 290.498 320.28ZM341.306 322.44C338.372 323.453 335.866 323.96 333.786 323.96C331.119 323.96 328.212 323.16 325.066 321.56C324.959 320.973 324.719 320.44 324.346 319.96C323.972 319.427 323.546 319.133 323.066 319.08C322.906 319.027 322.639 318.76 322.266 318.28C321.892 317.747 321.626 317.373 321.466 317.16C321.252 316.093 321.146 315.453 321.146 315.24C321.146 314.76 321.226 314.013 321.386 313C321.546 311.987 321.679 311.24 321.786 310.76L322.586 308.6C323.866 304.867 325.279 301.267 326.826 297.8L328.426 293.72C330.826 287.8 332.399 283.827 333.146 281.8C333.892 279.773 334.266 278.333 334.266 277.48C334.266 277 334.132 276.44 333.866 275.8C333.706 275.32 333.626 274.867 333.626 274.44C333.626 272.947 334.399 271.907 335.946 271.32C337.759 270.36 339.626 269.56 341.546 268.92C343.519 268.28 345.172 267.96 346.506 267.96C348.266 267.96 350.106 268.253 352.026 268.84C353.946 269.373 355.012 269.987 355.226 270.68L355.706 270.84C355.759 270.84 355.892 270.893 356.106 271C356.319 271.107 356.612 271.32 356.986 271.64C357.519 272.013 357.972 272.6 358.346 273.4C358.719 274.2 358.906 274.973 358.906 275.72C358.906 276.04 358.879 276.28 358.826 276.44C358.826 276.6 358.879 277 358.986 277.64C359.146 278.227 359.279 278.707 359.386 279.08C359.439 279.4 359.466 279.88 359.466 280.52C359.466 283.507 358.079 286.493 355.306 289.48L354.266 290.84C354.159 291 353.866 291.347 353.386 291.88C352.959 292.413 352.639 292.653 352.426 292.6C351.519 293.4 351.066 294.067 351.066 294.6C351.066 294.867 351.226 295.053 351.546 295.16C351.652 295.32 351.866 295.64 352.186 296.12C352.559 296.6 353.039 297.187 353.626 297.88C355.012 300.013 355.706 302.52 355.706 305.4C355.706 306.893 355.519 308.227 355.146 309.4C354.559 311.48 352.906 313.827 350.186 316.44C347.466 319.053 344.506 321.053 341.306 322.44ZM333.786 296.6C334.372 296.493 335.119 296.253 336.026 295.88C337.412 295.4 338.319 295.107 338.746 295C341.039 294.627 343.199 293.773 345.226 292.44C347.306 291.107 349.092 289.533 350.586 287.72C352.079 285.907 353.146 284.093 353.786 282.28C353.999 281.853 354.186 281.187 354.346 280.28C354.559 279.373 354.666 278.573 354.666 277.88C354.666 277.453 354.639 277.16 354.586 277V276.36C354.212 275.507 353.412 274.867 352.186 274.44C351.012 273.96 349.599 273.72 347.946 273.72C345.439 273.72 343.092 274.147 340.906 275C340.319 275.267 339.919 275.667 339.706 276.2C339.492 276.68 339.306 277.267 339.146 277.96C339.039 278.653 338.959 279.187 338.906 279.56C338.746 280.413 338.239 282.12 337.386 284.68C336.852 286.12 336.559 286.947 336.506 287.16C336.506 287.267 336.372 287.453 336.106 287.72C335.892 287.987 335.786 288.253 335.786 288.52C335.679 288.733 335.466 289.213 335.146 289.96C334.826 290.653 334.559 291.373 334.346 292.12C334.026 292.867 333.759 293.587 333.546 294.28C333.386 294.92 333.279 295.347 333.226 295.56C333.226 295.72 333.279 295.987 333.386 296.36C333.492 296.733 333.626 296.813 333.786 296.6ZM332.506 319.24C332.826 319.293 333.359 319.32 334.106 319.32C336.772 319.32 339.572 318.467 342.506 316.76C345.439 315.053 347.706 312.92 349.306 310.36C350.746 308.547 351.466 306.787 351.466 305.08C351.466 303.693 351.012 302.307 350.106 300.92C348.986 299.213 347.492 298.36 345.626 298.36C344.772 298.36 343.786 298.52 342.666 298.84C341.599 299.16 340.932 299.347 340.666 299.4C339.812 299.56 337.839 300.093 334.746 301C332.932 301.64 331.812 301.96 331.386 301.96C331.172 302.12 330.799 302.493 330.266 303.08C329.732 303.667 329.439 304.067 329.386 304.28C329.066 304.387 328.692 305 328.266 306.12C327.892 307.24 327.572 308.387 327.306 309.56C327.039 310.68 326.986 311.267 327.146 311.32C327.359 311.373 327.332 311.827 327.066 312.68C326.799 313.533 326.612 314.173 326.506 314.6C326.399 315.027 326.346 315.32 326.346 315.48C326.346 316.493 326.932 317.347 328.106 318.04C329.332 318.733 330.799 319.133 332.506 319.24ZM372.403 325.4C371.763 324.707 370.323 324.36 368.083 324.36C367.55 324.36 366.536 324.413 365.043 324.52C364.83 324.573 364.51 324.6 364.083 324.6C363.123 324.6 362.296 324.36 361.603 323.88C360.91 323.453 360.616 322.947 360.723 322.36C360.83 321.027 363.016 320.253 367.283 320.04L371.523 319.8L372.323 318.12L373.923 312.2C374.136 311.347 374.43 310.36 374.803 309.24C375.176 308.067 375.55 306.867 375.923 305.64C377.576 300.573 378.456 297.693 378.563 297C378.83 296.307 379.31 294.787 380.003 292.44C380.696 290.04 381.123 288.413 381.283 287.56C382.456 283.613 383.23 280.653 383.603 278.68C384.03 276.707 384.136 275.72 383.923 275.72C383.443 275.667 382.003 275.8 379.603 276.12C377.203 276.44 375.896 276.68 375.683 276.84C375.523 277.107 375.256 277.24 374.883 277.24C374.51 277.24 374.136 277.133 373.763 276.92C373.39 276.653 373.15 276.36 373.043 276.04C372.99 275.827 372.963 275.533 372.963 275.16C372.963 274.787 373.096 274.493 373.363 274.28C373.95 273.8 375.23 273.24 377.203 272.6C379.176 271.907 381.096 271.4 382.963 271.08C383.87 270.973 384.776 270.76 385.683 270.44C386.59 270.067 387.283 269.667 387.763 269.24C388.83 268.813 389.763 268.627 390.563 268.68C390.936 268.893 391.603 269 392.563 269C393.63 269 394.803 268.92 396.083 268.76C398.536 268.44 400.323 268.28 401.443 268.28C402.243 268.28 402.856 268.387 403.283 268.6C403.71 268.76 404.056 269.08 404.323 269.56C404.536 270.413 404.643 270.973 404.643 271.24C404.643 272.253 404.083 272.733 402.963 272.68C402.11 272.947 399.923 273.187 396.403 273.4C392.67 273.88 390.67 274.333 390.403 274.76C390.136 275.027 389.923 275.267 389.763 275.48C389.656 275.693 389.523 275.907 389.363 276.12C389.416 276.333 389.31 277.027 389.043 278.2C388.83 279.32 388.536 280.493 388.163 281.72L387.043 285.4C386.67 286.52 386.083 288.36 385.283 290.92C384.536 293.427 384.056 294.947 383.843 295.48C383.416 296.76 383.203 297.693 383.203 298.28C382.243 302.12 380.963 306.573 379.363 311.64C378.35 314.787 377.603 317.4 377.123 319.48C377.336 319.48 377.816 319.427 378.563 319.32C379.363 319.213 380.403 319.08 381.683 318.92C385.256 318.493 387.39 318.28 388.083 318.28C388.776 318.28 389.23 318.36 389.443 318.52C389.71 318.68 389.923 318.973 390.083 319.4C390.776 320.253 391.123 320.92 391.123 321.4C391.123 322.04 390.616 322.493 389.603 322.76C388.643 323.027 387.096 323.187 384.963 323.24C382.51 323.4 380.456 323.56 378.803 323.72C377.15 323.88 376.056 324.04 375.523 324.2C374.99 324.413 374.696 324.68 374.643 325C374.643 325.48 374.376 325.72 373.843 325.72C373.363 325.72 372.883 325.613 372.403 325.4ZM409.314 323.48C406.168 323 404.034 321.213 402.914 318.12C402.808 317.8 402.621 317.347 402.354 316.76C402.141 316.12 402.034 315.507 402.034 314.92C402.034 314.227 402.248 313.16 402.674 311.72C403.048 307.773 403.874 303.987 405.154 300.36C405.208 300.093 405.341 299.587 405.554 298.84C405.821 298.093 406.141 297.24 406.514 296.28C407.368 293.667 408.701 290.52 410.514 286.84C412.328 283.107 414.221 279.72 416.194 276.68C418.168 273.64 419.741 271.667 420.914 270.76C421.768 270.013 422.648 269.64 423.554 269.64C424.248 269.64 424.594 269.907 424.594 270.44C424.488 270.707 424.434 270.893 424.434 271C424.434 271.053 424.541 271.107 424.754 271.16C425.074 271.16 425.234 271.347 425.234 271.72C425.234 272.36 424.888 273.187 424.194 274.2C423.501 275.16 422.754 275.88 421.954 276.36C421.954 276.467 421.874 276.68 421.714 277C421.554 277.32 421.234 277.667 420.754 278.04C420.594 278.573 420.408 279.053 420.194 279.48C419.981 279.907 419.848 280.173 419.794 280.28C419.741 280.387 419.581 280.627 419.314 281C419.101 281.373 418.861 281.853 418.594 282.44C417.528 283.773 416.994 284.653 416.994 285.08C416.834 285.453 416.488 286.147 415.954 287.16C415.474 288.12 415.234 288.68 415.234 288.84L414.674 289.24C414.674 289.613 414.488 290.28 414.114 291.24C413.794 292.147 413.368 292.973 412.834 293.72C412.461 294.573 411.874 296.147 411.074 298.44C410.754 299.667 410.461 300.493 410.194 300.92C410.088 301.133 410.008 301.427 409.954 301.8C409.741 302.013 409.501 302.573 409.234 303.48C408.968 304.387 408.781 305.48 408.674 306.76L407.234 310.84C406.861 310.787 406.674 311.48 406.674 312.92C406.674 314.36 406.781 315.827 406.994 317.32C407.314 317.747 407.661 318.067 408.034 318.28C408.461 318.44 409.074 318.52 409.874 318.52L412.514 318.36C412.674 318.413 412.941 318.44 413.314 318.44C413.794 318.44 414.434 318.413 415.234 318.36C416.034 318.253 416.648 318.227 417.074 318.28C418.621 318.28 420.354 318.12 422.274 317.8C423.128 317.693 423.981 317.64 424.834 317.64C425.261 317.64 425.554 317.693 425.714 317.8C425.874 317.853 426.088 318.013 426.354 318.28C426.834 318.92 427.074 319.4 427.074 319.72C427.074 320.307 426.408 320.76 425.074 321.08C421.981 321.88 418.914 322.493 415.874 322.92C412.888 323.4 410.701 323.587 409.314 323.48ZM447.614 323.16C445.96 322.787 444.307 322.12 442.654 321.16C441.054 320.253 440.147 319.427 439.934 318.68C439.934 318.413 439.827 318.2 439.614 318.04C439.4 317.827 439.16 317.72 438.894 317.72V317.08V316.52C438.894 316.147 438.787 315.907 438.574 315.8C438.254 315.16 438.094 314.227 438.094 313C438.094 311.4 438.307 309.507 438.734 307.32C439.214 305.08 439.774 303.053 440.414 301.24C440.414 300.867 440.494 300.387 440.654 299.8C440.867 299.213 440.974 298.84 440.974 298.68C441.4 297.453 442.254 295.507 443.534 292.84C444.814 290.173 445.88 288.307 446.734 287.24C446.734 287.08 446.92 286.733 447.294 286.2C447.72 285.613 448.014 285.027 448.174 284.44C449.027 283.587 450.174 281.933 451.614 279.48C453.48 277.933 454.254 276.547 453.934 275.32C453.987 274.467 454.12 273.853 454.334 273.48C454.547 273.053 454.947 272.707 455.534 272.44C456.174 272.12 457.214 271.8 458.654 271.48C460.307 270.84 462.014 270.413 463.774 270.2C465.534 269.933 467.854 269.747 470.734 269.64C471.427 269.48 472.014 269.373 472.494 269.32C473.027 269.267 473.347 269.24 473.454 269.24C473.667 269.027 474.627 269.293 476.334 270.04C478.094 270.733 478.92 271.213 478.814 271.48C478.76 271.96 478.014 272.44 476.574 272.92C475.134 273.4 473.507 273.747 471.694 273.96C468.334 274.333 465.747 274.813 463.934 275.4C462.174 275.987 460.654 276.893 459.374 278.12C458.147 279.293 456.734 281.133 455.134 283.64C453.907 285.56 453.027 287 452.494 287.96C452.014 288.92 451.774 289.613 451.774 290.04C451.774 290.307 451.88 290.493 452.094 290.6C452.36 290.707 452.734 290.76 453.214 290.76C453.694 290.76 454.254 290.707 454.894 290.6C455.534 290.44 456.014 290.36 456.334 290.36C456.707 290.253 457.56 290.04 458.894 289.72C460.227 289.4 461.507 289.16 462.734 289L466.094 288.28C467.32 288.013 468.28 287.88 468.974 287.88C470.787 287.88 471.694 288.307 471.694 289.16C471.694 289.587 471.4 290.067 470.814 290.6C470.227 291.133 469.427 291.613 468.414 292.04C467.454 292.413 466.36 292.787 465.134 293.16C463.907 293.533 463.134 293.72 462.814 293.72C462.707 293.773 462.44 293.827 462.014 293.88C461.64 293.933 461.16 293.96 460.574 293.96L456.974 294.44L454.334 294.76C453.8 294.92 452.734 295.213 451.134 295.64C449.534 296.013 448.467 296.467 447.934 297C447.4 297.533 446.92 298.333 446.494 299.4C445.747 301.16 445.08 303.56 444.494 306.6C443.907 309.64 443.614 312.2 443.614 314.28C443.614 315.773 443.8 316.707 444.174 317.08C444.547 317.507 445.16 317.853 446.014 318.12C446.867 318.333 447.854 318.44 448.974 318.44C450.467 318.44 451.987 318.253 453.534 317.88C455.134 317.507 456.467 316.973 457.534 316.28C458.547 315.48 459.667 314.867 460.894 314.44C461.48 314.013 461.907 313.8 462.174 313.8C462.44 313.8 462.814 313.96 463.294 314.28C463.774 314.6 464.12 314.84 464.334 315C464.867 315.8 465.134 316.387 465.134 316.76C465.134 317.4 464.707 317.987 463.854 318.52C463 319.053 461.374 319.827 458.974 320.84C456.467 321.693 454.467 322.307 452.974 322.68C451.48 323.053 450.12 323.24 448.894 323.24L447.614 323.16Z" fill="white"/>
<defs>
<filter id="filter0_d_140_137" x="0" y="0" width="526.838" height="450.351" filterUnits="userSpaceOnUse" color-interpolation-filters="sRGB">
<feFlood flood-opacity="0" result="BackgroundImageFix"/>
<feColorMatrix in="SourceAlpha" type="matrix" values="0 0 0 0 0 0 0 0 0 0 0 0 0 0 0 0 0 0 127 0" result="hardAlpha"/>
<feOffset dy="4"/>
<feGaussianBlur stdDeviation="2"/>
<feComposite in2="hardAlpha" operator="out"/>
<feColorMatrix type="matrix" values="0 0 0 0 0 0 0 0 0 0 0 0 0 0 0 0 0 0 0.25 0"/>
<feBlend mode="normal" in2="BackgroundImageFix" result="effect1_dropShadow_140_137"/>
<feBlend mode="normal" in="SourceGraphic" in2="effect1_dropShadow_140_137" result="shape"/>
</filter>
</defs>
</svg>
