<svg width="568" height="486" viewBox="0 0 568 486" fill="none" xmlns="http://www.w3.org/2000/svg">
<g filter="url(#filter0_d_140_137)">
<path fill-rule="evenodd" clip-rule="evenodd" d="M255.979 9.3371C293.019 13.4471 328.479 19.8805 361.751 38.7337C400.97 60.9575 440.292 85.046 463.658 127.018C491.597 177.203 526.396 240.751 504.095 294.421C481.42 348.994 410.155 341.699 362.866 369.589C325.286 391.754 298.35 442.119 255.979 440.759C213.774 439.403 190.851 384.933 153.415 362.863C105.638 334.696 27.76 351.019 7.79488 294.445C-11.7756 238.99 49.5386 189.494 73.4441 136.253C92.6748 93.4238 97.769 38.6219 133.961 13.4577C169.489 -11.245 214.467 4.73084 255.979 9.3371Z" fill="#ECE9E6"/>
<path fill-rule="evenodd" clip-rule="evenodd" d="M273.748 69.4416C309.239 66.9736 342.339 75.1734 376.891 83.6487C419.466 94.092 470.284 91.0049 498.484 124.567C527.577 159.191 521.35 209.788 520.877 255.009C520.363 304.296 534.053 366.15 495.639 397.035C456.216 428.732 397.593 386.439 347.623 394.308C303.276 401.291 266.718 454.592 224.347 439.755C182.331 425.041 183.064 364.393 157.708 327.802C129.463 287.042 68.3723 263.453 67.8157 213.867C67.2626 164.585 114.79 127.368 155.14 99.0693C189.341 75.0836 232.076 72.3395 273.748 69.4416Z" fill="#2B6FC7"/>
</g>
<path d="M185.86 239.71C185.253 239.757 184.693 239.617 184.18 239.29C183.713 239.01 183.387 238.637 183.2 238.17C183.013 237.937 182.733 237.54 182.36 236.98C181.987 236.42 181.753 235.86 181.66 235.3C181.52 233.807 181.427 232.36 181.38 230.96C181.38 229.56 181.45 227.6 181.59 225.08C181.73 223.027 181.987 221.043 182.36 219.13C182.78 217.17 183.177 215.42 183.55 213.88C183.97 212.34 184.297 211.127 184.53 210.24C184.763 209.307 184.81 208.84 184.67 208.84C184.483 208.84 184.203 209.19 183.83 209.89C183.457 210.543 183.037 211.36 182.57 212.34C182.103 213.32 181.637 214.3 181.17 215.28C180.703 216.213 180.307 216.983 179.98 217.59C179.327 219.037 178.557 220.577 177.67 222.21C176.83 223.797 175.967 225.337 175.08 226.83C174.193 228.323 173.423 229.63 172.77 230.75C172.35 231.217 171.86 231.893 171.3 232.78C170.74 233.62 170.133 234.507 169.48 235.44C168.827 236.373 168.15 237.143 167.45 237.75C166.423 238.73 165.397 239.267 164.37 239.36C163.39 239.453 162.55 239.197 161.85 238.59C161.71 238.403 161.547 238.17 161.36 237.89C161.22 237.657 161.103 237.33 161.01 236.91C160.917 236.49 160.94 236 161.08 235.44C161.033 234.787 161.033 233.783 161.08 232.43C161.173 231.03 161.313 229.513 161.5 227.88C161.687 226.2 161.873 224.59 162.06 223.05C162.293 221.51 162.503 220.227 162.69 219.2C163.11 216.213 163.67 213.157 164.37 210.03C165.117 206.903 165.793 203.753 166.4 200.58C166.773 199.647 167.1 198.597 167.38 197.43C167.707 196.217 168.033 195.097 168.36 194.07C168.407 193.043 168.64 192.367 169.06 192.04C169.48 191.667 169.947 191.55 170.46 191.69C171.02 191.783 171.463 192.063 171.79 192.53C172.257 192.997 172.607 193.72 172.84 194.7C173.12 195.68 172.933 196.917 172.28 198.41C171.347 200.697 170.437 203.497 169.55 206.81C168.71 210.077 167.94 214.043 167.24 218.71C167.053 219.83 166.843 221.16 166.61 222.7C166.377 224.24 166.167 225.733 165.98 227.18C165.793 228.627 165.653 229.84 165.56 230.82C165.513 231.8 165.537 232.313 165.63 232.36C166.003 232.453 166.517 232.173 167.17 231.52C167.823 230.82 168.407 229.91 168.92 228.79C170.833 225.617 172.723 222.303 174.59 218.85C176.503 215.35 178.323 211.897 180.05 208.49C180.843 207.137 181.637 205.667 182.43 204.08C183.27 202.447 184.063 200.953 184.81 199.6C185.603 198.2 186.327 196.94 186.98 195.82C187.633 194.653 188.193 193.697 188.66 192.95C189.127 192.203 189.5 191.783 189.78 191.69C190.527 191.737 191.157 191.923 191.67 192.25C192.23 192.53 192.697 193.137 193.07 194.07C193.163 194.303 193.14 194.7 193 195.26C192.86 195.82 192.697 196.31 192.51 196.73C192.463 197.057 192.253 197.733 191.88 198.76C191.553 199.787 191.25 200.93 190.97 202.19C190.503 203.45 190.083 204.71 189.71 205.97C189.383 207.183 189.15 208.187 189.01 208.98C188.637 210.987 188.17 213.203 187.61 215.63C187.05 218.01 186.56 220.39 186.14 222.77C185.767 225.103 185.557 227.203 185.51 229.07C185.463 230.377 185.463 231.403 185.51 232.15C185.603 232.897 185.743 233.48 185.93 233.9C186.023 234.273 186.303 234.507 186.77 234.6C187.283 234.693 187.703 234.53 188.03 234.11C188.963 232.943 189.757 231.893 190.41 230.96C191.11 229.98 191.763 229 192.37 228.02C192.977 226.993 193.607 225.85 194.26 224.59C195.427 222.443 196.617 220.063 197.83 217.45C199.09 214.79 200.28 212.153 201.4 209.54C202.567 206.927 203.57 204.64 204.41 202.68C205.297 200.16 205.997 198.153 206.51 196.66C207.07 195.167 207.56 194.047 207.98 193.3C208.4 192.553 208.843 192.04 209.31 191.76C209.543 191.573 209.87 191.48 210.29 191.48C210.71 191.48 211.13 191.667 211.55 192.04C211.737 192.227 211.9 192.53 212.04 192.95C212.227 193.323 212.297 193.79 212.25 194.35C212.017 195.097 211.597 196.287 210.99 197.92C210.43 199.553 209.777 201.35 209.03 203.31C208.283 205.27 207.56 207.137 206.86 208.91C206.16 210.683 205.553 212.107 205.04 213.18C204.527 214.16 204.037 215 203.57 215.7C203.103 216.4 202.87 216.937 202.87 217.31C202.87 217.497 202.637 218.08 202.17 219.06C201.703 219.993 201.097 221.137 200.35 222.49C199.65 223.843 198.88 225.243 198.04 226.69C197.2 228.137 196.407 229.467 195.66 230.68C194.913 231.893 194.283 232.827 193.77 233.48C192.603 234.927 191.46 236.117 190.34 237.05C189.267 237.983 188.333 238.66 187.54 239.08C186.747 239.5 186.187 239.71 185.86 239.71ZM220.001 237.68C218.554 237.587 217.271 237.143 216.151 236.35C215.078 235.557 213.934 234.74 212.721 233.9C211.928 233.107 211.298 232.267 210.831 231.38C210.364 230.447 209.991 229.233 209.711 227.74C209.524 226.853 209.524 225.733 209.711 224.38C209.898 223.027 210.201 221.673 210.621 220.32C211.041 218.92 211.438 217.8 211.811 216.96C212.371 215.653 213.071 214.253 213.911 212.76C214.798 211.22 215.661 209.773 216.501 208.42C217.388 207.02 218.088 205.9 218.601 205.06C218.928 204.733 219.068 204.57 219.021 204.57C219.021 204.523 219.021 204.5 219.021 204.5C219.021 204.267 219.254 203.683 219.721 202.75C220.234 201.77 220.678 200.907 221.051 200.16C221.751 199.413 222.148 198.807 222.241 198.34C222.334 197.873 222.264 197.5 222.031 197.22C221.938 197.033 222.101 196.707 222.521 196.24C222.941 195.773 223.571 195.237 224.411 194.63C225.251 194.023 226.208 193.417 227.281 192.81C228.401 191.923 229.474 191.457 230.501 191.41C231.574 191.317 232.204 191.527 232.391 192.04C232.391 192.18 232.648 192.227 233.161 192.18C233.721 192.087 234.351 191.97 235.051 191.83C235.798 191.643 236.451 191.503 237.011 191.41C237.244 191.13 237.781 190.92 238.621 190.78C239.508 190.593 240.534 190.43 241.701 190.29C242.308 190.337 242.891 190.36 243.451 190.36C244.058 190.313 244.548 190.267 244.921 190.22C245.341 190.173 245.551 190.15 245.551 190.15C245.878 190.057 246.251 190.103 246.671 190.29C247.138 190.477 247.558 190.99 247.931 191.83C248.258 192.67 248.141 193.3 247.581 193.72C247.068 194.14 245.854 194.467 243.941 194.7C242.541 194.887 241.328 195.05 240.301 195.19C239.274 195.283 238.201 195.423 237.081 195.61C235.961 195.75 234.584 196.007 232.951 196.38C231.784 196.613 230.828 196.893 230.081 197.22C229.334 197.5 228.681 197.943 228.121 198.55C227.561 199.11 226.931 199.927 226.231 201C225.904 201.233 225.484 201.84 224.971 202.82C224.458 203.8 223.944 204.78 223.431 205.76C222.124 207.58 220.981 209.167 220.001 210.52C219.068 211.827 218.694 212.597 218.881 212.83C218.881 212.83 219.138 212.9 219.651 213.04C220.164 213.18 220.514 213.25 220.701 213.25C221.168 213.017 221.728 212.853 222.381 212.76C223.081 212.667 223.641 212.573 224.061 212.48C226.954 211.733 229.218 211.15 230.851 210.73C232.531 210.31 233.791 210.007 234.631 209.82C235.518 209.587 236.194 209.447 236.661 209.4C237.314 208.887 237.944 208.793 238.551 209.12C239.204 209.447 239.718 209.96 240.091 210.66C240.324 211.173 240.324 211.617 240.091 211.99C239.904 212.363 239.321 212.737 238.341 213.11C237.408 213.483 236.008 213.927 234.141 214.44C232.274 214.953 229.824 215.63 226.791 216.47C224.224 217.217 222.031 217.66 220.211 217.8C218.391 217.94 217.528 217.543 217.621 216.61C217.294 216.423 216.921 216.657 216.501 217.31C216.128 217.917 215.754 218.757 215.381 219.83C215.008 220.903 214.681 222.047 214.401 223.26C214.168 224.473 214.004 225.617 213.911 226.69C213.864 227.717 213.934 228.487 214.121 229C214.494 230.073 214.984 230.937 215.591 231.59C216.198 232.197 217.294 232.733 218.881 233.2C219.814 233.247 220.724 233.317 221.611 233.41C222.498 233.503 223.501 233.317 224.621 232.85C227.374 232.383 229.544 231.893 231.131 231.38C232.718 230.867 233.628 230.517 233.861 230.33C234.234 230.143 234.468 230.05 234.561 230.05C234.701 230.003 234.888 229.98 235.121 229.98C234.981 230.213 235.028 230.237 235.261 230.05C235.541 229.817 235.914 229.467 236.381 229C236.894 228.533 237.571 228.09 238.411 227.67C239.251 227.25 239.998 226.923 240.651 226.69C241.351 226.457 241.724 226.457 241.771 226.69C242.051 227.157 242.004 227.81 241.631 228.65C241.258 229.443 240.581 230.33 239.601 231.31C238.621 232.243 237.361 233.153 235.821 234.04C233.348 235.347 230.664 236.257 227.771 236.77C224.878 237.33 222.288 237.633 220.001 237.68ZM267.342 237.26C265.848 237.727 264.378 238.077 262.932 238.31C261.532 238.59 260.038 238.59 258.452 238.31C256.912 238.077 255.138 237.47 253.132 236.49C253.085 235.977 252.875 235.51 252.502 235.09C252.175 234.623 251.802 234.367 251.382 234.32C251.195 234.273 250.962 234.04 250.682 233.62C250.448 233.2 250.215 232.873 249.982 232.64C249.842 232.08 249.748 231.613 249.702 231.24C249.702 230.867 249.748 230.377 249.842 229.77C249.935 229.117 250.075 228.207 250.262 227.04C250.495 226.433 250.822 225.523 251.242 224.31C251.708 223.05 252.222 221.673 252.782 220.18C253.388 218.64 254.018 217.147 254.672 215.7C256.352 211.5 257.658 208.21 258.592 205.83C259.572 203.45 260.248 201.677 260.622 200.51C260.995 199.343 261.182 198.503 261.182 197.99C261.182 197.477 261.065 196.963 260.832 196.45C260.552 195.563 260.552 194.77 260.832 194.07C261.158 193.37 261.765 192.857 262.652 192.53C263.538 192.063 264.448 191.643 265.382 191.27C266.362 190.85 267.318 190.5 268.252 190.22C269.185 189.94 270.048 189.753 270.842 189.66C271.495 189.567 272.288 189.567 273.222 189.66C274.155 189.753 275.065 189.917 275.952 190.15C276.885 190.383 277.678 190.663 278.332 190.99C278.985 191.27 279.382 191.597 279.522 191.97C279.522 191.97 279.592 191.993 279.732 192.04C279.872 192.087 279.942 192.11 279.942 192.11C279.942 192.11 280.035 192.133 280.222 192.18C280.408 192.227 280.688 192.437 281.062 192.81C281.575 193.183 282.018 193.813 282.392 194.7C282.765 195.54 282.858 196.31 282.672 197.01C282.672 197.197 282.718 197.5 282.812 197.92C282.952 198.34 283.068 198.807 283.162 199.32C283.395 200.58 283.255 201.98 282.742 203.52C282.228 205.06 281.178 206.693 279.592 208.42C279.032 209.073 278.518 209.703 278.052 210.31C277.632 210.917 277.305 211.197 277.072 211.15C276.605 211.57 276.255 212.037 276.022 212.55C275.788 213.017 275.882 213.297 276.302 213.39C276.302 213.39 276.465 213.623 276.792 214.09C277.118 214.557 277.562 215.117 278.122 215.77C279.008 217.123 279.568 218.733 279.802 220.6C280.082 222.42 279.965 224.17 279.452 225.85C279.125 227.017 278.355 228.347 277.142 229.84C275.928 231.287 274.458 232.687 272.732 234.04C271.052 235.347 269.255 236.42 267.342 237.26ZM259.642 234.46C261.275 234.693 263.025 234.507 264.892 233.9C266.758 233.293 268.532 232.36 270.212 231.1C271.938 229.793 273.315 228.323 274.342 226.69C275.648 225.057 276.278 223.587 276.232 222.28C276.232 220.927 275.835 219.643 275.042 218.43C274.342 217.357 273.548 216.703 272.662 216.47C271.775 216.19 270.842 216.143 269.862 216.33C268.882 216.517 267.855 216.773 266.782 217.1C265.895 217.24 264.868 217.497 263.702 217.87C262.535 218.243 261.462 218.593 260.482 218.92C259.548 219.2 258.942 219.34 258.662 219.34C258.662 219.34 258.522 219.48 258.242 219.76C257.962 220.04 257.682 220.343 257.402 220.67C257.122 220.95 256.958 221.183 256.912 221.37C256.678 221.463 256.422 221.837 256.142 222.49C255.862 223.097 255.605 223.797 255.372 224.59C255.185 225.337 255.045 226.013 254.952 226.62C254.858 227.227 254.858 227.53 254.952 227.53C255.185 227.577 255.162 227.95 254.882 228.65C254.648 229.35 254.485 229.933 254.392 230.4C254.018 231.52 254.392 232.453 255.512 233.2C256.678 233.947 258.055 234.367 259.642 234.46ZM260.762 214.65C261.135 214.603 261.765 214.417 262.652 214.09C263.538 213.717 264.355 213.437 265.102 213.25C267.202 212.923 269.138 212.177 270.912 211.01C272.732 209.797 274.272 208.397 275.532 206.81C276.838 205.177 277.748 203.613 278.262 202.12C278.542 201.607 278.752 200.837 278.892 199.81C279.032 198.737 279.055 197.967 278.962 197.5V196.94C278.635 196.053 277.818 195.423 276.512 195.05C275.205 194.677 273.688 194.56 271.962 194.7C270.235 194.793 268.578 195.143 266.992 195.75C266.338 196.077 265.942 196.567 265.802 197.22C265.662 197.827 265.475 198.667 265.242 199.74C265.055 200.907 264.728 202.073 264.262 203.24C263.795 204.407 263.422 205.457 263.142 206.39C263.095 206.577 262.978 206.74 262.792 206.88C262.605 207.02 262.512 207.253 262.512 207.58C262.512 207.58 262.348 207.907 262.022 208.56C261.742 209.213 261.485 209.937 261.252 210.73C260.925 211.523 260.668 212.223 260.482 212.83C260.342 213.437 260.272 213.74 260.272 213.74C260.272 213.74 260.295 213.95 260.342 214.37C260.435 214.79 260.575 214.883 260.762 214.65ZM286.292 242.58C284.892 242.627 284.099 241.88 283.912 240.34C283.725 238.8 284.192 236.817 285.312 234.39C285.592 233.877 285.872 233.387 286.152 232.92C286.432 232.407 286.595 231.987 286.642 231.66C286.782 231.38 287.155 230.657 287.762 229.49C288.415 228.277 289.185 226.83 290.072 225.15C291.005 223.47 291.962 221.72 292.942 219.9C293.969 218.08 294.925 216.377 295.812 214.79C296.699 213.157 297.445 211.803 298.052 210.73C298.659 209.657 299.009 209.073 299.102 208.98C299.289 209.027 299.475 208.91 299.662 208.63C299.895 208.303 300.035 207.977 300.082 207.65C300.175 207.277 300.339 206.88 300.572 206.46C300.852 206.04 301.085 205.783 301.272 205.69C301.365 205.457 301.482 205.2 301.622 204.92C301.809 204.64 301.925 204.407 301.972 204.22C302.019 204.033 302.112 203.87 302.252 203.73C302.392 203.543 302.485 203.357 302.532 203.17C302.905 202.75 303.395 202.097 304.002 201.21C304.609 200.277 305.285 199.227 306.032 198.06C306.825 196.893 307.595 195.703 308.342 194.49C309.135 193.277 309.859 192.133 310.512 191.06C311.165 189.987 311.702 189.077 312.122 188.33C312.542 187.583 312.775 187.117 312.822 186.93C312.962 186.23 313.429 185.95 314.222 186.09C314.455 185.903 314.829 185.857 315.342 185.95C315.342 185.95 315.389 186.067 315.482 186.3C315.622 186.487 315.855 186.813 316.182 187.28C316.509 187.7 316.649 188.12 316.602 188.54C316.602 188.96 316.532 189.427 316.392 189.94C316.299 190.547 316.135 191.083 315.902 191.55C315.669 191.97 315.249 192.577 314.642 193.37C314.035 194.117 313.102 195.307 311.842 196.94C311.562 197.36 311.259 197.78 310.932 198.2C310.652 198.573 310.372 198.923 310.092 199.25C309.859 199.53 309.672 199.787 309.532 200.02C309.392 200.207 309.322 200.347 309.322 200.44C309.275 200.627 309.112 200.907 308.832 201.28C308.599 201.607 308.342 202.027 308.062 202.54C307.782 202.867 307.409 203.357 306.942 204.01C306.475 204.663 305.985 205.34 305.472 206.04C305.005 206.74 304.585 207.37 304.212 207.93C303.839 208.443 303.652 208.747 303.652 208.84C303.605 208.98 303.535 209.143 303.442 209.33C303.395 209.517 303.255 209.68 303.022 209.82C302.835 209.773 302.695 209.89 302.602 210.17C302.555 210.403 302.532 210.52 302.532 210.52C302.532 210.893 301.925 212.037 300.712 213.95C300.199 214.883 299.429 216.283 298.402 218.15C297.422 220.017 296.325 222.093 295.112 224.38C293.945 226.62 292.802 228.837 291.682 231.03C290.562 233.177 289.605 235.043 288.812 236.63C288.065 238.217 287.645 239.267 287.552 239.78C287.365 240.853 287.202 241.553 287.062 241.88C286.922 242.253 286.665 242.487 286.292 242.58ZM311.987 238.31C311.147 237.843 310.681 237.33 310.587 236.77C310.541 236.21 310.867 235.23 311.567 233.83C312.267 232.43 313.364 230.26 314.857 227.32C315.977 225.22 316.817 223.587 317.377 222.42C317.984 221.207 318.381 220.343 318.567 219.83C318.801 219.317 318.917 218.99 318.917 218.85C318.824 218.43 318.871 218.103 319.057 217.87C319.244 217.59 319.547 217.357 319.967 217.17C320.201 216.937 320.574 216.517 321.087 215.91C321.647 215.303 322.161 214.58 322.627 213.74C323.047 212.76 323.537 211.757 324.097 210.73C324.657 209.703 325.404 208.42 326.337 206.88C327.271 205.293 328.484 203.24 329.977 200.72C330.911 199.087 331.937 197.43 333.057 195.75C334.177 194.023 335.367 192.32 336.627 190.64C337.141 189.987 337.607 189.473 338.027 189.1C338.447 188.68 338.867 188.493 339.287 188.54C339.847 188.54 340.477 188.727 341.177 189.1C341.924 189.473 342.601 189.963 343.207 190.57C343.814 191.177 344.257 191.83 344.537 192.53C344.771 192.903 344.864 193.697 344.817 194.91C344.771 196.123 344.677 197.593 344.537 199.32C344.397 201.047 344.234 202.89 344.047 204.85C343.907 206.763 343.697 209.027 343.417 211.64C343.137 214.253 342.857 216.983 342.577 219.83C342.344 222.677 342.157 225.43 342.017 228.09C341.877 230.703 341.877 232.99 342.017 234.95C342.064 235.37 342.064 235.767 342.017 236.14C341.971 236.513 341.947 236.817 341.947 237.05C341.667 237.33 341.201 237.447 340.547 237.4C339.941 237.4 339.334 237.26 338.727 236.98C338.167 236.7 337.841 236.35 337.747 235.93C337.607 235.79 337.514 235.603 337.467 235.37C337.467 235.09 337.491 234.53 337.537 233.69C337.584 232.85 337.631 231.52 337.677 229.7L338.027 218.36L337.117 218.43C336.697 218.43 335.904 218.477 334.737 218.57C333.571 218.663 332.311 218.803 330.957 218.99C329.604 219.13 328.344 219.293 327.177 219.48C326.057 219.62 325.287 219.76 324.867 219.9C324.447 219.9 323.934 220.18 323.327 220.74C322.767 221.3 322.231 222.023 321.717 222.91C321.531 223.563 321.181 224.263 320.667 225.01C320.201 225.71 319.967 226.177 319.967 226.41C319.641 226.643 319.361 226.923 319.127 227.25C318.941 227.577 318.847 227.74 318.847 227.74C318.847 228.02 318.614 228.72 318.147 229.84C317.727 230.913 317.191 232.127 316.537 233.48C315.884 234.787 315.231 235.93 314.577 236.91L313.107 239.15L311.987 238.31ZM326.477 215.77C326.477 215.77 326.711 215.723 327.177 215.63C327.691 215.537 328.274 215.443 328.927 215.35C329.627 215.21 330.257 215.14 330.817 215.14C332.777 214.673 334.201 214.37 335.087 214.23C335.974 214.043 336.581 213.95 336.907 213.95C337.281 213.95 337.607 214.02 337.887 214.16C338.074 214.393 338.237 214.533 338.377 214.58C338.564 214.627 338.657 214.65 338.657 214.65C338.704 214.557 338.774 214.02 338.867 213.04C338.961 212.06 339.077 210.847 339.217 209.4C339.404 207.953 339.567 206.46 339.707 204.92C339.894 203.333 340.034 201.887 340.127 200.58C340.221 199.227 340.291 198.2 340.337 197.5C340.384 196.613 340.431 195.82 340.477 195.12C340.524 194.373 340.547 194 340.547 194C340.267 194 339.661 194.513 338.727 195.54C337.841 196.567 336.837 197.92 335.717 199.6C334.597 201.28 333.547 203.077 332.567 204.99C332.101 205.877 331.657 206.67 331.237 207.37C330.817 208.07 330.491 208.42 330.257 208.42C330.164 208.513 329.884 208.933 329.417 209.68C328.997 210.38 328.531 211.197 328.017 212.13C327.504 213.017 327.084 213.833 326.757 214.58C326.431 215.28 326.337 215.677 326.477 215.77ZM351.761 239.36C351.201 239.36 350.734 239.057 350.361 238.45C350.081 238.17 349.894 237.773 349.801 237.26C349.754 236.793 349.917 235.93 350.291 234.67C350.664 233.363 351.294 231.38 352.181 228.72C352.647 226.947 353.021 225.663 353.301 224.87C353.581 224.03 353.721 223.423 353.721 223.05C353.721 222.537 353.767 222.117 353.861 221.79C354.001 221.417 354.071 221.067 354.071 220.74C354.351 220.74 354.631 220.483 354.911 219.97C355.191 219.457 355.424 218.757 355.611 217.87C355.797 217.077 355.961 216.447 356.101 215.98C356.287 215.467 356.381 215.117 356.381 214.93C356.614 214.557 356.847 213.973 357.081 213.18C357.361 212.387 357.781 211.43 358.341 210.31C358.714 208.91 359.134 207.463 359.601 205.97C360.067 204.43 360.534 203.007 361.001 201.7C361.514 200.347 361.934 199.297 362.261 198.55C362.774 197.103 363.171 196.1 363.451 195.54C363.731 194.933 363.731 194.537 363.451 194.35C363.124 194.117 363.054 193.72 363.241 193.16C363.427 192.6 363.941 191.97 364.781 191.27C365.294 190.663 365.737 190.243 366.111 190.01C366.484 189.73 366.951 189.59 367.511 189.59C368.117 189.59 368.981 189.637 370.101 189.73C370.941 189.777 371.827 189.8 372.761 189.8C373.741 189.8 374.347 189.8 374.581 189.8C375.001 189.987 375.514 190.197 376.121 190.43C376.727 190.617 377.264 190.803 377.731 190.99C378.244 191.177 378.501 191.34 378.501 191.48C378.501 191.76 378.594 191.947 378.781 192.04C379.014 192.087 379.247 192.133 379.481 192.18C379.807 192.18 380.251 192.437 380.811 192.95C381.371 193.417 381.954 194.023 382.561 194.77C383.167 195.47 383.634 196.217 383.961 197.01C384.334 197.803 384.614 198.55 384.801 199.25C385.034 199.95 385.034 200.953 384.801 202.26C384.754 202.96 384.637 203.66 384.451 204.36C384.311 205.06 384.147 205.527 383.961 205.76C383.681 205.947 383.424 206.18 383.191 206.46C382.957 206.74 382.841 206.997 382.841 207.23C382.841 207.417 382.677 207.79 382.351 208.35C382.024 208.863 381.604 209.47 381.091 210.17C380.577 210.87 380.017 211.57 379.411 212.27C378.804 212.97 378.221 213.577 377.661 214.09C377.054 214.837 376.331 215.537 375.491 216.19C374.697 216.843 373.974 217.38 373.321 217.8C372.107 218.36 370.754 218.92 369.261 219.48C367.814 220.04 366.414 220.507 365.061 220.88C363.754 221.253 362.657 221.417 361.771 221.37C360.417 221.557 359.531 221.743 359.111 221.93C358.737 222.07 358.457 222.467 358.271 223.12C358.037 223.727 357.804 224.357 357.571 225.01C357.384 225.617 357.291 226.037 357.291 226.27C357.197 226.457 356.964 227.04 356.591 228.02C356.264 228.953 355.891 230.05 355.471 231.31C355.097 232.57 354.724 233.807 354.351 235.02C353.977 236.233 353.697 237.237 353.511 238.03C353.324 238.683 353.091 239.057 352.811 239.15C352.531 239.29 352.181 239.36 351.761 239.36ZM360.441 217.66C360.627 217.847 361.351 217.87 362.611 217.73C363.871 217.59 365.224 217.24 366.671 216.68C367.604 216.353 368.537 215.957 369.471 215.49C370.451 215.023 371.384 214.51 372.271 213.95C372.737 213.623 373.437 213.04 374.371 212.2C375.304 211.36 376.237 210.357 377.171 209.19C377.311 208.957 377.544 208.513 377.871 207.86C378.244 207.16 378.571 206.507 378.851 205.9C379.271 205.247 379.691 204.29 380.111 203.03C380.531 201.723 380.624 200.65 380.391 199.81C380.157 198.597 379.551 197.477 378.571 196.45C377.591 195.377 376.424 194.653 375.071 194.28C374.044 194.093 373.181 194 372.481 194C371.827 194 371.104 194.07 370.311 194.21C369.564 194.443 369.004 194.77 368.631 195.19C368.304 195.61 367.861 196.497 367.301 197.85C366.974 198.503 366.507 199.507 365.901 200.86C365.294 202.167 364.781 203.403 364.361 204.57C363.521 207.65 362.681 210.193 361.841 212.2C361.047 214.16 360.557 215.397 360.371 215.91C360.417 216.423 360.394 216.797 360.301 217.03C360.207 217.217 360.254 217.427 360.441 217.66ZM389.481 237.75C389.248 237.75 388.968 237.633 388.641 237.4C388.315 237.213 388.011 236.957 387.731 236.63C387.498 236.303 387.381 235.953 387.381 235.58C387.381 235.58 387.358 235.44 387.311 235.16C387.311 234.833 387.218 234.507 387.031 234.18C387.031 233.807 387.031 233.387 387.031 232.92C387.078 232.407 387.195 231.893 387.381 231.38C387.381 230.867 387.451 230.307 387.591 229.7C387.731 229.047 387.895 228.557 388.081 228.23C388.081 227.717 388.198 227.063 388.431 226.27C388.711 225.43 388.945 224.66 389.131 223.96C389.645 222.42 390.018 221.3 390.251 220.6C390.531 219.9 390.718 219.387 390.811 219.06C390.905 218.687 390.951 218.313 390.951 217.94C391.091 217.567 391.301 216.89 391.581 215.91C391.861 214.93 392.141 213.927 392.421 212.9C392.748 211.827 392.958 211.057 393.051 210.59C393.238 210.403 393.331 210.24 393.331 210.1C393.378 209.913 393.401 209.727 393.401 209.54C393.401 209.54 393.565 209.003 393.891 207.93C394.218 206.857 394.638 205.62 395.151 204.22C395.991 201.747 396.551 199.95 396.831 198.83C397.158 197.71 397.298 196.917 397.251 196.45C397.251 195.983 397.135 195.517 396.901 195.05C396.575 194.443 396.575 193.977 396.901 193.65C397.088 193.463 397.251 193.253 397.391 193.02C397.531 192.74 397.601 192.6 397.601 192.6C397.601 192.507 397.905 192.343 398.511 192.11C399.118 191.877 399.865 191.62 400.751 191.34C401.638 191.013 402.525 190.71 403.411 190.43C404.345 190.15 405.115 189.917 405.721 189.73C405.861 189.73 406.071 189.73 406.351 189.73C406.678 189.73 407.028 189.73 407.401 189.73C407.821 189.73 408.218 189.73 408.591 189.73C409.805 189.917 411.041 190.267 412.301 190.78C413.608 191.293 414.705 192.017 415.591 192.95C416.151 193.463 416.641 194.07 417.061 194.77C417.528 195.47 418.111 196.613 418.811 198.2C418.811 198.387 418.858 198.783 418.951 199.39C419.091 199.95 419.161 200.51 419.161 201.07C419.161 202.47 418.811 203.94 418.111 205.48C417.411 207.02 416.408 208.583 415.101 210.17C413.795 211.71 412.208 213.25 410.341 214.79C408.381 216.377 406.351 217.45 404.251 218.01C402.151 218.57 400.285 218.687 398.651 218.36C398.325 218.22 398.021 217.94 397.741 217.52C397.508 217.1 397.345 216.68 397.251 216.26C397.158 215.84 397.181 215.56 397.321 215.42C397.695 215.327 398.255 215.303 399.001 215.35C399.748 215.35 400.938 215.047 402.571 214.44C403.085 214.253 403.621 214.043 404.181 213.81C404.741 213.53 405.185 213.297 405.511 213.11C406.445 212.503 407.518 211.687 408.731 210.66C409.945 209.633 411.065 208.303 412.091 206.67C412.511 206.017 412.931 205.247 413.351 204.36C413.771 203.427 414.121 202.493 414.401 201.56C414.728 200.627 414.891 199.857 414.891 199.25C415.265 198.037 415.031 197.033 414.191 196.24C413.398 195.4 412.115 194.887 410.341 194.7C409.781 194.56 408.918 194.607 407.751 194.84C406.585 195.027 405.465 195.283 404.391 195.61C403.318 195.937 402.595 196.217 402.221 196.45C402.035 196.45 401.918 196.59 401.871 196.87C401.825 197.15 401.708 197.477 401.521 197.85C401.521 198.177 401.381 198.877 401.101 199.95C400.821 200.977 400.495 201.933 400.121 202.82C399.795 203.847 399.398 204.99 398.931 206.25C398.465 207.463 398.138 208.42 397.951 209.12C397.765 209.867 397.531 210.59 397.251 211.29C397.018 211.99 396.901 212.34 396.901 212.34C396.901 212.527 396.761 212.923 396.481 213.53C396.248 214.137 396.038 214.79 395.851 215.49C395.665 216.377 395.408 217.38 395.081 218.5C394.801 219.62 394.475 220.623 394.101 221.51C393.588 223.237 393.145 224.963 392.771 226.69C392.398 228.37 392.375 229.467 392.701 229.98C393.215 229.98 393.401 230.4 393.261 231.24C393.121 232.033 392.701 233.13 392.001 234.53C391.535 235.697 391.185 236.49 390.951 236.91C390.718 237.377 390.508 237.633 390.321 237.68C390.135 237.727 389.855 237.75 389.481 237.75Z" fill="white"/>
<path d="M196.25 316.75C195.617 316.85 195.033 316.9 194.5 316.9C193.967 316.933 193.183 316.817 192.15 316.55C191.617 316.383 191.233 316.183 191 315.95C190.8 315.717 190.45 315.283 189.95 314.65C189.583 314.117 189.317 313.617 189.15 313.15C189.017 312.717 189 312.367 189.1 312.1C189.2 311.867 189.417 311.8 189.75 311.9C189.85 311.933 190 312.033 190.2 312.2C190.433 312.4 190.65 312.633 190.85 312.9C191.317 313.4 191.883 313.733 192.55 313.9C193.217 314.067 194.1 314.083 195.2 313.95C195.667 313.85 196.233 313.7 196.9 313.5C197.567 313.333 198.217 313.117 198.85 312.85C199.483 312.583 199.983 312.317 200.35 312.05C202.117 310.85 203.533 309.9 204.6 309.2C205.667 308.5 206.2 308.15 206.2 308.15C206.267 308.017 206.383 307.917 206.55 307.85C206.75 307.75 206.983 307.65 207.25 307.55C207.45 307.35 207.767 307.033 208.2 306.6C208.667 306.167 209.1 305.733 209.5 305.3C209.933 304.867 210.2 304.617 210.3 304.55C210.367 304.25 210.433 304.017 210.5 303.85C210.567 303.65 210.6 303.45 210.6 303.25C210.867 302.983 211.217 302.433 211.65 301.6C212.117 300.733 212.583 299.783 213.05 298.75C213.517 297.683 213.85 296.717 214.05 295.85C214.517 293.517 214.633 291.55 214.4 289.95C214.167 288.35 213.683 286.983 212.95 285.85C212.25 284.683 211.367 283.65 210.3 282.75C209.933 282.45 209.417 282.133 208.75 281.8C208.117 281.433 207.45 281.117 206.75 280.85C206.05 280.583 205.433 280.367 204.9 280.2C204.4 280.033 204.1 279.967 204 280C203.867 280.033 203.583 280.567 203.15 281.6C202.75 282.6 202.267 283.883 201.7 285.45C201.133 287.017 200.517 288.683 199.85 290.45C199.217 292.217 198.617 293.883 198.05 295.45C197.85 296.083 197.633 296.75 197.4 297.45C197.167 298.15 196.967 298.767 196.8 299.3C196.633 299.8 196.55 300.133 196.55 300.3C196.183 300.867 195.883 301.617 195.65 302.55C195.45 303.483 195.217 305.033 194.95 307.2C194.65 308.333 194.433 309.2 194.3 309.8C194.167 310.367 194.033 310.633 193.9 310.6C193.9 310.6 193.883 310.617 193.85 310.65C193.85 310.65 193.8 310.7 193.7 310.8C193.7 311 193.567 311.1 193.3 311.1C193.033 311.1 192.717 311.033 192.35 310.9C192.017 310.733 191.75 310.55 191.55 310.35C191.45 309.983 191.383 309.633 191.35 309.3C191.35 308.967 191.483 308.317 191.75 307.35C191.917 306.717 192.117 305.95 192.35 305.05C192.617 304.117 192.9 303.167 193.2 302.2C193.5 301.2 193.783 300.283 194.05 299.45C194.317 298.617 194.517 297.983 194.65 297.55C194.883 296.983 195.217 295.917 195.65 294.35C195.917 293.483 196.183 292.617 196.45 291.75C196.75 290.883 197.033 290.117 197.3 289.45C197.567 288.75 197.75 288.3 197.85 288.1C198.017 287.667 198.267 286.933 198.6 285.9C198.933 284.867 199.367 283.717 199.9 282.45L200.25 280.8L199.7 280.55C199.3 280.683 198.983 280.733 198.75 280.7C198.55 280.633 198.417 280.583 198.35 280.55C198.15 280.617 197.867 280.567 197.5 280.4C197.133 280.233 196.8 280.017 196.5 279.75C196.233 279.483 196.067 279.25 196 279.05C195.933 278.917 195.883 278.75 195.85 278.55C195.85 278.317 195.85 278.2 195.85 278.2C195.883 278 196.133 277.817 196.6 277.65C197.067 277.45 197.667 277.283 198.4 277.15C199.167 277.017 199.983 276.933 200.85 276.9C201.75 276.833 202.617 276.833 203.45 276.9C204.317 276.967 205.133 277.15 205.9 277.45C206.667 277.75 207.5 278.067 208.4 278.4C209.467 278.8 210.583 279.5 211.75 280.5C212.95 281.467 214.033 282.617 215 283.95C216 285.283 216.667 286.683 217 288.15C217.1 288.55 217.2 289.117 217.3 289.85C217.4 290.583 217.45 291.3 217.45 292C217.483 292.667 217.417 293.1 217.25 293.3C217.183 293.433 217.133 293.6 217.1 293.8C217.1 293.967 217.167 294.083 217.3 294.15C217.267 294.25 217.15 294.633 216.95 295.3C216.75 295.933 216.567 296.483 216.4 296.95C216.333 297.817 216.133 298.717 215.8 299.65C215.467 300.583 215.1 301.467 214.7 302.3C214.3 303.1 213.933 303.783 213.6 304.35C213.467 304.35 213.333 304.383 213.2 304.45C213.1 304.483 213.117 304.517 213.25 304.55C213.25 304.717 213.067 305.033 212.7 305.5C212.567 305.6 212.35 305.85 212.05 306.25C211.783 306.617 211.567 306.867 211.4 307C211.367 307.233 211.267 307.433 211.1 307.6C210.933 307.733 210.783 307.8 210.65 307.8C210.65 307.8 210.617 307.8 210.55 307.8C210.517 307.8 210.5 307.867 210.5 308C210.233 308.4 209.817 308.883 209.25 309.45C208.683 309.983 208.033 310.55 207.3 311.15C206.6 311.717 205.867 312.25 205.1 312.75C204.367 313.25 203.667 313.633 203 313.9C202.667 314.133 202.317 314.317 201.95 314.45C201.583 314.617 201.233 314.783 200.9 314.95C200.733 315.083 200.367 315.267 199.8 315.5C199.233 315.767 198.617 316.017 197.95 316.25C197.317 316.483 196.75 316.65 196.25 316.75ZM227.206 313.2C226.173 313.133 225.256 312.817 224.456 312.25C223.69 311.683 222.873 311.1 222.006 310.5C221.44 309.933 220.99 309.333 220.656 308.7C220.323 308.033 220.056 307.167 219.856 306.1C219.723 305.467 219.723 304.667 219.856 303.7C219.99 302.733 220.206 301.767 220.506 300.8C220.806 299.8 221.09 299 221.356 298.4C221.756 297.467 222.256 296.467 222.856 295.4C223.49 294.3 224.106 293.267 224.706 292.3C225.34 291.3 225.84 290.5 226.206 289.9C226.44 289.667 226.54 289.55 226.506 289.55C226.506 289.517 226.506 289.5 226.506 289.5C226.506 289.333 226.673 288.917 227.006 288.25C227.373 287.55 227.69 286.933 227.956 286.4C228.456 285.867 228.74 285.433 228.806 285.1C228.873 284.767 228.823 284.5 228.656 284.3C228.59 284.167 228.706 283.933 229.006 283.6C229.306 283.267 229.756 282.883 230.356 282.45C230.956 282.017 231.64 281.583 232.406 281.15C233.206 280.517 233.973 280.183 234.706 280.15C235.473 280.083 235.923 280.233 236.056 280.6C236.056 280.7 236.24 280.733 236.606 280.7C237.006 280.633 237.456 280.55 237.956 280.45C238.49 280.317 238.956 280.217 239.356 280.15C239.523 279.95 239.906 279.8 240.506 279.7C241.14 279.567 241.873 279.45 242.706 279.35C243.14 279.383 243.556 279.4 243.956 279.4C244.39 279.367 244.74 279.333 245.006 279.3C245.306 279.267 245.456 279.25 245.456 279.25C245.69 279.183 245.956 279.217 246.256 279.35C246.59 279.483 246.89 279.85 247.156 280.45C247.39 281.05 247.306 281.5 246.906 281.8C246.54 282.1 245.673 282.333 244.306 282.5C243.306 282.633 242.44 282.75 241.706 282.85C240.973 282.917 240.206 283.017 239.406 283.15C238.606 283.25 237.623 283.433 236.456 283.7C235.623 283.867 234.94 284.067 234.406 284.3C233.873 284.5 233.406 284.817 233.006 285.25C232.606 285.65 232.156 286.233 231.656 287C231.423 287.167 231.123 287.6 230.756 288.3C230.39 289 230.023 289.7 229.656 290.4C228.723 291.7 227.906 292.833 227.206 293.8C226.54 294.733 226.273 295.283 226.406 295.45C226.406 295.45 226.59 295.5 226.956 295.6C227.323 295.7 227.573 295.75 227.706 295.75C228.04 295.583 228.44 295.467 228.906 295.4C229.406 295.333 229.806 295.267 230.106 295.2C232.173 294.667 233.79 294.25 234.956 293.95C236.156 293.65 237.056 293.433 237.656 293.3C238.29 293.133 238.773 293.033 239.106 293C239.573 292.633 240.023 292.567 240.456 292.8C240.923 293.033 241.29 293.4 241.556 293.9C241.723 294.267 241.723 294.583 241.556 294.85C241.423 295.117 241.006 295.383 240.306 295.65C239.64 295.917 238.64 296.233 237.306 296.6C235.973 296.967 234.223 297.45 232.056 298.05C230.223 298.583 228.656 298.9 227.356 299C226.056 299.1 225.44 298.817 225.506 298.15C225.273 298.017 225.006 298.183 224.706 298.65C224.44 299.083 224.173 299.683 223.906 300.45C223.64 301.217 223.406 302.033 223.206 302.9C223.04 303.767 222.923 304.583 222.856 305.35C222.823 306.083 222.873 306.633 223.006 307C223.273 307.767 223.623 308.383 224.056 308.85C224.49 309.283 225.273 309.667 226.406 310C227.073 310.033 227.723 310.083 228.356 310.15C228.99 310.217 229.706 310.083 230.506 309.75C232.473 309.417 234.023 309.067 235.156 308.7C236.29 308.333 236.94 308.083 237.106 307.95C237.373 307.817 237.54 307.75 237.606 307.75C237.706 307.717 237.84 307.7 238.006 307.7C237.906 307.867 237.94 307.883 238.106 307.75C238.306 307.583 238.573 307.333 238.906 307C239.273 306.667 239.756 306.35 240.356 306.05C240.956 305.75 241.49 305.517 241.956 305.35C242.456 305.183 242.723 305.183 242.756 305.35C242.956 305.683 242.923 306.15 242.656 306.75C242.39 307.317 241.906 307.95 241.206 308.65C240.506 309.317 239.606 309.967 238.506 310.6C236.74 311.533 234.823 312.183 232.756 312.55C230.69 312.95 228.84 313.167 227.206 313.2ZM255.583 312.9C255.583 312.9 255.499 312.883 255.333 312.85C255.199 312.817 255.049 312.683 254.883 312.45C254.249 312.617 253.816 312.4 253.583 311.8C253.383 311.167 253.349 310.15 253.483 308.75C253.683 307.217 253.799 305.767 253.833 304.4C253.866 303 253.866 301.4 253.833 299.6C253.799 299.333 253.799 299.05 253.833 298.75C253.899 298.417 253.933 298.183 253.933 298.05C253.966 297.55 253.983 296.867 253.983 296C253.983 295.1 253.983 294.217 253.983 293.35C253.983 292.483 254.016 291.85 254.083 291.45C254.049 291.117 254.033 290.8 254.033 290.5C254.033 290.167 254.033 289.833 254.033 289.5C254.066 289.133 254.083 288.767 254.083 288.4C254.049 288.267 253.999 287.917 253.933 287.35C253.899 286.75 253.849 286.083 253.783 285.35C253.816 284.65 253.799 284.15 253.733 283.85C253.699 283.517 253.649 283.267 253.583 283.1C253.516 282.9 253.416 282.683 253.283 282.45C252.949 282.183 252.733 281.967 252.633 281.8C252.566 281.633 252.583 281.483 252.683 281.35C252.783 281.217 252.933 281.1 253.133 281C253.333 280.867 253.566 280.8 253.833 280.8C254.099 280.8 254.383 280.85 254.683 280.95C255.016 281.05 255.366 281.217 255.733 281.45C255.866 281.45 255.966 281.583 256.033 281.85C256.133 282.117 256.349 282.483 256.683 282.95C256.849 283.15 256.949 283.617 256.983 284.35C257.016 285.05 257.033 285.9 257.033 286.9C257.033 287.867 256.999 288.85 256.933 289.85C256.899 290.85 256.849 291.75 256.783 292.55C256.816 292.817 256.833 293.117 256.833 293.45C256.833 293.783 256.833 294.133 256.833 294.5C256.833 294.867 256.833 295.217 256.833 295.55C256.866 295.85 256.899 296.133 256.933 296.4C256.966 296.767 256.983 297.267 256.983 297.9C257.016 298.5 256.999 298.933 256.933 299.2C256.866 299.433 256.833 299.733 256.833 300.1C256.833 300.433 256.833 300.95 256.833 301.65C256.866 302.317 256.899 303.3 256.933 304.6C256.899 305.267 256.866 305.883 256.833 306.45C256.833 307.017 256.849 307.45 256.883 307.75C256.949 308.05 257.066 308.15 257.233 308.05C257.566 307.183 257.866 306.433 258.133 305.8C258.399 305.133 258.733 304.4 259.133 303.6C259.199 303.5 259.333 303.233 259.533 302.8C259.766 302.367 259.966 301.933 260.133 301.5C260.333 301.033 260.416 300.767 260.383 300.7C260.383 300.7 260.416 300.633 260.483 300.5C260.549 300.333 260.649 300.15 260.783 299.95C260.916 299.75 261.083 299.567 261.283 299.4C261.549 299.033 261.699 298.75 261.733 298.55C261.799 298.35 262.049 297.983 262.483 297.45C262.783 296.95 263.183 296.217 263.683 295.25C264.216 294.283 264.766 293.25 265.333 292.15C265.933 291.05 266.499 290.033 267.033 289.1C267.599 288.167 268.049 287.483 268.383 287.05C268.449 286.883 268.516 286.717 268.583 286.55C268.683 286.383 268.766 286.233 268.833 286.1C268.933 285.933 269.033 285.8 269.133 285.7C269.233 285.6 269.349 285.517 269.483 285.45C269.549 285.183 269.716 284.817 269.983 284.35C270.283 283.883 270.516 283.417 270.683 282.95C271.516 281.917 272.116 281.1 272.483 280.5C272.883 279.867 273.199 279.4 273.433 279.1C273.733 278.8 273.999 278.567 274.233 278.4C274.499 278.2 274.699 278.1 274.833 278.1C275.099 278.167 275.416 278.367 275.783 278.7C276.149 279 276.466 279.333 276.733 279.7C276.999 280.033 277.099 280.283 277.033 280.45C276.933 280.55 276.766 280.783 276.533 281.15C276.299 281.483 275.983 281.9 275.583 282.4C275.216 282.867 274.783 283.35 274.283 283.85C273.983 284.183 273.683 284.667 273.383 285.3C273.083 285.9 272.749 286.433 272.383 286.9C272.149 287.367 271.816 287.917 271.383 288.55C270.949 289.15 270.599 289.65 270.333 290.05C270.166 290.45 269.966 290.8 269.733 291.1C269.499 291.367 269.249 291.667 268.983 292C269.049 292.233 269.016 292.4 268.883 292.5C268.749 292.6 268.649 292.717 268.583 292.85C268.183 293.75 267.883 294.383 267.683 294.75C267.483 295.117 267.199 295.533 266.833 296C266.699 296.233 266.516 296.517 266.283 296.85C266.049 297.15 265.866 297.5 265.733 297.9C265.499 298.133 265.333 298.333 265.233 298.5C265.133 298.633 265.099 298.783 265.133 298.95C265.133 298.95 265.033 299.133 264.833 299.5C264.633 299.867 264.449 300.333 264.283 300.9C264.049 301.267 263.799 301.65 263.533 302.05C263.266 302.45 263.066 302.833 262.933 303.2C262.833 303.367 262.699 303.533 262.533 303.7C262.366 303.833 262.283 303.967 262.283 304.1C262.149 304.233 261.983 304.5 261.783 304.9C261.583 305.267 261.366 305.717 261.133 306.25C260.833 306.65 260.499 307.25 260.133 308.05C259.766 308.817 259.449 309.4 259.183 309.8C259.016 310.233 258.783 310.717 258.483 311.25C258.183 311.783 257.949 312.183 257.783 312.45C257.549 313.017 257.233 313.367 256.833 313.5C256.466 313.633 256.049 313.433 255.583 312.9ZM283.193 313.9C281.859 313.9 280.659 313.817 279.593 313.65C278.559 313.517 277.609 313.117 276.743 312.45C275.709 311.683 275.109 310.683 274.943 309.45C274.809 308.183 275.059 306.367 275.693 304C275.859 303.167 276.043 302.433 276.243 301.8C276.476 301.167 276.676 300.85 276.843 300.85C276.876 300.683 276.926 300.45 276.993 300.15C277.059 299.817 277.126 299.433 277.193 299C277.359 298.4 277.476 297.967 277.543 297.7C277.609 297.4 277.743 297.15 277.943 296.95C278.043 296.883 278.159 296.667 278.293 296.3C278.426 295.9 278.509 295.667 278.543 295.6C278.543 295.6 278.559 295.483 278.593 295.25C278.626 294.983 278.709 294.683 278.843 294.35C279.343 293.517 279.593 292.967 279.593 292.7C279.659 292.567 279.793 292.367 279.993 292.1C280.226 291.833 280.409 291.483 280.543 291.05C281.543 289.283 282.359 287.767 282.993 286.5C283.626 285.2 284.009 284.233 284.143 283.6C284.309 283.233 284.459 282.917 284.593 282.65C284.759 282.35 284.959 282.067 285.193 281.8C285.126 281.633 285.259 281.45 285.593 281.25C285.926 281.05 286.393 280.833 286.993 280.6C287.593 280.367 288.243 280.167 288.943 280C289.676 279.833 290.393 279.733 291.093 279.7C291.293 279.567 291.726 279.467 292.393 279.4C293.093 279.333 293.893 279.3 294.793 279.3C295.693 279.3 296.526 279.333 297.293 279.4C298.026 279.4 298.609 279.5 299.043 279.7C299.476 279.9 299.909 280.1 300.343 280.3C300.509 280.467 300.626 280.667 300.693 280.9C300.793 281.133 300.859 281.35 300.893 281.55C300.926 281.717 300.943 281.8 300.943 281.8C300.943 281.967 300.476 282.067 299.543 282.1C298.609 282.133 297.593 282.15 296.493 282.15C295.259 282.15 294.076 282.25 292.943 282.45C291.809 282.65 291.059 282.75 290.693 282.75C290.226 282.883 289.809 282.967 289.443 283C289.109 283.033 288.943 283.05 288.943 283.05C288.876 283.05 288.659 283.317 288.293 283.85C287.959 284.35 287.576 284.95 287.143 285.65C286.743 286.317 286.376 286.95 286.043 287.55C285.743 288.117 285.593 288.45 285.593 288.55C285.593 288.883 285.459 289.25 285.193 289.65C284.926 290.05 284.609 290.517 284.243 291.05C283.909 291.483 283.693 291.883 283.593 292.25C283.493 292.583 283.593 292.817 283.893 292.95C284.426 292.85 285.143 292.75 286.043 292.65C286.976 292.55 287.893 292.467 288.793 292.4C289.726 292.3 290.443 292.25 290.943 292.25C291.509 292.083 291.976 292.05 292.343 292.15C292.709 292.25 292.976 292.35 293.143 292.45C293.543 292.517 293.826 292.65 293.993 292.85C294.159 293.017 294.226 293.183 294.193 293.35C294.193 293.517 294.076 293.65 293.843 293.75C293.643 293.95 293.143 294.183 292.343 294.45C291.543 294.717 290.609 294.983 289.543 295.25C288.476 295.517 287.393 295.767 286.293 296C285.226 296.2 284.309 296.367 283.543 296.5C282.776 296.633 282.326 296.683 282.193 296.65C281.993 296.183 281.843 296.2 281.743 296.7C281.676 297.167 281.309 298.133 280.643 299.6C280.276 300.433 279.943 301.233 279.643 302C279.376 302.733 279.143 303.517 278.943 304.35C278.776 305.15 278.593 306.067 278.393 307.1C278.159 308 278.093 308.733 278.193 309.3C278.326 309.833 278.926 310.35 279.993 310.85C280.659 310.983 281.543 311.033 282.643 311C283.776 310.967 285.059 310.767 286.493 310.4C287.093 310.033 287.643 309.75 288.143 309.55C288.643 309.317 289.009 309.133 289.243 309C289.409 309 289.659 308.967 289.993 308.9C290.359 308.8 290.609 308.75 290.743 308.75C291.009 308.383 291.343 308.2 291.743 308.2C291.809 308.2 291.959 308.333 292.193 308.6C292.459 308.833 292.709 309.1 292.943 309.4C293.176 309.7 293.276 309.9 293.243 310C293.243 310.333 292.876 310.667 292.143 311C291.409 311.333 290.209 311.833 288.543 312.5C287.709 312.867 287.026 313.15 286.493 313.35C285.993 313.55 285.509 313.683 285.043 313.75C284.576 313.85 283.959 313.9 283.193 313.9ZM306.359 313.55C305.325 313.383 304.475 313 303.809 312.4C303.175 311.833 302.692 311.1 302.359 310.2C302.125 309.6 301.959 309.067 301.859 308.6C301.759 308.1 301.875 307.3 302.209 306.2C302.309 305.067 302.475 303.917 302.709 302.75C302.975 301.55 303.325 300.333 303.759 299.1C303.759 299.1 303.842 298.817 304.009 298.25C304.175 297.683 304.375 297.117 304.609 296.55C305.009 295.283 305.592 293.833 306.359 292.2C307.125 290.567 307.959 288.95 308.859 287.35C309.759 285.717 310.625 284.3 311.459 283.1C312.325 281.867 313.042 281.033 313.609 280.6C313.909 280.333 314.225 280.15 314.559 280.05C314.925 279.917 315.242 279.883 315.509 279.95C315.775 279.983 315.909 280.133 315.909 280.4C315.842 280.6 315.809 280.717 315.809 280.75C315.809 280.783 315.875 280.817 316.009 280.85C316.309 280.883 316.392 281.117 316.259 281.55C316.125 281.983 315.875 282.45 315.509 282.95C315.142 283.45 314.725 283.833 314.259 284.1C314.259 284.1 314.225 284.217 314.159 284.45C314.092 284.65 313.875 284.883 313.509 285.15C313.375 285.55 313.242 285.883 313.109 286.15C312.975 286.417 312.909 286.55 312.909 286.55C312.909 286.55 312.825 286.683 312.659 286.95C312.492 287.183 312.325 287.5 312.159 287.9C311.859 288.267 311.609 288.6 311.409 288.9C311.242 289.167 311.159 289.383 311.159 289.55C311.159 289.55 311.059 289.733 310.859 290.1C310.692 290.433 310.509 290.8 310.309 291.2C310.142 291.567 310.059 291.8 310.059 291.9C310.059 291.9 309.992 291.95 309.859 292.05C309.759 292.117 309.709 292.15 309.709 292.15C309.709 292.317 309.609 292.7 309.409 293.3C309.209 293.867 308.925 294.417 308.559 294.95C308.125 295.883 307.775 296.8 307.509 297.7C307.275 298.6 307.075 299.183 306.909 299.45C306.842 299.583 306.792 299.767 306.759 300C306.625 300.133 306.475 300.467 306.309 301C306.142 301.533 306.025 302.233 305.959 303.1C305.725 303.8 305.509 304.4 305.309 304.9C305.142 305.4 305.059 305.65 305.059 305.65C304.859 305.617 304.742 305.85 304.709 306.35C304.675 306.85 304.692 307.433 304.759 308.1C304.825 308.733 304.875 309.267 304.909 309.7C305.175 310.1 305.525 310.333 305.959 310.4C306.425 310.433 307.225 310.417 308.359 310.35C308.759 310.417 309.225 310.417 309.759 310.35C310.292 310.25 310.775 310.233 311.209 310.3C311.509 310.3 311.975 310.283 312.609 310.25C313.242 310.183 313.859 310.1 314.459 310C315.492 309.9 316.109 309.867 316.309 309.9C316.542 309.9 316.775 310.033 317.009 310.3C317.409 310.833 317.525 311.217 317.359 311.45C317.225 311.683 316.842 311.883 316.209 312.05C314.942 312.383 313.659 312.667 312.359 312.9C311.059 313.167 309.875 313.35 308.809 313.45C307.742 313.55 306.925 313.583 306.359 313.55ZM327.546 312.7C326.946 312.6 326.312 312.367 325.646 312C324.979 311.667 324.379 311.283 323.846 310.85C323.346 310.383 322.996 309.933 322.796 309.5C322.196 308.467 321.846 307.367 321.746 306.2C321.646 305 321.862 303.883 322.396 302.85C322.462 302.483 322.512 302.083 322.546 301.65C322.612 301.217 322.646 300.85 322.646 300.55C322.646 300.55 322.696 300.483 322.796 300.35C322.929 300.183 322.996 300.1 322.996 300.1C323.096 300.1 323.162 300.05 323.196 299.95C323.229 299.85 323.279 299.717 323.346 299.55C323.479 299.317 323.579 299.15 323.646 299.05C323.746 298.95 323.796 298.9 323.796 298.9C323.996 298.9 324.112 298.833 324.146 298.7C324.179 298.533 324.179 298.167 324.146 297.6C324.112 297.467 324.112 297.35 324.146 297.25C324.179 297.15 324.196 297.05 324.196 296.95C324.362 296.783 324.496 296.65 324.596 296.55C324.696 296.45 324.746 296.333 324.746 296.2C324.879 296.1 324.996 296.017 325.096 295.95C325.229 295.883 325.296 295.85 325.296 295.85C325.496 295.917 325.596 295.933 325.596 295.9C325.629 295.833 325.712 295.75 325.846 295.65C325.846 295.483 325.946 295.133 326.146 294.6C326.379 294.067 326.629 293.483 326.896 292.85C327.162 292.217 327.362 291.7 327.496 291.3C328.729 289.067 329.896 287.183 330.996 285.65C332.096 284.083 333.146 282.833 334.146 281.9C335.179 280.933 336.162 280.25 337.096 279.85C337.262 279.783 337.512 279.75 337.846 279.75C338.212 279.717 338.562 279.683 338.896 279.65C339.362 279.65 339.879 279.733 340.446 279.9C341.012 280.033 341.512 280.183 341.946 280.35C342.379 280.483 342.612 280.6 342.646 280.7C342.646 280.833 342.696 280.917 342.796 280.95C342.896 280.983 342.946 281 342.946 281C343.146 280.967 343.396 281.15 343.696 281.55C343.996 281.95 344.312 282.45 344.646 283.05C345.012 283.65 345.312 284.25 345.546 284.85C345.912 285.383 346.112 286.167 346.146 287.2C346.179 288.233 346.162 289.25 346.096 290.25C345.996 290.983 345.846 291.8 345.646 292.7C345.446 293.6 345.229 294.433 344.996 295.2C344.796 295.933 344.629 296.467 344.496 296.8C344.462 296.9 344.379 297.117 344.246 297.45C344.146 297.783 344.029 298.117 343.896 298.45C343.796 298.783 343.712 299.033 343.646 299.2C343.346 300.067 342.929 301.033 342.396 302.1C341.896 303.133 341.346 304.133 340.746 305.1C340.146 306.067 339.562 306.867 338.996 307.5C338.429 308.133 337.946 308.467 337.546 308.5C337.546 308.5 337.512 308.517 337.446 308.55C337.412 308.583 337.396 308.667 337.396 308.8C337.396 308.867 337.129 309.133 336.596 309.6C336.096 310.067 335.529 310.55 334.896 311.05C334.296 311.517 333.846 311.867 333.546 312.1C332.846 312.333 332.112 312.517 331.346 312.65C330.612 312.817 329.912 312.9 329.246 312.9C328.579 312.9 328.012 312.833 327.546 312.7ZM327.796 310C328.896 310 329.912 309.883 330.846 309.65C331.812 309.383 332.746 308.95 333.646 308.35C334.579 307.717 335.496 306.867 336.396 305.8C336.562 305.433 336.746 305.1 336.946 304.8C337.146 304.5 337.246 304.35 337.246 304.35C337.446 304.317 337.546 304.217 337.546 304.05C337.546 304.05 337.579 303.933 337.646 303.7C337.712 303.433 337.812 303.233 337.946 303.1C338.279 302.833 338.562 302.617 338.796 302.45C339.062 302.25 339.196 302.15 339.196 302.15C339.196 302.05 339.246 301.8 339.346 301.4C339.479 301 339.629 300.6 339.796 300.2C339.962 299.8 340.096 299.567 340.196 299.5C340.262 299.433 340.412 299.067 340.646 298.4C340.912 297.7 341.162 296.917 341.396 296.05C341.662 295.15 341.796 294.417 341.796 293.85C341.962 293.683 342.096 293.517 342.196 293.35C342.329 293.15 342.396 293.05 342.396 293.05C342.529 292.95 342.579 292.85 342.546 292.75C342.546 292.617 342.546 292.4 342.546 292.1C342.546 291.633 342.579 291.3 342.646 291.1C342.712 290.9 342.746 290.8 342.746 290.8C342.912 290.633 342.996 290.533 342.996 290.5C343.029 290.433 343.012 290.383 342.946 290.35C342.512 290.083 342.512 289.9 342.946 289.8C343.012 289.633 343.029 289.3 342.996 288.8C342.962 288.267 342.896 287.683 342.796 287.05C342.729 286.383 342.629 285.767 342.496 285.2C342.396 284.6 342.296 284.183 342.196 283.95C341.929 283.583 341.579 283.333 341.146 283.2C340.746 283.033 340.096 283.083 339.196 283.35C338.196 283.583 337.396 283.95 336.796 284.45C336.196 284.95 335.412 285.7 334.446 286.7C334.312 287.2 334.129 287.617 333.896 287.95C333.662 288.283 333.496 288.45 333.396 288.45C333.262 288.45 333.129 288.55 332.996 288.75C332.862 288.95 332.779 289.2 332.746 289.5C332.179 289.833 331.762 290.133 331.496 290.4C331.229 290.633 331.062 290.833 330.996 291C330.662 291.533 330.246 292.317 329.746 293.35C329.279 294.35 328.779 295.467 328.246 296.7C327.746 297.9 327.262 299.1 326.796 300.3C326.362 301.5 325.996 302.6 325.696 303.6C325.396 304.567 325.212 305.3 325.146 305.8C324.879 306.5 324.779 307.183 324.846 307.85C324.912 308.483 325.096 308.833 325.396 308.9C325.662 309.2 326.046 309.45 326.546 309.65C327.046 309.85 327.462 309.967 327.796 310ZM348.9 314.4C348.5 314.4 348.167 314.183 347.9 313.75C347.7 313.55 347.567 313.267 347.5 312.9C347.467 312.567 347.584 311.95 347.85 311.05C348.117 310.117 348.567 308.7 349.2 306.8C349.534 305.533 349.8 304.617 350 304.05C350.2 303.45 350.3 303.017 350.3 302.75C350.3 302.383 350.334 302.083 350.4 301.85C350.5 301.583 350.55 301.333 350.55 301.1C350.75 301.1 350.95 300.917 351.15 300.55C351.35 300.183 351.517 299.683 351.65 299.05C351.784 298.483 351.9 298.033 352 297.7C352.134 297.333 352.2 297.083 352.2 296.95C352.367 296.683 352.534 296.267 352.7 295.7C352.9 295.133 353.2 294.45 353.6 293.65C353.867 292.65 354.167 291.617 354.5 290.55C354.834 289.45 355.167 288.433 355.5 287.5C355.867 286.533 356.167 285.783 356.4 285.25C356.767 284.217 357.05 283.5 357.25 283.1C357.45 282.667 357.45 282.383 357.25 282.25C357.017 282.083 356.967 281.8 357.1 281.4C357.234 281 357.6 280.55 358.2 280.05C358.567 279.617 358.884 279.317 359.15 279.15C359.417 278.95 359.75 278.85 360.15 278.85C360.584 278.85 361.2 278.883 362 278.95C362.6 278.983 363.234 279 363.9 279C364.6 279 365.034 279 365.2 279C365.5 279.133 365.867 279.283 366.3 279.45C366.734 279.583 367.117 279.717 367.45 279.85C367.817 279.983 368 280.1 368 280.2C368 280.4 368.067 280.533 368.2 280.6C368.367 280.633 368.534 280.667 368.7 280.7C368.934 280.7 369.25 280.883 369.65 281.25C370.05 281.583 370.467 282.017 370.9 282.55C371.334 283.05 371.667 283.583 371.9 284.15C372.167 284.717 372.367 285.25 372.5 285.75C372.667 286.25 372.667 286.967 372.5 287.9C372.467 288.4 372.384 288.9 372.25 289.4C372.15 289.9 372.034 290.233 371.9 290.4C371.7 290.533 371.517 290.7 371.35 290.9C371.184 291.1 371.1 291.283 371.1 291.45C371.1 291.583 370.984 291.85 370.75 292.25C370.517 292.617 370.217 293.05 369.85 293.55C369.484 294.05 369.084 294.55 368.65 295.05C368.217 295.55 367.8 295.983 367.4 296.35C366.967 296.883 366.45 297.383 365.85 297.85C365.284 298.317 364.767 298.7 364.3 299C363.434 299.4 362.467 299.8 361.4 300.2C360.367 300.6 359.367 300.933 358.4 301.2C357.467 301.467 356.684 301.583 356.05 301.55C355.084 301.683 354.45 301.817 354.15 301.95C353.884 302.05 353.684 302.333 353.55 302.8C353.384 303.233 353.217 303.683 353.05 304.15C352.917 304.583 352.85 304.883 352.85 305.05C352.784 305.183 352.617 305.6 352.35 306.3C352.117 306.967 351.85 307.75 351.55 308.65C351.284 309.55 351.017 310.433 350.75 311.3C350.484 312.167 350.284 312.883 350.15 313.45C350.017 313.917 349.85 314.183 349.65 314.25C349.45 314.35 349.2 314.4 348.9 314.4ZM355.1 298.9C355.234 299.033 355.75 299.05 356.65 298.95C357.55 298.85 358.517 298.6 359.55 298.2C360.217 297.967 360.884 297.683 361.55 297.35C362.25 297.017 362.917 296.65 363.55 296.25C363.884 296.017 364.384 295.6 365.05 295C365.717 294.4 366.384 293.683 367.05 292.85C367.15 292.683 367.317 292.367 367.55 291.9C367.817 291.4 368.05 290.933 368.25 290.5C368.55 290.033 368.85 289.35 369.15 288.45C369.45 287.517 369.517 286.75 369.35 286.15C369.184 285.283 368.75 284.483 368.05 283.75C367.35 282.983 366.517 282.467 365.55 282.2C364.817 282.067 364.2 282 363.7 282C363.234 282 362.717 282.05 362.15 282.15C361.617 282.317 361.217 282.55 360.95 282.85C360.717 283.15 360.4 283.783 360 284.75C359.767 285.217 359.434 285.933 359 286.9C358.567 287.833 358.2 288.717 357.9 289.55C357.3 291.75 356.7 293.567 356.1 295C355.534 296.4 355.184 297.283 355.05 297.65C355.084 298.017 355.067 298.283 355 298.45C354.934 298.583 354.967 298.733 355.1 298.9ZM400.417 313.1C400.417 313.1 400.334 312.983 400.167 312.75C400.001 312.55 399.751 312.233 399.417 311.8C399.251 311.333 399.084 310.6 398.917 309.6C398.784 308.567 398.767 307.25 398.867 305.65C398.801 305.15 398.801 304.35 398.867 303.25C398.967 302.15 399.101 300.933 399.267 299.6C399.467 298.233 399.667 296.917 399.867 295.65C400.101 294.383 400.317 293.367 400.517 292.6C400.651 290.5 400.784 289.067 400.917 288.3C401.051 287.5 401.117 287.017 401.117 286.85C401.084 286.717 400.784 287.033 400.217 287.8C399.651 288.533 399.017 289.517 398.317 290.75C397.884 291.45 397.484 292.067 397.117 292.6C396.784 293.1 396.551 293.433 396.417 293.6C396.117 294.033 395.834 294.567 395.567 295.2C395.334 295.8 394.834 296.833 394.067 298.3C392.734 300.367 391.684 301.917 390.917 302.95C390.184 303.95 389.584 304.6 389.117 304.9C388.651 305.167 388.184 305.25 387.717 305.15C386.751 304.917 386.084 304.517 385.717 303.95C385.384 303.383 385.184 302.383 385.117 300.95C385.084 300.05 385.067 299.267 385.067 298.6C385.067 297.933 385.067 297.483 385.067 297.25C385.201 296.95 385.234 296.617 385.167 296.25C385.134 295.883 385.134 295.617 385.167 295.45C385.134 295.317 385.184 295.067 385.317 294.7C385.484 294.3 385.584 293.867 385.617 293.4C385.717 292.767 385.801 292 385.867 291.1C385.967 290.167 386.017 289.333 386.017 288.6C386.051 287.867 386.017 287.467 385.917 287.4C385.984 287.533 385.917 287.733 385.717 288C385.551 288.233 385.417 288.433 385.317 288.6C384.684 289.433 383.951 290.733 383.117 292.5C382.284 294.233 381.217 296.433 379.917 299.1C379.817 299.833 379.534 300.783 379.067 301.95C378.601 303.117 378.134 304.15 377.667 305.05C377.467 305.583 377.234 306.183 376.967 306.85C376.701 307.483 376.434 308.083 376.167 308.65C375.901 309.217 375.651 309.667 375.417 310C374.984 311.2 374.601 311.917 374.267 312.15C373.967 312.417 373.467 312.317 372.767 311.85C372.301 311.417 371.984 310.983 371.817 310.55C371.651 310.117 371.751 309.583 372.117 308.95C372.451 308.583 372.784 308.05 373.117 307.35C373.484 306.65 373.784 305.983 374.017 305.35C374.284 304.717 374.401 304.35 374.367 304.25C374.334 304.117 374.384 303.933 374.517 303.7C374.684 303.433 375.017 302.933 375.517 302.2C375.484 302.067 375.617 301.6 375.917 300.8C376.251 299.967 376.701 298.983 377.267 297.85C377.367 297.683 377.467 297.483 377.567 297.25C377.667 297.017 377.701 296.817 377.667 296.65C377.767 296.517 377.851 296.333 377.917 296.1C378.017 295.867 378.167 295.683 378.367 295.55C378.434 295.25 378.567 294.883 378.767 294.45C378.967 294.017 379.084 293.65 379.117 293.35C379.251 293.05 379.367 292.783 379.467 292.55C379.601 292.317 379.751 292.1 379.917 291.9C380.051 291.8 380.167 291.633 380.267 291.4C380.367 291.167 380.484 290.983 380.617 290.85C380.751 290.45 380.967 289.983 381.267 289.45C381.567 288.917 381.934 288.317 382.367 287.65C382.801 286.983 383.251 286.283 383.717 285.55C383.951 285.183 384.134 284.85 384.267 284.55C384.401 284.217 384.634 283.8 384.967 283.3C384.967 283.3 385.084 283.117 385.317 282.75C385.584 282.383 385.851 281.95 386.117 281.45C386.284 281.217 386.484 280.917 386.717 280.55C386.951 280.15 387.184 279.8 387.417 279.5C387.651 279.2 387.817 279.05 387.917 279.05C388.117 279.017 388.434 279.15 388.867 279.45C389.301 279.75 389.701 280.1 390.067 280.5C390.434 280.9 390.617 281.233 390.617 281.5C390.617 281.633 390.584 281.95 390.517 282.45C390.451 282.95 390.351 283.533 390.217 284.2C390.084 284.867 389.917 285.5 389.717 286.1C389.684 286.8 389.584 287.617 389.417 288.55C389.284 289.483 389.134 290.433 388.967 291.4C388.801 292.367 388.684 293.3 388.617 294.2C388.517 295.333 388.334 296.333 388.067 297.2C387.834 298.067 387.717 298.5 387.717 298.5C387.784 298.633 387.834 298.8 387.867 299C387.934 299.167 387.967 299.4 387.967 299.7V300.8L389.867 298.75C390.334 298.017 390.767 297.35 391.167 296.75C391.601 296.117 391.984 295.533 392.317 295C392.317 294.833 392.384 294.65 392.517 294.45C392.684 294.25 392.817 293.983 392.917 293.65C393.117 293.517 393.301 293.317 393.467 293.05C393.667 292.783 393.751 292.5 393.717 292.2C394.051 291.7 394.517 291.033 395.117 290.2C395.717 289.333 396.367 288.417 397.067 287.45C397.801 286.45 398.517 285.483 399.217 284.55C399.917 283.617 400.534 282.817 401.067 282.15C401.634 281.45 402.034 281 402.267 280.8C402.734 280.433 403.234 280.233 403.767 280.2C404.334 280.167 404.884 280.433 405.417 281C405.851 281.467 406.101 281.917 406.167 282.35C406.234 282.75 406.117 283.333 405.817 284.1C405.417 285.433 405.017 286.683 404.617 287.85C404.217 289.017 404.034 289.833 404.067 290.3C403.934 290.6 403.834 290.967 403.767 291.4C403.701 291.833 403.651 292.183 403.617 292.45C403.484 292.75 403.384 293.033 403.317 293.3C403.284 293.567 403.184 293.767 403.017 293.9C403.017 294.067 403.051 294.35 403.117 294.75C403.217 295.117 403.234 295.5 403.167 295.9C402.701 298.9 402.384 301.4 402.217 303.4C402.051 305.367 402.034 306.867 402.167 307.9C402.334 308.9 402.634 309.467 403.067 309.6C403.201 309.567 403.267 309.633 403.267 309.8C403.301 309.967 403.251 310.367 403.117 311C403.151 311.2 403.134 311.433 403.067 311.7C403.034 311.933 402.984 312.15 402.917 312.35C402.851 312.55 402.784 312.7 402.717 312.8C402.417 313.133 402.167 313.317 401.967 313.35C401.801 313.383 401.284 313.3 400.417 313.1ZM416.654 313.2C415.62 313.133 414.704 312.817 413.904 312.25C413.137 311.683 412.32 311.1 411.454 310.5C410.887 309.933 410.437 309.333 410.104 308.7C409.77 308.033 409.504 307.167 409.304 306.1C409.17 305.467 409.17 304.667 409.304 303.7C409.437 302.733 409.654 301.767 409.954 300.8C410.254 299.8 410.537 299 410.804 298.4C411.204 297.467 411.704 296.467 412.304 295.4C412.937 294.3 413.554 293.267 414.154 292.3C414.787 291.3 415.287 290.5 415.654 289.9C415.887 289.667 415.987 289.55 415.954 289.55C415.954 289.517 415.954 289.5 415.954 289.5C415.954 289.333 416.12 288.917 416.454 288.25C416.82 287.55 417.137 286.933 417.404 286.4C417.904 285.867 418.187 285.433 418.254 285.1C418.32 284.767 418.27 284.5 418.104 284.3C418.037 284.167 418.154 283.933 418.454 283.6C418.754 283.267 419.204 282.883 419.804 282.45C420.404 282.017 421.087 281.583 421.854 281.15C422.654 280.517 423.42 280.183 424.154 280.15C424.92 280.083 425.37 280.233 425.504 280.6C425.504 280.7 425.687 280.733 426.054 280.7C426.454 280.633 426.904 280.55 427.404 280.45C427.937 280.317 428.404 280.217 428.804 280.15C428.97 279.95 429.354 279.8 429.954 279.7C430.587 279.567 431.32 279.45 432.154 279.35C432.587 279.383 433.004 279.4 433.404 279.4C433.837 279.367 434.187 279.333 434.454 279.3C434.754 279.267 434.904 279.25 434.904 279.25C435.137 279.183 435.404 279.217 435.704 279.35C436.037 279.483 436.337 279.85 436.604 280.45C436.837 281.05 436.754 281.5 436.354 281.8C435.987 282.1 435.12 282.333 433.754 282.5C432.754 282.633 431.887 282.75 431.154 282.85C430.42 282.917 429.654 283.017 428.854 283.15C428.054 283.25 427.07 283.433 425.904 283.7C425.07 283.867 424.387 284.067 423.854 284.3C423.32 284.5 422.854 284.817 422.454 285.25C422.054 285.65 421.604 286.233 421.104 287C420.87 287.167 420.57 287.6 420.204 288.3C419.837 289 419.47 289.7 419.104 290.4C418.17 291.7 417.354 292.833 416.654 293.8C415.987 294.733 415.72 295.283 415.854 295.45C415.854 295.45 416.037 295.5 416.404 295.6C416.77 295.7 417.02 295.75 417.154 295.75C417.487 295.583 417.887 295.467 418.354 295.4C418.854 295.333 419.254 295.267 419.554 295.2C421.62 294.667 423.237 294.25 424.404 293.95C425.604 293.65 426.504 293.433 427.104 293.3C427.737 293.133 428.22 293.033 428.554 293C429.02 292.633 429.47 292.567 429.904 292.8C430.37 293.033 430.737 293.4 431.004 293.9C431.17 294.267 431.17 294.583 431.004 294.85C430.87 295.117 430.454 295.383 429.754 295.65C429.087 295.917 428.087 296.233 426.754 296.6C425.42 296.967 423.67 297.45 421.504 298.05C419.67 298.583 418.104 298.9 416.804 299C415.504 299.1 414.887 298.817 414.954 298.15C414.72 298.017 414.454 298.183 414.154 298.65C413.887 299.083 413.62 299.683 413.354 300.45C413.087 301.217 412.854 302.033 412.654 302.9C412.487 303.767 412.37 304.583 412.304 305.35C412.27 306.083 412.32 306.633 412.454 307C412.72 307.767 413.07 308.383 413.504 308.85C413.937 309.283 414.72 309.667 415.854 310C416.52 310.033 417.17 310.083 417.804 310.15C418.437 310.217 419.154 310.083 419.954 309.75C421.92 309.417 423.47 309.067 424.604 308.7C425.737 308.333 426.387 308.083 426.554 307.95C426.82 307.817 426.987 307.75 427.054 307.75C427.154 307.717 427.287 307.7 427.454 307.7C427.354 307.867 427.387 307.883 427.554 307.75C427.754 307.583 428.02 307.333 428.354 307C428.72 306.667 429.204 306.35 429.804 306.05C430.404 305.75 430.937 305.517 431.404 305.35C431.904 305.183 432.17 305.183 432.204 305.35C432.404 305.683 432.37 306.15 432.104 306.75C431.837 307.317 431.354 307.95 430.654 308.65C429.954 309.317 429.054 309.967 427.954 310.6C426.187 311.533 424.27 312.183 422.204 312.55C420.137 312.95 418.287 313.167 416.654 313.2ZM442.268 311.8C442.102 312.2 441.868 312.467 441.568 312.6C441.302 312.767 441.002 312.767 440.668 312.6C440.368 312.467 440.102 312.15 439.868 311.65C439.468 311.283 439.285 310.7 439.318 309.9C439.352 309.067 439.535 308.333 439.868 307.7C440.035 307.4 440.168 307.017 440.268 306.55C440.368 306.05 440.435 305.583 440.468 305.15C440.668 304.45 440.868 303.733 441.068 303C441.302 302.233 441.552 301.45 441.818 300.65C442.085 299.85 442.368 299 442.668 298.1C443.268 296.267 443.785 294.667 444.218 293.3C444.652 291.933 445.085 290.633 445.518 289.4C445.952 288.133 446.452 286.8 447.018 285.4C447.152 285.133 447.302 284.8 447.468 284.4C447.668 283.967 447.752 283.583 447.718 283.25C447.818 282.717 447.952 282.283 448.118 281.95C448.318 281.583 448.485 281.333 448.618 281.2C448.985 280.767 449.218 280.533 449.318 280.5C449.418 280.433 449.602 280.467 449.868 280.6C450.202 280.667 450.468 280.733 450.668 280.8C450.902 280.833 451.118 280.967 451.318 281.2C451.552 281.433 451.785 281.867 452.018 282.5C452.318 282.967 452.568 283.45 452.768 283.95C452.968 284.45 453.002 285.133 452.868 286C452.935 286.733 453.002 287.483 453.068 288.25C453.168 289.017 453.252 289.783 453.318 290.55C453.418 291.283 453.485 292 453.518 292.7C453.585 293.4 453.602 294.067 453.568 294.7C453.568 295.267 453.602 296.1 453.668 297.2C453.768 298.267 453.885 299.4 454.018 300.6C454.185 301.767 454.352 302.783 454.518 303.65C454.718 304.517 454.918 305.017 455.118 305.15C455.252 305.217 455.435 305.1 455.668 304.8C455.935 304.467 456.285 303.567 456.718 302.1C456.852 301.633 457.035 301.183 457.268 300.75C457.535 300.317 457.802 299.833 458.068 299.3C458.335 298.733 458.552 298.05 458.718 297.25C459.152 296.15 459.502 295.183 459.768 294.35C460.068 293.517 460.352 292.667 460.618 291.8C460.885 290.933 461.202 289.967 461.568 288.9C461.668 288.467 461.885 287.85 462.218 287.05C462.552 286.25 462.918 285.533 463.318 284.9C463.652 284.233 463.985 283.55 464.318 282.85C464.685 282.15 464.868 281.733 464.868 281.6C464.868 281.6 464.885 281.517 464.918 281.35C464.985 281.15 465.085 280.983 465.218 280.85C465.385 280.717 465.602 280.567 465.868 280.4C466.135 280.233 466.318 279.933 466.418 279.5C466.552 279.4 466.668 279.317 466.768 279.25C466.868 279.183 466.985 279.15 467.118 279.15C467.285 279.117 467.468 279.15 467.668 279.25C467.935 279.483 468.052 279.717 468.018 279.95C468.018 280.15 467.818 280.767 467.418 281.8C467.318 282.5 467.168 283.1 466.968 283.6C466.802 284.067 466.635 284.433 466.468 284.7C466.335 285.033 466.185 285.433 466.018 285.9C465.885 286.333 465.735 286.733 465.568 287.1C465.435 287.7 465.318 288.183 465.218 288.55C465.152 288.917 465.118 289.167 465.118 289.3C465.118 289.3 465.085 289.35 465.018 289.45C464.985 289.517 464.902 289.633 464.768 289.8C464.668 289.967 464.552 290.15 464.418 290.35C464.318 290.55 464.185 290.783 464.018 291.05C463.552 292.25 463.185 293.267 462.918 294.1C462.685 294.9 462.468 295.6 462.268 296.2C462.102 296.8 461.918 297.417 461.718 298.05C461.552 298.65 461.302 299.35 460.968 300.15C460.868 301.083 460.685 301.833 460.418 302.4C460.152 302.967 460.018 303.25 460.018 303.25C460.018 303.45 459.902 303.833 459.668 304.4C459.435 304.967 459.135 305.567 458.768 306.2C458.435 306.833 458.118 307.417 457.818 307.95C457.552 308.483 457.368 308.833 457.268 309C456.935 309.533 456.618 309.85 456.318 309.95C456.018 310.017 455.685 310.067 455.318 310.1C454.718 310.167 454.252 310.067 453.918 309.8C453.585 309.5 453.185 308.85 452.718 307.85C452.318 307.017 451.935 306.167 451.568 305.3C451.235 304.4 450.952 303.3 450.718 302C450.485 300.7 450.368 299.05 450.368 297.05C450.368 296.683 450.368 296.233 450.368 295.7C450.368 295.133 450.335 294.667 450.268 294.3C450.268 294.133 450.218 293.7 450.118 293C450.052 292.3 449.968 291.45 449.868 290.45C449.802 289.45 449.735 288.433 449.668 287.4C449.235 288.3 448.818 289.467 448.418 290.9C448.018 292.333 447.602 293.767 447.168 295.2C446.735 296.6 446.218 297.783 445.618 298.75C445.485 299.75 445.318 300.6 445.118 301.3C444.918 302 444.735 302.483 444.568 302.75C444.435 303.183 444.302 303.7 444.168 304.3C444.035 304.867 443.918 305.4 443.818 305.9C443.752 306.4 443.668 306.8 443.568 307.1C443.568 307.433 443.468 307.917 443.268 308.55C443.102 309.15 442.918 309.767 442.718 310.4C442.518 311 442.368 311.467 442.268 311.8ZM474.139 314.2C473.872 314.2 473.572 313.983 473.239 313.55C472.905 313.117 472.755 312.7 472.789 312.3C472.822 311.767 472.972 311 473.239 310C473.505 309 473.805 307.983 474.139 306.95C474.472 305.917 474.772 305.1 475.039 304.5C475.172 303.967 475.289 303.5 475.389 303.1C475.522 302.667 475.605 302.383 475.639 302.25C475.739 302.117 475.889 301.767 476.089 301.2C476.322 300.633 476.505 300.083 476.639 299.55C476.705 299.283 476.839 298.783 477.039 298.05C477.272 297.283 477.539 296.4 477.839 295.4C478.172 294.4 478.489 293.417 478.789 292.45C479.122 291.483 479.405 290.633 479.639 289.9C479.872 289.167 480.022 288.683 480.089 288.45C480.355 288.05 480.555 287.667 480.689 287.3C480.822 286.933 480.905 286.683 480.939 286.55C481.139 286.417 481.255 286.25 481.289 286.05C481.322 285.817 481.339 285.633 481.339 285.5C481.339 285.333 481.389 285.2 481.489 285.1C481.622 285 481.689 284.883 481.689 284.75C481.822 284.65 481.905 284.5 481.939 284.3C481.972 284.067 482.072 283.867 482.239 283.7L482.489 282.85L485.439 282.8C485.372 283.2 485.272 283.7 485.139 284.3C485.005 284.867 484.689 285.633 484.189 286.6C484.022 287.267 483.822 287.867 483.589 288.4C483.389 288.933 483.305 289.283 483.339 289.45C483.272 289.517 483.122 289.85 482.889 290.45C482.689 291.05 482.439 291.783 482.139 292.65C481.872 293.517 481.589 294.383 481.289 295.25C481.022 296.117 480.772 296.883 480.539 297.55C480.339 298.183 480.205 298.583 480.139 298.75C479.872 299.283 479.572 300.067 479.239 301.1C478.905 302.133 478.405 303.533 477.739 305.3C477.472 305.833 477.139 306.633 476.739 307.7C476.372 308.767 476.072 309.733 475.839 310.6C475.472 311.9 475.205 312.8 475.039 313.3C474.905 313.833 474.789 314.117 474.689 314.15C474.589 314.217 474.405 314.233 474.139 314.2ZM474.539 284.4C473.605 284.433 472.905 284.383 472.439 284.25C472.005 284.117 471.855 283.783 471.989 283.25C472.089 282.85 472.305 282.55 472.639 282.35C472.972 282.15 473.455 282 474.089 281.9C474.455 281.833 474.922 281.75 475.489 281.65C476.089 281.55 476.655 281.45 477.189 281.35C478.289 281.217 479.189 281.1 479.889 281C480.622 280.9 481.372 280.817 482.139 280.75C482.905 280.683 483.872 280.617 485.039 280.55C486.005 280.483 486.822 280.433 487.489 280.4C488.189 280.333 488.539 280.3 488.539 280.3C488.639 280.3 488.989 280.333 489.589 280.4C490.189 280.467 490.839 280.55 491.539 280.65C492.239 280.75 492.755 280.867 493.089 281C493.855 281.167 494.405 281.4 494.739 281.7C495.105 282 495.355 282.433 495.489 283C495.589 283.4 495.589 283.65 495.489 283.75C495.389 283.817 495.205 283.917 494.939 284.05C494.172 284.283 493.605 284.4 493.239 284.4C492.872 284.4 492.455 284.317 491.989 284.15C491.822 283.983 491.622 283.833 491.389 283.7C491.189 283.567 490.822 283.467 490.289 283.4C489.789 283.3 488.989 283.217 487.889 283.15C486.955 283.25 486.139 283.3 485.439 283.3C484.739 283.3 484.389 283.383 484.389 283.55L481.439 283.7L478.989 283.95C478.655 283.983 478.189 284.033 477.589 284.1C476.989 284.133 476.405 284.183 475.839 284.25C475.272 284.283 474.839 284.333 474.539 284.4Z" fill="white"/>
<defs>
<filter id="filter0_d_140_137" x="0" y="0" width="526.838" height="450.351" filterUnits="userSpaceOnUse" color-interpolation-filters="sRGB">
<feFlood flood-opacity="0" result="BackgroundImageFix"/>
<feColorMatrix in="SourceAlpha" type="matrix" values="0 0 0 0 0 0 0 0 0 0 0 0 0 0 0 0 0 0 127 0" result="hardAlpha"/>
<feOffset dy="4"/>
<feGaussianBlur stdDeviation="2"/>
<feComposite in2="hardAlpha" operator="out"/>
<feColorMatrix type="matrix" values="0 0 0 0 0 0 0 0 0 0 0 0 0 0 0 0 0 0 0.25 0"/>
<feBlend mode="normal" in2="BackgroundImageFix" result="effect1_dropShadow_140_137"/>
<feBlend mode="normal" in="SourceGraphic" in2="effect1_dropShadow_140_137" result="shape"/>
</filter>
</defs>
</svg>
