<svg width="677" height="285" viewBox="0 0 677 285" fill="none" xmlns="http://www.w3.org/2000/svg">
<rect x="224" width="142" height="86" rx="15.4633" fill="#FFCD36" fill-opacity="0.41"/>
<rect x="224" y="98" width="142" height="87" rx="15.4633" fill="#FFCD36" fill-opacity="0.62"/>
<rect x="224" y="197" width="142" height="87" rx="15.4633" fill="#FFCD36" fill-opacity="0.78"/>
<circle cx="316.5" cy="240.5" r="36.5" fill="#FFEFC0"/>
<circle cx="316.5" cy="141.5" r="36.5" fill="#FFEFC0"/>
<circle cx="316.5" cy="42.5" r="36.5" fill="#FFF7DE"/>
<rect x="380" y="1" width="143" height="86" rx="15.4633" fill="#5FBB9C" fill-opacity="0.5"/>
<rect x="380" y="99" width="143" height="87" rx="15.4633" fill="#5FBB9C" fill-opacity="0.8"/>
<rect x="380" y="198" width="143" height="87" rx="15.4633" fill="#5FBB9C"/>
<circle cx="472.5" cy="241.5" r="36.5" fill="#A4D9C7"/>
<circle cx="472.5" cy="142.5" r="36.5" fill="#AFDDCE"/>
<circle cx="472.5" cy="43.5" r="36.5" fill="#C0ECDD"/>
<rect x="535" y="1" width="142" height="86" rx="15.4633" fill="#7086FF" fill-opacity="0.5"/>
<rect x="535" y="99" width="142" height="87" rx="15.4633" fill="#7086FF" fill-opacity="0.8"/>
<rect x="535" y="198" width="142" height="87" rx="15.4633" fill="#7086FF"/>
<ellipse cx="627" cy="241.5" rx="37" ry="36.5" fill="#CED6FE"/>
<ellipse cx="627" cy="142.5" rx="37" ry="36.5" fill="#E1E6FF"/>
<ellipse cx="627" cy="43.5" rx="37" ry="36.5" fill="#E1E6FF"/>
<path d="M32.095 220.04C33.6583 220.6 34.44 221.347 34.44 222.28C34.44 222.584 34.3 223.155 34.02 223.995L27.3 243.42C27.2533 243.584 27.1717 243.782 27.055 244.015C26.9383 244.249 26.6233 244.564 26.11 244.96C25.62 245.334 25.025 245.52 24.325 245.52C23.6483 245.52 23.0533 245.334 22.54 244.96C22.05 244.564 21.7233 244.179 21.56 243.805L17.465 231.73C14.875 239.384 13.5567 243.28 13.51 243.42C13.4633 243.56 13.3583 243.759 13.195 244.015C13.0317 244.272 12.845 244.505 12.635 244.715C12.0983 245.252 11.4567 245.52 10.71 245.52C9.96333 245.52 9.345 245.345 8.855 244.995C8.38833 244.645 8.07333 244.295 7.91 243.945L7.665 243.42L0.91 223.995C0.653333 223.225 0.525 222.654 0.525 222.28C0.525 221.347 1.30667 220.612 2.87 220.075C3.54667 219.842 4.15333 219.725 4.69 219.725C5.25 219.725 5.67 219.912 5.95 220.285C6.25333 220.659 6.52167 221.23 6.755 222L10.605 233.69L14.42 222.175C14.7467 221.195 15.3417 220.519 16.205 220.145C16.5783 219.982 17.0567 219.9 17.64 219.9C18.2467 219.9 18.8067 220.099 19.32 220.495C19.8333 220.869 20.16 221.242 20.3 221.615L24.325 233.76L28.175 222C28.3617 221.464 28.5133 221.067 28.63 220.81C28.7467 220.554 28.9567 220.309 29.26 220.075C29.5867 219.819 29.9833 219.69 30.45 219.69C30.9167 219.69 31.465 219.807 32.095 220.04ZM43.9608 239.36H54.7408C55.2775 239.36 55.6742 239.384 55.9308 239.43C56.2108 239.454 56.5258 239.559 56.8758 239.745C57.5058 240.072 57.8208 240.982 57.8208 242.475C57.8208 244.109 57.3892 245.065 56.5258 245.345C56.1292 245.485 55.5225 245.555 54.7058 245.555H40.8458C39.2125 245.555 38.2558 245.112 37.9758 244.225C37.8358 243.852 37.7658 243.257 37.7658 242.44V222.98C37.7658 221.79 37.9875 220.985 38.4308 220.565C38.8742 220.122 39.7142 219.9 40.9508 219.9H54.7408C55.2775 219.9 55.6742 219.924 55.9308 219.97C56.2108 219.994 56.5258 220.099 56.8758 220.285C57.5058 220.612 57.8208 221.522 57.8208 223.015C57.8208 224.649 57.3892 225.605 56.5258 225.885C56.1292 226.025 55.5225 226.095 54.7058 226.095H43.9608V229.63H50.8908C51.4275 229.63 51.8242 229.654 52.0808 229.7C52.3608 229.724 52.6758 229.829 53.0258 230.015C53.6558 230.342 53.9708 231.252 53.9708 232.745C53.9708 234.379 53.5275 235.335 52.6408 235.615C52.2442 235.755 51.6375 235.825 50.8208 235.825H43.9608V239.36ZM77.5152 238.835L78.1452 238.38C78.9385 237.914 79.4985 237.68 79.8252 237.68C80.5485 237.68 81.3302 238.334 82.1702 239.64C82.6835 240.457 82.9402 241.11 82.9402 241.6C82.9402 242.09 82.7768 242.499 82.4502 242.825C82.1468 243.152 81.7852 243.444 81.3652 243.7C80.9452 243.957 80.5368 244.202 80.1402 244.435C79.7668 244.669 78.9852 244.972 77.7952 245.345C76.6052 245.719 75.4502 245.905 74.3302 245.905C73.2335 245.905 72.1135 245.765 70.9702 245.485C69.8502 245.182 68.6835 244.692 67.4702 244.015C66.2802 243.315 65.2068 242.475 64.2502 241.495C63.2935 240.492 62.5002 239.22 61.8702 237.68C61.2635 236.117 60.9602 234.425 60.9602 232.605C60.9602 230.785 61.2635 229.14 61.8702 227.67C62.4768 226.177 63.2468 224.952 64.1802 223.995C65.1368 223.015 66.2218 222.199 67.4352 221.545C69.7218 220.285 72.0202 219.655 74.3302 219.655C75.4268 219.655 76.5352 219.83 77.6552 220.18C78.7985 220.507 79.6618 220.845 80.2452 221.195L81.0852 221.685C81.5052 221.942 81.8318 222.152 82.0652 222.315C82.6718 222.805 82.9752 223.365 82.9752 223.995C82.9752 224.602 82.7302 225.244 82.2402 225.92C81.3302 227.18 80.5135 227.81 79.7902 227.81C79.3702 227.81 78.7752 227.554 78.0052 227.04C77.0252 226.247 75.7185 225.85 74.0852 225.85C72.5685 225.85 71.0752 226.375 69.6052 227.425C68.9052 227.939 68.3218 228.662 67.8552 229.595C67.3885 230.529 67.1552 231.59 67.1552 232.78C67.1552 233.947 67.3885 234.997 67.8552 235.93C68.3218 236.864 68.9168 237.599 69.6402 238.135C71.0635 239.162 72.5452 239.675 74.0852 239.675C74.8085 239.675 75.4852 239.582 76.1152 239.395C76.7685 239.209 77.2352 239.022 77.5152 238.835ZM107.01 220.39C108.153 221.184 108.725 221.954 108.725 222.7C108.725 223.144 108.457 223.762 107.92 224.555L100.36 235.86V242.545C100.36 243.082 100.337 243.49 100.29 243.77C100.267 244.027 100.162 244.33 99.975 244.68C99.7884 245.03 99.4734 245.275 99.03 245.415C98.5867 245.555 97.9917 245.625 97.245 245.625C96.4984 245.625 95.9034 245.555 95.46 245.415C95.0167 245.275 94.7017 245.03 94.515 244.68C94.3284 244.307 94.2117 243.992 94.165 243.735C94.1417 243.455 94.13 243.035 94.13 242.475V235.86L86.57 224.555C86.0334 223.762 85.765 223.144 85.765 222.7C85.765 221.954 86.2784 221.242 87.305 220.565C88.3317 219.865 89.0667 219.515 89.51 219.515C89.9534 219.515 90.3034 219.609 90.56 219.795C90.9567 220.052 91.3767 220.53 91.82 221.23L97.245 229.91L102.67 221.23C103.113 220.53 103.498 220.075 103.825 219.865C104.152 219.632 104.525 219.515 104.945 219.515C105.388 219.515 106.077 219.807 107.01 220.39ZM126.321 238.835L126.951 238.38C127.744 237.914 128.304 237.68 128.631 237.68C129.354 237.68 130.136 238.334 130.976 239.64C131.489 240.457 131.746 241.11 131.746 241.6C131.746 242.09 131.583 242.499 131.256 242.825C130.953 243.152 130.591 243.444 130.171 243.7C129.751 243.957 129.343 244.202 128.946 244.435C128.573 244.669 127.791 244.972 126.601 245.345C125.411 245.719 124.256 245.905 123.136 245.905C122.039 245.905 120.919 245.765 119.776 245.485C118.656 245.182 117.489 244.692 116.276 244.015C115.086 243.315 114.013 242.475 113.056 241.495C112.099 240.492 111.306 239.22 110.676 237.68C110.069 236.117 109.766 234.425 109.766 232.605C109.766 230.785 110.069 229.14 110.676 227.67C111.283 226.177 112.053 224.952 112.986 223.995C113.943 223.015 115.028 222.199 116.241 221.545C118.528 220.285 120.826 219.655 123.136 219.655C124.233 219.655 125.341 219.83 126.461 220.18C127.604 220.507 128.468 220.845 129.051 221.195L129.891 221.685C130.311 221.942 130.638 222.152 130.871 222.315C131.478 222.805 131.781 223.365 131.781 223.995C131.781 224.602 131.536 225.244 131.046 225.92C130.136 227.18 129.319 227.81 128.596 227.81C128.176 227.81 127.581 227.554 126.811 227.04C125.831 226.247 124.524 225.85 122.891 225.85C121.374 225.85 119.881 226.375 118.411 227.425C117.711 227.939 117.128 228.662 116.661 229.595C116.194 230.529 115.961 231.59 115.961 232.78C115.961 233.947 116.194 234.997 116.661 235.93C117.128 236.864 117.723 237.599 118.446 238.135C119.869 239.162 121.351 239.675 122.891 239.675C123.614 239.675 124.291 239.582 124.921 239.395C125.574 239.209 126.041 239.022 126.321 238.835ZM141.641 240.375H151.161C151.931 240.375 152.491 240.469 152.841 240.655C153.191 240.819 153.424 241.087 153.541 241.46C153.658 241.834 153.716 242.335 153.716 242.965C153.716 243.572 153.658 244.062 153.541 244.435C153.424 244.809 153.226 245.065 152.946 245.205C152.503 245.439 151.896 245.555 151.126 245.555H138.526C136.893 245.555 135.936 245.112 135.656 244.225C135.516 243.852 135.446 243.257 135.446 242.44V222.98C135.446 222.444 135.458 222.047 135.481 221.79C135.528 221.51 135.644 221.195 135.831 220.845C136.158 220.215 137.068 219.9 138.561 219.9C140.194 219.9 141.163 220.332 141.466 221.195C141.583 221.592 141.641 222.199 141.641 223.015V240.375ZM163.583 239.36H174.363C174.9 239.36 175.296 239.384 175.553 239.43C175.833 239.454 176.148 239.559 176.498 239.745C177.128 240.072 177.443 240.982 177.443 242.475C177.443 244.109 177.011 245.065 176.148 245.345C175.751 245.485 175.145 245.555 174.328 245.555H160.468C158.835 245.555 157.878 245.112 157.598 244.225C157.458 243.852 157.388 243.257 157.388 242.44V222.98C157.388 221.79 157.61 220.985 158.053 220.565C158.496 220.122 159.336 219.9 160.573 219.9H174.363C174.9 219.9 175.296 219.924 175.553 219.97C175.833 219.994 176.148 220.099 176.498 220.285C177.128 220.612 177.443 221.522 177.443 223.015C177.443 224.649 177.011 225.605 176.148 225.885C175.751 226.025 175.145 226.095 174.328 226.095H163.583V229.63H170.513C171.05 229.63 171.446 229.654 171.703 229.7C171.983 229.724 172.298 229.829 172.648 230.015C173.278 230.342 173.593 231.252 173.593 232.745C173.593 234.379 173.15 235.335 172.263 235.615C171.866 235.755 171.26 235.825 170.443 235.825H163.583V239.36Z" fill="#5769DF"/>
<path d="M120.19 87.8839C121.331 84.862 118.882 81.1383 114.72 79.5669C110.558 77.9954 106.259 79.1712 105.118 82.1931C103.977 85.215 106.426 88.9387 110.588 90.5102C114.75 92.0817 119.05 90.9058 120.19 87.8839Z" fill="#5769DF"/>
<path d="M89.8304 118.798C91.5359 118.74 92.8623 117.062 92.793 115.052C92.7237 113.042 91.2849 111.46 89.5794 111.519C87.8738 111.578 86.5474 113.255 86.6167 115.265C86.686 117.275 88.1248 118.857 89.8304 118.798Z" fill="#5769DF"/>
<path d="M91.4712 63.1828C91.2505 63.1828 90.9194 63.1828 90.6987 63.1828C73.9245 62.1896 58.3642 69.142 47.9906 80.8399C40.4864 89.227 35.6307 100.042 34.7478 112.071C33.7546 125.093 37.6171 137.343 44.7903 147.164C53.6188 159.304 67.5238 167.58 83.6359 168.794C85.9534 169.015 88.2708 169.015 90.478 168.905C116.633 167.47 138.262 146.723 140.249 119.906C142.456 90.772 120.605 65.2796 91.4712 63.1828ZM84.0773 146.833C74.5866 135.908 58.8056 134.032 48.6528 142.75C48.4321 142.971 48.101 143.191 47.8803 143.412C41.8106 134.584 38.4999 123.769 39.3828 112.292C40.1553 101.918 44.2385 92.4273 50.4185 85.0334C54.612 90.4409 62.0059 94.4137 70.7241 95.0759C84.7394 96.0691 96.7683 88.3441 97.5408 77.6395C97.7615 74.3288 96.8787 71.1285 95.2233 68.2592C119.723 72.232 137.49 94.3034 135.724 119.465C133.959 143.633 114.425 162.394 90.9194 164.049C90.6987 158.09 88.4916 151.91 84.0773 146.833Z" fill="#5769DF"/>
<path d="M109.018 120.679C107.142 120.679 105.266 120.237 103.831 119.465C103.279 119.134 103.169 118.472 103.61 118.03L103.721 117.92C104.052 117.478 104.603 117.478 105.045 117.699C106.811 118.692 109.238 118.913 111.666 118.361C113.542 117.92 114.977 117.037 115.75 115.823C116.081 115.382 116.522 115.271 116.963 115.492L117.074 115.602C117.626 115.823 117.846 116.596 117.515 117.037C116.412 118.692 114.425 119.906 112.108 120.568C111.004 120.568 110.011 120.679 109.018 120.679Z" fill="#5769DF"/>
<path d="M122.938 111.516C124.643 111.457 125.97 109.78 125.9 107.77C125.831 105.76 124.392 104.178 122.687 104.237C120.981 104.295 119.655 105.973 119.724 107.983C119.793 109.993 121.232 111.575 122.938 111.516Z" fill="#5769DF"/>
<path d="M141.241 67.5972C137.71 63.514 133.737 59.7618 129.433 56.5615C128.55 55.8994 127.336 56.1201 126.674 56.8926C125.902 57.8858 126.012 59.3204 127.005 59.9826C130.978 62.9622 134.73 66.3833 138.041 70.2457C149.959 84.0403 155.808 101.697 154.484 119.906C153.712 129.838 150.842 139.219 146.318 147.495C144.11 146.833 141.683 146.613 139.144 146.944C131.64 147.827 128.661 154.779 125.902 162.173C125.019 164.49 123.032 169.236 121.708 173.319C121.267 174.754 120.825 176.188 120.604 177.402C120.494 177.402 120.494 177.513 120.384 177.513C120.384 177.844 120.384 178.175 120.384 178.395C120.384 178.506 120.384 178.726 120.384 178.837C120.384 178.837 120.494 178.837 120.494 178.726C120.605 178.947 120.715 179.278 120.825 179.389C122.591 181.154 135.503 176.188 138.593 174.754C145.876 171.553 155.919 163.718 155.036 155.883C154.815 154.338 154.374 153.013 153.822 151.799C152.829 150.365 151.835 154.117 146.538 158.421C140.469 163.387 143.779 158.862 144.552 157.979C145.104 157.207 150.842 152.351 150.29 148.93C154.925 140.212 157.905 130.501 158.678 120.127C160.112 101.035 153.932 82.2746 141.241 67.5972Z" fill="#5769DF"/>
<path d="M101.403 183.362C100.962 182.479 100.079 181.927 99.086 182.148C96.2167 182.7 93.2371 183.031 90.1471 183.251C87.1675 183.362 84.1878 183.362 81.2082 183.141C63.2201 181.817 46.7769 173.54 34.9687 160.076C36.8448 157.869 38.1691 155.11 38.8312 152.02C40.3762 144.516 34.6377 139.55 28.4577 134.694C26.4712 133.149 22.4984 129.618 18.967 127.08C17.2013 125.866 15.6563 124.762 14.332 124.321C13.4492 123.99 12.787 123.879 12.3456 124.1C10.0281 125.204 10.9109 138.998 11.242 142.419C12.0145 150.365 16.3184 162.284 24.1538 163.829C25.6988 164.16 27.1334 164.16 28.4577 163.939C30.113 163.387 26.8023 161.29 24.3745 155C23.0502 151.689 23.0502 150.807 23.4916 150.917C24.8159 153.234 26.2505 155.552 27.9059 157.759C40.4866 174.975 59.9094 185.79 81.0979 187.335C82.8636 187.445 84.7396 187.555 86.5053 187.555C87.8296 187.555 89.2643 187.555 90.5885 187.445C93.7889 187.224 96.9892 186.893 100.079 186.231C101.183 186.01 101.955 184.576 101.403 183.362Z" fill="#5769DF"/>
<path d="M83.9667 35.1523C76.2417 33.1659 63.5507 33.1659 59.3571 39.8977C58.5846 41.2219 58.0328 42.5462 57.8121 43.8705C57.7018 45.6362 60.7917 43.2084 67.6339 43.098C72.5999 42.9877 72.2688 43.5394 71.0549 44.0912C69.9514 44.3119 68.7374 44.643 67.6339 44.9741C65.4267 45.1948 61.0125 45.8569 59.2467 47.733C48.8732 51.9265 39.6032 58.3272 31.9886 66.8247C23.1601 76.7568 17.3112 88.6753 14.9937 101.697C14.773 103.022 15.7662 104.236 17.0905 104.236C18.0837 104.236 18.9665 103.463 19.1872 102.47C21.3944 90.2203 26.9122 78.964 35.2993 69.4733C42.1414 61.8587 50.4182 55.8994 59.6882 52.0369C61.1228 54.244 63.1092 56.3408 65.5371 57.7755C72.0481 61.7483 78.6695 58.1065 85.4013 54.0233C87.7188 52.5887 92.7952 49.9401 96.437 47.2916C98.2027 46.0776 99.7477 44.7534 100.41 43.7601C100.741 43.3187 100.851 42.8773 100.851 42.4359C100.52 40.008 87.2774 36.0352 83.9667 35.1523Z" fill="#5769DF"/>
</svg>
